<svg viewBox="0 0 330.0000305175781 200.00001525878906" xmlns="http://www.w3.org/2000/svg"><g><g><g><g><g><line x1="63.984375" y1="177" x2="58.984375" y2="177" style="visibility: inherit;" fill="rgb(0, 0, 0)" stroke="rgb(204, 204, 204)" stroke-width="1px"></line><line x1="63.984375" y1="160.9090909090909" x2="58.984375" y2="160.9090909090909" style="visibility: inherit;" fill="rgb(0, 0, 0)" stroke="rgb(204, 204, 204)" stroke-width="1px"></line><line x1="63.984375" y1="144.8181818181818" x2="58.984375" y2="144.8181818181818" style="visibility: inherit;" fill="rgb(0, 0, 0)" stroke="rgb(204, 204, 204)" stroke-width="1px"></line><line x1="63.984375" y1="128.72727272727272" x2="58.984375" y2="128.72727272727272" style="visibility: inherit;" fill="rgb(0, 0, 0)" stroke="rgb(204, 204, 204)" stroke-width="1px"></line><line x1="63.984375" y1="112.63636363636364" x2="58.984375" y2="112.63636363636364" style="visibility: inherit;" fill="rgb(0, 0, 0)" stroke="rgb(204, 204, 204)" stroke-width="1px"></line><line x1="63.984375" y1="96.54545454545455" x2="58.984375" y2="96.54545454545455" style="visibility: inherit;" fill="rgb(0, 0, 0)" stroke="rgb(204, 204, 204)" stroke-width="1px"></line><line x1="63.984375" y1="80.45454545454547" x2="58.984375" y2="80.45454545454547" style="visibility: inherit;" fill="rgb(0, 0, 0)" stroke="rgb(204, 204, 204)" stroke-width="1px"></line><line x1="63.984375" y1="64.36363636363639" x2="58.984375" y2="64.36363636363639" style="visibility: inherit;" fill="rgb(0, 0, 0)" stroke="rgb(204, 204, 204)" stroke-width="1px"></line><line x1="63.984375" y1="48.27272727272728" x2="58.984375" y2="48.27272727272728" style="visibility: inherit;" fill="rgb(0, 0, 0)" stroke="rgb(204, 204, 204)" stroke-width="1px"></line><line x1="63.984375" y1="32.18181818181819" x2="58.984375" y2="32.18181818181819" style="visibility: inherit;" fill="rgb(0, 0, 0)" stroke="rgb(204, 204, 204)" stroke-width="1px"></line><line x1="63.984375" y1="16.090909090909093" x2="58.984375" y2="16.090909090909093" style="visibility: inherit;" fill="rgb(0, 0, 0)" stroke="rgb(204, 204, 204)" stroke-width="1px"></line><line x1="63.984375" y1="0" x2="58.984375" y2="0" style="visibility: inherit;" fill="rgb(0, 0, 0)" stroke="rgb(204, 204, 204)" stroke-width="1px"></line></g><g transform="translate(53.984375, 0)"><text x="0" y="177" dx="0em" dy="0.3em" style="text-anchor: end; visibility: hidden; font-family: &quot;Helvetica Neue&quot;, sans-serif; font-size: 13.3333px; font-weight: 200;" fill="rgb(50, 49, 63)" stroke="none" stroke-width="1px">-0.05</text><text x="0" y="160.9090909090909" dx="0em" dy="0.3em" style="text-anchor: end; visibility: inherit; font-family: &quot;Helvetica Neue&quot;, sans-serif; font-size: 13.3333px; font-weight: 200;" fill="rgb(50, 49, 63)" stroke="none" stroke-width="1px">0</text><text x="0" y="144.8181818181818" dx="0em" dy="0.3em" style="text-anchor: end; visibility: hidden; font-family: &quot;Helvetica Neue&quot;, sans-serif; font-size: 13.3333px; font-weight: 200;" fill="rgb(50, 49, 63)" stroke="none" stroke-width="1px">0.05</text><text x="0" y="128.72727272727272" dx="0em" dy="0.3em" style="text-anchor: end; visibility: inherit; font-family: &quot;Helvetica Neue&quot;, sans-serif; font-size: 13.3333px; font-weight: 200;" fill="rgb(50, 49, 63)" stroke="none" stroke-width="1px">0.1</text><text x="0" y="112.63636363636364" dx="0em" dy="0.3em" style="text-anchor: end; visibility: hidden; font-family: &quot;Helvetica Neue&quot;, sans-serif; font-size: 13.3333px; font-weight: 200;" fill="rgb(50, 49, 63)" stroke="none" stroke-width="1px">0.15</text><text x="0" y="96.54545454545455" dx="0em" dy="0.3em" style="text-anchor: end; visibility: inherit; font-family: &quot;Helvetica Neue&quot;, sans-serif; font-size: 13.3333px; font-weight: 200;" fill="rgb(50, 49, 63)" stroke="none" stroke-width="1px">0.2</text><text x="0" y="80.45454545454547" dx="0em" dy="0.3em" style="text-anchor: end; visibility: hidden; font-family: &quot;Helvetica Neue&quot;, sans-serif; font-size: 13.3333px; font-weight: 200;" fill="rgb(50, 49, 63)" stroke="none" stroke-width="1px">0.25</text><text x="0" y="64.36363636363639" dx="0em" dy="0.3em" style="text-anchor: end; visibility: inherit; font-family: &quot;Helvetica Neue&quot;, sans-serif; font-size: 13.3333px; font-weight: 200;" fill="rgb(50, 49, 63)" stroke="none" stroke-width="1px">0.3</text><text x="0" y="48.27272727272728" dx="0em" dy="0.3em" style="text-anchor: end; visibility: hidden; font-family: &quot;Helvetica Neue&quot;, sans-serif; font-size: 13.3333px; font-weight: 200;" fill="rgb(50, 49, 63)" stroke="none" stroke-width="1px">0.35</text><text x="0" y="32.18181818181819" dx="0em" dy="0.3em" style="text-anchor: end; visibility: inherit; font-family: &quot;Helvetica Neue&quot;, sans-serif; font-size: 13.3333px; font-weight: 200;" fill="rgb(50, 49, 63)" stroke="none" stroke-width="1px">0.4</text><text x="0" y="16.090909090909093" dx="0em" dy="0.3em" style="text-anchor: end; visibility: hidden; font-family: &quot;Helvetica Neue&quot;, sans-serif; font-size: 13.3333px; font-weight: 200;" fill="rgb(50, 49, 63)" stroke="none" stroke-width="1px">0.45</text><text x="0" y="0" dx="0em" dy="0.3em" style="text-anchor: end; visibility: hidden; font-family: &quot;Helvetica Neue&quot;, sans-serif; font-size: 13.3333px; font-weight: 200;" fill="rgb(50, 49, 63)" stroke="none" stroke-width="1px">0.5</text></g><line x1="63.984375" y1="0" x2="63.984375" y2="177" fill="rgb(0, 0, 0)" stroke="rgb(204, 204, 204)" stroke-width="1px"></line></g></g><g transform="translate(63, 0)" clip-path="url(#clip_0)"><clipPath id="clip_0"><rect width="266" height="176"></rect></clipPath><g><g><g><line x1="0" y1="0" x2="0" y2="177" fill="rgb(0, 0, 0)" stroke="rgb(60, 60, 60)" stroke-width="1px" opacity="0.25"></line><line x1="24.183238636363637" y1="0" x2="24.183238636363637" y2="177" fill="rgb(0, 0, 0)" stroke="rgb(60, 60, 60)" stroke-width="1px" opacity="0.25"></line><line x1="48.36647727272727" y1="0" x2="48.36647727272727" y2="177" fill="rgb(0, 0, 0)" stroke="rgb(60, 60, 60)" stroke-width="1px" opacity="0.25"></line><line x1="72.5497159090909" y1="0" x2="72.5497159090909" y2="177" fill="rgb(0, 0, 0)" stroke="rgb(60, 60, 60)" stroke-width="1px" opacity="0.25"></line><line x1="96.73295454545455" y1="0" x2="96.73295454545455" y2="177" fill="rgb(0, 0, 0)" stroke="rgb(60, 60, 60)" stroke-width="1px" opacity="0.25"></line><line x1="120.91619318181817" y1="0" x2="120.91619318181817" y2="177" fill="rgb(0, 0, 0)" stroke="rgb(60, 60, 60)" stroke-width="1px" opacity="0.25"></line><line x1="145.0994318181818" y1="0" x2="145.0994318181818" y2="177" fill="rgb(0, 0, 0)" stroke="rgb(60, 60, 60)" stroke-width="1px" opacity="0.25"></line><line x1="169.28267045454544" y1="0" x2="169.28267045454544" y2="177" fill="rgb(0, 0, 0)" stroke="rgb(60, 60, 60)" stroke-width="1px" opacity="0.25"></line><line x1="193.4659090909091" y1="0" x2="193.4659090909091" y2="177" fill="rgb(0, 0, 0)" stroke="rgb(60, 60, 60)" stroke-width="1px" opacity="0.25"></line><line x1="217.64914772727275" y1="0" x2="217.64914772727275" y2="177" fill="rgb(0, 0, 0)" stroke="rgb(60, 60, 60)" stroke-width="1px" opacity="0.25"></line><line x1="241.83238636363635" y1="0" x2="241.83238636363635" y2="177" fill="rgb(0, 0, 0)" stroke="rgb(60, 60, 60)" stroke-width="1px" opacity="0.25"></line><line x1="266.015625" y1="0" x2="266.015625" y2="177" fill="rgb(0, 0, 0)" stroke="rgb(60, 60, 60)" stroke-width="1px" opacity="0.25"></line></g><g><line x1="0" y1="177" x2="266.015625" y2="177" fill="rgb(0, 0, 0)" stroke="rgb(60, 60, 60)" stroke-width="1px" opacity="0.25"></line><line x1="0" y1="160.9090909090909" x2="266.015625" y2="160.9090909090909" fill="rgb(0, 0, 0)" stroke="rgb(60, 60, 60)" stroke-width="1px" opacity="0.25"></line><line x1="0" y1="144.8181818181818" x2="266.015625" y2="144.8181818181818" fill="rgb(0, 0, 0)" stroke="rgb(60, 60, 60)" stroke-width="1px" opacity="0.25"></line><line x1="0" y1="128.72727272727272" x2="266.015625" y2="128.72727272727272" fill="rgb(0, 0, 0)" stroke="rgb(60, 60, 60)" stroke-width="1px" opacity="0.25"></line><line x1="0" y1="112.63636363636364" x2="266.015625" y2="112.63636363636364" fill="rgb(0, 0, 0)" stroke="rgb(60, 60, 60)" stroke-width="1px" opacity="0.25"></line><line x1="0" y1="96.54545454545455" x2="266.015625" y2="96.54545454545455" fill="rgb(0, 0, 0)" stroke="rgb(60, 60, 60)" stroke-width="1px" opacity="0.25"></line><line x1="0" y1="80.45454545454547" x2="266.015625" y2="80.45454545454547" fill="rgb(0, 0, 0)" stroke="rgb(60, 60, 60)" stroke-width="1px" opacity="0.25"></line><line x1="0" y1="64.36363636363639" x2="266.015625" y2="64.36363636363639" fill="rgb(0, 0, 0)" stroke="rgb(60, 60, 60)" stroke-width="1px" opacity="0.25"></line><line x1="0" y1="48.27272727272728" x2="266.015625" y2="48.27272727272728" fill="rgb(0, 0, 0)" stroke="rgb(60, 60, 60)" stroke-width="1px" opacity="0.25"></line><line x1="0" y1="32.18181818181819" x2="266.015625" y2="32.18181818181819" fill="rgb(0, 0, 0)" stroke="rgb(60, 60, 60)" stroke-width="1px" opacity="0.25"></line><line x1="0" y1="16.090909090909093" x2="266.015625" y2="16.090909090909093" fill="rgb(0, 0, 0)" stroke="rgb(60, 60, 60)" stroke-width="1px" opacity="0.25"></line><line x1="0" y1="0" x2="266.015625" y2="0" fill="rgb(0, 0, 0)" stroke="rgb(60, 60, 60)" stroke-width="1px" opacity="0.25"></line></g></g></g><g><g><line x1="0" y1="160.9090909090909" x2="266.015625" y2="160.9090909090909" fill="rgb(0, 0, 0)" stroke="rgb(153, 153, 153)" stroke-width="1.5px"></line></g></g><g><g><line x1="24.183238636363637" y1="0" x2="24.183238636363637" y2="177" fill="rgb(0, 0, 0)" stroke="rgb(153, 153, 153)" stroke-width="1.5px"></line></g></g><g><g><g><g><g><path stroke="rgb(255, 112, 67)" stroke-width="2px" d="M24.47948330965909,16.100935448299765L25.308968394886364,20.142930839672715L25.700736860795452,17.85870383271009L26.672903053977272,27.082616546144834L26.781727627840908,28.14122512992475L26.955846946022724,28.878270105890948L27.42016512784091,29.78565000309527L27.577356178977272,31.87416882689817L28.34880149147727,31.910167834981905L28.53622159090909,31.646616898690553L29.64623224431818,31.432222450901236L30.11296875,31.503531881827342L30.28708806818182,31.796782368204504L30.342709517045456,32.273986346372425L30.73810546875,32.472277104855266L31.520433238636365,31.09224131987932L32.37651988636364,29.873765376864725L33.09959872159091,28.793696151991952L33.42849076704545,27.828270311582656L33.62558416193182,27.121870626236017L34.21686434659091,26.620431032840912L34.28215909090909,26.033532198209798L34.933897372159095,25.49872482353976L35.26399857954545,24.59021264249938L35.39458806818182,24.16121815844369L35.462301136363635,23.50377277015079L35.71985262784091,23.66217457979576L36.23495561079546,23.187468416547603L36.696855468749995,23.721670935115185L36.752476917613635,24.322177274939946L37.03058416193181,24.890415949920822L37.64846590909091,25.309053624211742L37.98219460227273,25.812035468899467L38.27360262784091,25.528406509338225L39.23851384943182,25.15595690634015L39.62302734375,25.012469590228307L39.94345525568182,24.877468603405646L40.38721768465909,24.74950134159846L40.64235085227273,24.53024125792919L40.768103693181814,24.41975875211631L41.95429154829545,24.39785284831774L42.27109197443182,24.200609781663218L42.336386718750006,23.921366540233066L42.65439630681818,23.837737146329175L42.971196732954546,23.668000518931677L43.09574041193182,23.683243687759614L43.603588423295456,23.523234355850775L43.66888316761364,23.283593634043598L44.36294211647727,23.2251525490054L44.933666548295456,23.08501798365728L45.44030539772727,22.949173398638493L46.45116477272727,23.06810130912271L46.69299715909091,23.098314737829185L47.319343039772725,23.04497217951618L50.083487215909095,22.917521671621017L50.14636363636364,22.87500501760462L50.649375000000006,22.833759594168754L51.214053622159085,22.871827950360853L51.339806463068186,22.83154859798057L51.401473721590904,22.86810731114349L51.59010298295454,22.752475235953426L51.96494318181818,22.641489119976285L52.534458451704545,22.608572409100418L52.72187855113636,22.650772977061735L52.78475497159091,22.618165135806862L53.41351917613637,22.58661803332103L54.473954190340905,22.62852305061861L54.59970703125,22.596828445452502L55.78952237215909,22.565541297704783L55.915275213068185,22.465248200520932L56.10027698863637,22.50901735374302L56.60207919034091,22.48110190588949L56.97208274147727,22.454501329009247L57.09541725852272,22.49769319978563L57.28404651988636,22.471482219072954L57.66251420454545,22.445865173035116L57.97931463068182,22.351639169993206L58.599614701704546,22.39620541991502L58.97203657670454,22.43985315258925L59.31906605113637,22.749963426714913L59.51374112215909,23.51601808915251L59.80514914772727,24.127863372936872L59.90309126420454,24.919843949464507L60.050609019886366,25.491874893446152L60.15338778409091,25.98178760671695L60.20296342329545,26.587873877243595L60.46172407670455,27.237483413556816L60.51129971590909,27.808605357027744L60.96594460227273,28.298950238678913L61.373432173295456,28.903823612202757L61.62735617897727,29.364744319841492L61.88732599431818,29.75250335171313L61.991313920454544,30.118458381481247L62.61282315340909,30.355881399034615L63.0191015625,30.398572436627262L63.07714133522727,30.44019501949785L63.19563920454546,30.41837708625033L63.37217684659091,30.390494306388632L63.48946555397727,30.43179755458931L64.17626953125,30.533907764534206L64.34555220170455,30.69491541626755L64.57045632102273,30.85183156201856L64.72281072443182,31.189580459125608L64.88604758522727,31.27336699072697L65.10369673295455,31.477195497726626L65.15689985795454,31.73585312641856L65.37696732954545,31.806423164245274L65.65628373579545,31.93579545692367L66.65988813920455,32.12424485078938L67.10365056818182,32.306022783885794L67.32976384943183,32.36326991931091L67.54862215909091,32.598523222728204L67.59819779829546,33.007454838403646L67.94401811079545,33.346678988040395L68.38898970170455,33.737009177992434L68.58729225852272,34.177487231341274L68.78317649147726,34.54689440052374L68.97664240056818,35.02946538615055L69.0250088778409,35.435588391151384L69.22210227272727,35.83488033089861L69.66223721590909,36.22484922370376L69.85812144886363,36.60543709790247L69.90769708806819,36.91850276691446L69.95727272727274,37.22460096098055L70.05521484375,37.58123031799701L70.10479048295454,37.87169299002838L70.39982599431819,38.213272051130986L70.5945010653409,38.48885080285163L70.64528586647727,38.70011902637586L70.74080965909091,39.079926832736675L70.98385120738637,39.33521580249794L71.0322176846591,39.64270209566945L71.08058416193182,39.94311254868094L71.27525923295454,40.17923003237712L71.46993430397727,40.4667623535328L71.71176669034091,40.74807989132145L71.76013316761363,41.023209303102476L71.80849964488635,41.29194820167049L72.92939275568182,41.497560367575346L73.12044034090908,41.81290497143877L73.2195916193182,41.95004348020325L73.4674698153409,42.08412766905292L74.71169744318182,42.04373950406054L74.81810369318183,42.06197000852424L75.08291015625,42.07989949500998L75.18689808238636,42.164692426844454L75.39608309659091,42.18053564867742L75.50369850852273,42.19547146343214L75.92448686079545,42.15397460180705L76.23886896306819,42.22616880757042L76.4468448153409,42.29642405158796L76.7987109375,42.58721497860245L76.89423473011364,42.759482841349694L77.20740767045454,42.762720456893334L77.31381392045455,42.76555138524958L77.47463245738636,42.768504542028666L77.63182350852273,42.77111191414809L78.05744850852273,42.774168920038505L78.11065163352272,42.776778457542235L78.26905184659091,42.77937201117379L78.63905539772728,42.83760090201838L78.78052734375001,43.28347984525644L79.15778586647728,43.72135550792976L79.32706853693182,44.20551141354949L79.46128551136364,44.40096498075235L79.51327947443183,44.4239502144618L79.99331676136364,44.337355132244255L80.04651988636364,44.30756743836807L80.26900568181819,44.168286780577375L80.37783025568181,44.08688325398296L80.43345170454546,43.951662728033796L80.65351917613636,43.87479067205669L80.709140625,43.74440589021705L80.87358664772727,43.61629723476142L80.92920809659091,43.491274832949415L81.3669247159091,43.47944000958066L81.58457386363636,43.46766166647467L81.69581676136363,43.40037219222546L81.80464133522727,43.334988727383376L81.85905362215908,43.27134120136972L82.34392755681819,43.208701430592555L82.50474609375,43.14720500957864L82.93520774147727,43.087329197644294L83.04282315340909,43.02879018967582L83.58694602272728,42.9710628938013L83.96420454545455,42.96970265486712L84.66310014204545,42.96803266808021L84.98957386363637,42.8571111732596L85.1516015625,42.80357970955595L85.25921697443181,42.757032519201545L85.47686612215908,42.759939495506615L85.69209694602273,42.818139852083334L85.79971235795455,42.76540449380673L86.06572798295454,42.76823853000545L86.12014026988636,42.716521895776765L86.59775923295454,42.77521268454504L86.92060546875,42.723310856513024L87.1394637784091,42.72709493757222L87.19387606534092,42.67617954154329L87.73920809659091,42.626323386961616L88.01126953125,42.63201970715849L88.75974076704546,42.692188800178144L88.86735617897727,42.642070623481885L89.96043856534091,42.48394508748393L90.01485085227273,42.43923720266949L90.23733664772728,42.339921668310694L90.29053977272729,42.351864466468385L90.3449520596591,42.30842863587736L91.32558238636364,42.21182882617441L91.99183061079546,42.11669246377289L92.0474520596591,42.02412387765287L92.3799715909091,41.93337012293489L92.49000532670455,41.84473956293678L92.76448508522728,41.812837063601194L94.20459694602272,41.83489147484309L94.31463068181819,41.80221221803106L94.86359019886365,41.71620515939915L95.46091619318183,41.685702169461564L95.62294389204546,41.65625848817692L95.78738991477272,41.57328825204405L96.87321732954545,41.599961498233085L97.1960635653409,41.57210011783232L97.57815873579545,41.5449235655135L97.90463245738636,41.518273092161024L98.45117365056818,41.49248494405978L98.72081676136364,41.466981993584426L98.77401988636365,41.496338390956254L98.93846590909091,41.416438005533024L99.38101917613636,41.39150426219467L99.54788352272728,41.31378570832655L99.71474786931817,41.23792881761122L99.8816122159091,41.1095957129923L99.93723366477272,41.0373517682481L100.92874644886363,40.96680384263769L101.75339488636364,40.951908986016065L102.57925248579546,40.883321145670436L102.74490767045455,40.815948643100455L102.80052911931818,40.750009235007354L102.91177201704545,40.63167078921913L102.96497514204546,40.67727122503919L104.16325461647727,40.66813276440672L104.43289772727273,40.65920577279374L104.59734375,40.65036531247429L104.8174112215909,40.53417359280428L104.92502663352272,40.52796047601507L105.1414666193182,40.57528537365107L105.36032492897728,40.51475837473896L105.57797407670455,40.508953065607926L106.94190873579545,40.448926567011426L106.9975301846591,40.39177631505942L107.60452947443181,40.38750803155085L108.04224609375001,40.384301053684226L108.09544921874999,40.43546855873848L108.26231356534092,40.377389471238416L108.374765625,40.268862816653694L108.43038707386364,40.21198249396352L108.92614346590909,40.15843962880831L109.31186612215909,40.159694803761994L110.10870383522726,40.16120172609888L110.16190696022727,40.21631476225056L110.31788884943181,40.378237053201104L111.55607066761364,40.595364938867476L111.60322798295455,40.906793106201434L111.70358842329546,41.05474717574285L112.04578125,41.308628724573026L112.39522904829546,41.50219658229278L112.44480468750001,41.692075321951506L112.89461292613636,41.878204638309256L113.09049715909092,42.11418987933507L113.19085759943182,42.291718691418026L113.39399680397727,42.35790243763009L113.8208309659091,42.58447129365993L114.17390625,42.75260852298268L114.22348188920454,42.91726020122729L114.47136008522727,43.0785015625992L114.87763849431818,43.23672264764613L115.32744673295454,43.33753792169378L115.37702237215909,43.49042657826783L115.57653409090909,43.58620828321119L115.78813742897728,44.056987837476214L115.91630859375,44.46454438136817L116.00457741477273,44.862476848154216L116.13879438920455,45.200029270689384L116.27301136363636,45.53098552855292L116.44713068181818,45.90780612821422L116.79657848011364,46.27820580190283L117.15086292613637,46.58730955112554L117.32740056818183,46.94309385844798L117.45799005681818,47.2926644823589L117.7651171875,47.634586715525955L118.15204900568182,48.023820939978464L118.32858664772728,48.29772971484229L118.37211647727273,48.62028116912569L118.41564630681819,48.935733475685L118.5027059659091,49.24500222607614L118.63208629261364,49.54778123035274L118.9283309659091,49.89863495353755L119.30075284090908,50.24244670043126L119.74572443181819,50.41799182281335L119.90654296875,50.96637278194622L119.9790926846591,51.557457638119416L120.10242720170454,51.80781195094782L120.31886718749999,52.059574673629854L120.44462002840909,52.35992758930793L120.48814985795454,52.601935999860615L120.5256338778409,53.1051198139439L120.717890625,53.48829332257834L121.36841974431819,53.650241079250534L121.78316228693183,53.8112171074978L122.06006036931818,53.8075756921218L122.40346235795454,53.911744594189585L122.44820134943183,54.06730205566137L122.86415305397728,54.16660277349634L123.18458096590908,54.26288141361317L123.70935724431818,54.518682816543816L124.03341264204546,54.50103457966122L124.1289364346591,54.4844102770938L124.32240234375,54.52109212710721L124.78913884943181,54.66445251272624L124.83871448863637,54.59073132051202L124.98865056818182,54.464378523335995L125.21355468750001,55.03884985683504L125.30303267045454,56.08194130654786L125.63434303977273,57.053528171101036L125.71172940340908,57.9518868445369L125.86650213068181,58.83232155310151L125.89189453125,59.74877672987836L125.91728693181818,60.64673161498298L126.79272017045454,61.526830525460426L126.94386541193181,62.38920695879207L127.12886718749999,63.18067752621084L127.28726740056818,64.0098931435062L127.39367365056819,64.82256877627796L127.44808593750001,65.5652173559343L127.5012890625,66.23929282281526L127.65968927556818,66.95365033748945L127.73828480113637,67.70424998394945L127.78906960227273,68.44258300899706L127.86766512784091,69.11242470777641L127.94505149147727,69.87647644168959L128.02364701704545,70.51778946451L128.26064275568183,71.36203303081452L128.31384588068184,71.9197370890571L128.62701882102272,72.57524827717566L128.65362038352274,73.16111575478547L128.68022194602273,73.73655356563292L129.04780717329544,74.3001861076635L129.15300426136363,74.85695769727256L129.2569921875,75.45129523237793L129.36098011363637,75.98065265393056L129.4649680397727,76.499491592307L129.5157528409091,77.06163545642131L129.5677468039773,77.55875342128698L129.77693181818182,78.04617771344121L129.82892578125,78.57761871000211L129.90873046875,79.04447310474677L129.98732599431818,79.5023382391703L130.06350319602274,80.00451708276503L130.19288352272727,80.49857776472852L130.68259410511365,80.9807660719027L130.99576704545453,81.39945763281858L131.02236860795455,81.81000996125925L131.10338245738637,82.21231083982546L131.12998401988636,82.60644712847579L131.18318714488635,82.99275019461378L131.23639026988636,83.37356469402422L131.34279651988635,83.74461423143556L131.44678444602272,84.16172774321117L131.57979225852273,84.5168620676721L131.63420454545454,84.86503920107697L131.82041548295456,85.20611714639277L132.03564630681817,85.54049384325575L132.14326171875,85.86766432121891L132.27626953125,86.13510679522894L132.32826349431818,86.44560852153501L132.35365589488637,86.8089197620643L132.75630681818183,87.1112071119238L132.83973899147728,87.35391006083138L132.9207528409091,87.64502114228499L132.94856356534092,87.87693545593343L133.05617897727274,88.15768396328944L133.11059126420457,88.43315643781068L133.24359907670456,88.70305837897158L133.45520241477274,88.96737963041392L133.48301313920456,89.17278429763172L133.58700106534093,89.48137705805885L133.6414133522727,89.67681479372993L133.69703480113637,89.81433509992189L133.81069602272726,90.00258719007076L134.07429332386366,90.29446175042399L134.12870561079546,90.47325367307054L134.18069957386365,90.70214943167353L134.20730113636364,90.9264541919422L134.31612571022728,91.14711379555622L134.39351207386363,91.36235417573047L134.60511541193182,91.57343582754075L134.71393998579546,91.72764877671322L135.0899893465909,91.93133092151116L135.19760475852271,92.13094661050656L135.25201704545455,92.32669537646115L135.38623401988636,92.51827109273457L135.41283558238635,92.70600320853393L135.4660387073864,92.89026350226997L135.52045099431817,93.01623507169874L135.54826171874998,93.14053932965668L135.60267400568182,93.31601049751934L135.65708629261363,93.48784696494205L135.68489701704547,93.60268366254995L135.87594460227274,93.71523269405733L135.95695845170454,93.87917783677848L136.0730379971591,94.63321873823364L136.60990589488637,94.77865905471651L136.8855948153409,94.92125372879758L137.05366832386366,95.00263197685452L137.14072798295456,94.98005016917647L137.22053267045456,95.2267871955038L137.3051740056818,95.36053471468915L137.33056640625,95.54513501640788L137.3559588068182,95.7261150299961L137.6219744318182,95.90347335716666L137.65824928977273,95.59497971902435L137.68485085227272,95.72257480633424L137.73442649147728,95.95353457478409L138.05485440340908,96.07300066193399L138.08266512784093,96.13565318889167L138.13465909090908,96.30496519766372L138.3535174005682,96.36212655860845L138.6098597301136,96.36533819020448L139.07296875,96.48122275719379L139.45022727272726,96.58974680757325L139.5578426846591,96.69616852592637L139.5844442471591,96.80052001075975L139.63764737215908,96.95621884125889L139.85166903409092,97.00158274569634L139.9036629971591,97.15311215695525L140.01127840909092,97.30196306357135L140.26520241477272,97.50152148846892L140.46955078125,97.5360854271351L140.49736150568182,97.57016815325967L140.76942294034092,97.93139123912246L140.97135298295456,98.01102223950575L141.12975319602273,98.08907007372441L141.15635475852272,98.16541275527534L141.21076704545456,98.24022454583252L141.26517933238637,98.25998056123937L141.39818714488638,98.33272341360876L142.08136363636362,98.35056285144663L142.10917436079546,98.36791151088602L142.38244495738635,98.38543127810263L142.43564808238636,98.45624398067277L142.54447265625,98.52536779672006L142.57107421875,98.59286030635782L142.87215553977273,98.60555759933821L142.95558771306818,98.61803168322422L143.12245205965908,98.63027685669846L143.25908735795454,98.6422051381734L143.31591796875,98.65400779907316L143.3703302556818,98.71313678866488L143.42716086647727,98.66990499308938L143.67141157670454,98.73472649413965L143.7790269886364,98.79831031841297L143.8878515625,98.80676441059815L143.9410546875,98.86881379674752L144.02448686079546,98.87926034106287L144.26873757102274,98.88624939318638L144.29654829545453,98.8931912012523L144.56981889204545,99.00714288676492L144.6254403409091,99.06514454715001L144.9591690340909,99.12201016544824L144.98697975852275,99.12472917848932L145.0075355113636,99.44832294623369L145.1175692471591,99.44629523735526L145.22276633522728,99.4417783018089L145.39083984375,99.43749559155381L145.85999467329546,99.43347320996367L145.9422176846591,99.48301588538003L146.02806818181818,99.3189121461758L146.05587890625,99.3153701490712L146.28078302556818,99.26000853245544L146.44764737215908,99.25921760213083L146.61330255681816,99.31228460763158L146.74751953125,99.3641721710732L147.26866832386364,99.253650899692L147.37628373579545,99.36045603730722L147.4306960227273,99.41147115335066L147.56612215909092,99.46129330464571L147.70275745738635,99.5100232788471L148.02681285511366,100.10943553421714L148.18763139204543,100.1451625718946L148.55037997159093,100.18056949105588L148.8369513494318,100.27039353262005L148.85992542613639,100.46395030145862L148.94093927556818,100.49307802904991L149.10659446022726,100.4680457358337L149.29280539772728,100.44315465004911L149.32545276988637,100.20427281842233L149.35326349431818,100.18513521068293L149.38107421875,100.16571762661405L149.40767578125,100.20055458721083L149.65313565340907,100.18113690091738L150.26255326704546,100.05489262191126L150.28915482954545,100.0919559632166L150.31575639204544,100.12836641164846L150.50075816761364,100.11033102924686L150.80909446022727,100.0927663935566L150.86229758522728,100.12913100897829L151.17909801136364,100.11088538368499L151.20690873579545,100.0932839942369L151.28550426136366,100.23697317227773L151.3435440340909,100.05615345292249L151.37135475852273,100.03913076523513L151.42455788352274,100.13035046014647L151.93240589488636,100.16614005855548L152.15126420454544,100.04187334837181L152.22985973011362,100.132764092022L152.46927379261362,100.16833836692213L152.49345703125002,100.31031083728597L152.70626953124997,100.34199978076931L152.73287109375002,100.37917831356775L152.89248046875,100.40145136018188L152.97228515625,100.48518408489304L153.13189453125,100.5134049421094L153.18388849431818,100.5411006766089L153.23588245738637,100.56850785586163L153.68085404829546,100.64854259389212L153.73284801136364,100.6737421573354L153.75944957386363,100.69833143527644L153.78484197443183,100.77628562461989L154.0677858664773,100.7986547753766L154.32291903409092,100.87452728242982L154.53089488636365,100.94867596669332L154.9734481534091,100.96782221450316L155.15119495738637,100.98641940266899L155.17658735795456,101.05906727674038L155.25034623579546,101.18353727468094L155.67597123579546,101.1979851162463L155.78116832386362,101.21210677611028L155.91417613636364,101.22625060562379L155.96737926136362,101.24004009412779L156.0193732244318,101.30698131842719L156.0725763494318,101.37287437604334L156.1245703125,101.43706492273502L156.23097656250002,101.4464245346054L156.25636896306816,101.5093902119837L156.33980113636366,101.24933472283209L156.4909463778409,101.31619301597638L156.5441495028409,101.32821907632481L156.62153586647727,101.28626598744943L156.8283025568182,101.40623256324693L156.88876065340907,101.35999169797114L156.9165713778409,101.31718096065505L156.93349964488638,101.75879457642917L157.1499396306818,101.70815578024039L157.56468217329544,101.60475462529105L157.61909446022727,101.66478957834926L157.67834339488635,101.50862080713469L157.7327556818182,101.4631877859127L158.04351029829544,101.4663138044765L158.15958984375,101.36778411805612L158.53080255681817,101.2712361995787L158.64567294034092,101.17664710016906L159.19584161931817,101.08413723651087L159.63355823863637,101.04690977309983L159.66741477272728,100.7423109657589L159.86934481534092,100.44380753132768L159.90320134943184,100.15139495121052L159.96970525568182,99.86467192043946L160.07127485795453,99.58364002324595L160.23693004261364,99.3619946413411L160.36751953125,99.03747671929938L160.43523259943183,98.7729282523867L160.96968217329544,98.51380839245304L161.3384765625,98.26120091873703L161.5730539772727,98.01244671531002L161.60570134943183,97.8220163685148L161.83060546874998,97.58207364644198L161.93217507102273,97.34715995114551L162.7278036221591,97.1144722395932L162.82574573863639,96.94177694760151L163.05427734375,96.71910737722864L163.15342862215908,96.50104261619416L163.18728515625003,96.28747320567587L163.2525799005682,96.13180746567471L163.28401811079547,96.03320955328508L163.51496803977273,95.8289775015208L163.93333806818183,96.05587443925951L164.09415660511362,96.11938190914687L164.38798295454546,95.96680910567213L164.4496502130682,95.8176998292748L164.51615411931817,95.67165286331758L164.74226740056818,95.63563744103563L165.1691015625,95.54766391688253L165.23197798295453,95.4604232659951L165.42544389204545,95.26705664740689L165.68783203125,95.078402661898L165.8800887784091,95.05452989933924L165.91273615056818,94.92291654464545L166.07113636363638,94.84825181650793L166.2343732244318,94.72124189924767L166.4604865056818,94.5433589779125L166.7132013494318,94.42245628111017L166.8377450284091,94.4114492330269L166.96470703125001,94.34702180874372L167.37098544034092,94.23045237855888L167.43507102272727,94.16919807864275L167.49915660511363,94.05584717739129L167.59468039772727,93.99856216090294L167.75187144886362,93.9421099019902L168.28269353693182,93.88699587771794L168.44109375,93.83337267410047L169.01665482954544,93.78034862957676L169.1472443181818,93.67467660133879L169.24397727272728,93.57117193277875L169.40842329545455,93.46980403197028L169.63695490056818,93.42392087436923L169.76512606534092,93.27158336104408L169.8316299715909,93.12283508679033L170.00695845170455,93.76256091424268L170.02630504261364,94.2052577528658L170.16898615056817,94.14492751027245L170.37212535511364,94.1393322944573L170.55108132102274,94.13388255211646L170.63814098011363,94.23586112141196L170.81709694602273,94.28236128305133L171.14357066761363,94.3276747811806L171.20402876420457,94.31822598131797L171.49785511363638,94.30947745270461L171.58733309659092,94.30078113148275L171.64658203125,94.29203536433187L171.7940997869318,94.23379303971795L172.25720880681817,94.22640315215565L172.31645774147728,94.27267370930777L172.49420454545452,94.26450448066065L172.6090749289773,94.41771972146368L172.6707421875,94.29920161802625L173.08185724431817,94.29048754062978L173.4433966619318,94.22843885470279L173.5945419034091,94.22155311941712L173.95970880681816,94.21430262950132L173.99114701704548,94.15359178223409L174.17614879261365,94.14750016801521L174.20637784090908,94.14184238030758L174.62474786931818,94.13651076389966L174.74203657670455,94.13157513928306L174.80249467329546,94.12636983919771L174.8629527698864,94.1215812146201L174.9524307528409,94.11675447328781L175.04069957386363,94.11174478693096L175.31397017045455,94.09937957900112L175.48929865056817,94.14809658115117L175.5509659090909,94.19581602934214L175.88832208806818,94.08173964926054L175.91855113636365,94.07750871563029L176.10113458806816,94.07322841545923L176.31152876420455,94.12282042027516L177.03702592329546,94.06400141039548L177.22202769886363,94.00699322585962L177.26676669034092,94.64863328082915L177.90762251420455,94.57929397424061L177.99951882102275,94.5644864176264L178.12527166193183,94.49667899813312L178.1567098721591,94.43398373682456L178.18089311079544,94.6879302138414L178.3646857244318,94.67153162177667L178.45779119318183,94.6556165676222L178.51945845170454,94.5861840303666L178.79756569602273,94.57138666384301L179.01158735795454,94.45004080424876L179.15789595170455,94.33118775823715L179.40335582386365,94.26822060340233L179.52427201704543,94.26010381182067L179.64881569602272,94.19849149215696L180.04783913352273,94.1919256172937L180.10829723011364,94.23803867456314L180.19414772727274,94.17682997037825L180.55931463068183,94.17051864771844L180.68143998579546,94.0571292829677L180.83258522727272,93.99990697117664L180.89183416193183,94.05076166080956L181.19412464488636,94.04706099928765L181.24974609375,94.09725131783648L181.30899502840907,94.0925890204493L181.68988103693184,94.14165873398034L182.1675,94.18983452062564L182.31139026988635,94.23681181164123L182.5205752840909,94.22936779711036L183.24486328125,94.2757404842382L183.27267400568184,94.3746864618389L183.30290305397727,94.36455189698464L183.50725142045454,94.40840312498462L183.79503196022725,94.39750493501731L184.02840021306818,94.38647847638492L184.20131036931818,94.42984829866597L184.23033025568182,94.47178610461181L184.3476189630682,94.45954208863687L184.67046519886364,94.44731958045253L184.84579367897726,94.54259456859644L185.02354048295453,94.58280993358726L185.1142276278409,94.56841248080121L185.56524502840907,94.6079764455983L185.6849520596591,94.59315747331985L186.0126349431818,94.63207212272599L186.16136186079547,94.67033709252411L186.30887961647727,94.70777240671946L186.4249591619318,94.63715716226736L186.45518821022725,94.62199598013164L186.78287109375,94.60682602889995L186.81189098011362,94.64588527689958L187.13957386363634,94.67730102501558L187.20003196022728,94.66092436388622L187.23026100852272,94.64543352467334L187.4358185369318,94.62985064243792L187.4962766335227,94.61491423772092L187.52650568181818,94.59948377478727L187.55552556818182,94.63842189408076L187.5857546164773,94.62312435605003L187.76229225852273,94.5543113241323L188.4128213778409,94.48707912887014L188.90736860795457,94.52823484140623L189.05488636363634,94.51487000632083L189.0851154119318,94.50318128044802L189.1431551846591,94.54364799949282L189.3777325994318,94.53006726217464L189.73201704545454,94.52041113458519L191.0802325994318,94.5607086734678L191.4889293323864,94.60037117130926L191.51674005681818,94.69299779101496L191.83958629261363,94.67624514404297L191.86860617897727,94.71365541524128L191.92906427556818,94.6966956291344L191.9858948863636,94.73394682958964L192.07658203124998,94.77029226143256L192.10318359374997,94.91289476172574L192.1612233664773,94.94554384006655L192.82988991477274,95.03111421460392L192.9749893465909,95.06139832713751L193.06446732954547,95.03748492811788L193.15152698863636,95.06506463828948L193.2990447443182,95.09492399712225L193.61947265625,95.12359881969698L193.8842791193182,95.15209759368658L193.9737571022727,95.17949045055119L194.00156782670456,95.26047722078458L194.26758345170455,95.28585267812517L194.43928444602273,95.36434151269651L194.92294921875,95.38801468874776L195.10069602272728,95.35762564457433L195.22040305397726,95.32740156829779L195.31350852272726,95.29832443697552L195.4948828125,95.32312498481828L195.55534090909092,95.29391010860695L195.8346573153409,95.2654165846307L195.94831853693182,95.7063345919726L196.1381569602273,95.5623978040106L196.29534801136364,95.42119071011402L196.47672230113636,95.38982461922059L196.74515625,95.4133203615447L196.95675958806817,95.38215627577776L197.07646661931818,95.35131422084967L197.3449005681818,95.32115576016935L197.79833629261364,95.29145516635101L198.00631214488638,95.31695752453176L198.09337180397728,95.28798876308927L198.15382990056818,95.25991654919906L198.18405894886365,95.23168655588614L198.30134765625,95.20443443587448L198.33157670454545,95.17760449864225L198.71609019886364,95.20499092955151L198.89625532670456,95.23180824386853L198.926484375,95.2049890228521L198.97606001420453,95.3998951110663L199.14897017045456,95.36950708412945L199.22877485795453,95.66172064364648L199.40289417613636,95.67914910616803L199.51776455965907,95.6957859942373L199.72090376420454,95.7128630775454L200.00505681818183,95.73005879193562L200.18038529829545,95.69310710152385L200.2976740056818,95.65678290261576L200.37385120738637,96.10931137972743L200.59512784090907,96.11794579670565L200.6410759943182,96.66179666907256L201.02317116477275,96.60580356368091L201.13925071022726,96.60460462035655L201.16947975852273,96.5498270965463L201.6785369318182,97.03490969360105L201.70634765625,97.0776523978522L201.78373401988637,97.17331697805358L201.99896484375,96.99969278941315L202.0388671875,97.64996633747823L202.26618963068182,97.5743039246038L202.31697443181818,97.76714669392554L202.34599431818182,97.74265183076459L202.6386115056818,97.8280845581234L202.66884055397728,98.06969433203359L202.9578302556818,98.03916395703915L203.04972656249998,97.96548633799884L203.3350887784091,97.93730809380682L203.42577592329545,97.90948979916294L203.48381569602273,97.93581527439301L203.54427379261364,97.85422373245876L203.84414595170455,97.77435331322532L204.34473899147727,97.69613497096859L204.4922567471591,97.67330193845812L204.77520063920454,97.59526057603279L204.95536576704546,97.52065880840445L205.16334161931817,97.50075524010886L205.34108842329547,97.48163616181374L205.40033735795456,97.35581404657144L205.51762606534092,97.28604580822194L205.72681107954546,97.27079153305174L205.75704012784092,97.20274829809696L205.7848508522727,97.24321752337144L206.09318714488637,97.17554517164241L206.72678799715908,97.16296357590824L206.87309659090909,97.15028968137885L207.02666015625,97.08493337425692L207.2044069602273,97.02046775527933L207.4994424715909,96.90328684116454L207.64937855113638,96.78885869470055L207.82833451704545,96.7839664230859L207.9492507102273,96.72572452654781L207.9782705965909,96.72200919547201L208.2188938210227,96.66506226291199L208.31199928977273,96.55549701192982L208.33981001420455,96.60890713887257L208.4026864346591,96.44666630078427L208.49216441761362,96.44810159771313L208.5211843039773,96.45007808174405L208.55383167613635,96.29104355737535L208.70014026988636,96.18904202678786L208.7618075284091,96.08866265021236L208.85007634943182,95.9371923096748L208.88030539772728,95.89547262383024L208.91053444602272,95.85481080044312L208.9371360085227,95.97591796223072L208.99880326704545,95.82643061327742L209.08949041193182,95.84003785263087L209.11851029829546,95.85420687850394L209.30472123579545,95.81433708971714L209.48367720170452,95.77553237961867L209.54292613636363,95.79054208400765L209.63240411931818,95.75207583608568L209.97943359375,96.03561808406033L210.21522017045453,96.04377959924372L210.26963245738636,96.21400231954378L210.44858842329546,96.16695292647421L210.65414595170455,96.12162042753583L210.79924538352273,96.07652474812188L211.01084872159092,96.08583964144137L211.40745383522727,96.04161859544888L211.5876189630682,96.05265678628933L211.64203125,96.05595933638277L212.12569602272728,95.9045213806646L212.21396484374998,95.91725591273054L212.27684126420456,95.76992852178974L212.3070703125,95.73089502387566L212.865703125,95.64000055718907L213.13171875,95.6032573662157L213.48116654829545,95.62220583228645L213.56097123579545,95.58722140111726L213.65044921875,95.55269103490643L214.02770774147726,95.5725467660141L214.2610759943182,95.64347002221503L214.4944442471591,95.55426977130134L214.52346413352274,95.57405863302861L214.61052379261363,95.59314077956913L214.66856356534092,95.66783619831129L214.6806551846591,96.43621930052731L215.0724236505682,96.43825120278902L215.30821022727272,96.27919215558117L215.74229936079544,96.23081124866648L215.94906605113638,96.23713353971146L216.12197620738635,96.2954112007269L216.20903586647725,96.35413832507524L216.4158025568182,96.35800481637402L216.7966885653409,96.3614078470261L216.85110085227274,96.47244262415029L216.87770241477273,96.58113729857402L216.9079314630682,96.52675546892637L217.07842329545454,96.52709461620839L217.22110440340907,96.52735188356745L217.58989879261364,96.5811524661104L218.05542613636365,96.41937724426906L218.2537286931818,96.48402948297529L218.398828125,96.48804441777249L218.42301136363636,96.70149079580209L218.59108487215912,96.75209862965539L218.8389630681818,96.9046931194381L218.9574609375,96.89898350950888L219.00099076704544,97.1074832426718L219.1787375710227,97.0425114818019L219.25370561079544,97.40702533361015L219.3951775568182,97.60439151790497L219.91269886363636,97.5805541533639L220.0541708096591,97.55991170141021L220.21861683238637,97.66213898833513L220.40482776988634,97.58619524595346L220.5196981534091,97.56529198412368L220.60554865056818,97.60251329929416L221.01424538352273,97.63463590622943L221.24035866477274,97.66650689138004L221.34918323863636,97.80679076181232L221.37699396306817,97.83329413391881L221.88605113636365,97.86166411589736L221.9573916903409,97.8386719856725L221.9827840909091,97.97524381621163L222.03598721590907,98.10736666645988L222.0940269886364,98.0221283075266L222.12425603693183,97.9391772688536L222.2367080965909,97.85796600661286L222.26572798295453,97.83113387626578L222.58011008522726,97.80769130636531L222.7276278409091,97.88954529417106L222.83887073863636,97.91624174762813L223.45675248579545,97.72741361734025L223.78080788352273,98.63509407644061L223.98273792613637,98.64631531973595L224.12904651988634,98.55202061461827L224.1725763494318,98.67134259719286L224.19796875,98.80638159455597L224.62843039772727,97.95661133882844L224.6780060369318,97.01656367084578L225.3998757102273,96.09505569960608L225.54618430397727,95.2459354971026L226.08184303977274,94.4140340194041L226.13141867897727,93.54459006930048L226.23056995738636,92.74642259367049L226.2801455965909,91.91060536496613L226.76864701704545,91.14503778734532L227.1096306818182,90.44861659838986L227.30672407670454,89.65908215729472L227.50744495738635,88.83142453090215L227.95241654829545,88.02011557863906L228.2002947443182,87.33232250312112L228.29944602272727,86.604773083095L228.39738813920454,85.89177599437619L228.84115056818183,85.18783979666749L229.08056463068183,84.71742834728767L229.3115145596591,84.14650789859284L229.98139026988636,83.58997827979542L230.0297567471591,82.99086237691427L230.12648970170454,82.40200127404201L230.36953125,81.82630635172603L230.79757457386364,81.37077290911105L231.0756818181818,80.97702793072455L231.68993607954545,80.48383497001842L232.11314275568182,80.00054998689687L232.20866654829547,79.52721939050025L232.3960866477273,79.06324664498229L232.4432439630682,78.61216932660473L232.6355007102273,78.11274732956856L232.92328125,77.62572435671768L233.21227095170454,77.14585862252467L233.45289417613637,76.6754563137243L233.59557528409093,76.26837650083013L233.68988991477272,75.86921270560404L234.2122478693182,75.42442982553978L234.40208629261366,75.04113945092627L234.82771129261363,74.72097788493399L235.01634055397724,74.35307127382337L235.20496981534092,73.99236914830246L235.44196555397727,73.7461485115927L235.48912286931818,73.39759270597246L235.67775213068182,73.05613595950874L236.01148082386365,72.66856852863746L236.2484765625,72.28816298792407L236.34400035511365,71.91503524647149L236.4419424715909,71.54935222076702L236.49030894886363,71.19332169962533L236.9195614346591,70.89592639623181L236.96913707386364,70.49718815088883L237.01629438920455,70.21332708591216L237.3040749289773,69.88178046293197L237.8772176846591,69.55682429872738L238.11905007102274,69.29204941511584L238.5035635653409,68.97859419768203L238.60029651988637,68.61810898907632L239.07670632102273,68.31854556564383L239.17223011363635,68.07819846428512L239.89530894886363,67.73573958503161L240.43338600852275,67.45383908707339L240.5325372869318,67.12383632081654L240.72600319602273,66.85408239073328L240.82636363636365,66.53630263894003L241.31365589488635,66.22471044913122L241.45996448863636,65.91352438091587L241.85052379261361,65.61404133195823L242.48412464488638,65.26712320730641L242.58206676136362,64.9804916462578L243.11530717329543,64.75355339427294L243.45508167613636,64.53123466296994L243.59897194602271,64.31339817638575L243.78639204545453,64.260865145571L244.02096946022726,64.15550975865868L244.4429669744318,63.945557788248664L244.95686079545456,63.846347996346665L245.26882457386364,63.85689413740387L245.5916708096591,63.76044567605723L245.8189932528409,63.720192428750295" style="fill: none;" fill="none"></path></g></g></g></g><g opacity="0.2"><g><g><g><path stroke="rgb(255, 112, 67)" stroke-width="2px" d="M24.47948330965909,16.100935448299765L25.308968394886364,24.104086323217928L25.700736860795452,13.426389748399913L26.672903053977272,53.66216962987727L26.781727627840908,32.16813000765717L26.955846946022724,32.34819011254746L27.42016512784091,34.86128211021426L27.577356178977272,45.369861830364584L28.34880149147727,32.17341460964897L28.53622159090909,29.499636184085517L29.64623224431818,29.5105122978037L30.11296875,32.1998088468205L30.28708806818182,34.89024671641263L30.342709517045456,37.674934647300034L30.73810546875,34.86595289273697L31.520433238636365,13.413825631141663L32.37651988636364,13.38301956653595L33.09959872159091,13.410018032247365L33.42849076704545,13.40638307007876L33.62558416193182,16.08818910338661L34.21686434659091,18.453379381786704L34.28215909090909,16.090606017546207L34.933897372159095,16.095401482148617L35.26399857954545,8.045312599702328L35.39458806818182,16.084640459580868L35.462301136363635,10.729458819736124L35.71985262784091,26.833636002107113L36.23495561079546,13.407955982468337L36.696855468749995,35.03029346466067L36.752476917613635,37.368648323145806L37.03058416193181,37.545811967416256L37.64846590909091,34.85643869096583L37.98219460227273,37.54646415060216L38.27360262784091,18.765803900632022L39.23851384943182,16.08819869431582L39.62302734375,21.44833884455943L39.94345525568182,21.458898457613884L40.38721768465909,21.448444344780683L40.64235085227273,18.772431232712506L40.768103693181814,21.46822084080091L41.95429154829545,23.802873600612998L42.27109197443182,18.757200837135343L42.336386718750006,16.095430254936247L42.65439630681818,21.458898457613884L42.971196732954546,18.770062273198903L43.09574041193182,24.12924333052203L43.603588423295456,18.778348836031853L43.66888316761364,16.084611686793238L44.36294211647727,21.447379751638948L44.933666548295456,18.770062273198903L45.44030539772727,18.71684220704168L46.45116477272727,26.815825646573842L46.69299715909091,24.0609846873717L47.319343039772725,21.327071135694325L50.083487215909095,18.770158182490974L50.14636363636364,21.477476087483524L50.649375000000006,21.46471056071198L51.214053622159085,24.14745650508189L51.339806463068186,21.469352570447086L51.401473721590904,24.115576256405234L51.59010298295454,18.772431232712506L51.96494318181818,18.78899476744914L52.534458451704545,21.45657745274633L52.72187855113636,24.13949603384191L52.78475497159091,21.458898457613884L53.41351917613637,21.45657745274633L54.473954190340905,24.140637354417294L54.59970703125,21.444962837479352L55.78952237215909,21.420563513582408L55.915275213068185,18.770062273198903L56.10027698863637,24.13228365507996L56.60207919034091,21.439150734381258L56.97208274147727,21.455416950312554L57.09541725852272,24.129809195345103L57.28404651988636,21.47515508261597L57.66251420454545,21.46648488261485L57.97931463068182,18.72893636876887L58.599614701704546,24.119048172777354L58.97203657670454,24.1362159360539L59.31906605113637,34.8652143911882L59.51374112215909,53.596078536727234L59.80514914772727,48.27181805263868L59.90309126420454,56.3231921195984L60.050609019886366,48.280804753303556L60.15338778409091,45.589004971764325L60.20296342329545,50.95340349457483L60.46172407670455,53.46702299334788L60.51129971590909,50.96751175143504L60.96594460227273,48.265229084275006L61.373432173295456,53.63375170664355L61.62735617897727,48.28405607830396L61.88732599431818,45.73044240474704L61.991313920454544,45.254991271279096L62.61282315340909,40.212378014217734L63.0191015625,32.17726057226008L63.07714133522727,32.180473533543704L63.19563920454546,29.503012191165595L63.37217684659091,29.21675172719091L63.48946555397727,32.17618638818914L64.17626953125,34.8602175170725L64.34555220170455,37.538004951043575L64.57045632102273,37.541419321840465L64.72281072443182,45.631377696990995L64.88604758522727,34.86645162105563L65.10369673295455,40.243068987672984L65.15689985795454,42.890721722082674L65.37696732954545,34.85811710357669L65.65628373579545,37.54519814794713L66.65988813920455,40.31641082330185L67.10365056818182,40.22827018391004L67.32976384943183,34.864418344064205L67.54862215909091,42.90180883624339L67.59819779829546,50.95981023528361L67.94401811079545,48.27342932874507L68.38898970170455,50.95157162709671L68.58729225852272,53.646843325008064L68.78317649147726,50.91034022244541L68.97664240056818,56.45106797868556L69.0250088778409,53.501061201095595L69.22210227272727,53.63256243142216L69.66223721590909,53.641501177441015L69.85812144886363,53.636139848015546L69.90769708806819,50.954314632849275L69.95727272727274,50.97354444590482L70.05521484375,53.628994605757995L70.10479048295454,50.965305837717935L70.39982599431819,53.63792376084763L70.5945010653409,50.954314632849275L70.64528586647727,48.272489417683005L70.74080965909091,56.31670865145597L70.98385120738637,50.93943910165268L71.0322176846591,53.64136690443213L71.08058416193182,53.64051331173292L71.27525923295454,50.961229692805915L71.46993430397727,53.615739941597L71.71176669034091,53.63124847412111L71.76013316761363,53.64061881195417L71.80849964488635,53.63316665996207L72.92939275568182,50.95248276537116L73.12044034090908,56.332811821590795L73.2195916193182,48.27263328162107L73.4674698153409,48.2736691019752L74.71169744318182,40.177064212885796L74.81810369318183,42.90556848049167L75.08291015625,42.91054617274892L75.18689808238636,46.097554401917904L75.39608309659091,42.91620482097974L75.50369850852273,42.8897722200914L75.92448686079545,40.22288008169696L76.23886896306819,45.589350245215684L76.4468448153409,45.57267161932859L76.7987109375,56.16157537156886L76.89423473011364,50.80907919190149L77.20740767045454,42.914152362129926L77.31381392045455,42.898087555711925L77.47463245738636,42.9068920287219L77.63182350852273,42.893407182260006L78.05744850852273,42.91768182407728L78.11065163352272,42.899391922083794L78.26905184659091,42.90133888071233L78.63905539772728,45.578224767338156L78.78052734375001,64.28663654760882L79.15778586647728,64.36411207372493L79.32706853693182,67.04803770238703L79.46128551136364,53.629598834297894L79.51327947443183,45.51005244255069L79.99331676136364,40.2425223047083L80.04651988636364,42.89797246456149L80.26900568181819,37.5726569782604L80.37783025568181,40.229344367980985L80.43345170454546,37.53949154507032L80.65351917613636,40.227080908688635L80.709140625,37.55338880148801L80.87358664772727,37.52946902405134L80.92920809659091,37.54736569794744L81.3669247159091,42.91643500328067L81.58457386363636,42.90700711987236L81.69581676136363,40.19547879695895L81.80464133522727,40.21908207373187L81.85905362215908,40.23645124652171L82.34392755681819,40.220213803378044L82.50474609375,40.21167787638578L82.93520774147727,40.22764677351171L83.04282315340909,40.231502327052056L83.58694602272728,40.211159966208726L83.96420454545455,42.904638160358786L84.66310014204545,42.888112989338964L84.98957386363637,37.546262741088896L85.1516015625,40.23932852528313L85.25921697443181,40.52631789987737L85.47686612215908,42.89931519465014L85.69209694602273,45.609798106280266L85.79971235795455,40.23479201576927L86.06572798295454,42.9042928869074L86.12014026988636,40.232720375061064L86.59775923295454,45.59510480273855L86.92060546875,40.2286154573614L87.1394637784091,42.909049987793L87.19387606534092,40.22701377218419L87.73920809659091,40.22721518169752L88.01126953125,42.90623025460678L88.75974076704546,45.58965715495023L88.86735617897727,40.2277618646622L89.96043856534091,34.86405388875443L90.01485085227273,40.284089391881764L90.23733664772728,37.55082802339035L90.29053977272729,42.927944118326366L90.3449520596591,40.21256983280185L91.32558238636364,37.549264701929985L91.99183061079546,37.523369193077116L92.0474520596591,37.55344634706324L92.3799715909091,37.54906329241666L92.49000532670455,37.561780864542186L92.76448508522728,40.270758000287145L94.20459694602272,42.90123338049108L94.31463068181819,40.22172917019239L94.86359019886365,37.55550839684227L95.46091619318183,40.20970214496961L95.62294389204546,40.23115705360067L95.78738991477272,37.55645789883354L96.87321732954545,42.891604087569505L97.1960635653409,40.22260194475001L97.57815873579545,40.22828936576846L97.90463245738636,40.22683154452932L98.45117365056818,40.24255107749593L98.72081676136364,40.230600779706776L98.77401988636365,42.91983978314835L98.93846590909091,37.54122750325638L99.38101917613636,40.18195558678022L99.54788352272728,37.54285796122119L99.71474786931817,37.556601762771635L99.8816122159091,34.880396832119345L99.93723366477272,37.53001570701602L100.92874644886363,37.54116995768115L101.75339488636364,40.22851954806936L102.57925248579546,37.55166243423116L102.74490767045455,37.542752460999935L102.80052911931818,37.54588869484991L102.91177201704545,34.880416013977765L102.96497514204546,42.893819592215806L104.16325461647727,40.22385835647586L104.43289772727273,40.22514354098928L104.59734375,40.22044398567894L104.8174112215909,34.88278497349134L104.92502663352272,40.22571899674156L105.1414666193182,42.877773967656225L105.36032492897728,37.569530335339635L105.57797407670455,40.22642872550273L106.94190873579545,37.527243928475826L106.9975301846591,37.609716328707634L107.60452947443181,40.17970171841711L108.04224609375001,40.22814550183037L108.09544921874999,42.92725357142362L108.26231356534092,37.54867006431928L108.374765625,34.98247309164569L108.43038707386364,37.44098311120814L108.92614346590909,37.549725066531806L109.31186612215909,40.22085639563474L110.10870383522726,40.234638560902L110.16190696022727,42.902432246641695L110.31788884943181,48.27090691436422L111.55607066761364,51.18006592447108L111.60322798295455,56.09007499434732L111.70358842329546,48.26878731900996L112.04578125,53.688774867491304L112.39522904829546,50.94215333461763L112.44480468750001,50.953000675548225L112.89461292613636,50.95710559324786L113.09049715909092,53.62598305398768L113.19085759943182,50.95267458395526L113.39399680397727,45.58703883127734L113.8208309659091,53.63982276483017L114.17390625,50.957498821345254L114.22348188920454,50.95272253860129L114.47136008522727,50.94816684722902L114.87763849431818,50.9595896439119L115.32744673295454,48.25877438892019L115.37702237215909,50.954161177982L115.57653409090909,48.26243812387639L115.78813742897728,67.04294491897932L115.91630859375,64.36504239385779L116.00457741477273,64.29440520026468L116.13879438920455,61.68459827249701L116.27301136363636,61.69451529329474L116.44713068181818,64.31251287460329L116.79657848011364,64.37047085978769L117.15086292613637,61.68651645833796L117.32740056818183,64.32364794341001L117.45799005681818,64.37071063301782L117.7651171875,64.33997170491654L118.15204900568182,67.04185155304997L118.32858664772728,61.68171140280637L118.37211647727273,64.3819703839042L118.41564630681819,64.3513657288118L118.5027059659091,64.35926865447654L118.63208629261364,64.34566871686417L118.9283309659091,67.04699229110373L119.30075284090908,67.04747183756396L119.74572443181819,58.998812003569185L119.90654296875,77.77308469468898L119.9790926846591,80.45305886051874L120.10242720170454,64.04713186350736L120.31886718749999,64.36831290071662L120.44462002840909,67.04491105946629L120.48814985795454,64.43483558568089L120.5256338778409,77.7091419696808L120.717890625,72.22500069574878L121.36841974431819,61.56961262226106L121.78316228693183,61.683389815417215L122.06006036931818,53.62949333407664L122.40346235795454,59.00629292834891L122.44820134943183,61.675381389531225L122.86415305397728,59.02343191883783L123.18458096590908,58.972072492946296L123.70935724431818,67.03091789375654L124.03341264204546,53.637760715051144L124.1289364346591,53.67119469425897L124.32240234375,56.315528967163786L124.78913884943181,61.6777215762572L124.83871448863637,50.98413283174689L124.98865056818182,48.2827325300737L125.21355468750001,83.14498811960222L125.30303267045454,107.11698337034747L125.63434303977273,104.59150948307732L125.71172940340908,101.90823603760113L125.86650213068181,101.91289722919466L125.89189453125,104.59313514557752L125.91728693181818,104.5870401100679L126.79272017045454,104.59454501217063L126.94386541193181,104.59079016338696L127.12886718749999,101.9133911620487L127.28726740056818,104.59079495885156L127.39367365056819,104.59501496770166L127.44808593750001,101.91142022609712L127.5012890625,99.23022801225837L127.65968927556818,101.91691103306684L127.73828480113637,104.44217871535909L127.78906960227273,104.58094027909367L127.86766512784091,101.89913904125041L127.94505149147727,107.27529604326595L128.02364701704545,101.90945888107474L128.26064275568183,112.68782184882599L128.31384588068184,99.21995133161546L128.62701882102272,104.66386824846269L128.65362038352274,101.84109473770316L128.68022194602273,101.90650967034428L129.04780717329544,101.89274668693544L129.15300426136363,102.11414369669828L129.2569921875,104.54807696017353L129.36098011363637,101.89668376337399L129.4649680397727,101.90100447698075L129.5157528409091,104.58375521681526L129.5677468039773,101.89766203815287L129.77693181818182,101.91087354313244L129.82892578125,104.59782510995866L129.90873046875,101.90277400341901L129.98732599431818,101.9208481095054L130.06350319602274,104.59313514557752L130.19288352272727,104.69005628065631L130.68259410511365,104.591260118918L130.99576704545453,101.90110518173739L131.02236860795455,101.9133911620487L131.10338245738637,101.91191415895116L131.12998401988636,101.90650967034428L131.18318714488635,101.90948285839775L131.23639026988636,102.02176866206257L131.34279651988635,101.91486336968163L131.44678444602272,104.58797522566536L131.57979225852273,101.9081689010967L131.63420454545454,101.91584643992512L131.82041548295456,101.90945888107474L132.03564630681817,101.91584643992512L132.14326171875,101.89028661359441L132.27626953125,99.23279358582064L132.32826349431818,101.65223495526749L132.35365589488637,104.60204511880876L132.75630681818183,101.91584643992512L132.83973899147728,99.24049989743668L132.9207528409091,101.90258218483493L132.94856356534092,99.23536395484751L133.05617897727274,101.90798667344181L133.11059126420457,101.92517841404135L133.24359907670456,101.92236827178436L133.45520241477274,101.91347268494694L133.48301313920456,99.2333114959977L133.58700106534093,104.59608915177259L133.6414133522727,99.24933314323427L133.69703480113637,96.55011957341975L133.81069602272726,99.22330336137253L134.07429332386366,104.59079016338696L134.12870561079546,99.23074112697083L134.18069957386365,101.91388029943813L134.20730113636364,101.9133911620487L134.31612571022728,101.95558165962046L134.39351207386363,101.90544987266715L134.60511541193182,101.91289722919466L134.71393998579546,99.28154907443307L135.0899893465909,101.90847581083125L135.19760475852271,101.9089649482207L135.25201704545455,101.91535730253567L135.38623401988636,101.90257738937032L135.41283558238635,101.90208825198087L135.4660387073864,101.91633557731456L135.52045099431817,99.1870448535139L135.54826171874998,99.22971010208131L135.60267400568182,101.91169356757945L135.65708629261363,101.90552660010079L135.68489701704547,99.22817075794394L135.87594460227274,99.2286838726564L135.95695845170454,101.91041797399522L136.0730379971591,131.57188430428505L136.60990589488637,101.90346934578636L136.8855948153409,101.90669669346377L137.05366832386366,98.98921755227177L137.14072798295456,93.87379955161703L137.22053267045456,107.31413930654527L137.3051740056818,101.91269581968135L137.33056640625,104.58856506781146L137.3559588068182,104.59222880276768L137.6219744318182,104.59220002998006L137.65824928977273,80.48191317103128L137.68485085227272,101.97346874258736L137.73442649147728,107.26831864226949L138.05485440340908,101.92570111968301L138.08266512784093,99.20504223216665L138.13465909090908,104.59970493208279L138.3535174005682,99.16252084753731L138.6098597301136,96.52267992496492L139.07296875,102.15856888077477L139.45022727272726,101.90650967034428L139.5578426846591,101.90995281392878L139.5844442471591,101.91289722919466L139.63764737215908,104.5842251723463L139.85166903409092,99.2240610447797L139.9036629971591,104.57689770243385L140.01127840909092,104.59454501217063L140.26520241477272,107.2784226861867L140.46955078125,99.22947032885119L140.49736150568182,99.23998198725961L140.76942294034092,115.62883233482188L140.97135298295456,101.9124032963406L141.12975319602273,101.91289722919466L141.15635475852272,101.90570882775567L141.21076704545456,101.90552660010079L141.26517933238637,99.2279022119262L141.39818714488638,101.8966789679094L142.08136363636362,99.22458854588596L142.10917436079546,99.21789407730104L142.38244495738635,99.2437991770831L142.43564808238636,101.92566755143079L142.54447265625,101.91205322742464L142.57107421875,101.89962817863986L142.87215553977273,99.22765764323148L142.95558771306818,99.22919698736885L143.12245205965908,99.23022801225837L143.25908735795454,99.22663141380657L143.31591796875,99.23228047110818L143.3703302556818,101.61017393523997L143.42716086647727,96.55175003138456L143.67141157670454,101.91068172454835L143.7790269886364,101.91363093527882L143.8878515625,99.22097756104037L143.9410546875,101.9089649482207L144.02448686079546,99.39109666780993L144.26873757102274,99.2286838726564L144.29654829545453,99.2333114959977L144.56981889204545,104.59032020785592L144.6254403409091,101.90699880773371L144.9591690340909,101.90820726481351L144.98697975852275,99.25795059312475L145.0075355113636,115.30322508378464L145.1175692471591,99.34694482521579L145.22276633522728,99.22046444632791L145.39083984375,99.22765764323148L145.85999467329546,99.23639018427242L145.9422176846591,101.91044195131823L146.02806818181818,91.2783646312627L146.05587890625,99.14182362231342L146.28078302556818,96.54746288603003L146.44764737215908,99.22046444632791L146.61330255681816,101.9124080918052L146.74751953125,101.90650967034428L147.26866832386364,93.83842820470984L147.37628373579545,104.59360510110857L147.4306960227273,101.91107015718114L147.56612215909092,101.90244311636145L147.70275745738635,101.89766203815287L148.02681285511366,129.47906922210348L148.18763139204543,101.8956958976659L148.55037997159093,101.9154196435755L148.8369513494318,104.6715505827557L148.85992542613639,109.94776530699298L148.94093927556818,101.92026785828851L149.10659446022726,99.24152133139698L149.29280539772728,99.22354793006724L149.32545276988637,88.49959430369465L149.35326349431818,99.24743413925172L149.38107421875,99.21429747884925L149.40767578125,101.90749274058777L149.65313565340907,99.22971010208131L150.26255326704546,93.86917672374032L150.28915482954545,101.90798667344181L150.31575639204544,101.9124080918052L150.50075816761364,99.22663141380657L150.80909446022727,99.23213181170551L150.86229758522728,101.91093108870767L151.17909801136364,99.21688223426993L151.20690873579545,99.23084662719208L151.28550426136366,107.27749716151845L151.3435440340909,91.19629025459291L151.37135475852273,99.20504702763125L151.42455788352274,104.59996868263592L151.93240589488636,101.91977392543447L152.15126420454544,93.95299664952539L152.22985973011362,104.58627283573152L152.46927379261362,101.91142502156171L152.49345703125002,107.26675532080911L152.70626953124997,101.89471282742241L152.73287109375002,102.200874469497L152.89248046875,101.49280014363202L152.97228515625,104.58797522566536L153.13189453125,101.89618983051994L153.18388849431818,101.89815597100693L153.23588245738637,101.91142502156171L153.68085404829546,104.5701456882737L153.73284801136364,101.90849019722506L153.75944957386363,101.90317682244562L153.78484197443183,104.59595008329913L154.0677858664773,101.89471762288701L154.32291903409092,104.59219523451546L154.53089488636365,104.58188019015573L154.9734481534091,101.9059677828442L155.15119495738637,101.89766203815287L155.17658735795456,104.61873813108966L155.25034623579546,107.2824412855235L155.67597123579546,101.90591503273357L155.78116832386362,101.90405439246786L155.91417613636364,101.91928478804502L155.96737926136362,101.91571216691625L156.0193732244318,104.5870401100679L156.0725763494318,104.60157516327772L156.1245703125,104.58234535022217L156.23097656250002,101.90503746271135L156.25636896306816,104.59465530785648L156.33980113636366,88.50683065977965L156.4909463778409,104.59219523451546L156.5441495028409,101.91748648881914L156.62153586647727,99.23059726303275L156.8283025568182,107.28450333530253L156.88876065340907,99.09422384067017L156.9165713778409,99.21948617154902L156.93349964488638,123.39754493399101L157.1499396306818,99.22689036889511L157.56468217329544,96.53816927563061L157.61909446022727,104.60646174170755L157.67834339488635,93.85645435615021L157.7327556818182,99.23699920827693L158.04351029829544,101.6194867274978L158.15958984375,96.53989084742287L158.53080255681817,96.54044712131675L158.64567294034092,96.54183780605143L159.19584161931817,96.5512081438845L159.63355823863637,99.22278545119546L159.66741477272728,85.81714088266547L159.86934481534092,85.81730392846195L159.90320134943184,85.82333662293176L159.96970525568182,85.8153953335502L160.07127485795453,85.81322298808533L160.23693004261364,88.50148371674798L160.36751953125,83.13626037402588L160.43523259943183,85.81018266352741L160.96968217329544,85.81705935976724L161.3384765625,85.88355327194388L161.5730539772727,85.82360516894947L161.60570134943183,88.491015217521L161.83060546874998,85.82498626275498L161.93217507102273,85.8364905823361L162.7278036221591,85.71287309581584L162.82574573863639,88.47977944395761L163.05427734375,85.80838915976612L163.15342862215908,85.81595640290867L163.18728515625003,85.8226556669582L163.2525799005682,88.50424590435897L163.28401811079547,91.20194890282372L163.51496803977273,85.82168218764393L163.93333806818183,107.17374248938128L164.09415660511362,99.23122546889566L164.38798295454546,88.49079462614927L164.4496502130682,88.51139594208111L164.51615411931817,88.51540015502411L164.74226740056818,93.87089350006798L165.1691015625,91.23698936267334L165.23197798295453,91.18565870956942L165.42544389204545,85.79215171662244L165.68783203125,85.83441414616327L165.8800887784091,93.88477157462728L165.91273615056818,88.47390020435508L166.07113636363638,91.18970128622924L166.2343732244318,88.49779120900415L166.4604865056818,85.82714422182605L166.7132013494318,88.49825636907059L166.8377450284091,93.87210675261238L166.96470703125001,91.19009451432663L167.37098544034092,88.51857954805548L167.43507102272727,91.16775244474412L167.49915660511363,88.50168033079669L167.59468039772727,91.19160988114098L167.75187144886362,91.1759622801434L168.28269353693182,91.1864211884412L168.44109375,91.20584761554545L169.01665482954544,91.1821819977327L169.1472443181818,88.49676977504383L169.24397727272728,88.49946482615039L169.40842329545455,88.50279767404903L169.63695490056818,91.17565537040885L169.76512606534092,85.80707520246507L169.8316299715909,85.83419835025614L170.00695845170455,125.10900548913263L170.02630504261364,115.89732080698013L170.16898615056817,91.18875657970256L170.37212535511364,93.86516771533273L170.55108132102274,93.86684612794357L170.63814098011363,99.23279358582064L170.81709694602273,96.56086141412909L171.14357066761363,96.54802875085312L171.20402876420457,93.8552363081412L171.49785511363638,93.88080092993651L171.58733309659092,93.87466273524545L171.64658203125,93.86349409818651L171.7940997869318,91.37992777607658L172.25720880681817,93.8642997362397L172.31645774147728,96.53992441567509L172.49420454545452,93.86421341787685L172.6090749289773,101.92524555054578L172.6707421875,88.49183044650339L173.08185724431817,93.86349889365111L173.4433966619318,91.18806123733522L173.5945419034091,93.88415295969357L173.95970880681816,93.85902952064168L173.99114701704548,91.1787676269358L174.17614879261365,93.8490117950873L174.20637784090908,93.86461144143885L174.62474786931818,93.87526216832076L174.74203657670455,93.88973008502614L174.80249467329546,93.87131070548838L174.8629527698864,93.88693912462756L174.9524307528409,93.88024465604263L175.04069957386363,93.86627067219128L175.31397017045455,93.49348564039578L175.48929865056817,96.53522486036475L175.5509659090909,96.53406435793097L175.88832208806818,88.49200787869367L175.91855113636365,93.87019336223604L176.10113458806816,93.86349409818651L176.31152876420455,96.5528242154555L177.03702592329546,91.18187508799814L177.22202769886363,91.21359708634292L177.26676669034092,126.08894189650363L177.90762251420455,91.18167367848484L177.99951882102275,93.8389173420993L178.12527166193183,91.17412082173608L178.1567098721591,91.36192080649464L178.18089311079544,107.13128824125637L178.3646857244318,93.86800183491275L178.45779119318183,93.87578007849781L178.51945845170454,91.1839946833524L178.79756569602273,93.84631674398076L179.01158735795454,88.50410204042089L179.15789595170455,88.50739652460273L179.40335582386365,91.18283418091862L179.52427201704543,93.86238155039875L179.64881569602272,91.17949174209076L180.04783913352273,93.87019815770064L180.10829723011364,96.49757566777143L180.19414772727274,91.17760712450202L180.55931463068183,93.86126420714639L180.68143998579546,88.50105692039837L180.83258522727272,91.19601691311057L180.89183416193183,96.54263864864004L181.19412464488636,93.86572878469121L181.24974609375,96.55657426877457L181.30899502840907,93.86413669044322L181.68988103693184,96.54607220129535L182.1675,96.55044566501272L182.31139026988635,96.53869677673687L182.5205752840909,93.86461144143885L183.24486328125,96.5479999780655L183.27267400568184,99.2230348153548L183.30290305397727,93.86795867573132L183.50725142045454,96.55711136081003L183.79503196022725,93.86349409818651L184.02840021306818,93.8461824709719L184.20131036931818,96.55496778813276L184.23033025568182,96.52673688801853L184.3476189630682,93.85958579453556L184.67046519886364,93.8484171574766L184.84579367897726,99.21106533570725L185.02354048295453,96.55336130749096L185.1142276278409,93.86293782429263L185.56524502840907,96.5466092933308L185.6849520596591,93.86702835559846L186.0126349431818,96.53888859532097L186.16136186079547,96.54531931335276L186.30887961647727,96.54210155660456L186.4249591619318,91.17701248689133L186.45518821022725,93.87909854000266L186.78287109375,93.86349889365111L186.81189098011362,96.55978723005816L187.13957386363634,96.21667173775761L187.20003196022728,93.8584684512832L187.23026100852272,93.88638285073368L187.4358185369318,93.8662898540497L187.4962766335227,93.88303082097661L187.52650568181818,93.84339151057331L187.55552556818182,96.5463887019591L187.5857546164773,93.8735453919931L187.76229225852273,91.18247452107344L188.4128213778409,91.19270324707033L188.90736860795457,96.54486374421555L189.05488636363634,93.85999340902676L189.0851154119318,93.93043398857118L189.1431551846591,96.52651629664682L189.3777325994318,93.86461144143885L189.73201704545454,94.04726109721445L191.0802325994318,96.53528720140459L191.4889293323864,96.54383271932603L191.51674005681818,99.2317002198913L191.83958629261363,93.85536578568546L191.86860617897727,96.54675795273349L191.92906427556818,93.86566644365138L191.9858948863636,96.5592549334873L192.07658203124998,96.5512177348137L192.10318359374997,101.90041463483465L192.1612233664773,96.54534808614038L192.82988991477274,99.2240610447797L192.9749893465909,96.54531931335276L193.06446732954547,93.86572878469121L193.15152698863636,96.41646997495133L193.2990447443182,96.55803209001368L193.61947265625,96.52866466478869L193.8842791193182,96.54853707010096L193.9737571022727,96.52174001390284L194.00156782670456,99.22882773659447L194.26758345170455,96.52924971147019L194.43928444602273,99.21029326590626L194.92294921875,96.5479999780655L195.10069602272728,93.86856290427123L195.22040305397726,93.84642224420202L195.31350852272726,93.8735453919931L195.4948828125,96.5383515032855L195.55534090909092,93.86238155039875L195.8346573153409,93.86923426931556L195.94831853693182,117.311311499639L196.1381569602273,88.50949693809856L196.29534801136364,88.50204478610647L196.47672230113636,93.85288653048603L196.74515625,96.56461146744816L196.95675958806817,93.85511642152613L197.07646661931818,93.84005386721005L197.3449005681818,93.84339151057331L197.79833629261364,93.8361263817007L198.00631214488638,96.56657281247053L198.09337180397728,93.8685197450898L198.15382990056818,93.88437834652989L198.18405894886365,93.8484171574766L198.30134765625,93.86908081444828L198.33157670454545,93.86293782429263L198.71609019886364,96.54692579399456L198.89625532670456,96.54585640538824L198.926484375,93.8908474282785L198.97606001420453,104.95029175823386L199.14897017045456,93.88049402020195L199.22877485795453,109.98018264770509L199.40289417613636,96.53314362872732L199.51776455965907,96.51099337772891L199.72090376420454,96.54964002695951L200.00505681818183,96.57264866612175L200.18038529829545,93.88247454708274L200.2976740056818,93.87689742175017L200.37385120738637,118.28320351513949L200.59512784090907,96.54103216799824L200.6410759943182,123.31048567186704L201.02317116477275,93.86214177716863L201.13925071022726,96.54585640538824L201.16947975852273,93.86572878469121L201.6785369318182,120.80395386977631L201.70634765625,99.17204464023764L201.78373401988637,101.8608808246526L201.99896484375,88.49210858345033L202.0388671875,129.51336638493973L202.26618963068182,93.86684612794357L202.31697443181818,107.21644130620089L202.34599431818182,96.54240367087452L202.6386115056818,102.01428773728284L202.66884055397728,109.9085719747977L202.9578302556818,96.54317574067551L203.04972656249998,94.35528337955476L203.3350887784091,96.55657426877457L203.42577592329545,96.54639349742371L203.48381569602273,99.22576343471354L203.54427379261364,93.8562385602431L203.84414595170455,93.86070313778792L204.34473899147727,93.86343655261128L204.4922567471591,96.55448344620793L204.77520063920454,93.77123415470125L204.95536576704546,93.86517251079734L205.16334161931817,96.5254804762927L205.34108842329547,96.54480140317571L205.40033735795456,91.19053090160544L205.51762606534092,93.86740240183745L205.72681107954546,96.52333210815084L205.75704012784092,93.86863004077566L205.7848508522727,99.22620941292156L206.09318714488637,93.85960018092936L206.72678799715908,96.54646542939274L206.87309659090909,96.52926889332859L207.02666015625,93.88247454708274L207.2044069602273,93.8616526397792L207.4994424715909,91.16142243146898L207.64937855113638,91.18187988346274L207.82833451704545,96.54424512928183L207.9492507102273,93.87187177484687L207.9782705965909,96.53995798392731L208.2188938210227,93.87466273524545L208.31199928977273,91.1868000301448L208.33981001420455,99.22600320794366L208.4026864346591,88.49686568433589L208.49216441761362,96.5184311433272L208.5211843039773,96.54692579399456L208.55383167613635,88.49835227836262L208.70014026988636,91.19096728888427L208.7618075284091,91.17007344961168L208.85007634943182,88.51514599540018L208.88030539772728,93.8512081178752L208.91053444602272,93.86238155039875L208.9371360085227,101.91016860983589L208.99880326704545,88.50155085325243L209.08949041193182,96.50679255073722L209.11851029829546,96.54848911545494L209.30472123579545,93.86071752418172L209.48367720170452,93.87410166588698L209.54292613636363,96.52601756832817L209.63240411931818,93.86722976511176L209.97943359375,109.92918767712334L210.21522017045453,96.44369382749905L210.26963245738636,104.55491529269653L210.44858842329546,93.86153275316413L210.65414595170455,93.90032806179741L210.79924538352273,93.86683653701436L211.01084872159092,96.54226939786565L211.40745383522727,93.87478741732512L211.5876189630682,96.59352811900052L211.64203125,96.21778428554536L212.12569602272728,88.48406179384753L212.21396484374998,96.54124796390535L212.27684126420456,88.55088659308174L212.3070703125,93.81825368512762L212.865703125,91.18617182428187L213.13171875,93.80284106189555L213.48116654829545,96.55068064277823L213.56097123579545,93.87298432263462L213.65044921875,93.86070313778792L214.02770774147726,96.54547756368464L214.2610759943182,99.11870948292993L214.4944442471591,91.18345759131692L214.52346413352274,96.54371283271097L214.61052379261363,96.52816593647005L214.66856356534092,99.32791162620892L214.6806551846591,134.08699039708486L215.0724236505682,96.53781441125004L215.30821022727272,88.48529902371494L215.74229936079544,93.86014686389404L215.94906605113638,96.54692579399456L216.12197620738635,99.15101652795619L216.20903586647725,99.23176735639574L216.4158025568182,96.54746288603003L216.7966885653409,96.52815634554084L216.85110085227274,101.91314659335397L216.87770241477273,101.90717623992401L216.9079314630682,93.86204586787659L217.07842329545454,96.54371283271097L217.22110440340907,96.53995798392731L217.58989879261364,99.21738096258858L218.05542613636365,88.49239151586185L218.2537286931818,99.65198912403801L218.398828125,96.68477621945469L218.42301136363636,107.16036314314063L218.59108487215912,99.23188244754618L218.8389630681818,104.38182299787348L218.9574609375,96.6192126274109L219.00099076704544,107.32397000898015L219.1787375710227,93.85889524763282L219.25370561079544,115.26820380579343L219.3951775568182,107.27533440698278L219.91269886363636,96.41252330758356L220.0541708096591,96.54843156987971L220.21861683238637,102.67127597873862L220.40482776988634,93.86495191942562L220.5196981534091,96.54103216799824L220.60554865056818,99.42635771903126L221.01424538352273,99.20864362608303L221.24035866477274,99.22818514433774L221.34918323863636,104.68070032921705L221.37699396306817,99.13195935162632L221.88605113636365,99.25179321657528L221.9573916903409,96.71205761757764L221.9827840909091,104.66726343740117L222.03598721590907,104.58138625730169L222.0940269886364,93.84544876488773L222.12425603693183,93.87457641688262L222.2367080965909,93.87861419807781L222.26572798295453,96.51635950261897L222.58011008522726,96.65900539268148L222.7276278409091,101.90039065751164L222.83887073863636,99.22436795451425L223.45675248579545,88.47483531995255L223.78080788352273,143.11143616383725L223.98273792613637,99.19615623625843L224.12904651988634,93.93158010461114L224.1725763494318,104.51811969280244L224.19796875,105.42329240928997L224.62843039772727,56.317869153889745L224.6780060369318,50.95422831448643L225.3998757102273,50.941165468909546L225.54618430397727,53.63904589956458L226.08184303977274,53.65086192434485L226.13141867897727,50.94183683395387L226.23056995738636,53.63621657544917L226.2801455965909,50.955561453645885L226.76864701704545,53.632226748899996L227.1096306818182,56.32397857579319L227.30672407670454,50.97189480608161L227.50744495738635,48.27620110728526L227.95241654829545,48.26597717675298L228.2002947443182,53.630462017926305L228.29944602272727,50.95485172488475L228.39738813920454,50.954918861389174L228.84115056818183,50.69496631622316L229.08056463068183,61.66726746342401L229.3115145596591,56.171406074003755L229.98139026988636,56.32002711296083L230.0297567471591,53.63418329845777L230.12648970170454,53.54780739003962L230.36953125,53.61725530841136L230.79757457386364,59.049634337425246L231.0756818181818,61.68352408842608L231.68993607954545,56.31738001650031L232.11314275568182,56.319585930217414L232.20866654829547,56.33402027867059L232.3960866477273,56.32858222181147L232.4432439630682,56.509380828250556L232.6355007102273,53.64106958562678L232.92328125,53.76159879294309L233.21227095170454,53.6324377493425L233.45289417613637,53.625743280757575L233.59557528409093,56.32146575234155L233.68988991477272,56.31018681959674L234.2122478693182,53.630068789828925L234.40208629261366,56.25991116870536L234.82771129261363,59.0330612117594L235.01634055397724,56.325647397474825L235.20496981534092,56.3179650631818L235.44196555397727,61.6813373565674L235.48912286931818,56.31835829127921L235.67775213068182,56.324755441058784L236.01148082386365,53.677764480764225L236.2484765625,53.64829155531797L236.34400035511365,53.63177597522737L236.4419424715909,53.630884018811315L236.49030894886363,53.747826218605056L236.9195614346591,56.32355657490818L236.96913707386364,50.959014188159614L237.01629438920455,56.30413494326852L237.3040749289773,53.63599598407747L237.8772176846591,53.633972298015266L238.11905007102274,56.31808015433225L238.5035635653409,53.61928858540277L238.60029651988637,50.95433381470768L239.07670632102273,53.639937855980634L239.17223011363635,56.301190528002664L239.89530894886363,50.95525454391135L240.43338600852275,53.64071472124621L240.5325372869318,50.953700813380166L240.72600319602273,53.636139848015546L240.82636363636365,50.96509483727543L241.31365589488635,50.95669318329206L241.45996448863636,50.66540707241407L241.85052379261361,50.939371965148254L242.48412464488638,48.268135135824025L242.58206676136362,50.93554518439555L243.11530717329543,53.63357906991786L243.45508167613636,53.63761685111308L243.59897194602271,53.63941035487437L243.78639204545453,61.68674664063889L244.02096946022726,58.99309580976313L244.4429669744318,53.65791125731036L244.95686079545456,58.98506820201875L245.26882457386364,64.37365504828367L245.5916708096591,59.03447107835251L245.8189932528409,61.74778331409803" style="fill: none;" fill="none"></path></g></g></g></g></g></g><g transform="translate(63, 177)" clip-path="url(#clip_1)"><clipPath id="clip_1"><rect width="266" height="22"></rect></clipPath><g><g><line x1="0" y1="0" x2="0" y2="5" style="visibility: inherit;" fill="rgb(0, 0, 0)" stroke="rgb(204, 204, 204)" stroke-width="1px"></line><line x1="24.183238636363637" y1="0" x2="24.183238636363637" y2="5" style="visibility: inherit;" fill="rgb(0, 0, 0)" stroke="rgb(204, 204, 204)" stroke-width="1px"></line><line x1="48.36647727272727" y1="0" x2="48.36647727272727" y2="5" style="visibility: inherit;" fill="rgb(0, 0, 0)" stroke="rgb(204, 204, 204)" stroke-width="1px"></line><line x1="72.5497159090909" y1="0" x2="72.5497159090909" y2="5" style="visibility: inherit;" fill="rgb(0, 0, 0)" stroke="rgb(204, 204, 204)" stroke-width="1px"></line><line x1="96.73295454545455" y1="0" x2="96.73295454545455" y2="5" style="visibility: inherit;" fill="rgb(0, 0, 0)" stroke="rgb(204, 204, 204)" stroke-width="1px"></line><line x1="120.91619318181817" y1="0" x2="120.91619318181817" y2="5" style="visibility: inherit;" fill="rgb(0, 0, 0)" stroke="rgb(204, 204, 204)" stroke-width="1px"></line><line x1="145.0994318181818" y1="0" x2="145.0994318181818" y2="5" style="visibility: inherit;" fill="rgb(0, 0, 0)" stroke="rgb(204, 204, 204)" stroke-width="1px"></line><line x1="169.28267045454544" y1="0" x2="169.28267045454544" y2="5" style="visibility: inherit;" fill="rgb(0, 0, 0)" stroke="rgb(204, 204, 204)" stroke-width="1px"></line><line x1="193.4659090909091" y1="0" x2="193.4659090909091" y2="5" style="visibility: inherit;" fill="rgb(0, 0, 0)" stroke="rgb(204, 204, 204)" stroke-width="1px"></line><line x1="217.64914772727275" y1="0" x2="217.64914772727275" y2="5" style="visibility: inherit;" fill="rgb(0, 0, 0)" stroke="rgb(204, 204, 204)" stroke-width="1px"></line><line x1="241.83238636363635" y1="0" x2="241.83238636363635" y2="5" style="visibility: inherit;" fill="rgb(0, 0, 0)" stroke="rgb(204, 204, 204)" stroke-width="1px"></line><line x1="266.015625" y1="0" x2="266.015625" y2="5" style="visibility: inherit;" fill="rgb(0, 0, 0)" stroke="rgb(204, 204, 204)" stroke-width="1px"></line></g><g transform="translate(0, 8)"><text x="0" y="0" dx="0em" dy="0.95em" style="text-anchor: middle; visibility: hidden; font-family: &quot;Helvetica Neue&quot;, sans-serif; font-size: 13.3333px; font-weight: 200;" fill="rgb(50, 49, 63)" stroke="none" stroke-width="1px">-20k</text><text x="24.183238636363637" y="0" dx="0em" dy="0.95em" style="text-anchor: middle; visibility: inherit; font-family: &quot;Helvetica Neue&quot;, sans-serif; font-size: 13.3333px; font-weight: 200;" fill="rgb(50, 49, 63)" stroke="none" stroke-width="1px">0</text><text x="48.36647727272727" y="0" dx="0em" dy="0.95em" style="text-anchor: middle; visibility: hidden; font-family: &quot;Helvetica Neue&quot;, sans-serif; font-size: 13.3333px; font-weight: 200;" fill="rgb(50, 49, 63)" stroke="none" stroke-width="1px">20k</text><text x="72.5497159090909" y="0" dx="0em" dy="0.95em" style="text-anchor: middle; visibility: inherit; font-family: &quot;Helvetica Neue&quot;, sans-serif; font-size: 13.3333px; font-weight: 200;" fill="rgb(50, 49, 63)" stroke="none" stroke-width="1px">40k</text><text x="96.73295454545455" y="0" dx="0em" dy="0.95em" style="text-anchor: middle; visibility: hidden; font-family: &quot;Helvetica Neue&quot;, sans-serif; font-size: 13.3333px; font-weight: 200;" fill="rgb(50, 49, 63)" stroke="none" stroke-width="1px">60k</text><text x="120.91619318181817" y="0" dx="0em" dy="0.95em" style="text-anchor: middle; visibility: inherit; font-family: &quot;Helvetica Neue&quot;, sans-serif; font-size: 13.3333px; font-weight: 200;" fill="rgb(50, 49, 63)" stroke="none" stroke-width="1px">80k</text><text x="145.0994318181818" y="0" dx="0em" dy="0.95em" style="text-anchor: middle; visibility: hidden; font-family: &quot;Helvetica Neue&quot;, sans-serif; font-size: 13.3333px; font-weight: 200;" fill="rgb(50, 49, 63)" stroke="none" stroke-width="1px">100k</text><text x="169.28267045454544" y="0" dx="0em" dy="0.95em" style="text-anchor: middle; visibility: inherit; font-family: &quot;Helvetica Neue&quot;, sans-serif; font-size: 13.3333px; font-weight: 200;" fill="rgb(50, 49, 63)" stroke="none" stroke-width="1px">120k</text><text x="193.4659090909091" y="0" dx="0em" dy="0.95em" style="text-anchor: middle; visibility: hidden; font-family: &quot;Helvetica Neue&quot;, sans-serif; font-size: 13.3333px; font-weight: 200;" fill="rgb(50, 49, 63)" stroke="none" stroke-width="1px">140k</text><text x="217.64914772727275" y="0" dx="0em" dy="0.95em" style="text-anchor: middle; visibility: inherit; font-family: &quot;Helvetica Neue&quot;, sans-serif; font-size: 13.3333px; font-weight: 200;" fill="rgb(50, 49, 63)" stroke="none" stroke-width="1px">160k</text><text x="241.83238636363635" y="0" dx="0em" dy="0.95em" style="text-anchor: middle; visibility: hidden; font-family: &quot;Helvetica Neue&quot;, sans-serif; font-size: 13.3333px; font-weight: 200;" fill="rgb(50, 49, 63)" stroke="none" stroke-width="1px">180k</text><text x="266.015625" y="0" dx="0em" dy="0.95em" style="text-anchor: middle; visibility: hidden; font-family: &quot;Helvetica Neue&quot;, sans-serif; font-size: 13.3333px; font-weight: 200;" fill="rgb(50, 49, 63)" stroke="none" stroke-width="1px">200k</text></g><line x1="0" y1="0" x2="266.015625" y2="0" fill="rgb(0, 0, 0)" stroke="rgb(204, 204, 204)" stroke-width="1px"></line></g></g></g></g></svg>