<svg viewBox="0 0 330.0000305175781 200.00001525878906" xmlns="http://www.w3.org/2000/svg"><g><g><g><g><g><line x1="63.984375" y1="177" x2="58.984375" y2="177" style="visibility: inherit;" fill="rgb(0, 0, 0)" stroke="rgb(204, 204, 204)" stroke-width="1px"></line><line x1="63.984375" y1="163.3846153846154" x2="58.984375" y2="163.3846153846154" style="visibility: inherit;" fill="rgb(0, 0, 0)" stroke="rgb(204, 204, 204)" stroke-width="1px"></line><line x1="63.984375" y1="149.76923076923077" x2="58.984375" y2="149.76923076923077" style="visibility: inherit;" fill="rgb(0, 0, 0)" stroke="rgb(204, 204, 204)" stroke-width="1px"></line><line x1="63.984375" y1="136.15384615384616" x2="58.984375" y2="136.15384615384616" style="visibility: inherit;" fill="rgb(0, 0, 0)" stroke="rgb(204, 204, 204)" stroke-width="1px"></line><line x1="63.984375" y1="122.53846153846153" x2="58.984375" y2="122.53846153846153" style="visibility: inherit;" fill="rgb(0, 0, 0)" stroke="rgb(204, 204, 204)" stroke-width="1px"></line><line x1="63.984375" y1="108.92307692307692" x2="58.984375" y2="108.92307692307692" style="visibility: inherit;" fill="rgb(0, 0, 0)" stroke="rgb(204, 204, 204)" stroke-width="1px"></line><line x1="63.984375" y1="95.3076923076923" x2="58.984375" y2="95.3076923076923" style="visibility: inherit;" fill="rgb(0, 0, 0)" stroke="rgb(204, 204, 204)" stroke-width="1px"></line><line x1="63.984375" y1="81.6923076923077" x2="58.984375" y2="81.6923076923077" style="visibility: inherit;" fill="rgb(0, 0, 0)" stroke="rgb(204, 204, 204)" stroke-width="1px"></line><line x1="63.984375" y1="68.07692307692307" x2="58.984375" y2="68.07692307692307" style="visibility: inherit;" fill="rgb(0, 0, 0)" stroke="rgb(204, 204, 204)" stroke-width="1px"></line><line x1="63.984375" y1="54.46153846153847" x2="58.984375" y2="54.46153846153847" style="visibility: inherit;" fill="rgb(0, 0, 0)" stroke="rgb(204, 204, 204)" stroke-width="1px"></line><line x1="63.984375" y1="40.84615384615387" x2="58.984375" y2="40.84615384615387" style="visibility: inherit;" fill="rgb(0, 0, 0)" stroke="rgb(204, 204, 204)" stroke-width="1px"></line><line x1="63.984375" y1="27.230769230769226" x2="58.984375" y2="27.230769230769226" style="visibility: inherit;" fill="rgb(0, 0, 0)" stroke="rgb(204, 204, 204)" stroke-width="1px"></line><line x1="63.984375" y1="13.615384615384613" x2="58.984375" y2="13.615384615384613" style="visibility: inherit;" fill="rgb(0, 0, 0)" stroke="rgb(204, 204, 204)" stroke-width="1px"></line><line x1="63.984375" y1="0" x2="58.984375" y2="0" style="visibility: inherit;" fill="rgb(0, 0, 0)" stroke="rgb(204, 204, 204)" stroke-width="1px"></line></g><g transform="translate(53.984375, 0)"><text x="0" y="177" dx="0em" dy="0.3em" style="text-anchor: end; visibility: hidden; font-family: &quot;Helvetica Neue&quot;, sans-serif; font-size: 13.3333px; font-weight: 200;" fill="rgb(50, 49, 63)" stroke="none" stroke-width="1px">-0.02</text><text x="0" y="163.3846153846154" dx="0em" dy="0.3em" style="text-anchor: end; visibility: inherit; font-family: &quot;Helvetica Neue&quot;, sans-serif; font-size: 13.3333px; font-weight: 200;" fill="rgb(50, 49, 63)" stroke="none" stroke-width="1px">0</text><text x="0" y="149.76923076923077" dx="0em" dy="0.3em" style="text-anchor: end; visibility: hidden; font-family: &quot;Helvetica Neue&quot;, sans-serif; font-size: 13.3333px; font-weight: 200;" fill="rgb(50, 49, 63)" stroke="none" stroke-width="1px">0.02</text><text x="0" y="136.15384615384616" dx="0em" dy="0.3em" style="text-anchor: end; visibility: inherit; font-family: &quot;Helvetica Neue&quot;, sans-serif; font-size: 13.3333px; font-weight: 200;" fill="rgb(50, 49, 63)" stroke="none" stroke-width="1px">0.04</text><text x="0" y="122.53846153846153" dx="0em" dy="0.3em" style="text-anchor: end; visibility: hidden; font-family: &quot;Helvetica Neue&quot;, sans-serif; font-size: 13.3333px; font-weight: 200;" fill="rgb(50, 49, 63)" stroke="none" stroke-width="1px">0.06</text><text x="0" y="108.92307692307692" dx="0em" dy="0.3em" style="text-anchor: end; visibility: inherit; font-family: &quot;Helvetica Neue&quot;, sans-serif; font-size: 13.3333px; font-weight: 200;" fill="rgb(50, 49, 63)" stroke="none" stroke-width="1px">0.08</text><text x="0" y="95.3076923076923" dx="0em" dy="0.3em" style="text-anchor: end; visibility: hidden; font-family: &quot;Helvetica Neue&quot;, sans-serif; font-size: 13.3333px; font-weight: 200;" fill="rgb(50, 49, 63)" stroke="none" stroke-width="1px">0.1</text><text x="0" y="81.6923076923077" dx="0em" dy="0.3em" style="text-anchor: end; visibility: inherit; font-family: &quot;Helvetica Neue&quot;, sans-serif; font-size: 13.3333px; font-weight: 200;" fill="rgb(50, 49, 63)" stroke="none" stroke-width="1px">0.12</text><text x="0" y="68.07692307692307" dx="0em" dy="0.3em" style="text-anchor: end; visibility: hidden; font-family: &quot;Helvetica Neue&quot;, sans-serif; font-size: 13.3333px; font-weight: 200;" fill="rgb(50, 49, 63)" stroke="none" stroke-width="1px">0.14</text><text x="0" y="54.46153846153847" dx="0em" dy="0.3em" style="text-anchor: end; visibility: inherit; font-family: &quot;Helvetica Neue&quot;, sans-serif; font-size: 13.3333px; font-weight: 200;" fill="rgb(50, 49, 63)" stroke="none" stroke-width="1px">0.16</text><text x="0" y="40.84615384615387" dx="0em" dy="0.3em" style="text-anchor: end; visibility: hidden; font-family: &quot;Helvetica Neue&quot;, sans-serif; font-size: 13.3333px; font-weight: 200;" fill="rgb(50, 49, 63)" stroke="none" stroke-width="1px">0.18</text><text x="0" y="27.230769230769226" dx="0em" dy="0.3em" style="text-anchor: end; visibility: inherit; font-family: &quot;Helvetica Neue&quot;, sans-serif; font-size: 13.3333px; font-weight: 200;" fill="rgb(50, 49, 63)" stroke="none" stroke-width="1px">0.2</text><text x="0" y="13.615384615384613" dx="0em" dy="0.3em" style="text-anchor: end; visibility: hidden; font-family: &quot;Helvetica Neue&quot;, sans-serif; font-size: 13.3333px; font-weight: 200;" fill="rgb(50, 49, 63)" stroke="none" stroke-width="1px">0.22</text><text x="0" y="0" dx="0em" dy="0.3em" style="text-anchor: end; visibility: hidden; font-family: &quot;Helvetica Neue&quot;, sans-serif; font-size: 13.3333px; font-weight: 200;" fill="rgb(50, 49, 63)" stroke="none" stroke-width="1px">0.24</text></g><line x1="63.984375" y1="0" x2="63.984375" y2="177" fill="rgb(0, 0, 0)" stroke="rgb(204, 204, 204)" stroke-width="1px"></line></g></g><g transform="translate(63, 0)" clip-path="url(#clip_0)"><clipPath id="clip_0"><rect width="266" height="176"></rect></clipPath><g><g><g><line x1="0" y1="0" x2="0" y2="177" fill="rgb(0, 0, 0)" stroke="rgb(60, 60, 60)" stroke-width="1px" opacity="0.25"></line><line x1="24.183238636363637" y1="0" x2="24.183238636363637" y2="177" fill="rgb(0, 0, 0)" stroke="rgb(60, 60, 60)" stroke-width="1px" opacity="0.25"></line><line x1="48.36647727272727" y1="0" x2="48.36647727272727" y2="177" fill="rgb(0, 0, 0)" stroke="rgb(60, 60, 60)" stroke-width="1px" opacity="0.25"></line><line x1="72.5497159090909" y1="0" x2="72.5497159090909" y2="177" fill="rgb(0, 0, 0)" stroke="rgb(60, 60, 60)" stroke-width="1px" opacity="0.25"></line><line x1="96.73295454545455" y1="0" x2="96.73295454545455" y2="177" fill="rgb(0, 0, 0)" stroke="rgb(60, 60, 60)" stroke-width="1px" opacity="0.25"></line><line x1="120.91619318181817" y1="0" x2="120.91619318181817" y2="177" fill="rgb(0, 0, 0)" stroke="rgb(60, 60, 60)" stroke-width="1px" opacity="0.25"></line><line x1="145.0994318181818" y1="0" x2="145.0994318181818" y2="177" fill="rgb(0, 0, 0)" stroke="rgb(60, 60, 60)" stroke-width="1px" opacity="0.25"></line><line x1="169.28267045454544" y1="0" x2="169.28267045454544" y2="177" fill="rgb(0, 0, 0)" stroke="rgb(60, 60, 60)" stroke-width="1px" opacity="0.25"></line><line x1="193.4659090909091" y1="0" x2="193.4659090909091" y2="177" fill="rgb(0, 0, 0)" stroke="rgb(60, 60, 60)" stroke-width="1px" opacity="0.25"></line><line x1="217.64914772727275" y1="0" x2="217.64914772727275" y2="177" fill="rgb(0, 0, 0)" stroke="rgb(60, 60, 60)" stroke-width="1px" opacity="0.25"></line><line x1="241.83238636363635" y1="0" x2="241.83238636363635" y2="177" fill="rgb(0, 0, 0)" stroke="rgb(60, 60, 60)" stroke-width="1px" opacity="0.25"></line><line x1="266.015625" y1="0" x2="266.015625" y2="177" fill="rgb(0, 0, 0)" stroke="rgb(60, 60, 60)" stroke-width="1px" opacity="0.25"></line></g><g><line x1="0" y1="177" x2="266.015625" y2="177" fill="rgb(0, 0, 0)" stroke="rgb(60, 60, 60)" stroke-width="1px" opacity="0.25"></line><line x1="0" y1="163.3846153846154" x2="266.015625" y2="163.3846153846154" fill="rgb(0, 0, 0)" stroke="rgb(60, 60, 60)" stroke-width="1px" opacity="0.25"></line><line x1="0" y1="149.76923076923077" x2="266.015625" y2="149.76923076923077" fill="rgb(0, 0, 0)" stroke="rgb(60, 60, 60)" stroke-width="1px" opacity="0.25"></line><line x1="0" y1="136.15384615384616" x2="266.015625" y2="136.15384615384616" fill="rgb(0, 0, 0)" stroke="rgb(60, 60, 60)" stroke-width="1px" opacity="0.25"></line><line x1="0" y1="122.53846153846153" x2="266.015625" y2="122.53846153846153" fill="rgb(0, 0, 0)" stroke="rgb(60, 60, 60)" stroke-width="1px" opacity="0.25"></line><line x1="0" y1="108.92307692307692" x2="266.015625" y2="108.92307692307692" fill="rgb(0, 0, 0)" stroke="rgb(60, 60, 60)" stroke-width="1px" opacity="0.25"></line><line x1="0" y1="95.3076923076923" x2="266.015625" y2="95.3076923076923" fill="rgb(0, 0, 0)" stroke="rgb(60, 60, 60)" stroke-width="1px" opacity="0.25"></line><line x1="0" y1="81.6923076923077" x2="266.015625" y2="81.6923076923077" fill="rgb(0, 0, 0)" stroke="rgb(60, 60, 60)" stroke-width="1px" opacity="0.25"></line><line x1="0" y1="68.07692307692307" x2="266.015625" y2="68.07692307692307" fill="rgb(0, 0, 0)" stroke="rgb(60, 60, 60)" stroke-width="1px" opacity="0.25"></line><line x1="0" y1="54.46153846153847" x2="266.015625" y2="54.46153846153847" fill="rgb(0, 0, 0)" stroke="rgb(60, 60, 60)" stroke-width="1px" opacity="0.25"></line><line x1="0" y1="40.84615384615387" x2="266.015625" y2="40.84615384615387" fill="rgb(0, 0, 0)" stroke="rgb(60, 60, 60)" stroke-width="1px" opacity="0.25"></line><line x1="0" y1="27.230769230769226" x2="266.015625" y2="27.230769230769226" fill="rgb(0, 0, 0)" stroke="rgb(60, 60, 60)" stroke-width="1px" opacity="0.25"></line><line x1="0" y1="13.615384615384613" x2="266.015625" y2="13.615384615384613" fill="rgb(0, 0, 0)" stroke="rgb(60, 60, 60)" stroke-width="1px" opacity="0.25"></line><line x1="0" y1="0" x2="266.015625" y2="0" fill="rgb(0, 0, 0)" stroke="rgb(60, 60, 60)" stroke-width="1px" opacity="0.25"></line></g></g></g><g><g><line x1="0" y1="163.3846153846154" x2="266.015625" y2="163.3846153846154" fill="rgb(0, 0, 0)" stroke="rgb(153, 153, 153)" stroke-width="1.5px"></line></g></g><g><g><line x1="24.183238636363637" y1="0" x2="24.183238636363637" y2="177" fill="rgb(0, 0, 0)" stroke="rgb(153, 153, 153)" stroke-width="1.5px"></line></g></g><g><g><g><g><g><path stroke="rgb(255, 112, 67)" stroke-width="2px" d="M37.98219460227273,-4.916186230862024L38.27360262784091,0.6998223644546613L39.23851384943182,1.0437776489294777L39.62302734375,2.1895512863942486L39.94345525568182,2.626585336934056L40.38721768465909,5.229588735419441L40.64235085227273,9.303359157906982L40.768103693181814,12.965912235694134L41.95429154829545,16.27475071229054L42.27109197443182,20.22191593354117L42.33517755681818,16.049714639458927L42.65439630681818,20.39836617766369L42.96998757102273,23.234373180439206L43.09574041193182,25.175632465558436L43.603588423295456,24.932620604973778L43.66767400568182,26.414479219636434L44.36294211647727,28.647983747829272L44.93245738636363,28.77191374166142L45.43909623579545,30.57034507857597L46.449955610795456,29.462037681905514L46.69299715909091,32.91353089300816L47.31813387784091,32.32431279559327L50.08227805397727,33.281636118157394L50.14636363636364,36.4834288906313L50.649375000000006,38.69668695784398L51.212844460227274,41.121860093887165L51.339806463068186,43.525108961715574L51.40026455965909,43.16330117540255L51.58889382102273,44.08002227853092L51.96494318181818,42.46641055219183L52.534458451704545,41.65455344610254L52.72187855113636,44.520778742539335L52.78475497159091,45.271458646971155L53.41351917613637,46.25395676327474L54.473954190340905,48.01775876763401L54.59970703125,50.251882573313736L55.78831321022728,52.91672048648152L55.914066051136366,54.15210082087144L56.09906782670455,56.83884890626152L56.60087002840909,55.10760320179793L56.970873579545454,57.581691945940435L57.094208096590904,60.15245694549243L57.28404651988636,60.180185245804424L57.66251420454545,58.16312027414982L57.97810546875,60.11380657823065L58.599614701704546,60.11088593027661L58.97203657670454,60.97170243688571L59.31785688920455,61.71770672369087L59.51253196022727,63.10318014383007L59.80514914772727,65.21082708484519L59.90309126420454,66.14482114481112L60.050609019886366,64.77099043711212L60.15338778409091,65.54176872029167L60.20296342329545,67.12195257804434L60.46051491477272,68.49419805484558L60.51009055397727,69.5137120820295L60.96473544034091,67.95058903046261L61.373432173295456,67.81566979656749L61.62735617897727,68.58394900912162L61.88732599431818,70.6346061143193L61.991313920454544,71.19605274463436L62.61282315340909,72.4251450528519L63.0191015625,70.56412646004841L63.07714133522727,72.00000792426637L63.19443004261364,73.36930974488776L63.37096768465909,74.87764407195255L63.48946555397727,76.04015217669902L64.17626953125,77.24753340515402L64.34555220170455,78.39546485385793L64.5692471590909,79.5215055411905L64.72281072443182,78.88893659397279L64.88483842329545,80.40488702411741L65.10248757102273,81.23826018835497L65.15569069602273,82.45947692481906L65.37575816761364,82.91623690055751L65.65628373579545,84.22422220635275L66.65988813920455,85.77192229421053L67.10365056818182,85.25654730033952L67.3285546875,86.49334436200172L67.54862215909091,87.80173203482897L67.59819779829546,86.32377023211373L67.94401811079545,86.67925349667826L68.38778053977273,83.87796278563786L68.58608309659091,84.7509290905065L68.78317649147726,84.95365117499706L68.97664240056818,85.94132288529715L69.0250088778409,85.98416977662474L69.22210227272727,85.50993027960305L69.66223721590909,86.66316731761728L69.85812144886363,86.48753523959151L69.90769708806819,87.28662795439911L69.95727272727274,88.68398515058111L70.05521484375,89.71420125178528L70.10479048295454,90.99306595699535L70.39982599431819,91.72288689331565L70.5945010653409,92.20897727246462L70.64407670454545,92.3070437415318L70.74080965909091,93.52887676258423L70.98264204545455,94.67563843274382L71.0322176846591,96.08320971931035L71.08058416193182,97.06603619639574L71.27525923295454,97.21955470761824L71.46993430397727,98.39744467799851L71.71176669034091,98.63992798538801L71.76013316761363,98.17294841795389L71.80849964488635,99.47263688021471L72.92939275568182,100.33234018837368L73.12044034090908,101.57292653485551L73.2195916193182,101.93629049941009L73.4674698153409,103.14271420523893L74.71169744318182,103.27700904384935L74.81810369318183,102.52049182350112L75.08291015625,102.25589759216909L75.18568892045454,101.39097934784546L75.39608309659091,101.50981031322358L75.50369850852273,102.59309955837644L75.92327769886363,103.76853240201879L76.23886896306819,104.52840997333357L76.4468448153409,105.038083396631L76.7987109375,105.19121895047465L76.89423473011364,105.73567368986703L77.20740767045454,106.8167814997613L77.31381392045455,107.9320283297927L77.47342329545454,107.5180264989197L77.63182350852273,108.42982067758088L78.0562393465909,107.57067862668133L78.10944247159091,107.6328997958248L78.26905184659091,108.32071234199965L78.63905539772728,109.15635238641227L78.78052734375001,109.78495201987033L79.15778586647728,110.75836115590269L79.32706853693182,111.78709591650325L79.46128551136364,111.89619827142756L79.5120703125,112.74522490656827L79.99331676136364,112.8676553771335L80.04651988636364,112.61788059560836L80.26900568181819,113.13387323430287L80.37783025568181,111.54348127649781L80.43345170454546,111.7166161660327L80.65351917613636,112.24110168005892L80.709140625,112.50792585345056L80.87358664772727,113.39767779042494L80.92799893465909,108.86730734736066L81.3669247159091,109.9887808359282L81.58457386363636,110.64656218295629L81.69581676136363,110.40076189920914L81.80464133522727,111.00995138326984L81.85905362215908,110.73138437137364L82.34392755681819,111.60937036502729L82.50474609375,111.74259418534841L82.93399857954545,112.31825637349455L83.04282315340909,113.13738575391783L83.58694602272728,113.53143883362961L83.96420454545455,113.05255942367936L84.66310014204545,113.2351586595457L84.98957386363637,113.9981454781256L85.1503924005682,114.49010914846511L85.25921697443181,115.2927967273933L85.47686612215908,116.15431127336689L85.69209694602273,116.63413067464231L85.79850319602274,116.99089502593192L86.06572798295454,117.81109756225095L86.11893110795455,118.24430842482397L86.59655007102273,119.09845669793262L86.92060546875,119.09598101059336L87.1394637784091,118.67397647016787L87.19387606534092,117.78194064529895L87.73920809659091,118.23025447185185L88.01126953125,119.04116002078388L88.75974076704546,119.32680074390436L88.86614701704545,119.2722289972016L89.9592294034091,118.60572098595779L90.01485085227273,118.11573249514183L90.23612748579546,118.60929854249271L90.29053977272729,116.61781128627585L90.3449520596591,117.31429029425283L91.32437322443182,117.07523057597984L91.99183061079546,116.78973688578526L92.04624289772728,117.33818809286814L92.3799715909091,116.89923965993165L92.49000532670455,115.22041721821805L92.76448508522728,115.05258514221947L94.20459694602272,115.19881052429338L94.31463068181819,115.9227886217937L94.86359019886365,114.73448200294294L95.46091619318183,115.07147526064337L95.62173473011363,114.27618170021532L95.78738991477272,114.8195505373937L96.87321732954545,115.05385437256234L97.1960635653409,114.85278606384327L97.57815873579545,114.3256733760076L97.90463245738636,114.34382734582542L98.45117365056818,114.52936036566851L98.71960759943182,115.36311562329931L98.77401988636365,115.8251809764243L98.93846590909091,116.40903759222127L99.38101917613636,116.77403313783665L99.54788352272728,116.5735773497405L99.71474786931817,116.59900175922516L99.88040305397728,117.43204129436819L99.93602450284091,117.87297695258313L100.92874644886363,117.85276542015579L101.75339488636364,118.31140691655975L102.57925248579546,119.17379599734736L102.74369850852273,119.88413136186551L102.80052911931818,119.73717477494586L102.91177201704545,119.65828388390611L102.96497514204546,119.69154180837904L104.16325461647727,119.90370916835346L104.43289772727273,120.71407317917718L104.59734375,120.89560570650292L104.81620205965909,121.55971265380887L104.92502663352272,122.2921907713546L105.1414666193182,121.46129127639463L105.35911576704545,121.30289183757665L105.57676491477272,121.1057945956372L106.94190873579545,121.15117922559807L106.9975301846591,120.2707079015935L107.6033203125,119.98287160843523L108.04224609375001,120.7482976090466L108.09544921874999,121.07390382595412L108.26231356534092,121.33774384098136L108.374765625,121.86645805439889L108.43038707386364,122.52691095434744L108.92614346590909,123.34309215623591L109.31186612215909,123.39460548499623L110.10870383522726,123.3951226391008L110.16190696022727,124.19165613495109L110.31788884943181,124.93251435043322L111.55607066761364,125.54495934165146L111.60322798295455,126.06372110885428L111.70237926136363,126.35590335835931L112.04578125,126.37739103541662L112.39522904829546,126.9534062810624L112.44480468750001,126.24696464818965L112.89461292613636,126.9074065397289L113.09049715909092,127.06708805535418L113.19085759943182,127.06845575531383L113.39278764204545,127.44041296072135L113.8208309659091,127.46724352359402L114.17390625,127.8722257578523L114.22348188920454,127.78385428602748L114.47136008522727,128.18431864059113L114.87763849431818,128.71818957851286L115.32744673295454,129.02604223630385L115.37702237215909,129.6045280073034L115.57653409090909,129.41159130859066L115.78813742897728,128.05736220947233L115.91630859375,127.84037793650312L116.00457741477273,128.3608564214917L116.13879438920455,129.0402789319622L116.27180220170455,128.5136328997752L116.44713068181818,127.19167508486663L116.79657848011364,127.62397488209412L117.15086292613637,128.11639110668057L117.32619140625,128.59242341688554L117.45799005681818,129.1972967835909L117.7651171875,129.2095229932722L118.15204900568182,128.78916316088865L118.32858664772728,129.1481458816349L118.37211647727273,129.48910322422648L118.41564630681819,129.0663392479159L118.5027059659091,128.94431022834715L118.63208629261364,129.53923189566476L118.9283309659091,129.2783230406277L119.30075284090908,129.78592655566808L119.74572443181819,129.15735172964085L119.90654296875,128.89921596476654L119.9790926846591,128.95521703208797L120.10242720170454,129.49216074259652L120.31765802556818,129.90780928590073L120.44462002840909,130.34696498250554L120.48814985795454,130.95230879420677L120.5256338778409,130.8205992862959L120.717890625,128.4311327074768L121.36841974431819,129.04229862040287L121.78316228693183,129.644467991964L122.05885120738635,129.4530484648331L122.40346235795454,129.872980055588L122.44820134943183,130.42013584772332L122.86415305397728,128.0111864390219L123.18337180397728,128.01746146559162L123.70935724431818,128.44891965026912L124.03220348011364,128.52120210795127L124.1289364346591,127.06895594324979L124.32240234375,127.60779803727017L124.78913884943181,128.1612730385696L124.83871448863637,127.39184934031529L124.98865056818182,128.11208428140117L125.21355468750001,128.22255988357566L125.30303267045454,128.7648092230056L125.63434303977273,129.37188447032736L125.71172940340908,129.1199005397438L125.86650213068181,129.68140302348294L125.89189453125,129.3713681464928L125.91728693181818,129.90943535245785L126.79272017045454,130.3089079309609L126.94386541193181,128.82703023461642L127.12886718749999,128.51239015588058L127.28726740056818,129.08895125543677L127.39367365056819,129.02512168675085L127.44687677556819,129.41908962181515L127.5012890625,127.92671747349961L127.65968927556818,128.53316499960746L127.73828480113637,128.26537949291964L127.78906960227273,128.90335524485266L127.86766512784091,129.38871799077242L127.94505149147727,128.82709314282272L128.02364701704545,129.3780775932291L128.26064275568183,128.97831918684025L128.31384588068184,128.71501076767228L128.62701882102272,128.57326195305356L128.65362038352274,129.12116292489867L128.68022194602273,128.9448072035112L129.04780717329544,129.2648584506136L129.15300426136363,129.83307857889417L129.2569921875,130.0710179265284L129.36098011363637,129.30746154384116L129.4649680397727,129.7312147617664L129.5157528409091,129.78899347821775L129.5677468039773,130.0324271671849L129.77693181818182,129.59314481202713L129.82892578125,129.53967734648216L129.90873046875,130.01298015891035L129.98732599431818,129.6101400679176L130.06350319602274,130.26863963625476L130.19288352272727,130.27627441408328L130.68259410511365,130.9320139487183L130.99576704545453,131.3153651246088L131.02236860795455,131.89055489388716L131.10338245738637,130.50048228170297L131.12998401988636,131.0739928301278L131.18318714488635,131.69942490300116L131.23639026988636,131.9254704302266L131.34279651988635,131.25723575384325L131.44678444602272,131.78583848854828L131.57979225852273,132.04216747117738L131.63420454545454,132.29336491058024L131.82041548295456,132.42748697418148L132.03564630681817,133.03438336714262L132.14326171875,132.2242278207164L132.27626953125,132.7748218164873L132.32826349431818,133.35150777401194L132.35365589488637,133.8382210240868L132.75751598011362,132.35873020090287L132.83973899147728,132.97872964652623L132.9207528409091,133.23292021379297L132.94856356534092,133.44036686455922L133.05617897727274,133.14552813799023L133.11059126420457,130.5517192444026L133.24359907670456,130.95412167721545L133.45520241477274,131.41923989086672L133.48301313920456,131.59019903584897L133.58700106534093,130.89737565139075L133.6414133522727,131.2274894675703L133.69703480113637,130.98315606333446L133.81069602272726,131.59145007436786L134.07429332386366,132.10487305769615L134.12870561079546,132.01812409270764L134.18069957386365,132.30885998475983L134.20730113636364,131.7709102538634L134.31612571022728,131.83211862794502L134.39351207386363,132.3230323244095L134.60511541193182,131.46512854092776L134.71393998579546,132.09717103659298L135.0899893465909,130.6066791706225L135.19760475852271,130.69937797782137L135.25201704545455,131.32942392980985L135.38623401988636,131.91606688880918L135.41283558238635,132.18401651662103L135.4660387073864,131.52903208337003L135.52045099431817,131.72449159763752L135.54826171874998,131.9316410145977L135.60267400568182,132.35691668353957L135.65708629261363,131.15987745798887L135.68489701704547,131.31691812278797L135.87594460227274,131.85163764069253L135.95695845170454,132.42481273451742L136.0730379971591,131.85929660567334L136.60990589488637,132.12888927118544L136.8855948153409,132.52617176867076L137.05366832386366,132.89437581018046L137.14072798295456,132.36312201342497L137.22053267045456,132.89372707020027L137.3051740056818,133.3118014344417L137.33056640625,133.74770978478068L137.3559588068182,133.99735728191865L137.6219744318182,134.43855046853744L137.65824928977273,133.70004694819258L137.68485085227272,132.75952235984204L137.73442649147728,132.7630488190317L138.05485440340908,132.76530321069464L138.08266512784093,131.21673839912967L138.13465909090908,131.74309265250182L138.3535174005682,132.2729408575809L138.6098597301136,132.82458891791973L139.07296875,130.65709835156255L139.4514364346591,131.3110537352697L139.5578426846591,131.7618274538077L139.5844442471591,131.33667340068376L139.63764737215908,130.74466222894316L139.85166903409092,130.2661604935318L139.9036629971591,129.8739097384685L140.01127840909092,130.12110755160523L140.26641157670454,130.64732466290096L140.46955078125,130.62922484942027L140.49736150568182,130.49031185826578L140.76942294034092,130.12428841030663L140.97135298295456,130.73271209944144L141.12975319602273,129.49660137650818L141.15635475852272,130.07287913366667L141.21076704545456,130.4856331106429L141.26517933238637,130.7724731361962L141.39818714488638,131.1276039564449L142.08136363636362,130.76814996698033L142.10917436079546,130.39708583671103L142.38244495738635,130.83251890644254L142.43564808238636,131.2299376273803L142.54447265625,131.78112812385373L142.57107421875,132.0023955773798L142.87215553977273,131.71265135328792L142.95558771306818,132.18290770246844L143.12245205965908,132.56290771604597L143.26029651988637,133.1037377884888L143.31591796875,133.56641190253146L143.3703302556818,133.90145953642144L143.42716086647727,133.65926434019548L143.67141157670454,134.1144597539772L143.7790269886364,134.48159908498013L143.8878515625,133.44769789830988L143.9410546875,133.15997624756284L144.02448686079546,132.9241622680559L144.26873757102274,132.89371826775502L144.29654829545453,131.72689626807363L144.56981889204545,132.15443521001225L144.6254403409091,132.49271743992142L144.9591690340909,131.35666276820356L144.98697975852275,131.81928395276927L145.0075355113636,132.34186856401016L145.1175692471591,132.27693785266945L145.22276633522728,132.17593663941574L145.39083984375,132.52231099879495L145.85999467329546,132.92670635797128L145.9422176846591,133.51300100904305L146.02806818181818,132.6869429896714L146.05587890625,132.30367621556877L146.28078302556818,132.3431579051748L146.44764737215908,132.46059474116905L146.61330255681816,133.04491185856548L146.74751953125,132.8134365070431L147.26866832386364,133.41376393393463L147.37628373579545,133.0028624985327L147.4306960227273,131.14963036125545L147.56612215909092,131.2329857757171L147.70275745738635,130.6545487578898L148.02681285511366,130.96196315826953L148.18763139204543,131.15361589669078L148.55037997159093,131.21278957367045L148.8369513494318,131.76614065187442L148.85992542613639,130.93939451109074L148.94093927556818,130.22632189280293L149.10659446022726,130.55222732154078L149.29280539772728,130.80016171467003L149.32545276988637,131.16570378261474L149.35326349431818,130.94374195531074L149.38107421875,131.29155630725234L149.40767578125,130.90036506102652L149.65313565340907,130.8882281176947L150.26255326704546,130.8560167660672L150.28915482954545,130.69120938033282L150.31575639204544,131.2587094784189L150.50075816761364,130.6814963944225L150.80909446022727,130.31922589982042L150.86229758522728,129.85784727398936L151.17909801136364,128.99113208704213L151.20690873579545,129.65288823631752L151.28550426136366,128.2345635156925L151.3435440340909,128.80979198710037L151.37135475852273,128.98053832734269L151.42455788352274,129.39600071260713L151.93361505681818,129.410732689812L152.15126420454544,128.83705671851862L152.22985973011362,128.85944225574076L152.46927379261362,129.19448015249674L152.49345703125002,129.7634137674532L152.70626953124997,130.36662303019497L152.73287109375002,130.69159288354973L152.8936896306818,131.3350422277512L152.97228515625,130.56059414098848L153.13189453125,130.94772051854395L153.18388849431818,131.32352383966642L153.23588245738637,131.93125248513144L153.68085404829546,132.37152886707764L153.73284801136364,132.69828808404012L153.75944957386363,133.09434346209213L153.78484197443183,133.57321448270434L154.0677858664773,134.06551496864682L154.32291903409092,134.53071020381927L154.53089488636365,134.83207488139348L154.9734481534091,134.9943658078266L155.15119495738637,135.3720138564163L155.17658735795456,135.4949477914194L155.25034623579546,135.66760251010413L155.67597123579546,136.18846916766535L155.78116832386362,136.1461538284883L155.91417613636364,135.41540021222465L155.96737926136362,135.19426662413952L156.0193732244318,134.38360148857106L156.0725763494318,133.67740681691993L156.1245703125,134.1569072459054L156.23097656250002,134.30406184973612L156.25636896306816,134.75577046982096L156.33980113636366,135.17155879687252L156.4909463778409,135.25578813450227L156.5441495028409,134.24824184665633L156.62153586647727,133.77500111148342L156.8283025568182,134.11778585382126L156.88876065340907,133.90769206928135L156.9165713778409,134.2090082665841L156.93349964488638,134.6598456148439L157.1499396306818,135.1411308507855L157.56468217329544,135.38751946298456L157.61909446022727,135.2772017189374L157.67834339488635,135.13949135204047L157.7327556818182,134.63939994404672L158.04351029829544,134.34506237874652L158.15958984375,134.31992807501362L158.53080255681817,133.77209039328355L158.64567294034092,133.95839029131542L159.19705078125,134.27596037054013L159.63355823863637,134.41708675091482L159.66741477272728,134.668070026069L159.86934481534092,134.09341623194268L159.90199218749999,133.76897917470976L159.96970525568182,133.14390554162534L160.07127485795453,133.51916382747294L160.23693004261364,133.89474861597162L160.36751953125,133.16000038758966L160.43523259943183,132.32529453652603L160.96968217329544,132.4510785814308L161.33726740056818,133.03777812958657L161.5730539772727,133.21059193026628L161.60570134943183,131.53904284865473L161.83060546874998,131.83999272107775L161.93217507102273,131.39237678153768L162.7278036221591,131.58430038556156L162.82574573863639,132.13657666547067L163.05427734375,132.09549985422024L163.15342862215908,132.59246899418935L163.18728515625003,132.87505191938237L163.2525799005682,133.4768109946706L163.28401811079547,133.198485890229L163.51496803977273,133.75569062637817L163.93333806818183,134.34696757452767L164.09415660511362,134.56664778054383L164.38798295454546,134.77244963308084L164.4496502130682,135.3301190174734L164.51615411931817,135.58707007837808L164.74226740056818,135.74045652362065L165.1691015625,135.44584033751255L165.23197798295453,135.51255049357252L165.42544389204545,135.07898152426256L165.68783203125,135.49386537759727L165.8800887784091,135.81042061096394L165.91273615056818,135.87325102440428L166.07113636363638,134.70033493034413L166.2343732244318,135.11070596445037L166.4604865056818,135.58488401981666L166.7132013494318,135.70578161937914L166.8377450284091,136.0899934424835L166.96470703125001,135.5529391851453L167.37098544034092,135.51604227827949L167.43507102272727,135.971428402492L167.49915660511363,135.1040634728655L167.59468039772727,135.15696103232557L167.75187144886362,135.71675349434122L168.28269353693182,135.99625018896944L168.44109375,134.7300049462246L169.01665482954544,135.0278727723158L169.1472443181818,135.452324064726L169.24397727272728,135.965098264218L169.40842329545455,136.16118184496435L169.63695490056818,135.0077025968323L169.76512606534092,134.69624424423313L169.8316299715909,134.22603870249213L170.00695845170455,134.1459843648294L170.02630504261364,134.48063054062695L170.16898615056817,135.0085392137601L170.37212535511364,134.95277177455432L170.55108132102274,135.50916148254268L170.63814098011363,135.7729694472081L170.81709694602273,135.38000985809543L171.14357066761363,135.807804929123L171.20402876420457,136.17512139690422L171.49785511363638,136.07307462461532L171.58733309659092,136.53688718373755L171.64658203125,136.0896499293583L171.7940997869318,135.78353878886116L172.25720880681817,135.64009458329204L172.31645774147728,135.8695499830831L172.49420454545452,136.09506231283643L172.6090749289773,135.9369977669271L172.6707421875,136.2421277280491L173.08185724431817,136.64832127206853L173.4433966619318,135.44106009840067L173.5945419034091,135.88336292003842L173.95970880681816,135.74418988007858L173.99114701704548,135.7905290682653L174.17614879261365,136.09001926928957L174.20637784090908,136.19040894589904L174.62474786931818,136.727359927991L174.74203657670455,136.47850777732987L174.80249467329546,136.0562856476951L174.8629527698864,136.5899753052388L174.9524307528409,136.26217200160366L175.04069957386363,136.21649285075563L175.31397017045455,135.22409783442617L175.48929865056817,135.66477298617332L175.5509659090909,135.9206809389405L175.88832208806818,135.50418465223999L175.91855113636365,135.14199804232683L176.10113458806816,135.27817635681964L176.31152876420455,135.05456754364576L177.03702592329546,135.53391888356214L177.22202769886363,135.84821906331825L177.26676669034092,135.46947215686112L177.90762251420455,135.8691678790334L177.99951882102275,136.34868863710454L178.12527166193183,136.00943243308134L178.1567098721591,136.5244981489821L178.18089311079544,136.81560204203925L178.3646857244318,136.1568201417296L178.45779119318183,135.94643877713094L178.51945845170454,136.02517388020905L178.79756569602273,136.01704209724517L179.01158735795454,135.29952333702823L179.15789595170455,135.5544532467384L179.40335582386365,134.3770090666129L179.52427201704543,134.87977213837144L179.64881569602272,134.81416272906998L180.04783913352273,135.04352731506208L180.10829723011364,135.15159569813778L180.19414772727274,135.41688492353148L180.55931463068183,134.7275801035343L180.68143998579546,134.24680804444574L180.83258522727272,132.81431662694044L180.89183416193183,132.9767670461994L181.19412464488636,133.24482019614322L181.24974609375,133.74983546657438L181.30899502840907,134.28206185774053L181.68988103693184,133.00724950947924L182.1675,133.4017880383492L182.31139026988635,133.8831944478453L182.5205752840909,133.7669793193939L183.24486328125,133.62999158670308L183.27267400568184,134.10960093087206L183.30290305397727,134.55627159883272L183.50725142045454,134.89561247297706L183.79503196022725,135.1230200116761L184.02840021306818,135.43610944554035L184.20131036931818,135.5534470116255L184.23033025568182,134.12006844781908L184.3476189630682,134.38094988885086L184.67046519886364,134.13157828607797L184.84579367897726,134.31946299634666L185.02354048295453,134.49523463651207L185.1142276278409,134.5028267328986L185.56524502840907,134.2383571144533L185.6849520596591,134.3376850594605L186.0126349431818,134.86233262390783L186.16136186079547,133.65459496729198L186.30887961647727,134.08691877351376L186.4249591619318,134.22568601586326L186.45518821022725,134.79569516223398L186.78287109375,134.92117758095446L186.81189098011362,135.36236704411394L187.13957386363634,135.31865766376603L187.20003196022728,135.6451887536308L187.23026100852272,135.75522351613486L187.4358185369318,136.18097084688247L187.4962766335227,135.61386802340806L187.52650568181818,136.12554436609446L187.55552556818182,136.66080040530676L187.5857546164773,136.70093099152498L187.76229225852273,134.11381490374225L188.4128213778409,134.44231965291786L188.90736860795457,134.92257154822192L189.05488636363634,135.3082749409758L189.0851154119318,133.80294092966744L189.1431551846591,134.28158182366337L189.3777325994318,134.69009430891683L189.73201704545454,133.82319044530067L191.0802325994318,134.27463848651277L191.4889293323864,133.34249911675565L191.51674005681818,133.45084702837207L191.83958629261363,131.99885272868835L191.86860617897727,132.6071235525959L191.92906427556818,131.89753656648912L191.9858948863636,131.32495489619205L192.07658203124998,131.6403845912872L192.10318359374997,131.42095531787737L192.1612233664773,131.97595431339496L192.82988991477274,132.54068066348805L192.9749893465909,132.6592692246876L193.06446732954547,133.2204198246264L193.15152698863636,133.62967561360847L193.2990447443182,134.11536607116977L193.61947265625,134.4192085222778L193.88548828125,134.4610700403092L193.9737571022727,133.90675467053626L194.00156782670456,132.8532229191356L194.26758345170455,133.0616248965789L194.43928444602273,133.03437930909195L194.92294921875,133.43743482034915L195.10069602272728,133.5451682142495L195.22040305397726,133.93259453455948L195.31350852272726,134.11282516765857L195.4948828125,134.58859399742755L195.55534090909092,135.08570526656808L195.8346573153409,135.39562928586992L195.94831853693182,135.40311408340781L196.1381569602273,135.54144356638758L196.29534801136364,136.0555893022738L196.47672230113636,136.1485717964524L196.74515625,136.40085207219894L196.95675958806817,136.91683163651211L197.07646661931818,137.43196332688018L197.3449005681818,137.87286964646302L197.79833629261364,138.29850698421095L198.00631214488638,137.55951626948854L198.09337180397728,137.04207956109533L198.15382990056818,137.4271909206979L198.18405894886365,137.17497378324478L198.30134765625,137.43621345003532L198.33157670454545,137.23978008977443L198.71609019886364,137.34563147320068L198.89625532670456,136.54421923943565L198.926484375,136.7074740871384L198.97606001420453,136.840156773589L199.14897017045456,137.2841860843995L199.22877485795453,137.15680680431993L199.40410333806818,137.37296374971L199.51776455965907,137.3850925024015L199.72090376420454,136.47484218692153L200.00505681818183,136.80960248747516L200.18038529829545,137.13172271772603L200.2976740056818,136.45837657710868L200.37385120738637,136.9620852619353L200.59512784090907,137.0845747582275L200.64228515624998,137.56814432961508L201.02317116477275,137.70738762555854L201.13925071022726,136.99103708461493L201.16947975852273,137.45978307779336L201.67974609375,137.88841643977332L201.70634765625,138.05535115546962L201.78373401988637,136.9756798192393L201.99896484375,135.88312261255612L202.0388671875,136.02104632794388L202.26618963068182,136.08348150811037L202.31697443181818,136.09706780084468L202.34599431818182,136.33340369734074L202.6386115056818,136.06287723908278L202.66884055397728,136.5345690507062L202.9578302556818,136.0128241774013L203.04972656249998,136.55323657501046L203.3350887784091,136.9666576230101L203.42698508522727,137.2178612292186L203.48381569602273,137.46743558732413L203.54427379261364,137.54807378634845L203.84414595170455,137.61837029429225L204.34473899147727,138.10762698507148L204.4934659090909,138.5840999498428L204.77520063920454,139.04568809014108L204.95536576704546,137.052258316588L205.16334161931817,135.8454105280229L205.34108842329547,136.37693132659916L205.40033735795456,136.87361396335487L205.51762606534092,137.32939179058735L205.72681107954546,137.4484879828383L205.75704012784092,137.9629049887332L205.7848508522727,138.42069208656187L206.09197798295455,138.31633713147625L206.72678799715908,138.7923598667785L206.87309659090909,139.12569883030682L207.02666015625,139.02725079300384L207.2044069602273,139.31849424883268L207.4994424715909,139.74478152619565L207.64937855113638,139.39013101848337L207.82833451704545,138.6126986414643L207.9492507102273,139.08587707366917L207.9782705965909,139.32937912366526L208.2188938210227,139.4462131229588L208.31199928977273,139.20054009650468L208.33981001420455,138.7627798046847L208.4026864346591,138.95210911611383L208.49216441761362,138.94879395716245L208.5211843039773,139.2411109231107L208.55383167613635,139.3712029377072L208.70014026988636,139.10696711826398L208.7618075284091,138.59539973027188L208.85007634943182,138.95173944775183L208.88030539772728,139.3986895455966L208.91053444602272,139.79223937406255L208.9371360085227,139.3003961149265L208.99880326704545,139.69013774721597L209.08949041193182,139.93850187192095L209.11851029829546,140.21808562084766L209.30472123579545,140.5472446499818L209.48367720170452,140.9871813249777L209.54292613636363,141.35102546025627L209.63240411931818,141.69713724680355L209.97943359375,141.33958674801903L210.21522017045453,141.68013507961302L210.26963245738636,141.83814522038801L210.44858842329546,142.20474324617152L210.65414595170455,142.2455749826471L210.79924538352273,142.6257909093813L211.01084872159092,142.68626936770647L211.40745383522727,141.60835924558359L211.5876189630682,140.6801333941017L211.64203125,140.8766607345793L212.12569602272728,140.55021909515068L212.21396484374998,140.8985148872859L212.27684126420456,140.80752614603557L212.3070703125,139.49206558241457L212.865703125,139.6407930205227L213.13171875,139.46319330149942L213.48116654829545,139.94037738027157L213.56097123579545,139.1692687173973L213.65044921875,139.58119467379188L214.02770774147726,139.19934055356163L214.2610759943182,139.05673251996757L214.4944442471591,139.36384057288976L214.52346413352274,139.69459085145286L214.61052379261363,139.8252150013651L214.66856356534092,139.68997231473196L214.6806551846591,140.14753535046145L215.0736328125,140.47435986710767L215.30821022727272,139.81392106015844L215.74229936079544,140.23502839920246L215.94906605113638,140.49485223126152L216.12197620738635,139.86107615257043L216.20903586647725,139.32157971451898L216.4158025568182,139.76201828029264L216.7966885653409,139.7135193601244L216.85110085227274,140.08610874142892L216.87770241477273,140.5341968395777L216.9079314630682,140.46387904050613L217.07842329545454,140.3832504282065L217.22110440340907,140.77257760441074L217.58989879261364,140.86695146696292L218.05542613636365,141.16837188886336L218.2537286931818,140.27867424100498L218.398828125,140.16860277213667L218.42301136363636,140.3645154512599L218.59108487215912,140.210336712156L218.8389630681818,140.17500476153367L218.95867009943183,139.88594263499186L219.00099076704544,139.38948789940878L219.1787375710227,139.7074424533449L219.25370561079544,138.95699810042973L219.3951775568182,139.12485886455346L219.91269886363636,139.5098096365533L220.0541708096591,139.8127602679355L220.21861683238637,140.22451661709613L220.40482776988634,140.43087384306324L220.5196981534091,140.0593262545262L220.60554865056818,140.49747450887853L221.01424538352273,140.88198549382116L221.24035866477274,141.15912835522929L221.34918323863636,140.88435523503455L221.37699396306817,140.99901454498342L221.88605113636365,141.42334625620768L221.9573916903409,141.3570851817835L221.9827840909091,141.1891274487066L222.03598721590907,141.61746090165613L222.0940269886364,140.173853150937L222.12425603693183,140.59603767611515L222.2367080965909,139.9398199507154L222.26572798295453,140.29246440828814L222.58011008522726,140.55532730521122L222.7276278409091,140.18552577249136L222.83887073863636,139.79815861365614L223.45675248579545,140.24915297495266L223.78080788352273,140.41269446103294L223.98273792613637,140.6458194116296L224.12904651988634,141.06612796862868L224.1725763494318,141.29557501132317L224.20038707386365,141.49332685986133L224.62843039772727,141.4520766832473L224.676796875,141.08128258609725L225.3998757102273,141.458537904973L225.54497514204544,141.89494389276845L226.08184303977274,142.24279707861334L226.13141867897727,142.21927316711853L226.23056995738636,141.6679187495168L226.2801455965909,141.88497297459276L226.76864701704545,141.8178467509366L227.1096306818182,141.69781103354146L227.30672407670454,141.39494898651455L227.50623579545456,141.80523003776923L227.95241654829545,142.19948426853796L228.2002947443182,142.6229784933488L228.29944602272727,142.91228703112267L228.39738813920454,143.21893455217605L228.84115056818183,143.5450118011348L229.08056463068183,142.4310652471303L229.3115145596591,142.58376485401524L229.98139026988636,142.98846302773322L230.0297567471591,142.1844072383867L230.12648970170454,142.38135377545893L230.36953125,142.52793004939576L230.79757457386364,142.90535272661177L231.0756818181818,142.75401267813575L231.68993607954545,142.98910630776706L232.11314275568182,143.36274860855414L232.20866654829547,143.2505962791331L232.3960866477273,143.61027120004368L232.4432439630682,143.9310121167737L232.6355007102273,143.98093193635486L232.92328125,142.93169543983055L233.21106178977274,143.28130769902108L233.45289417613637,143.65421125044836L233.59436612215907,144.0411748451113L233.68988991477272,144.41794620841233L234.21103870738636,144.72682696384882L234.40208629261366,144.93277789237584L234.82771129261363,144.93139433701376L235.01634055397724,144.63637706417848L235.20496981534092,143.72889209354378L235.44196555397727,144.0571741321691L235.48912286931818,143.78535273108247L235.67775213068182,143.94654412833242L236.01148082386365,144.32797588723645L236.2484765625,144.70670142918763L236.34400035511365,145.0799598461726L236.4419424715909,145.43041924069536L236.4890997869318,145.6810658143989L236.9195614346591,145.81423389990493L236.96913707386364,145.89438844005795L237.01629438920455,146.14433207493659L237.3040749289773,146.1595881963245L237.87600852272726,146.256401686422L238.11905007102274,146.0802492686993L238.5023544034091,146.4067216518754L238.60029651988637,146.70656584888343L239.07670632102273,147.032621216925L239.17102095170455,145.78708210301153L239.89530894886363,145.4449188647641L240.43338600852275,145.3927260824025L240.5325372869318,145.45284377584116L240.72600319602273,145.76393644701528L240.8251544744318,144.72360447468074L241.31365589488635,145.09073748270055L241.45875532670456,144.8367842487028L241.85052379261361,145.1183576165137L242.48291548295452,145.1923486027592L242.58085759943182,145.41207377656764L243.11530717329543,145.71476258651361L243.45387251420453,146.0002707451968L243.59897194602271,146.29717583934908L243.78518288352274,146.23055351144245L244.02096946022726,146.38139886514503L244.4429669744318,146.70919121733866L244.95686079545456,146.88869713518625L245.26882457386364,146.64443592203398L245.5916708096591,146.9708662306441L245.8189932528409,147.24192839981342" style="fill: none;" fill="none"></path></g></g></g></g><g opacity="0.2"><g><g><g><path stroke="rgb(255, 112, 67)" stroke-width="2px" d="M25.308968394886364,-1.0144418409237517L25.700736860795452,91.60517624479075L26.672903053977272,-299.8495703293727L26.95463778409091,-54.00871446957956L27.42016512784091,51.306079999758666L27.577356178977272,-37.43684115776648L28.34880149147727,115.38213137365304L28.53501242897727,124.48840325956161L29.64623224431818,47.93165542299931L30.11296875,-40.35546420170712L30.28708806818182,27.75457580043721L30.342709517045456,-741.5859759587507L30.73689630681818,-4.695476435697998L31.519224076704546,153.71968242024573L32.37531072443182,103.27231383782167L33.09838955965909,-29.00203760312155L33.42849076704545,-88.05365615624646L33.624375,54.85220618660635L34.21686434659091,32.65129756010498L34.28094992897727,-108.21129939189325L34.93268821022727,71.1094960982983L35.26399857954545,4.129546062304428L35.39458806818182,34.85895055532458L35.46109197443182,12.160233048292298L35.71985262784091,134.6461826631656L36.23374644886364,-79.72141098976135L36.69564630681818,18.784520930968796L36.751267755681816,45.97009183810309L37.03058416193181,12.110789963832275L37.64846590909091,115.59244707914499L37.98219460227273,50.08803936839105L38.27360262784091,134.60305437560265L39.23851384943182,9.41780551809532L39.62302734375,30.64981634341754L39.94345525568182,13.693404869391372L40.38721768465909,72.37693923711778L40.64235085227273,116.28131787478924L40.768103693181814,110.81094373418735L41.95429154829545,106.14505442976952L42.27109197443182,129.1536763006678L42.33517755681818,-100.87838478271777L42.65439630681818,144.09578929554957L42.96998757102273,105.07049409930522L43.09574041193182,81.974908091701L43.603588423295456,17.726394288814987L43.66767400568182,70.93059206925906L44.36294211647727,96.59100004228262L44.93245738636363,32.5879061290851L45.43909623579545,86.6017065208692L46.449955610795456,-5.463578911928039L46.69299715909091,142.88611386802333L47.31813387784091,13.348500299912246L50.08227805397727,64.43386815602965L50.14636363636364,141.72684776496428L50.649375000000006,112.16080892086029L51.212844460227274,122.38673233756653L51.339806463068186,124.79990280706149L51.40026455965909,30.81757183946098L51.58889382102273,75.63346731662752L51.96494318181818,-13.544469801279206L52.534458451704545,13.241772624162536L52.72187855113636,145.63353363825723L52.78475497159091,71.95946268851942L53.41351917613637,81.44776710638634L54.473954190340905,111.66336523340298L54.59970703125,131.4458385235988L55.78831321022728,150.43856023567227L55.914066051136366,99.6682944045617L56.09906782670455,156.48225770303264L56.60087002840909,-9.511581824376037L56.970873579545454,150.50536901159927L57.094208096590904,157.29542855502893L57.28404651988636,61.234188464971695L57.66251420454545,-18.95247200819162L57.97810546875,135.1117531107022L58.599614701704546,59.99797947819418L58.97203657670454,94.42721079289913L59.31785688920455,90.86227209063678L59.51253196022727,117.50546534588703L59.80514914772727,148.38043478360544L59.90309126420454,103.17924032532251L60.050609019886366,10.039455427573301L60.15338778409091,96.38974822599154L60.20296342329545,130.6475898663585L60.46051491477272,123.90189303916235L60.51009055397727,110.85484805703163L60.96473544034091,4.30201863554808L61.373432173295456,62.29956824733661L61.62735617897727,100.11933828317201L61.88732599431818,155.1336675220384L61.991313920454544,94.41845630338558L62.61282315340909,123.45029122668963L63.0191015625,-6.973733425140381L63.07714133522727,132.03553403913975L63.19443004261364,130.81796004336616L63.37096768465909,138.37189508000245L63.48946555397727,125.13716621868886L64.17626953125,128.4030954837799L64.34555220170455,127.18443605303764L64.5692471590909,127.52643175824329L64.72281072443182,51.840935688752396L64.88483842329545,145.41459785459134L65.10248757102273,117.07840755123358L65.15569069602273,135.1256684884429L65.37575816761364,102.6681272582366L65.65628373579545,140.93664603565747L66.65988813920455,153.05266931767648L67.10365056818182,62.795470008483306L67.3285546875,140.52946336682027L67.54862215909091,145.10461233670895L67.59819779829546,21.440316548714293L67.94401811079545,102.32144744464985L68.38778053977273,-39.666141986846924L68.58608309659091,123.33648793513959L68.78317649147726,93.93353062294996L68.97664240056818,129.7846360974587L69.0250088778409,87.8901178286626L69.22210227272727,64.3716027369866L69.66223721590909,138.16862962968074L69.85812144886363,78.62827876554087L69.90769708806819,123.11270573505989L69.95727272727274,151.44876289510955L70.05521484375,136.07231740882764L70.10479048295454,148.6423302066441L70.39982599431819,124.67933837152444L70.5945010653409,114.19667407984917L70.64407670454545,96.75034595338198L70.74080965909091,148.97920940472528L70.98264204545455,146.80197394925813L71.0322176846591,160.16450073183157L71.08058416193182,141.87861845585016L71.27525923295454,104.22977906694778L71.46993430397727,152.26286321419934L71.71176669034091,109.7446509691385L71.76013316761363,76.75730842351915L71.80849964488635,159.15785299871976L72.92939275568182,139.86515687749937L73.12044034090908,158.69519204947238L73.2195916193182,118.6887061206194L73.4674698153409,158.83316941065L74.71169744318182,109.48389804248626L74.81810369318183,67.51340947013637L75.08291015625,89.99763691196077L75.18568892045454,61.274379991568054L75.39608309659091,107.02764493456253L75.50369850852273,152.95048246274774L75.92327769886363,158.4683779860632L76.23886896306819,139.92745780142454L76.4468448153409,128.8059364127425L76.7987109375,112.33971294989952L76.89423473011364,131.17652384822185L77.20740767045454,157.38307425866907L77.31381392045455,160.1447745997172L77.47342329545454,88.1175418152259L77.63182350852273,151.19629528631384L78.0562393465909,67.23775970935823L78.10944247159091,110.55646502742401L78.26905184659091,140.66642598578562L78.63905539772728,148.4869151932116L78.78052734375001,139.39517875244985L79.15778586647728,156.64775293291763L79.32706853693182,160.3229095676484L79.46128551136364,117.0476298905336L79.5120703125,152.86357792352254L79.99331676136364,118.65704083786561L80.04651988636364,100.79819162992331L80.26900568181819,137.56868334744985L80.37783025568181,36.178210533582245L80.43345170454546,119.92669035150453L80.65351917613636,137.12883111490652L80.709140625,125.17744904355361L80.87358664772727,155.67247312917158L80.92799893465909,-106.51897440048361L81.3669247159091,163.33940287923681L81.58457386363636,141.9572566976914L81.69581676136363,98.69367524523001L81.80464133522727,140.04141325675525L81.85905362215908,97.4485393166542L82.34392755681819,153.49729949293229L82.50474609375,118.1020234479354L82.93399857954545,139.81201367710645L83.04282315340909,152.2795023236137L83.58694602272728,132.37084975437477L83.96420454545455,90.14625527652412L84.66310014204545,121.97371418774128L84.98957386363637,150.52945400201358L85.1503924005682,138.05603350412386L85.25921697443181,153.76057326621734L85.47686612215908,157.45983961797677L85.69209694602273,139.6493125546437L85.79850319602274,134.11095163684624L86.06572798295454,157.18678678572178L86.11893110795455,139.0501828847023L86.59655007102273,160.13736644265458L86.92060546875,118.9769854751917L87.1394637784091,98.38216555347809L87.19387606534092,74.87264841336471L87.73920809659091,139.80338599074344L88.01126953125,158.07668590710426L88.75974076704546,133.08195167837235L88.86614701704545,116.64338144659996L89.9592294034091,86.48745181010321L90.01485085227273,94.49579100883925L90.23612748579546,142.40954324717706L90.29053977272729,20.555291423430816L90.3449520596591,150.92068483451237L91.32437322443182,105.53658190369606L91.99183061079546,103.00568231711021L92.04624289772728,143.826099282847L92.3799715909091,95.69367501139641L92.49000532670455,34.093465296121735L92.76448508522728,106.94004424604086L94.20459694602272,122.26888148945112L94.31463068181819,150.93689915337242L94.86359019886365,57.24869443361575L95.46091619318183,131.3781408575865L95.62173473011363,75.78323705379779L95.78738991477272,141.12561569878687L96.87321732954545,126.39993539337928L97.1960635653409,105.11381005553099L97.57815873579545,88.78841670774497L97.90463245738636,115.22354120933093L98.45117365056818,123.52201869682624L98.71960759943182,155.78351084400828L98.77401988636365,138.23088236840871L98.93846590909091,144.7263889713929L99.38101917613636,134.4801542260326L99.54788352272728,106.84740186425356L99.71474786931817,117.83284571996101L99.88040305397728,157.86719600713025L99.93602450284091,139.27974730844682L100.92874644886363,116.87134307852158L101.75339488636364,140.58596938676558L102.57925248579546,161.06440050068957L102.74369850852273,154.39475386303204L102.80052911931818,112.5962763004578L102.91177201704545,115.82418237282678L102.96497514204546,121.30814473904096L104.16325461647727,130.21841445909098L104.43289772727273,160.11686712832977L104.59734375,129.7237325442525L104.81620205965909,153.86086504806119L104.92502663352272,157.92410906518882L105.1414666193182,81.03570758837921L105.35911576704545,113.5952163040638L105.57676491477272,111.51375273213937L106.94190873579545,123.36019505216524L106.9975301846591,77.40958382991644L107.6033203125,105.96922918122549L108.04224609375001,158.01875113266019L108.09544921874999,136.93046533832182L108.26231356534092,134.18796933442354L108.374765625,147.620402059876L108.43038707386364,154.7017385843568L108.92614346590909,163.10905874490092L109.31186612215909,125.90472344137154L110.10870383522726,123.42032510615311L110.16190696022727,163.01337055143756L110.31788884943181,161.04458560636982L111.55607066761364,155.40085317251774L111.60322798295455,151.35528741662318L111.70237926136363,140.60231431287067L112.04578125,127.42520480316419L112.39522904829546,155.04463522594708L112.44480468750001,91.7918000496351L112.89461292613636,159.12203364475414L113.09049715909092,134.8566454603122L113.19085759943182,127.13518063724041L113.39278764204545,145.5883815724116L113.8208309659091,128.776431855674L114.17390625,147.63486142313252L114.22348188920454,123.47107933518978L114.47136008522727,147.72967847895163L114.87763849431818,154.77675342617127L115.32744673295454,144.05368304138L115.37702237215909,157.84510753232126L115.57653409090909,119.992085272303L115.78813742897728,61.93670835174048L115.91630859375,117.24529571372729L116.00457741477273,153.77697969185044L116.13879438920455,162.22027263817233L116.27180220170455,102.79283562073341L116.44713068181818,62.62448864029005L116.79657848011364,148.73976701555344L117.15086292613637,152.1701092456396L117.32619140625,151.847258280103L117.45799005681818,158.7479928813588L117.7651171875,129.806862153686L118.15204900568182,108.25033163336607L118.32858664772728,146.68908871251801L118.37211647727273,146.150208291526L118.41564630681819,108.40656325908807L118.5027059659091,122.98063264557949L118.63208629261364,158.61517101927444L118.9283309659091,116.52611896510308L119.30075284090908,154.59685843051054L119.74572443181819,98.43198904738976L119.90654296875,116.28066864265844L119.9790926846591,131.6928688132992L120.10242720170454,155.74226114512064L120.31765802556818,150.22896350404392L120.44462002840909,151.81835350193657L120.48814985795454,160.55034021137712L120.5256338778409,124.3804405211256L120.717890625,11.589192812259398L121.36841974431819,158.92878817938842L121.78316228693183,159.09221461587228L122.05885120738635,120.09173226012632L122.40346235795454,150.41041247231456L122.44820134943183,157.18069516236966L122.86415305397728,10.188717952141417L123.18337180397728,128.32438623217436L123.70935724431818,149.5532066902289L124.03220348011364,132.05694094701454L124.1289364346591,56.02903072192119L124.32240234375,153.96737652443923L124.78913884943181,155.23757509572002L124.83871448863637,89.74999543107474L124.98865056818182,163.3486404738942L125.21355468750001,133.6276033876034L125.30303267045454,155.2952901837058L125.63434303977273,159.07497414251645L125.71172940340908,116.79042237997055L125.86650213068181,157.15629696817354L125.89189453125,114.20061512176807L125.91728693181818,156.23908666721903L126.79272017045454,149.8571322855468L126.94386541193181,56.309296117379134L127.12886718749999,113.11464250775484L127.28726740056818,157.30521839226668L127.39367365056819,125.90129468418084L127.44687677556819,148.7004009774671L127.5012890625,54.88630101772456L127.65968927556818,158.21491750859872L127.73828480113637,115.15867886176476L127.78906960227273,160.12963779062892L127.86766512784091,153.1457485363174L127.94505149147727,101.33666881689659L128.02364701704545,156.34824832944344L128.26064275568183,109.41011382524783L128.31384588068184,115.82578009252364L128.62701882102272,121.63436613231897L128.65362038352274,155.94256700990866L128.68022194602273,120.3114973363968L129.04780717329544,144.93292721103018L129.15300426136363,157.65073668899444L129.2569921875,141.71973410821877L129.36098011363637,91.925628094719L129.4649680397727,150.4774849987947L129.5157528409091,132.6177938179328L129.5677468039773,141.95094697292035L129.77693181818182,108.08551797041527L129.82892578125,126.92182419219843L129.90873046875,153.1870109155201L129.98732599431818,109.88582852482796L130.06350319602274,162.51132486063915L130.19288352272727,130.6501081769283L130.68259410511365,163.0404955285082L130.99576704545453,150.0865356692901L131.02236860795455,160.05568365716877L131.10338245738637,62.432326073829955L131.12998401988636,159.15765264974192L131.18318714488635,162.3259778842688L131.23639026988636,142.99475246725174L131.34279651988635,98.53386777066267L131.44678444602272,157.67176635749638L131.57979225852273,144.5948712797119L131.63420454545454,144.5949169288461L131.82041548295456,138.99574122004785L132.03564630681817,162.75577997648193L132.14326171875,92.54822649176305L132.27626953125,159.73952789798093L132.32826349431818,161.59433923901705L132.35365589488637,157.6749453124805L132.75751598011362,59.900097590226395L132.83973899147728,163.3437463973275L132.9207528409091,145.68224887263315L132.94856356534092,143.6004467362968L133.05617897727274,118.70512459255181L133.11059126420457,3.512795826563462L133.24359907670456,150.66306648174157L133.45520241477274,154.20009327450623L133.48301313920456,139.9636169878336L133.58700106534093,96.96324844314502L133.6414133522727,147.39642711900748L133.69703480113637,119.01563507547745L133.81069602272726,161.38610690928851L134.07429332386366,157.25288039187973L134.12870561079546,127.76903408192672L134.18069957386365,146.54963314361297L134.20730113636364,105.4209577189042L134.31612571022728,134.83026026074702L134.39351207386363,156.3694035330644L134.60511541193182,89.44222896832687L134.71393998579546,163.05686684551898L135.0899893465909,57.59658141319568L135.19760475852271,135.2401565170059L135.25201704545455,162.19193078674232L135.38623401988636,160.65267986410225L135.41283558238635,145.3095680730274L135.4660387073864,99.44432960794522L135.52045099431817,141.2992193561334L135.54826171874998,142.07906634016678L135.60267400568182,153.1895976997912L135.65708629261363,72.52102819314372L135.68489701704547,139.00984426645132L135.87594460227274,158.04599859364905L135.95695845170454,160.50314883386287L136.0730379971591,104.15601006608743L136.60990589488637,145.3356578212518L136.8855948153409,151.98828874413783L137.05366832386366,150.93208190168326L137.14072798295456,106.33775464158792L137.22053267045456,158.8874348189252L137.3051740056818,153.7928586163773L137.33056640625,155.10253227645387L137.3559588068182,146.22745423477429L137.6219744318182,156.05246096032744L137.65824928977273,97.5208475452203L137.68485085227272,86.68314457627444L137.73442649147728,132.9358110473706L138.05485440340908,132.87574693102104L138.08266512784093,55.35151641643965L138.13465909090908,157.52963651014636L138.3535174005682,158.23075332005436L138.6098597301136,159.85049777313208L139.07296875,24.468720688269713L139.4514364346591,163.34935018518388L139.5578426846591,153.846012595038L139.5844442471591,110.50756973257431L139.63764737215908,101.74081581830978L139.85166903409092,106.8232991213982L139.9036629971591,110.6566141557235L140.01127840909092,142.23195289877745L140.26641157670454,156.4281089536559L140.46955078125,129.74246390565082L140.49736150568182,123.68455243913027L140.76942294034092,112.1916626634506L140.97135298295456,160.54136254831863L141.12975319602273,68.93535971183044L141.15635475852272,158.30675025226978L141.21076704545456,150.70795352900257L141.26517933238637,144.82584702252194L141.39818714488638,148.52684550531782L142.08136363636362,113.15705562554874L142.10917436079546,112.21711966395378L142.38244495738635,152.16623667742198L142.43564808238636,150.7012164776142L142.54447265625,158.78641994211537L142.57107421875,142.84330385636824L142.87215553977273,117.51672039352931L142.95558771306818,155.2230257022266L143.12245205965908,151.18097366163363L143.26029651988637,159.60171284483602L143.31591796875,156.2351811301823L143.3703302556818,150.31718806406627L143.42716086647727,121.79283710167958L143.67141157670454,156.41694013215601L143.7790269886364,152.46977045100468L143.8878515625,82.79110953899531L143.9410546875,119.06286164086599L144.02448686079546,121.37027828280742L144.26873757102274,131.4020889005982L144.29654829545453,74.55737520410464L144.56981889204545,153.1021352267036L144.6254403409091,149.06722220348624L144.9591690340909,75.69434297314059L144.98697975852275,154.48598238969078L145.0075355113636,157.94658872771723L145.1175692471591,129.0955674888996L145.22276633522728,127.22723465240918L145.39083984375,149.49345324159816L145.85999467329546,152.74070440261409L145.9422176846591,162.2394859307947L146.02806818181818,92.21279665369254L146.05587890625,113.52483041125994L146.28078302556818,134.27763691429908L146.44764737215908,138.21463888482407L146.61330255681816,161.67469122543787L146.74751953125,121.47182731788892L147.26866832386364,162.8280718395164L147.37628373579545,112.86985663381907L147.4306960227273,40.3464025442417L147.56612215909092,135.3171742145832L147.70275745738635,102.31267773875824L148.02681285511366,146.02446521532076L148.18763139204543,140.54410913070808L148.55037997159093,134.11215119465038L148.8369513494318,158.87898212090994L148.85992542613639,90.43082690697452L148.94093927556818,95.28744843831429L149.10659446022726,146.52083868418748L149.29280539772728,142.9483843591924L149.32545276988637,149.07645220481433L149.35326349431818,120.06809615286497L149.38107421875,148.33371669885057L149.40767578125,111.73281278289282L149.65313565340907,130.29354278972517L150.26255326704546,129.2777252867818L150.28915482954545,122.61597214524562L150.31575639204544,159.06511868464833L150.50075816761364,102.39914734317706L150.80909446022727,112.5686433578913L150.86229758522728,107.25113295133298L151.17909801136364,86.52363128501636L151.20690873579545,162.07778473042598L151.28550426136366,58.73907779959532L151.3435440340909,156.99502301517015L151.37135475852273,137.3468285552584L151.42455788352274,149.75298885800518L151.93361505681818,130.13257633436183L152.15126420454544,100.72782095349753L152.22985973011362,129.95629966660186L152.46927379261362,145.61083967840443L152.49345703125002,157.6403331245081L152.70626953124997,159.92301681193595L152.73287109375002,146.61466160330633L152.8936896306818,162.86317895603582L152.97228515625,92.61367720594772L153.13189453125,149.9164038822055L153.18388849431818,149.7374022147403L153.23588245738637,161.70918849805514L153.68085404829546,153.94452659671123L153.73284801136364,148.7090933334369L153.75944957386363,152.50058615264984L153.78484197443183,157.03733659249085L154.0677858664773,158.18767670477524L154.32291903409092,157.32475622170247L154.53089488636365,149.59861363040713L154.9734481534091,142.94644680705207L155.15119495738637,153.8763705373097L155.17658735795456,141.51858373444813L155.25034623579546,144.1275091036581L155.67597123579546,161.71041912263115L155.78116832386362,134.0727433115244L155.91417613636364,99.60916863152615L155.96737926136362,124.35892709860435L156.0193732244318,94.66175097227097L156.0725763494318,99.0745006111952L156.1245703125,157.65200725656288L156.23097656250002,141.51451081725267L156.25636896306816,156.88911195170994L156.33980113636366,155.54484322208626L156.4909463778409,139.38295746480043L156.5441495028409,84.87927338939448L156.62153586647727,110.58657316748912L156.8283025568182,150.9139769478486L156.88876065340907,123.6132535636425L156.9165713778409,148.97328135743737L156.93349964488638,156.75055224706347L157.1499396306818,158.72376904149468L157.56468217329544,147.4603917002678L157.61909446022727,129.8717067488111L157.67834339488635,128.39177449849936L157.7327556818182,110.1352452498216L158.04351029829544,119.92270873257748L158.15958984375,133.08836284566385L158.53080255681817,106.92837835619083L158.64567294034092,143.08697386257924L159.19705078125,149.83670810208872L159.63355823863637,141.3321983195268L159.66741477272728,146.96610921535353L159.86934481534092,105.93569735609567L159.90199218749999,117.87173878229581L159.96970525568182,102.5156287172666L160.07127485795453,151.90662497912462L160.23693004261364,152.29821212847645L160.36751953125,97.15770361056694L160.43523259943183,91.42511577101855L160.96968217329544,138.6144365381736L161.33726740056818,161.78578061255843L161.5730539772727,141.67838867295245L161.60570134943183,49.633891348655425L161.83060546874998,146.58640352120767L161.93217507102273,109.45938952954916L162.7278036221591,140.98847555541076L162.82574573863639,159.19788475334644L163.05427734375,130.08275284045018L163.15342862215908,156.94375840345253L163.18728515625003,146.72150466992304L163.2525799005682,162.96277490559106L163.28401811079547,119.56066037714481L163.51496803977273,161.05851746852008L163.93333806818183,163.3193246108108L164.09415660511362,145.33090016704338L164.38798295454546,144.85666906432465L164.4496502130682,162.655729398006L164.51615411931817,148.177586515649L164.74226740056818,143.25634229469756L165.1691015625,121.00974142092925L165.23197798295453,138.7813272367303L165.42544389204545,113.83423517071284L165.68783203125,155.82304933437933L165.8800887784091,151.32153368597994L165.91273615056818,138.95192312334592L166.07113636363638,77.22777854479277L166.2343732244318,155.21877272455737L166.4604865056818,158.81947974251727L166.7132013494318,141.6297317680258L166.8377450284091,154.9162723966516L166.96470703125001,109.23741807845923L167.37098544034092,133.70810309969463L167.43507102272727,158.28523651274065L167.49915660511363,92.60339093437561L167.59468039772727,137.74892895382183L167.75187144886362,163.1464545790357L168.28269353693182,149.69152483487358L168.44109375,72.68426949702777L169.01665482954544,149.62333136854264L169.1472443181818,156.25034678698734L169.24397727272728,161.0909267687597L169.40842329545455,145.7692371019377L169.63695490056818,78.48745118654692L169.76512606534092,119.43484629117526L169.8316299715909,111.18605788625204L170.00695845170455,130.22333695739508L170.02630504261364,150.87823113971032L170.16898615056817,160.87596832441452L170.37212535511364,132.2201771787726L170.55108132102274,162.7721601300873L170.63814098011363,148.69951462344483L170.81709694602273,116.12505581631109L171.14357066761363,156.76969318263806L171.20402876420457,154.17356922549124L171.49785511363638,131.07279887107703L171.58733309659092,159.2636309188719L171.64658203125,114.17509218362662L171.7940997869318,120.78413832760774L172.25720880681817,128.61134937004402L172.31645774147728,147.11283187281626L172.49420454545452,147.1451349754173L172.6090749289773,128.191856651352L172.6707421875,151.19345489574167L173.08185724431817,156.5517515356724L173.4433966619318,76.28541810695941L173.5945419034091,157.55614534278328L173.95970880681816,128.92472814023495L173.99114701704548,138.06114367109078L174.17614879261365,150.76500353446374L174.20637784090908,141.10949141016374L174.62474786931818,163.03789677718976L174.74203657670455,124.28478022435537L174.80249467329546,115.36744756882007L174.8629527698864,162.7407112052091L174.9524307528409,120.19984462627998L175.04069957386363,133.978219170983L175.31397017045455,86.59684235201433L175.48929865056817,157.25781176640436L175.5509659090909,148.46014578010028L175.88832208806818,115.09590623011955L175.91855113636365,117.39488792648682L176.10113458806816,141.95090132378616L176.31152876420455,124.0977557215553L177.03702592329546,159.02209247362154L177.22202769886363,151.24890084134844L177.26676669034092,116.91090566149124L177.90762251420455,155.45422525259738L177.99951882102275,159.8451669686832L178.12527166193183,119.38590534719137L178.1567098721591,161.7626781880569L178.18089311079544,151.0796706246642L178.3646857244318,103.87655621079298L178.45779119318183,125.6377673045947L178.51945845170454,139.8831882855067L178.79756569602273,135.6185853034258L179.01158735795454,100.14115349719158L179.15789595170455,148.0460016182982L179.40335582386365,76.68232211241356L179.52427201704543,159.51513006860534L179.64881569602272,131.59930584063898L180.04783913352273,146.28237775140084L180.10829723011364,140.44693987644635L180.19414772727274,148.41604110827814L180.55931463068183,100.95168430759357L180.68143998579546,110.6890047524984L180.83258522727272,62.62231777035274L180.89183416193183,140.93682863219425L181.19412464488636,146.37941005825996L181.24974609375,158.49555697335074L181.30899502840907,160.36112740320655L181.68988103693184,70.54150928213046L182.1675,152.73415628792003L182.31139026988635,157.4720849982248L182.5205752840909,128.0724435884219L183.24486328125,126.9175991112223L183.27267400568184,157.61043674570436L183.30290305397727,156.4431142044755L183.50725142045454,151.52330032306222L183.79503196022725,146.26597956797252L184.02840021306818,150.77747842841424L184.20131036931818,141.30298287364153L184.23033025568182,63.884577196377975L184.3476189630682,147.16413008736876L184.67046519886364,121.91237950382325L184.84579367897726,143.52580659779218L185.02354048295453,143.10803840194757L185.1142276278409,134.8748391763522L185.56524502840907,121.2793553517415L185.6849520596591,139.2047508530892L186.0126349431818,160.57004510396376L186.16136186079547,74.47549080160948L186.30887961647727,155.27077089250088L186.4249591619318,141.02527636576156L186.45518821022725,162.72612511805403L186.78287109375,141.06981216829556L186.81189098011362,156.98063719774095L187.13957386363634,133.17689934143652L187.20003196022728,151.6452025318375L187.23026100852272,141.14692370020427L187.4358185369318,157.04257800071858L187.4962766335227,107.82584540660565L187.52650568181818,161.19767124592684L187.55552556818182,162.8883320648635L187.5857546164773,138.66732866832842L187.76229225852273,7.345192806078842L188.4128213778409,150.5390441242892L188.90736860795457,158.4549026152549L189.05488636363634,154.207731896295L189.0851154119318,60.041609906233276L189.1431551846591,157.7349745579637L189.3777325994318,154.70719682597198L189.73201704545454,91.34492038648864L191.0802325994318,156.39558267750994L191.4889293323864,87.66768988623069L191.51674005681818,138.7598924321624L191.83958629261363,60.85116179631308L191.86860617897727,162.4123817095533L191.92906427556818,97.12778821129065L191.9858948863636,103.26846409417116L192.07658203124998,147.09643368938794L192.10318359374997,120.66892498502365L192.1612233664773,159.17089501976108L192.82988991477274,160.21226177249963L192.9749893465909,138.47010665616165L193.06446732954547,160.71678963496996L193.15152698863636,153.6832024218658L193.2990447443182,157.91419052275327L193.61947265625,149.3074837410106L193.88548828125,136.51228376420644L193.9737571022727,106.74531011168773L194.00156782670456,81.23018304430522L194.26758345170455,143.27331870049238L194.43928444602273,131.699345918229L194.92294921875,153.1871491309542L195.10069602272728,138.82410301153476L195.22040305397726,152.91647892989792L195.31350852272726,142.94412377333413L195.4948828125,157.90126040549234L195.55534090909092,159.4441510540648L195.8346573153409,150.5819023211415L195.94831853693182,135.7698690702136L196.1381569602273,142.31958655611828L196.29534801136364,161.24872425488698L196.47672230113636,140.70471292906083L196.74515625,148.76258270643078L196.95675958806817,162.1998245206196L197.07646661931818,162.67341051230994L197.3449005681818,159.47727457304987L197.79833629261364,159.154732056177L198.00631214488638,101.34897886675138L198.09337180397728,111.68768607767728L198.15382990056818,156.2976437281244L198.18405894886365,124.81633649537197L198.30134765625,150.2369546385912L198.33157670454545,127.61454726755619L198.71609019886364,142.5323482943842L198.89625532670456,97.27502695757609L198.926484375,144.7069601926666L198.97606001420453,143.34160726918623L199.14897017045456,159.0416185737659L199.22877485795453,130.91522313195924L199.40410333806818,147.9646523250983L199.51776455965907,137.97940128812422L199.72090376420454,91.87258380078353L200.00505681818183,153.21285466563242L200.18038529829545,152.91561159634819L200.2976740056818,103.46442061089552L200.37385120738637,161.64380720859538L200.59512784090907,143.08655921627695L200.64228515624998,161.2630499993236L201.02317116477275,144.53030818758103L201.13925071022726,101.88986531358499L201.16947975852273,160.42833370701052L201.67974609375,158.89144845564778L201.70634765625,146.2351511860123L201.78373401988637,84.07179092673155L201.99896484375,82.34782601319827L202.0388671875,142.77930757432028L202.26618963068182,139.14280497798552L202.31697443181818,136.76279606842078L202.34599431818182,147.913861323148L202.6386115056818,122.8070822455562L202.66884055397728,159.64746532359948L202.9578302556818,110.44732809181397L203.04972656249998,163.0334413107395L203.3350887784091,157.22428691544786L203.42698508522727,149.5268367070418L203.48381569602273,149.69657794042274L203.54427379261364,141.49934516044763L203.84414595170455,141.06289886052792L204.34473899147727,162.0812026300969L204.4934659090909,161.93127312095692L204.77520063920454,161.66350496850478L204.95536576704546,39.37420786114839L205.16334161931817,76.70987390096373L205.34108842329547,162.42144829332113L205.40033735795456,161.21106118311246L205.51762606534092,159.66250354323822L205.72681107954546,143.28420094687203L205.75704012784092,163.16933634624226L205.7848508522727,160.85225819581404L206.09197798295455,133.20294470855822L206.72678799715908,162.11747221449892L206.87309659090909,155.45930688885542L207.02666015625,134.20329729926127L207.2044069602273,153.5894226158181L207.4994424715909,160.63285672757775L207.64937855113638,122.01225727338057L207.82833451704545,100.51851460108391L207.9492507102273,162.27161880016612L207.9782705965909,151.26097884143775L208.2188938210227,145.1710787441295L208.31199928977273,127.16256250956884L208.33981001420455,117.3125267441456L208.4026864346591,148.22924485114905L208.49216441761362,138.78635117755488L208.5211843039773,153.56464147610734L208.55383167613635,145.74571131341733L208.70014026988636,126.15941264136478L208.7618075284091,113.5285990008941L208.85007634943182,156.41238472897274L208.88030539772728,161.2992432640794L208.91053444602272,159.07618004047814L208.9371360085227,115.2000775543543L208.99880326704545,158.78747684637514L209.08949041193182,152.1083434310097L209.11851029829546,153.91768870989864L209.30472123579545,156.67603637564642L209.48367720170452,162.54407748040887L209.54292613636363,159.17938734376088L209.63240411931818,158.6566140929667L209.97943359375,123.81961301083749L210.21522017045453,158.36700267129794L210.26963245738636,149.58064181988055L210.44858842329546,160.1680458309129L210.65414595170455,144.24632999587516L210.79924538352273,161.2563706433687L211.01084872159092,145.64971372026662L211.40745383522727,88.79076510209305L211.5876189630682,95.19706822473269L211.64203125,150.50650009570214L212.12569602272728,124.55457928776741L212.21396484374998,157.9650081533652L212.27684126420456,136.34907796520454L212.3070703125,75.03449995471881L212.865703125,146.92843726735848L213.13171875,130.76080732735304L213.48116654829545,163.32239656077692L213.56097123579545,101.38494531237161L213.65044921875,159.76556597392147L214.02770774147726,120.48848917392584L214.2610759943182,132.068939061119L214.4944442471591,154.4121347708771L214.52346413352274,155.90135408393465L214.61052379261363,146.2257981856282L214.66856356534092,133.06308083350842L214.6806551846591,162.56812355810632L215.0736328125,156.48876080260828L215.30821022727272,107.4524202725062L215.74229936079544,160.8692875419242L215.94906605113638,153.22621971769973L216.12197620738635,108.80604897668728L216.20903586647725,112.88625481724739L216.4158025568182,161.34350754936727L216.7966885653409,137.33707232085558L216.85110085227274,158.34298805663218L216.87770241477273,162.49051321430417L216.9079314630682,137.01830695282953L217.07842329545454,136.43244850062408L217.22110440340907,159.84960888304676L217.58989879261364,145.49127064759915L218.05542613636365,155.9379722977487L218.2537286931818,96.68349026028926L218.398828125,134.7751008902605L218.42301136363636,149.96423656665363L218.59108487215912,132.65557862073183L218.8389630681818,138.44373920903757L218.95867009943183,125.7218986589175L219.00099076704544,115.06320623365733L219.1787375710227,155.28721535907914L219.25370561079544,102.18522535608365L219.3951775568182,147.35003618638103L219.91269886363636,158.37239719432995L220.0541708096591,154.6573409972569L220.21861683238637,160.40057744838012L220.40482776988634,150.542377779117L220.5196981534091,121.85349465677372L220.60554865056818,161.96673869413252L221.01424538352273,159.72302351691403L221.24035866477274,154.7391283953419L221.34918323863636,127.42047250958589L221.37699396306817,146.61732066537326L221.88605113636365,162.21559986282284L221.9573916903409,138.11029257224158L221.9827840909091,132.9591986204569L222.03598721590907,162.6057998649597L222.0940269886364,69.43707412939807L222.12425603693183,161.28307919096775L222.2367080965909,107.78515173953313L222.26572798295453,157.57204265376697L222.58011008522726,153.43560912617698L222.7276278409091,122.06525084605583L222.83887073863636,120.81716801226139L223.45675248579545,162.34787647135985L223.78080788352273,148.4262272053613L223.98273792613637,152.06894188804122L224.12904651988634,161.66124707990542L224.1725763494318,152.53848000615835L224.20038707386365,151.18316735613803L224.62843039772727,139.4308180459417L224.676796875,122.91237197357874L225.3998757102273,159.94404838248514L225.54497514204544,163.2788371276424L226.08184303977274,159.2876030544822L226.13141867897727,141.0666015125238L226.23056995738636,114.65155248573193L226.2801455965909,152.52062992665628L226.76864701704545,138.52866181501975L227.1096306818182,135.81606092189367L227.30672407670454,126.55470878287002L227.50623579545456,161.9090014155954L227.95241654829545,161.51794145034197L228.2002947443182,163.37419537658374L228.29944602272727,157.08840529334086L228.39738813920454,158.24466299165326L228.84115056818183,159.5227969040951L229.08056463068183,87.84768442236461L229.3115145596591,150.06604554819373L229.98139026988636,162.81867342775402L230.0297567471591,102.7856737787907L230.12648970170454,152.03173403957715L230.36953125,149.71016743406653L230.79757457386364,161.39906381371503L231.0756818181818,135.338350340724L231.68993607954545,154.50869410198467L232.11314275568182,161.67122125722324L232.20866654829547,137.75513216394646L232.3960866477273,161.2343422415523L232.4432439630682,159.64731696391334L232.6355007102273,146.42700308475355L232.92328125,91.51910733832764L233.21106178977274,160.4123083248448L233.45289417613637,161.92648519249633L233.59436612215907,163.00239090438788L233.68988991477272,162.87974293458348L234.21103870738636,159.8619839195162L234.40208629261366,155.0243733505217L234.82771129261363,144.86360012453335L235.01634055397724,130.1805307498345L235.20496981534092,99.26212869699185L235.44196555397727,160.1429939664757L235.48912286931818,130.46610412517418L235.67775213068182,151.84492256607L236.01148082386365,163.0181320097405L236.2484765625,163.26425292272157L236.34400035511365,163.36962221848276L236.4419424715909,162.6029295171432L236.4890997869318,157.96274788720677L236.9195614346591,152.3394700695689L236.96913707386364,149.82196089568046L237.01629438920455,158.39157014770004L237.3040749289773,146.90713814216164L237.87600852272726,151.00026268769915L238.11905007102274,137.44878082435864L238.5023544034091,162.40386838378168L238.60029651988637,161.39893146292664L239.07670632102273,163.00933420902584L239.17102095170455,84.75566567824438L239.89530894886363,128.6789202329058L240.43338600852275,142.83527975300183L240.5325372869318,148.39861074720437L240.72600319602273,161.00747729837894L240.8251544744318,93.74733794881747L241.31365589488635,163.08025483467813L241.45875532670456,132.39307581060208L241.85052379261361,158.9154526090536L242.48291548295452,148.81790692101305L242.58085759943182,156.17860727055142L243.11530717329543,160.54651424331735L243.45387251420453,159.99017049243244L243.59897194602271,160.84552542403196L243.78518288352274,142.96605945034668L244.02096946022726,153.77282118252836L244.4429669744318,162.77101644492134L244.95686079545456,155.68448709366987L245.26882457386364,134.67563649897392L245.5916708096591,162.9659513245122L245.8189932528409,160.5239746663003" style="fill: none;" fill="none"></path></g></g></g></g></g></g><g transform="translate(63, 177)" clip-path="url(#clip_1)"><clipPath id="clip_1"><rect width="266" height="22"></rect></clipPath><g><g><line x1="0" y1="0" x2="0" y2="5" style="visibility: inherit;" fill="rgb(0, 0, 0)" stroke="rgb(204, 204, 204)" stroke-width="1px"></line><line x1="24.183238636363637" y1="0" x2="24.183238636363637" y2="5" style="visibility: inherit;" fill="rgb(0, 0, 0)" stroke="rgb(204, 204, 204)" stroke-width="1px"></line><line x1="48.36647727272727" y1="0" x2="48.36647727272727" y2="5" style="visibility: inherit;" fill="rgb(0, 0, 0)" stroke="rgb(204, 204, 204)" stroke-width="1px"></line><line x1="72.5497159090909" y1="0" x2="72.5497159090909" y2="5" style="visibility: inherit;" fill="rgb(0, 0, 0)" stroke="rgb(204, 204, 204)" stroke-width="1px"></line><line x1="96.73295454545455" y1="0" x2="96.73295454545455" y2="5" style="visibility: inherit;" fill="rgb(0, 0, 0)" stroke="rgb(204, 204, 204)" stroke-width="1px"></line><line x1="120.91619318181817" y1="0" x2="120.91619318181817" y2="5" style="visibility: inherit;" fill="rgb(0, 0, 0)" stroke="rgb(204, 204, 204)" stroke-width="1px"></line><line x1="145.0994318181818" y1="0" x2="145.0994318181818" y2="5" style="visibility: inherit;" fill="rgb(0, 0, 0)" stroke="rgb(204, 204, 204)" stroke-width="1px"></line><line x1="169.28267045454544" y1="0" x2="169.28267045454544" y2="5" style="visibility: inherit;" fill="rgb(0, 0, 0)" stroke="rgb(204, 204, 204)" stroke-width="1px"></line><line x1="193.4659090909091" y1="0" x2="193.4659090909091" y2="5" style="visibility: inherit;" fill="rgb(0, 0, 0)" stroke="rgb(204, 204, 204)" stroke-width="1px"></line><line x1="217.64914772727275" y1="0" x2="217.64914772727275" y2="5" style="visibility: inherit;" fill="rgb(0, 0, 0)" stroke="rgb(204, 204, 204)" stroke-width="1px"></line><line x1="241.83238636363635" y1="0" x2="241.83238636363635" y2="5" style="visibility: inherit;" fill="rgb(0, 0, 0)" stroke="rgb(204, 204, 204)" stroke-width="1px"></line><line x1="266.015625" y1="0" x2="266.015625" y2="5" style="visibility: inherit;" fill="rgb(0, 0, 0)" stroke="rgb(204, 204, 204)" stroke-width="1px"></line></g><g transform="translate(0, 8)"><text x="0" y="0" dx="0em" dy="0.95em" style="text-anchor: middle; visibility: hidden; font-family: &quot;Helvetica Neue&quot;, sans-serif; font-size: 13.3333px; font-weight: 200;" fill="rgb(50, 49, 63)" stroke="none" stroke-width="1px">-20k</text><text x="24.183238636363637" y="0" dx="0em" dy="0.95em" style="text-anchor: middle; visibility: inherit; font-family: &quot;Helvetica Neue&quot;, sans-serif; font-size: 13.3333px; font-weight: 200;" fill="rgb(50, 49, 63)" stroke="none" stroke-width="1px">0</text><text x="48.36647727272727" y="0" dx="0em" dy="0.95em" style="text-anchor: middle; visibility: hidden; font-family: &quot;Helvetica Neue&quot;, sans-serif; font-size: 13.3333px; font-weight: 200;" fill="rgb(50, 49, 63)" stroke="none" stroke-width="1px">20k</text><text x="72.5497159090909" y="0" dx="0em" dy="0.95em" style="text-anchor: middle; visibility: inherit; font-family: &quot;Helvetica Neue&quot;, sans-serif; font-size: 13.3333px; font-weight: 200;" fill="rgb(50, 49, 63)" stroke="none" stroke-width="1px">40k</text><text x="96.73295454545455" y="0" dx="0em" dy="0.95em" style="text-anchor: middle; visibility: hidden; font-family: &quot;Helvetica Neue&quot;, sans-serif; font-size: 13.3333px; font-weight: 200;" fill="rgb(50, 49, 63)" stroke="none" stroke-width="1px">60k</text><text x="120.91619318181817" y="0" dx="0em" dy="0.95em" style="text-anchor: middle; visibility: inherit; font-family: &quot;Helvetica Neue&quot;, sans-serif; font-size: 13.3333px; font-weight: 200;" fill="rgb(50, 49, 63)" stroke="none" stroke-width="1px">80k</text><text x="145.0994318181818" y="0" dx="0em" dy="0.95em" style="text-anchor: middle; visibility: hidden; font-family: &quot;Helvetica Neue&quot;, sans-serif; font-size: 13.3333px; font-weight: 200;" fill="rgb(50, 49, 63)" stroke="none" stroke-width="1px">100k</text><text x="169.28267045454544" y="0" dx="0em" dy="0.95em" style="text-anchor: middle; visibility: inherit; font-family: &quot;Helvetica Neue&quot;, sans-serif; font-size: 13.3333px; font-weight: 200;" fill="rgb(50, 49, 63)" stroke="none" stroke-width="1px">120k</text><text x="193.4659090909091" y="0" dx="0em" dy="0.95em" style="text-anchor: middle; visibility: hidden; font-family: &quot;Helvetica Neue&quot;, sans-serif; font-size: 13.3333px; font-weight: 200;" fill="rgb(50, 49, 63)" stroke="none" stroke-width="1px">140k</text><text x="217.64914772727275" y="0" dx="0em" dy="0.95em" style="text-anchor: middle; visibility: inherit; font-family: &quot;Helvetica Neue&quot;, sans-serif; font-size: 13.3333px; font-weight: 200;" fill="rgb(50, 49, 63)" stroke="none" stroke-width="1px">160k</text><text x="241.83238636363635" y="0" dx="0em" dy="0.95em" style="text-anchor: middle; visibility: hidden; font-family: &quot;Helvetica Neue&quot;, sans-serif; font-size: 13.3333px; font-weight: 200;" fill="rgb(50, 49, 63)" stroke="none" stroke-width="1px">180k</text><text x="266.015625" y="0" dx="0em" dy="0.95em" style="text-anchor: middle; visibility: hidden; font-family: &quot;Helvetica Neue&quot;, sans-serif; font-size: 13.3333px; font-weight: 200;" fill="rgb(50, 49, 63)" stroke="none" stroke-width="1px">200k</text></g><line x1="0" y1="0" x2="266.015625" y2="0" fill="rgb(0, 0, 0)" stroke="rgb(204, 204, 204)" stroke-width="1px"></line></g></g></g></g></svg>