<svg viewBox="0 0 330.0000305175781 200.00001525878906" xmlns="http://www.w3.org/2000/svg"><g><g><g><g><g><line x1="63.984375" y1="177" x2="58.984375" y2="177" style="visibility: inherit;" fill="rgb(0, 0, 0)" stroke="rgb(204, 204, 204)" stroke-width="1px"></line><line x1="63.984375" y1="162.25" x2="58.984375" y2="162.25" style="visibility: inherit;" fill="rgb(0, 0, 0)" stroke="rgb(204, 204, 204)" stroke-width="1px"></line><line x1="63.984375" y1="147.5" x2="58.984375" y2="147.5" style="visibility: inherit;" fill="rgb(0, 0, 0)" stroke="rgb(204, 204, 204)" stroke-width="1px"></line><line x1="63.984375" y1="132.75" x2="58.984375" y2="132.75" style="visibility: inherit;" fill="rgb(0, 0, 0)" stroke="rgb(204, 204, 204)" stroke-width="1px"></line><line x1="63.984375" y1="118" x2="58.984375" y2="118" style="visibility: inherit;" fill="rgb(0, 0, 0)" stroke="rgb(204, 204, 204)" stroke-width="1px"></line><line x1="63.984375" y1="103.25" x2="58.984375" y2="103.25" style="visibility: inherit;" fill="rgb(0, 0, 0)" stroke="rgb(204, 204, 204)" stroke-width="1px"></line><line x1="63.984375" y1="88.49999999999999" x2="58.984375" y2="88.49999999999999" style="visibility: inherit;" fill="rgb(0, 0, 0)" stroke="rgb(204, 204, 204)" stroke-width="1px"></line><line x1="63.984375" y1="73.75000000000001" x2="58.984375" y2="73.75000000000001" style="visibility: inherit;" fill="rgb(0, 0, 0)" stroke="rgb(204, 204, 204)" stroke-width="1px"></line><line x1="63.984375" y1="58.999999999999986" x2="58.984375" y2="58.999999999999986" style="visibility: inherit;" fill="rgb(0, 0, 0)" stroke="rgb(204, 204, 204)" stroke-width="1px"></line><line x1="63.984375" y1="44.25" x2="58.984375" y2="44.25" style="visibility: inherit;" fill="rgb(0, 0, 0)" stroke="rgb(204, 204, 204)" stroke-width="1px"></line><line x1="63.984375" y1="29.5" x2="58.984375" y2="29.5" style="visibility: inherit;" fill="rgb(0, 0, 0)" stroke="rgb(204, 204, 204)" stroke-width="1px"></line><line x1="63.984375" y1="14.75" x2="58.984375" y2="14.75" style="visibility: inherit;" fill="rgb(0, 0, 0)" stroke="rgb(204, 204, 204)" stroke-width="1px"></line><line x1="63.984375" y1="0" x2="58.984375" y2="0" style="visibility: inherit;" fill="rgb(0, 0, 0)" stroke="rgb(204, 204, 204)" stroke-width="1px"></line></g><g transform="translate(53.984375, 0)"><text x="0" y="177" dx="0em" dy="0.3em" style="text-anchor: end; visibility: hidden; font-family: &quot;Helvetica Neue&quot;, sans-serif; font-size: 13.3333px; font-weight: 200;" fill="rgb(50, 49, 63)" stroke="none" stroke-width="1px">-0.02</text><text x="0" y="162.25" dx="0em" dy="0.3em" style="text-anchor: end; visibility: inherit; font-family: &quot;Helvetica Neue&quot;, sans-serif; font-size: 13.3333px; font-weight: 200;" fill="rgb(50, 49, 63)" stroke="none" stroke-width="1px">0</text><text x="0" y="147.5" dx="0em" dy="0.3em" style="text-anchor: end; visibility: hidden; font-family: &quot;Helvetica Neue&quot;, sans-serif; font-size: 13.3333px; font-weight: 200;" fill="rgb(50, 49, 63)" stroke="none" stroke-width="1px">0.02</text><text x="0" y="132.75" dx="0em" dy="0.3em" style="text-anchor: end; visibility: inherit; font-family: &quot;Helvetica Neue&quot;, sans-serif; font-size: 13.3333px; font-weight: 200;" fill="rgb(50, 49, 63)" stroke="none" stroke-width="1px">0.04</text><text x="0" y="118" dx="0em" dy="0.3em" style="text-anchor: end; visibility: hidden; font-family: &quot;Helvetica Neue&quot;, sans-serif; font-size: 13.3333px; font-weight: 200;" fill="rgb(50, 49, 63)" stroke="none" stroke-width="1px">0.06</text><text x="0" y="103.25" dx="0em" dy="0.3em" style="text-anchor: end; visibility: inherit; font-family: &quot;Helvetica Neue&quot;, sans-serif; font-size: 13.3333px; font-weight: 200;" fill="rgb(50, 49, 63)" stroke="none" stroke-width="1px">0.08</text><text x="0" y="88.49999999999999" dx="0em" dy="0.3em" style="text-anchor: end; visibility: hidden; font-family: &quot;Helvetica Neue&quot;, sans-serif; font-size: 13.3333px; font-weight: 200;" fill="rgb(50, 49, 63)" stroke="none" stroke-width="1px">0.1</text><text x="0" y="73.75000000000001" dx="0em" dy="0.3em" style="text-anchor: end; visibility: inherit; font-family: &quot;Helvetica Neue&quot;, sans-serif; font-size: 13.3333px; font-weight: 200;" fill="rgb(50, 49, 63)" stroke="none" stroke-width="1px">0.12</text><text x="0" y="58.999999999999986" dx="0em" dy="0.3em" style="text-anchor: end; visibility: hidden; font-family: &quot;Helvetica Neue&quot;, sans-serif; font-size: 13.3333px; font-weight: 200;" fill="rgb(50, 49, 63)" stroke="none" stroke-width="1px">0.14</text><text x="0" y="44.25" dx="0em" dy="0.3em" style="text-anchor: end; visibility: inherit; font-family: &quot;Helvetica Neue&quot;, sans-serif; font-size: 13.3333px; font-weight: 200;" fill="rgb(50, 49, 63)" stroke="none" stroke-width="1px">0.16</text><text x="0" y="29.5" dx="0em" dy="0.3em" style="text-anchor: end; visibility: hidden; font-family: &quot;Helvetica Neue&quot;, sans-serif; font-size: 13.3333px; font-weight: 200;" fill="rgb(50, 49, 63)" stroke="none" stroke-width="1px">0.18</text><text x="0" y="14.75" dx="0em" dy="0.3em" style="text-anchor: end; visibility: inherit; font-family: &quot;Helvetica Neue&quot;, sans-serif; font-size: 13.3333px; font-weight: 200;" fill="rgb(50, 49, 63)" stroke="none" stroke-width="1px">0.2</text><text x="0" y="0" dx="0em" dy="0.3em" style="text-anchor: end; visibility: hidden; font-family: &quot;Helvetica Neue&quot;, sans-serif; font-size: 13.3333px; font-weight: 200;" fill="rgb(50, 49, 63)" stroke="none" stroke-width="1px">0.22</text></g><line x1="63.984375" y1="0" x2="63.984375" y2="177" fill="rgb(0, 0, 0)" stroke="rgb(204, 204, 204)" stroke-width="1px"></line></g></g><g transform="translate(63, 0)" clip-path="url(#clip_0)"><clipPath id="clip_0"><rect width="266" height="176"></rect></clipPath><g><g><g><line x1="0" y1="0" x2="0" y2="177" fill="rgb(0, 0, 0)" stroke="rgb(60, 60, 60)" stroke-width="1px" opacity="0.25"></line><line x1="24.183238636363637" y1="0" x2="24.183238636363637" y2="177" fill="rgb(0, 0, 0)" stroke="rgb(60, 60, 60)" stroke-width="1px" opacity="0.25"></line><line x1="48.36647727272727" y1="0" x2="48.36647727272727" y2="177" fill="rgb(0, 0, 0)" stroke="rgb(60, 60, 60)" stroke-width="1px" opacity="0.25"></line><line x1="72.5497159090909" y1="0" x2="72.5497159090909" y2="177" fill="rgb(0, 0, 0)" stroke="rgb(60, 60, 60)" stroke-width="1px" opacity="0.25"></line><line x1="96.73295454545455" y1="0" x2="96.73295454545455" y2="177" fill="rgb(0, 0, 0)" stroke="rgb(60, 60, 60)" stroke-width="1px" opacity="0.25"></line><line x1="120.91619318181817" y1="0" x2="120.91619318181817" y2="177" fill="rgb(0, 0, 0)" stroke="rgb(60, 60, 60)" stroke-width="1px" opacity="0.25"></line><line x1="145.0994318181818" y1="0" x2="145.0994318181818" y2="177" fill="rgb(0, 0, 0)" stroke="rgb(60, 60, 60)" stroke-width="1px" opacity="0.25"></line><line x1="169.28267045454544" y1="0" x2="169.28267045454544" y2="177" fill="rgb(0, 0, 0)" stroke="rgb(60, 60, 60)" stroke-width="1px" opacity="0.25"></line><line x1="193.4659090909091" y1="0" x2="193.4659090909091" y2="177" fill="rgb(0, 0, 0)" stroke="rgb(60, 60, 60)" stroke-width="1px" opacity="0.25"></line><line x1="217.64914772727275" y1="0" x2="217.64914772727275" y2="177" fill="rgb(0, 0, 0)" stroke="rgb(60, 60, 60)" stroke-width="1px" opacity="0.25"></line><line x1="241.83238636363635" y1="0" x2="241.83238636363635" y2="177" fill="rgb(0, 0, 0)" stroke="rgb(60, 60, 60)" stroke-width="1px" opacity="0.25"></line><line x1="266.015625" y1="0" x2="266.015625" y2="177" fill="rgb(0, 0, 0)" stroke="rgb(60, 60, 60)" stroke-width="1px" opacity="0.25"></line></g><g><line x1="0" y1="177" x2="266.015625" y2="177" fill="rgb(0, 0, 0)" stroke="rgb(60, 60, 60)" stroke-width="1px" opacity="0.25"></line><line x1="0" y1="162.25" x2="266.015625" y2="162.25" fill="rgb(0, 0, 0)" stroke="rgb(60, 60, 60)" stroke-width="1px" opacity="0.25"></line><line x1="0" y1="147.5" x2="266.015625" y2="147.5" fill="rgb(0, 0, 0)" stroke="rgb(60, 60, 60)" stroke-width="1px" opacity="0.25"></line><line x1="0" y1="132.75" x2="266.015625" y2="132.75" fill="rgb(0, 0, 0)" stroke="rgb(60, 60, 60)" stroke-width="1px" opacity="0.25"></line><line x1="0" y1="118" x2="266.015625" y2="118" fill="rgb(0, 0, 0)" stroke="rgb(60, 60, 60)" stroke-width="1px" opacity="0.25"></line><line x1="0" y1="103.25" x2="266.015625" y2="103.25" fill="rgb(0, 0, 0)" stroke="rgb(60, 60, 60)" stroke-width="1px" opacity="0.25"></line><line x1="0" y1="88.49999999999999" x2="266.015625" y2="88.49999999999999" fill="rgb(0, 0, 0)" stroke="rgb(60, 60, 60)" stroke-width="1px" opacity="0.25"></line><line x1="0" y1="73.75000000000001" x2="266.015625" y2="73.75000000000001" fill="rgb(0, 0, 0)" stroke="rgb(60, 60, 60)" stroke-width="1px" opacity="0.25"></line><line x1="0" y1="58.999999999999986" x2="266.015625" y2="58.999999999999986" fill="rgb(0, 0, 0)" stroke="rgb(60, 60, 60)" stroke-width="1px" opacity="0.25"></line><line x1="0" y1="44.25" x2="266.015625" y2="44.25" fill="rgb(0, 0, 0)" stroke="rgb(60, 60, 60)" stroke-width="1px" opacity="0.25"></line><line x1="0" y1="29.5" x2="266.015625" y2="29.5" fill="rgb(0, 0, 0)" stroke="rgb(60, 60, 60)" stroke-width="1px" opacity="0.25"></line><line x1="0" y1="14.75" x2="266.015625" y2="14.75" fill="rgb(0, 0, 0)" stroke="rgb(60, 60, 60)" stroke-width="1px" opacity="0.25"></line><line x1="0" y1="0" x2="266.015625" y2="0" fill="rgb(0, 0, 0)" stroke="rgb(60, 60, 60)" stroke-width="1px" opacity="0.25"></line></g></g></g><g><g><line x1="0" y1="162.25" x2="266.015625" y2="162.25" fill="rgb(0, 0, 0)" stroke="rgb(153, 153, 153)" stroke-width="1.5px"></line></g></g><g><g><line x1="24.183238636363637" y1="0" x2="24.183238636363637" y2="177" fill="rgb(0, 0, 0)" stroke="rgb(153, 153, 153)" stroke-width="1.5px"></line></g></g><g><g><g><g><g><path stroke="rgb(255, 112, 67)" stroke-width="2px" d="M35.46109197443182,-2.8562678860613744L35.71985262784091,4.495930197557755L36.23374644886364,-7.823967020161518L39.94345525568182,-2.7871848412516442L40.38721768465909,0.614422115143384L40.64235085227273,5.294145356790409L40.768103693181814,9.783041188083189L41.95429154829545,13.220318567608558L42.27109197443182,18.391282647530858L42.33517755681818,19.33253277053757L42.65439630681818,22.792598202254453L42.96998757102273,25.854152421355053L43.09574041193182,29.804370753934762L43.603588423295456,29.717246103767934L43.66767400568182,32.961581403744276L44.36294211647727,33.6733323304035L44.93245738636363,35.54116309295895L45.43909623579545,38.7031969055964L46.449955610795456,40.94078531936614L46.69299715909091,44.2196406873436L47.31813387784091,47.215516632038685L50.08227805397727,42.91149324794472L50.14636363636364,45.09819707108991L50.649375000000006,47.58702041781055L51.212844460227274,50.50388664547624L51.339806463068186,53.13785246134083L51.40026455965909,51.414237821740045L51.58889382102273,48.04233679979447L51.96494318181818,49.373092850310115L52.534458451704545,49.07118363569691L52.72187855113636,51.53207351833596L52.78475497159091,51.21092455496965L53.41351917613637,52.65272949396828L54.473954190340905,55.25953255660038L54.59970703125,57.953161891221725L55.78831321022728,60.13725399954747L55.914066051136366,62.34760915944749L56.09906782670455,64.92210414805797L56.60087002840909,64.08634894668182L56.970873579545454,66.32554373859219L57.094208096590904,68.78781378114822L57.28404651988636,68.89845295111573L57.66251420454545,67.36531511150547L57.97810546875,68.84296528480144L58.599614701704546,69.37939871474656L58.97203657670454,71.16791890787744L59.31785688920455,73.16681938510364L59.51253196022727,74.87381155025881L59.80514914772727,76.48060907109573L59.90309126420454,77.19072057565673L60.050609019886366,75.99302701652016L60.15338778409091,77.39667178114878L60.20296342329545,78.76280744026683L60.46051491477272,80.66248787286533L60.51009055397727,82.3115048499235L60.96473544034091,81.29733715498666L61.373432173295456,81.89550377447077L61.62735617897727,83.61104636909234L61.88732599431818,85.07158240082369L61.991313920454544,86.02909915746882L62.61282315340909,87.39812333307141L63.0191015625,86.20279191100545L63.07714133522727,87.70983926487324L63.19443004261364,89.09479980863144L63.37096768465909,90.66187507531869L63.48946555397727,92.03097194697405L64.17626953125,93.58630448367855L64.34555220170455,94.74766512237996L64.5692471590909,95.93030754057291L64.72281072443182,95.03516434614862L64.88483842329545,96.08241937665908L65.10248757102273,97.3306208180358L65.15569069602273,98.50415282301272L65.37575816761364,99.63635885970882L65.65628373579545,100.94868640809963L66.65988813920455,102.16156479526934L67.10365056818182,102.6758423514234L67.3285546875,104.00415999896543L67.54862215909091,105.18699968344391L67.59819779829546,103.22885127536313L67.94401811079545,104.35617919321703L68.38778053977273,104.39160520052198L68.58608309659091,105.54886866821006L68.78317649147726,105.17628943819025L68.97664240056818,105.93436460368643L69.0250088778409,105.93481261206362L69.22210227272727,106.80561665361029L69.66223721590909,107.62735817382315L69.85812144886363,108.14297552678441L69.90769708806819,109.06291090833561L69.95727272727274,110.17480351079736L70.05521484375,111.18338318130499L70.10479048295454,112.11536084122068L70.39982599431819,112.37951868154778L70.5945010653409,112.94209377557785L70.64407670454545,113.1843072121687L70.74080965909091,114.1634033092211L70.98264204545455,114.806960142734L71.0322176846591,115.82418317670286L71.08058416193182,116.22266719421071L71.27525923295454,116.36987026422108L71.46993430397727,117.3235380053246L71.71176669034091,117.78961117613656L71.76013316761363,117.95126393311251L71.80849964488635,118.86354852969748L72.92939275568182,119.70144230819906L73.12044034090908,120.4612393254229L73.2195916193182,121.0219995861965L73.4674698153409,121.70146952041381L74.71169744318182,122.50692381562814L74.81810369318183,122.47074388581997L75.08291015625,122.51037246999914L75.18568892045454,122.44380324859387L75.39608309659091,122.86500293278804L75.50369850852273,123.61091061061524L75.92327769886363,124.34672670968433L76.23886896306819,124.9341875079956L76.4468448153409,125.4012480407705L76.7987109375,125.8272819874606L76.89423473011364,126.32767087860313L77.20740767045454,126.77625221898666L77.31381392045455,127.36691226199494L77.47342329545454,127.8354456216828L77.63182350852273,128.24239295663625L78.0562393465909,128.769263211794L78.10944247159091,128.70123650364894L78.26905184659091,129.14314648784614L78.63905539772728,129.7647205619728L78.78052734375001,129.91987484270578L79.15778586647728,130.57732448399554L79.32706853693182,131.06839441088897L79.46128551136364,131.66167459783742L79.5120703125,132.20873696212715L79.99331676136364,132.59681885010286L80.04651988636364,133.11653128390307L80.26900568181819,133.66165415217236L80.37783025568181,133.59259622338777L80.43345170454546,134.06113653519472L80.65351917613636,134.5930385995727L80.709140625,135.01319563010108L80.87358664772727,135.31754123055208L80.92799893465909,134.34739636469098L81.3669247159091,134.9146799941908L81.58457386363636,134.8799933263149L81.69581676136363,134.99929416764314L81.80464133522727,135.53701140551044L81.85905362215908,135.86417260973985L82.34392755681819,136.2445774761914L82.50474609375,136.13880982213456L82.93399857954545,136.4962087729571L83.04282315340909,136.84310136246273L83.58694602272728,137.345724130955L83.96420454545455,137.13082739769519L84.66310014204545,137.55306706552122L84.98957386363637,138.03344430580094L85.1503924005682,138.4078827363137L85.25921697443181,138.84661426471013L85.47686612215908,139.032671735994L85.69209694602273,139.32989911563016L85.79850319602274,139.73919686594806L86.06572798295454,140.19681786631267L86.11893110795455,140.54239241153707L86.59655007102273,140.9830403971904L86.92060546875,141.25409650761486L87.1394637784091,140.89474381414885L87.19387606534092,140.98159260072686L87.73920809659091,141.3036707338617L88.01126953125,141.66615232781115L88.75974076704546,141.99069189861797L88.86614701704545,142.2463827990689L89.9592294034091,141.9126643303544L90.01485085227273,141.97157327682706L90.23612748579546,142.21608180882993L90.29053977272729,141.9788543497106L90.3449520596591,141.95461816738677L91.32437322443182,141.75595447136004L91.99183061079546,142.09144718900416L92.04624289772728,142.44232999779018L92.3799715909091,142.71685860199227L92.49000532670455,142.089694572893L92.76448508522728,142.46893877984144L94.20459694602272,142.77298346402515L94.31463068181819,142.943534944641L94.86359019886365,142.95689986890088L95.46091619318183,143.25284724863909L95.62173473011363,143.25936967272384L95.78738991477272,143.62701480625583L96.87321732954545,143.83039402744544L97.1960635653409,144.15408417360945L97.57815873579545,144.19383972145795L97.90463245738636,144.3501532069165L98.45117365056818,144.5168564813139L98.71960759943182,144.76749164467938L98.77401988636365,145.09757703133886L98.93846590909091,145.29726340605782L99.38101917613636,145.36958514895886L99.54788352272728,145.39721429268087L99.71474786931817,145.34931558653483L99.88040305397728,145.65672200603538L99.93602450284091,145.77021142165657L100.92874644886363,146.08242683541124L101.75339488636364,146.20705868721146L102.57925248579546,146.52953571114583L102.74369850852273,146.80024782647357L102.80052911931818,146.907188951541L102.91177201704545,146.67420332359842L102.96497514204546,146.7951807496193L104.16325461647727,147.02912841411603L104.43289772727273,147.30848134280444L104.59734375,147.6045085269097L104.81620205965909,147.8430475019463L104.92502663352272,148.06794456000173L105.1414666193182,148.08082084806108L105.35911576704545,148.2600004414274L105.57676491477272,148.39846140893974L106.94190873579545,148.418798159621L106.9975301846591,148.53755310089304L107.6033203125,148.66996641579073L108.04224609375001,148.85939540749402L108.09544921874999,149.10004003426795L108.26231356534092,149.32202865832875L108.374765625,149.52055202084725L108.43038707386364,149.57983543936837L108.92614346590909,149.82964347479933L109.31186612215909,150.0426118112929L110.10870383522726,150.222914774521L110.16190696022727,150.44670513571552L110.31788884943181,150.63034551044512L111.55607066761364,150.8561084499797L111.60322798295455,150.84745212213804L111.70237926136363,151.02728543622732L112.04578125,151.11553299779095L112.39522904829546,151.31439849389656L112.44480468750001,151.27088307900846L112.89461292613636,151.47686250064305L113.09049715909092,151.24580624447887L113.19085759943182,151.0962334343395L113.39278764204545,151.2675386574249L113.8208309659091,151.4261360656473L114.17390625,151.53249861176528L114.22348188920454,151.7043554555284L114.47136008522727,151.85155991547833L114.87763849431818,152.03461993356106L115.32744673295454,151.95410086007203L115.37702237215909,152.12577871679966L115.57653409090909,152.28797972486188L115.78813742897728,152.0469869208098L115.91630859375,152.2050038460353L116.00457741477273,152.354792199157L116.13879438920455,152.54513185030635L116.27180220170455,152.68217404820365L116.44713068181818,152.7229633503822L116.79657848011364,152.86652349785413L117.15086292613637,153.01065183290734L117.32619140625,153.1714316157478L117.45799005681818,153.26043430422158L117.7651171875,153.36292155415885L118.15204900568182,153.40495360103586L118.32858664772728,153.42543861583005L118.37211647727273,153.32797644797282L118.41564630681819,153.4310577607244L118.5027059659091,153.54744064862163L118.63208629261364,153.7169149538118L118.9283309659091,153.75710913705467L119.30075284090908,153.89021088231857L119.74572443181819,153.8617047977891L119.90654296875,153.36066789250575L119.9790926846591,153.40723818604098L120.10242720170454,153.5458062070266L120.31765802556818,153.6827364706617L120.44462002840909,153.81684018686067L120.48814985795454,153.97525754087079L120.5256338778409,154.09241361544392L120.717890625,153.8773303951175L121.36841974431819,154.0067202937206L121.78316228693183,154.11745538719788L122.05885120738635,154.24260666640566L122.40346235795454,154.3662863517031L122.44820134943183,154.48710225191974L122.86415305397728,154.11104448711777L123.18337180397728,154.19997776226947L123.70935724431818,154.3004073577403L124.03220348011364,154.31904353452248L124.1289364346591,153.84948508635443L124.32240234375,153.9524738670777L124.78913884943181,154.094838415911L124.83871448863637,154.20372677854428L124.98865056818182,154.3639181040447L125.21355468750001,154.46337423209914L125.30303267045454,154.5761424888146L125.63434303977273,154.67569098682026L125.71172940340908,154.78581769847915L125.86650213068181,154.92144495315796L125.89189453125,155.0114679605006L125.91728693181818,155.11037550141813L126.79272017045454,155.22790481190685L126.94386541193181,155.16902493397185L127.12886718749999,155.18451565249558L127.28726740056818,155.30599546844772L127.39367365056819,155.31155482832537L127.44687677556819,155.41231765896774L127.5012890625,155.45963989391328L127.65968927556818,155.49267843423044L127.73828480113637,155.60889972329474L127.78906960227273,155.73279588257284L127.86766512784091,155.53242832501238L127.94505149147727,155.58851576730555L128.02364701704545,155.71462573876062L128.26064275568183,155.59919668018247L128.31384588068184,155.6234324474745L128.62701882102272,155.710544208201L128.65362038352274,155.81148650046313L128.68022194602273,155.8322313880061L129.04780717329544,155.89021643038308L129.15300426136363,156.01346127060197L129.2569921875,155.4863553185052L129.36098011363637,155.34405029681253L129.4649680397727,155.46087593168116L129.5157528409091,155.580305651995L129.5677468039773,155.5542834783405L129.77693181818182,155.41275214142757L129.82892578125,155.51791577921716L129.90873046875,155.6196531881598L129.98732599431818,155.64926518431307L130.06350319602274,155.7735608446449L130.19288352272727,155.62811491660034L130.68259410511365,155.75665949934273L130.99576704545453,155.79525730007109L131.02236860795455,155.87682673571038L131.10338245738637,155.92449370312687L131.12998401988636,156.0039653705291L131.18318714488635,156.12782031191574L131.23639026988636,156.18639390031063L131.34279651988635,156.25647420401262L131.44678444602272,156.37008470304662L131.57979225852273,156.38508038535542L131.63420454545454,156.44242404914536L131.82041548295456,156.39831381522893L132.03564630681817,156.5134019080778L132.14326171875,156.56868030241114L132.27626953125,156.64412566786098L132.32826349431818,156.7154662212632L132.35365589488637,156.7717450211229L132.75751598011362,156.62901981864536L132.83973899147728,156.73581356580922L132.9207528409091,156.7525733312091L132.94856356534092,156.82165593019943L133.05617897727274,156.75882582136674L133.11059126420457,156.68603081020828L133.24359907670456,156.7453031584604L133.45520241477274,156.7892072444686L133.48301313920456,156.84580386265654L133.58700106534093,156.94331453407833L133.6414133522727,156.99915622817642L133.69703480113637,156.50586525456478L133.81069602272726,156.61405439829542L134.07429332386366,156.64180594366093L134.12870561079546,156.38305686594944L134.18069957386365,156.2740236023864L134.20730113636364,156.24744901582005L134.31612571022728,156.28150981133513L134.39351207386363,156.38690346384078L134.60511541193182,156.29464058860867L134.71393998579546,156.4058458679262L135.0899893465909,156.35040505516065L135.19760475852271,156.4000840363069L135.25201704545455,156.4793251229612L135.38623401988636,156.48149674250902L135.41283558238635,156.5884533873047L135.4660387073864,156.34522606516035L135.52045099431817,156.4049642170598L135.54826171874998,156.504507085483L135.60267400568182,156.54648687176055L135.65708629261363,156.5644400857754L135.68489701704547,156.63644056787308L135.87594460227274,156.7278846918239L135.95695845170454,156.81969697797464L136.0730379971591,156.76326663136015L136.60990589488637,156.81685805086738L136.8855948153409,156.8762684422122L137.05366832386366,156.93389345909543L137.14072798295456,156.9810585514376L137.22053267045456,157.0577834794273L137.3051740056818,157.13788316375624L137.33056640625,157.19136663213266L137.3559588068182,157.23497412994084L137.6219744318182,157.32549272568872L137.65824928977273,157.2801973843987L137.68485085227272,157.30780704244333L137.73442649147728,157.3550103620494L138.05485440340908,157.41114692943296L138.08266512784093,157.44390798404135L138.13465909090908,157.51543745943835L138.3535174005682,157.57850315505516L138.6098597301136,157.6523325935543L139.07296875,157.65138755227224L139.4514364346591,157.74064344778247L139.5578426846591,157.801479422443L139.5844442471591,157.86752369666237L139.63764737215908,157.878876949832L139.85166903409092,157.91934775348648L139.9036629971591,157.88303512500568L140.01127840909092,157.74874812679067L140.26641157670454,157.7771528120095L140.46955078125,157.62152644553657L140.49736150568182,157.65585192370423L140.76942294034092,157.71863446750157L140.97135298295456,157.8057140261695L141.12975319602273,157.82636863270105L141.15635475852272,157.9029101221271L141.21076704545456,157.781774968159L141.26517933238637,157.32547199835665L141.39818714488638,157.3367506531689L142.08136363636362,157.36413794191844L142.10917436079546,157.11949832598452L142.38244495738635,157.19902049883223L142.43564808238636,157.23179008941537L142.54447265625,157.30169986750224L142.57107421875,157.36315384125098L142.87215553977273,157.29152679695977L142.95558771306818,157.36331372824986L143.12245205965908,157.45432122575835L143.26029651988637,157.54161285911695L143.31591796875,157.6132520840845L143.3703302556818,157.59756237751168L143.42716086647727,157.64312404503724L143.67141157670454,157.72931833230777L143.7790269886364,157.68968526003948L143.8878515625,157.55788852354152L143.9410546875,157.62203926203188L144.02448686079546,157.5402991411364L144.26873757102274,157.35822969192702L144.29654829545453,157.3456413447272L144.56981889204545,157.33971952508958L144.6254403409091,157.38212758545475L144.9591690340909,157.18022884957145L144.98697975852275,157.2722570877949L145.0075355113636,157.3556671739005L145.1175692471591,157.3875984836651L145.22276633522728,157.2245967011762L145.39083984375,157.259248547873L145.85999467329546,157.32849886056593L145.9422176846591,157.41551286560548L146.02806818181818,157.43042737275033L146.05587890625,157.43383714465463L146.28078302556818,157.4880022590695L146.44764737215908,157.52564021765605L146.61330255681816,157.58618766487766L146.74751953125,157.63461405102518L147.26866832386364,157.69712213590506L147.37628373579545,157.7672285170078L147.4306960227273,157.7831038394244L147.56612215909092,157.81009194157826L147.70275745738635,157.76014909781597L148.02681285511366,157.80680162928155L148.18763139204543,157.89501404759494L148.55037997159093,157.81801757655865L148.8369513494318,157.8626647855878L148.85992542613639,157.75326741605423L148.94093927556818,157.67485883013666L149.10659446022726,157.6072462206912L149.29280539772728,157.68013011874524L149.32545276988637,157.72125458184934L149.35326349431818,157.68365736351583L149.38107421875,157.76754473231327L149.40767578125,157.77588502891257L149.65313565340907,157.81828466928528L150.26255326704546,157.8628985699534L150.28915482954545,157.87701529086618L150.31575639204544,157.9243767016497L150.50075816761364,158.00070002336832L150.80909446022727,157.97993238735185L150.86229758522728,157.80979247602366L151.17909801136364,157.6068413945755L151.20690873579545,157.6868263084354L151.28550426136366,157.42224343214525L151.3435440340909,157.50713836998852L151.37135475852273,157.53362602402854L151.42455788352274,157.5148543473778L151.93361505681818,157.48178871819314L152.15126420454544,156.63811851391617L152.22985973011362,156.72650038435526L152.46927379261362,156.82459146205264L152.49345703125002,156.9182021573798L152.70626953124997,156.95517235155L152.73287109375002,157.05496824469995L152.8936896306818,157.12114772825305L152.97228515625,157.05522658165006L153.13189453125,157.13857989970683L153.18388849431818,157.1762523549331L153.23588245738637,157.25920137508538L153.68085404829546,157.2902924914238L153.73284801136364,157.32837585493456L153.75944957386363,157.40285848658485L153.78484197443183,157.47794209145064L154.0677858664773,157.5285150229672L154.32291903409092,157.59376603034931L154.53089488636365,157.66632022136324L154.9734481534091,157.6066505851729L155.15119495738637,157.66568240944002L155.17658735795456,157.70451210424824L155.25034623579546,157.5928398092829L155.67597123579546,157.64227949279265L155.78116832386362,157.68363995587234L155.91417613636364,157.65263690325625L155.96737926136362,157.63034697644022L156.0193732244318,157.09340843180232L156.0725763494318,157.1684816455071L156.1245703125,157.22611489918182L156.23097656250002,157.29968763453536L156.25636896306816,157.34570208905936L156.33980113636366,157.40752922347988L156.4909463778409,157.21249169934654L156.5441495028409,157.21363027104627L156.62153586647727,156.70727777832298L156.8283025568182,156.7751675439357L156.88876065340907,156.82822649190788L156.9165713778409,156.90376812655458L156.93349964488638,157.0016754495947L157.1499396306818,157.0824674880056L157.56468217329544,157.14642615735315L157.61909446022727,157.23965167275784L157.67834339488635,157.23463998099348L157.7327556818182,157.21966370839004L158.04351029829544,157.27333825778533L158.15958984375,157.3034774284659L158.53080255681817,157.37431890549524L158.64567294034092,157.46171590591715L159.19705078125,157.5463420759286L159.63355823863637,157.56399944283737L159.66741477272728,157.59111435129472L159.86934481534092,157.3544060856079L159.90199218749999,157.4294742258097L159.96970525568182,157.3720047240275L160.07127485795453,157.44605071967527L160.23693004261364,157.5210429283689L160.36751953125,156.93421919050064L160.43523259943183,156.96890066029417L160.96968217329544,157.03509684569082L161.33726740056818,157.04413897439105L161.5730539772727,157.10951647976754L161.60570134943183,157.08109526768328L161.83060546874998,157.16024261488514L161.93217507102273,157.2346008622278L162.7278036221591,157.29404961857304L162.82574573863639,157.37729170683033L163.05427734375,157.42081031758272L163.15342862215908,157.46133529538926L163.18728515625003,157.52437067796515L163.2525799005682,157.61188703401183L163.28401811079547,157.55469980551237L163.51496803977273,157.61635734609374L163.93333806818183,157.7069426175517L164.09415660511362,157.77209767374583L164.38798295454546,157.82689180600522L164.4496502130682,157.91404247418336L164.51615411931817,157.95394602985172L164.74226740056818,157.96250538454035L165.1691015625,157.8766201541288L165.23197798295453,157.85421557972654L165.42544389204545,157.8537546228633L165.68783203125,157.9373787249726L165.8800887784091,157.90684625039444L165.91273615056818,157.9864818761019L166.07113636363638,158.02904489117202L166.2343732244318,157.98239813080525L166.4604865056818,157.97689199459467L166.7132013494318,158.05441366906106L166.8377450284091,158.0841369524004L166.96470703125001,158.1507520527203L167.37098544034092,158.22398161288518L167.43507102272727,158.27856896564083L167.49915660511363,158.33287186967175L167.59468039772727,158.1717491042351L167.75187144886362,158.2419576943042L168.28269353693182,158.12747335483186L168.44109375,158.0670333775955L169.01665482954544,157.70558300948727L169.1472443181818,157.72718674004363L169.24397727272728,157.784480476433L169.40842329545455,157.8544465566302L169.63695490056818,157.92399730171812L169.76512606534092,157.97359952752666L169.8316299715909,157.7641642648391L170.00695845170455,157.83141129912119L170.02630504261364,157.88644640231942L170.16898615056817,157.93344064142096L170.37212535511364,157.76612172164081L170.55108132102274,157.85462712814814L170.63814098011363,157.89551717120042L170.81709694602273,157.74652579107476L171.14357066761363,157.82462801002285L171.20402876420457,157.81645830392523L171.49785511363638,157.81964439290041L171.58733309659092,157.8982440920658L171.64658203125,157.93029097785745L171.7940997869318,157.92881914355507L172.25720880681817,157.92490501160387L172.31645774147728,157.91035686228355L172.49420454545452,157.95962010958579L172.6090749289773,157.89579044216137L172.6707421875,157.71044366216583L173.08185724431817,157.6662232783935L173.4433966619318,157.693477989023L173.5945419034091,157.74879282354513L173.95970880681816,157.75281505802627L173.99114701704548,157.78336443864268L174.17614879261365,157.83451641853503L174.20637784090908,157.8834103597803L174.62474786931818,157.96479238598624L174.74203657670455,157.90029311897737L174.80249467329546,157.61589118220323L174.8629527698864,157.70403535645872L174.9524307528409,157.6395242108053L175.04069957386363,157.72281620975113L175.31397017045455,157.71557598804895L175.48929865056817,157.79464128573602L175.5509659090909,157.86667735564288L175.88832208806818,157.8237447282077L175.91855113636365,157.8501385771714L176.10113458806816,157.89373914620347L176.31152876420455,157.97148433085835L177.03702592329546,158.0418860768377L177.22202769886363,158.1135014963444L177.26676669034092,157.8140413269219L177.90762251420455,157.83627591864646L177.99951882102275,157.8995150734852L178.12527166193183,157.88563115193898L178.1567098721591,157.96366824092428L178.18089311079544,158.0272829045165L178.3646857244318,157.9843255541408L178.45779119318183,157.95833272058417L178.51945845170454,157.94694914824558L178.79756569602273,158.01599303197997L179.01158735795454,158.0014046412419L179.15789595170455,158.02275465507037L179.40335582386365,157.96299263998384L179.52427201704543,158.0048449176735L179.64881569602272,157.96457953848136L180.04783913352273,157.99832818290645L180.10829723011364,158.01521061241573L180.19414772727274,158.05843092526237L180.55931463068183,158.06314121249136L180.68143998579546,158.09422380268396L180.83258522727272,158.16067192044738L180.89183416193183,158.22432253875988L181.19412464488636,158.18803252281666L181.24974609375,158.2255130303138L181.30899502840907,158.28390226825852L181.68988103693184,158.20315762531914L182.1675,158.26991017112007L182.31139026988635,158.3291335210822L182.5205752840909,158.34411275774193L183.24486328125,158.19286135432446L183.27267400568184,158.20058254663553L183.30290305397727,158.24326665425724L183.50725142045454,158.27320410193923L183.79503196022725,158.2940919979244L184.02840021306818,158.34798802847322L184.20131036931818,158.34588075773692L184.23033025568182,158.37128082417343L184.3476189630682,158.38850540649594L184.67046519886364,158.28300454668167L184.84579367897726,158.34499518420384L185.02354048295453,158.35463252640827L185.1142276278409,158.37077031870174L185.56524502840907,158.39423863884883L185.6849520596591,158.31411945291404L186.0126349431818,158.33853013442564L186.16136186079547,158.34577077306483L186.30887961647727,158.3364427721777L186.4249591619318,158.2994809531448L186.45518821022725,158.37219771454895L186.78287109375,158.40024695417864L186.81189098011362,158.4762510630481L187.13957386363634,158.52897638287521L187.20003196022728,158.5423343240964L187.23026100852272,158.54590113689034L187.4358185369318,158.4458639812861L187.4962766335227,158.47771285306362L187.52650568181818,158.5462370258669L187.55552556818182,158.60498465416458L187.5857546164773,158.63069188541402L187.76229225852273,158.54090025929193L188.4128213778409,158.5025674577709L188.90736860795457,158.52160788982007L189.05488636363634,158.5613996741094L189.0851154119318,158.58752630944616L189.1431551846591,158.61851634804722L189.3777325994318,158.67746654295235L189.73201704545454,158.62584883204008L191.0802325994318,158.6875178073584L191.4889293323864,158.7190888417726L191.51674005681818,158.7235698160653L191.83958629261363,158.7628355813721L191.86860617897727,158.8276607545834L191.92906427556818,158.81391286118335L191.9858948863636,158.81878265747616L192.07658203124998,158.86603164193386L192.10318359374997,158.82096970576907L192.1612233664773,158.84467766251518L192.82988991477274,158.88012483186662L192.9749893465909,158.93266103671854L193.06446732954547,158.95166083768305L193.15152698863636,158.98602353008852L193.2990447443182,159.03700671358914L193.61947265625,159.0609458207992L193.88548828125,159.029129785181L193.9737571022727,159.0171394198045L194.00156782670456,159.02255529848918L194.26758345170455,159.0581597228475L194.43928444602273,158.7914129362049L194.92294921875,158.8418408535464L195.10069602272728,158.74978854495905L195.22040305397726,158.78667896058948L195.31350852272726,158.77524924814173L195.4948828125,158.81609922611102L195.55534090909092,158.84363631096764L195.8346573153409,158.78821348424714L195.94831853693182,158.82446920185708L196.1381569602273,158.74630429739145L196.29534801136364,158.81194692110847L196.47672230113636,158.87931150132593L196.74515625,158.93038461743032L196.95675958806817,158.99282442622396L197.07646661931818,159.04144069133434L197.3449005681818,159.0829967257528L197.79833629261364,159.11750494112522L198.00631214488638,158.8072701532318L198.09337180397728,158.822502758157L198.15382990056818,158.85908227623028L198.18405894886365,158.76930726754824L198.30134765625,158.7321013993048L198.33157670454545,158.72266230595451L198.71609019886364,158.78353350897942L198.89625532670456,158.7674449801562L198.926484375,158.7649837941236L198.97606001420453,158.82218928732888L199.14897017045456,158.78114825199788L199.22877485795453,158.80405502926996L199.40410333806818,158.84440159739435L199.51776455965907,158.84193763976705L199.72090376420454,158.6248880165647L200.00505681818183,158.64451680056754L200.18038529829545,158.71521985657574L200.2976740056818,158.72552003227267L200.37385120738637,158.76180087413508L200.59512784090907,158.81997156416324L200.64228515624998,158.8687197796948L201.02317116477275,158.8110654433419L201.13925071022726,158.73431852030802L201.16947975852273,158.799611586736L201.67974609375,158.84910820119427L201.70634765625,158.8839005669697L201.78373401988637,158.78557535497328L201.99896484375,158.7372377990608L202.0388671875,158.77816196702392L202.26618963068182,158.79064748085477L202.31697443181818,158.84366539883166L202.34599431818182,158.8903683185539L202.6386115056818,158.79876549845875L202.66884055397728,158.8305291518439L202.9578302556818,158.75342941480687L203.04972656249998,158.8186319218043L203.3350887784091,158.87169974546947L203.42698508522727,158.9119093582316L203.48381569602273,158.891561724457L203.54427379261364,158.95479659801546L203.84414595170455,159.01456085401625L204.34473899147727,159.06580381928404L204.4934659090909,159.11062685379238L204.77520063920454,159.15361039379468L204.95536576704546,159.09052925128367L205.16334161931817,159.05311165342874L205.34108842329547,159.1125051856095L205.40033735795456,159.16128088604773L205.51762606534092,159.21718438070795L205.72681107954546,159.2664653793451L205.75704012784092,159.32176042590118L205.7848508522727,159.37337407191922L206.09197798295455,159.25609311378105L206.72678799715908,159.29600119918018L206.87309659090909,159.32786502226324L207.02666015625,159.27427027462437L207.2044069602273,159.31636593027443L207.4994424715909,159.3336333269695L207.64937855113638,159.3519700437661L207.82833451704545,159.33011444226548L207.9492507102273,159.36153798275475L207.9782705965909,159.4050667469548L208.2188938210227,159.42980616429156L208.31199928977273,159.44018078960465L208.33981001420455,159.26068120737983L208.4026864346591,159.28785376766064L208.49216441761362,159.32707464986956L208.5211843039773,159.3757260579107L208.55383167613635,159.2685319361209L208.70014026988636,159.21235823486887L208.7618075284091,159.2622760265215L208.85007634943182,159.3052686006686L208.88030539772728,159.3130235834009L208.91053444602272,159.35933458943595L208.9371360085227,159.40149464425926L208.99880326704545,159.40368814025942L209.08949041193182,159.4069053516949L209.11851029829546,159.4247440254803L209.30472123579545,159.42173313880934L209.48367720170452,159.46939947941473L209.54292613636363,159.50406130573282L209.63240411931818,159.49595117002661L209.97943359375,159.51231257700547L210.21522017045453,159.54878670156486L210.26963245738636,159.49748637199L210.44858842329546,159.54079755376952L210.65414595170455,159.5437796289352L210.79924538352273,159.57410790961683L211.01084872159092,159.60370378334196L211.40745383522727,159.4610513595686L211.5876189630682,159.37548812521672L211.64203125,159.35345679407982L212.12569602272728,159.31476927679L212.21396484374998,159.35655978595614L212.27684126420456,159.39819352238328L212.3070703125,159.30233408528798L212.865703125,159.33828951375807L213.13171875,159.15100431746734L213.48116654829545,159.21191345465192L213.56097123579545,159.0218924176026L213.65044921875,159.06712441093015L214.02770774147726,159.02995834806384L214.2610759943182,158.95310985069833L214.4944442471591,158.97443160379694L214.52346413352274,159.03372647012614L214.61052379261363,159.02218269265532L214.66856356534092,159.04663457267122L214.6806551846591,159.10897931491394L215.0736328125,159.1524513462115L215.30821022727272,159.18179479099314L215.74229936079544,159.22048761109792L215.94906605113638,159.20719769521432L216.12197620738635,159.20362454319087L216.20903586647725,159.24447470513962L216.4158025568182,159.28736922940476L216.7966885653409,159.1202882605311L216.85110085227274,159.16517226644856L216.87770241477273,159.20525343035808L216.9079314630682,159.14454822862712L217.07842329545454,159.14398362127832L217.22110440340907,159.19120695100904L217.58989879261364,158.86013661001934L218.05542613636365,158.88803177831775L218.2537286931818,158.9209166962203L218.398828125,158.93468111914348L218.42301136363636,158.97602582742624L218.59108487215912,159.0316472570862L218.8389630681818,159.09475301274642L218.95867009943183,159.12431123848916L219.00099076704544,159.12971387706992L219.1787375710227,159.15594034585538L219.25370561079544,158.9398625480333L219.3951775568182,158.96836983489837L219.91269886363636,159.00173025411007L220.0541708096591,159.04799625058521L220.21861683238637,159.10769243289758L220.40482776988634,159.1608910636358L220.5196981534091,159.19910572804372L220.60554865056818,159.24027044877755L221.01424538352273,159.28537528567836L221.24035866477274,159.33680095328612L221.34918323863636,159.23052255688725L221.37699396306817,159.2108774534932L221.88605113636365,159.26855511762682L221.9573916903409,159.02897895618943L221.9827840909091,159.0415685265463L222.03598721590907,159.09851807647186L222.0940269886364,159.0890272748633L222.12425603693183,159.14052443272516L222.2367080965909,159.16231316000398L222.26572798295453,159.19047352144108L222.58011008522726,159.19618624458462L222.7276278409091,159.22095254449755L222.83887073863636,159.26334715500238L223.45675248579545,159.3050303538911L223.78080788352273,159.32644340976432L223.98273792613637,159.3491260334624L224.12904651988634,159.4043596143771L224.1725763494318,159.4510512488767L224.20038707386365,159.42484825064804L224.62843039772727,159.46381255071654L224.676796875,159.41881799925233L225.3998757102273,159.4744051282531L225.54497514204544,159.52980412702317L226.08184303977274,159.55452960296776L226.13141867897727,159.5875874419013L226.23056995738636,159.48012105107526L226.2801455965909,159.51840114558954L226.76864701704545,159.5578011816477L227.1096306818182,159.58586751850038L227.30672407670454,159.56317675246507L227.50623579545456,159.6058260802737L227.95241654829545,159.65350900678607L228.2002947443182,159.70421968704215L228.29944602272727,159.72276505065918L228.39738813920454,159.68792234861948L228.84115056818183,159.72944085966637L229.08056463068183,159.68011593816752L229.3115145596591,159.71747963298162L229.98139026988636,159.7490564487548L230.0297567471591,159.74363339433168L230.12648970170454,159.75378741385947L230.36953125,159.77430349962071L230.79757457386364,159.8110621534283L231.0756818181818,159.80484020043494L231.68993607954545,159.82547255169175L232.11314275568182,159.83717517699776L232.20866654829547,159.800865099907L232.3960866477273,159.84870833306536L232.4432439630682,159.88806328043324L232.6355007102273,159.91950283139101L232.92328125,159.87613557152113L233.21106178977274,159.91625488779138L233.45289417613637,159.96119329536702L233.59436612215907,159.98699251793553L233.68988991477272,160.0304656172714L234.21103870738636,160.05824816966793L234.40208629261366,160.0830743296726L234.82771129261363,160.01852137939363L235.01634055397724,160.0241770683338L235.20496981534092,159.96001590119474L235.44196555397727,159.99918569243863L235.48912286931818,160.02617760415671L235.67775213068182,160.040196835399L236.01148082386365,160.06726882371737L236.2484765625,160.1102185185996L236.34400035511365,160.1527546389782L236.4419424715909,160.18870059750455L236.4890997869318,160.2204085957451L236.9195614346591,160.2436894516915L236.96913707386364,160.2488334274438L237.01629438920455,160.27520372275L237.3040749289773,160.16398350175712L237.87600852272726,160.20083495840788L238.11905007102274,160.1758394098647L238.5023544034091,160.2154616392534L238.60029651988637,160.23287574365256L239.07670632102273,160.2722408401194L239.17102095170455,160.2835419290738L239.89530894886363,160.23287202486551L240.43338600852275,160.17965141080745L240.5325372869318,160.16455243657867L240.72600319602273,160.20365072902774L240.8251544744318,160.13514207378276L241.31365589488635,160.17620250781522L241.45875532670456,160.1742886137615L241.85052379261361,160.19851946010965L242.48291548295452,160.23020952651763L242.58085759943182,160.2650664795721L243.11530717329543,160.29282450397864L243.45387251420453,160.31889378741872L243.59897194602271,160.3305949682885L243.78518288352274,160.32674311561726L244.02096946022726,160.34765059881406L244.4429669744318,160.36365591536503L244.95686079545456,160.3905561270941L245.26882457386364,160.4107060354391L245.5916708096591,160.44470280334457L245.8189932528409,160.47185430958274" style="fill: none;" fill="none"></path></g></g></g></g><g opacity="0.2"><g><g><g><path stroke="rgb(255, 112, 67)" stroke-width="2px" d="M24.47948330965909,-1263.4719016551974L25.308968394886364,82.21050979942085L25.700736860795452,149.87552738189697L26.672903053977272,-552.0206975340843L26.78051846590909,87.03835927322505L26.95463778409091,40.141889959573746L27.42016512784091,119.00350865349174L27.577356178977272,11.45930303633213L28.34880149147727,137.99155936017632L28.53501242897727,96.63533525913954L29.64623224431818,99.50105645135045L30.11296875,126.52317429333925L30.28708806818182,99.03020127117632L30.342709517045456,-208.10030648112303L30.73689630681818,-122.61833460628986L31.519224076704546,159.38951535522938L32.37531072443182,131.44418540783226L33.09838955965909,-76.74778351187706L33.42849076704545,25.501514360308647L33.624375,132.45816067233682L34.21686434659091,3.78634887188673L34.28094992897727,-64.02867683768272L34.93268821022727,75.31457575410604L35.26399857954545,82.2051248922944L35.39458806818182,116.77479724772274L35.46109197443182,66.4858996346593L35.71985262784091,151.69887341931462L36.23374644886364,-261.62852519750595L36.69564630681818,-446.27211117744446L36.751267755681816,83.43893899023533L37.03058416193181,-109.85704982280731L37.64846590909091,149.6514190863818L37.98219460227273,91.12536091729999L38.27360262784091,152.7503493418917L39.23851384943182,87.77102534100412L39.62302734375,31.39017405360937L39.94345525568182,-6.053480930626392L40.38721768465909,88.36263431608675L40.64235085227273,128.18453628011048L40.768103693181814,129.70380265638232L41.95429154829545,106.57911025360227L42.27109197443182,161.09679114475148L42.33517755681818,45.71155434846878L42.65439630681818,121.21418336778879L42.96998757102273,114.19868789985776L43.09574041193182,145.38374831341207L43.603588423295456,27.1336687207222L43.66767400568182,130.42377847619355L44.36294211647727,55.32473450899124L44.93245738636363,93.05450389534234L45.43909623579545,137.21852846816182L46.449955610795456,111.45295123010872L46.69299715909091,148.691581370309L47.31813387784091,143.69792346283793L50.08227805397727,-97.1456138938666L50.14636363636364,116.97548669204116L50.649375000000006,130.1979118436575L51.212844460227274,148.2448511235416L51.339806463068186,142.21519752778113L51.40026455965909,-7.399531878531008L51.58889382102273,-68.01814572513106L51.96494318181818,95.56562895327806L52.534458451704545,38.50518590211868L52.72187855113636,138.34568019397557L52.78475497159091,39.7935084477067L53.41351917613637,104.29925047233701L54.473954190340905,149.3242639992386L54.59970703125,155.8467616038397L55.78831321022728,140.0658228378743L55.914066051136366,143.78564936947078L56.09906782670455,160.4023830734659L56.60087002840909,32.89157407730818L56.970873579545454,150.42689791321754L57.094208096590904,161.8310242187872L57.28404651988636,73.10404939949512L57.66251420454545,8.751024439930916L57.97810546875,125.65411347337067L58.599614701704546,90.1168502345681L58.97203657670454,140.67849614098668L59.31785688920455,151.25897870771587L59.51253196022727,141.90091813821346L59.80514914772727,139.88625679071993L59.90309126420454,105.34782376512885L60.050609019886366,28.278554923832417L60.15338778409091,133.5731441564858L60.20296342329545,133.68340287730098L60.46051491477272,157.36663137818687L60.51009055397727,149.17888799123466L60.96473544034091,40.00159664452076L61.373432173295456,106.35122977569699L61.62735617897727,154.02854908630252L61.88732599431818,145.25420558080077L61.991313920454544,125.63364807888865L62.61282315340909,144.23247028049082L63.0191015625,36.40025867521763L63.07714133522727,150.7208767523989L63.19443004261364,147.2004071753472L63.37096768465909,156.62886166851968L63.48946555397727,149.85299319401383L64.17626953125,159.4842232678784L64.34555220170455,144.10739894397557L64.5692471590909,146.34825661219656L64.72281072443182,56.759757310152054L64.88483842329545,140.9926917348057L65.10248757102273,151.01092337304726L65.15569069602273,149.113892711699L65.37575816761364,148.59688667953014L65.65628373579545,157.84938383754343L66.65988813920455,154.88713131658733L67.10365056818182,125.08909110352397L67.3285546875,162.03884709817066L67.54862215909091,156.99130987655371L67.59819779829546,17.264903284609318L67.94401811079545,153.96155781950802L68.38778053977273,105.9539829790592L68.58608309659091,156.7005080638919L68.78317649147726,88.67233241349459L68.97664240056818,139.58575562015176L69.0250088778409,105.95474126189946L69.22210227272727,145.62005781941116L69.66223721590909,144.32768560387194L69.85812144886363,131.21603293716908L69.90769708806819,150.3067815154791L69.95727272727274,160.11743253935128L70.05521484375,156.56789373629726L70.10479048295454,154.12748782569543L70.39982599431819,124.30806802026927L70.5945010653409,138.3894820176065L70.64407670454545,124.15877696499228L70.74080965909091,158.5976290460676L70.98264204545455,144.05999527685344L71.0322176846591,162.1344240053586L71.08058416193182,134.3917929045856L71.27525923295454,123.09170816466212L71.46993430397727,160.9351768771885L71.71176669034091,139.13381629996002L71.76013316761363,125.36464449390769L71.80849964488635,160.75812933873385L72.92939275568182,158.23136401036754L73.12044034090908,155.44576666457579L73.2195916193182,146.87511070538312L73.4674698153409,153.06689259037375L74.71169744318182,159.73371120076627L74.81810369318183,120.79655359871686L75.08291015625,124.3463063556701L75.18568892045454,119.35619259625673L75.39608309659091,142.42312225420028L75.50369850852273,158.28489884757437L75.92327769886363,158.58860383182764L76.23886896306819,152.30116566549987L76.4468448153409,147.1819130415097L76.7987109375,145.71489812247455L76.89423473011364,149.70944695547223L77.20740767045454,147.75759670324624L77.31381392045455,155.01996818371117L77.47342329545454,149.79132501780987L77.63182350852273,147.32970813661814L78.0562393465909,153.50349110690877L78.10944247159091,125.50488835573196L78.26905184659091,149.92481714021415L78.63905539772728,159.01997026544996L78.78052734375001,137.22842735610902L79.15778586647728,161.57144920094288L79.32706853693182,154.2371249468997L79.46128551136364,159.6742900556419L79.5120703125,158.05862216535024L79.99331676136364,150.94809716707096L80.04651988636364,157.71004421426915L80.26900568181819,159.47592508478556L80.37783025568181,130.3200887925923L80.43345170454546,156.2793660853058L80.65351917613636,159.8326959591359L80.709140625,154.9633717108518L80.87358664772727,149.7779176980257L80.92799893465909,88.22403889521956L81.3669247159091,161.9014387694333L81.58457386363636,133.2288919892162L81.69581676136363,140.6814083866775L81.80464133522727,161.16240038268734L81.85905362215908,151.46412306372076L82.34392755681819,154.39335456490517L82.50474609375,131.08999863639474L82.93399857954545,153.56566411815584L83.04282315340909,153.41937185171992L83.58694602272728,161.3757783578476L83.96420454545455,126.8516426384449L84.66310014204545,157.7599686223548L84.98957386363637,161.03359154972713L85.1503924005682,156.34414157271385L85.25921697443181,159.87226214807015L85.47686612215908,147.95324329193681L85.69209694602273,153.58680949453264L85.79850319602274,159.38017453323118L86.06572798295454,162.16595535930173L86.11893110795455,157.13934605615214L86.59655007102273,162.15467239804275L86.92060546875,154.2825862010941L87.1394637784091,123.61550577357411L87.19387606534092,145.15924988687038L87.73920809659091,156.8022646070458L88.01126953125,159.11536039225757L88.75974076704546,157.61903344560415L88.86614701704545,154.5636062338017L89.9592294034091,125.83114778995514L90.01485085227273,144.811284606345L90.23612748579546,154.00652591511607L90.29053977272729,130.53581476584077L90.3449520596591,140.78517774492502L91.32437322443182,132.16709270514548L91.99183061079546,158.28952821926214L92.04624289772728,159.38850963453297L92.3799715909091,155.97931411489844L92.49000532670455,111.78279327601194L92.76448508522728,160.80056055239402L94.20459694602272,157.47369727492332L94.31463068181819,151.19200049107894L94.86359019886365,143.6034444430843L95.46091619318183,157.57335617695935L95.62173473011363,143.57506103720516L95.78738991477272,161.425784586987L96.87321732954545,153.67896146513522L97.1960635653409,159.83239065413363L97.57815873579545,146.11989396531135L97.90463245738636,151.92486780602485L98.45117365056818,152.5968499542214L98.71960759943182,156.91826642747037L98.77401988636365,161.1035263139056L98.93846590909091,154.9821570692584L99.38101917613636,148.87794998381287L99.54788352272728,146.73778870515525L99.71474786931817,143.02479633502662L99.88040305397728,160.57801398297306L99.93602450284091,151.27995374519378L100.92874644886363,161.24284000857733L101.75339488636364,152.2599779944867L102.57925248579546,162.19387767928856L102.74369850852273,159.95240677171387L102.80052911931818,152.1036604596302L102.91177201704545,135.35108938254416L102.96497514204546,152.6756577952765L104.16325461647727,158.40270262002014L104.43289772727273,160.89161897130543L104.59734375,162.00063668753137L104.81620205965909,159.44522063969634L104.92502663352272,159.00822168937884L105.1414666193182,148.70728826522827L105.35911576704545,156.9788328956347L105.57676491477272,155.13687836378813L106.94190873579545,149.40865318663418L106.9975301846591,154.31851397175342L107.6033203125,155.11666160915047L108.04224609375001,158.08315371419303L108.09544921874999,160.81909246300347L108.26231356534092,160.1338984039612L108.374765625,159.19072814309038L108.43038707386364,152.46790478145704L108.92614346590909,162.00078631359793L109.31186612215909,160.42003564385232L110.10870383522726,159.00961771281436L110.16190696022727,161.35387418349274L110.31788884943181,159.58163221972063L111.55607066761364,161.86175703938352L111.60322798295455,150.42542393226177L111.70237926136363,159.79571438825224L112.04578125,155.41879061516374L112.39522904829546,161.01271155517315L112.44480468750001,149.14851271919906L112.89461292613636,161.52399964362849L113.09049715909092,139.97445799782872L113.19085759943182,143.79914460610598L113.39278764204545,159.62560180656146L113.8208309659091,159.164843498962L114.17390625,156.72286023641936L114.22348188920454,160.09145001904108L114.47136008522727,159.03612979478203L114.87763849431818,160.96989029634278L115.32744673295454,148.02361111529171L115.37702237215909,160.50676647596993L115.57653409090909,160.2069157527294L115.78813742897728,140.28043886087835L115.91630859375,159.9207810885273L116.00457741477273,159.669290986727L116.13879438920455,161.8404794872331L116.27180220170455,159.3751601818949L116.44713068181818,154.7151982379146L116.79657848011364,159.8787549448898L117.15086292613637,160.05108261911664L117.32619140625,161.02574574347818L117.45799005681818,157.6086029354483L117.7651171875,158.37016823375598L118.15204900568182,155.4586444227025L118.32858664772728,154.42639619018883L118.37211647727273,148.56542343646288L118.41564630681819,158.4684709496796L118.5027059659091,159.23518625227734L118.63208629261364,161.99972738345969L118.9283309659091,155.72164356149733L119.30075284090908,160.3960333132418L119.74572443181819,152.46829903358594L119.90654296875,128.8682931046933L119.9790926846591,155.6838599210605L120.10242720170454,160.32011865777895L120.31765802556818,160.3772889941465L120.44462002840909,160.37349654966965L120.48814985795454,161.7210075268813L120.5256338778409,159.82095768582076L120.717890625,143.36002878285944L121.36841974431819,160.3339871976059L121.78316228693183,159.5327075223904L122.05885120738635,160.36309351352975L122.40346235795454,160.415041039465L122.44820134943183,160.3960245558992L122.86415305397728,135.71794167533517L123.18337180397728,158.54989156965166L123.70935724431818,159.21280694915913L124.03220348011364,155.23064305912703L124.1289364346591,130.87996527925134L124.32240234375,158.99057478550822L124.78913884943181,161.05939059512457L124.83871448863637,159.53077850304544L124.98865056818182,162.2010700117753L125.21355468750001,159.32928750431165L125.30303267045454,160.0935232769698L125.63434303977273,159.54641825833824L125.71172940340908,160.17427593492903L125.86650213068181,161.55782599549275L125.89189453125,159.41651046473999L125.91728693181818,159.95029333303683L126.79272017045454,160.9792115431046L126.94386541193181,152.28765669185668L127.12886718749999,155.94259509257972L127.28726740056818,161.25108427391388L127.39367365056819,155.5836305897683L127.44687677556819,160.34378374484368L127.5012890625,157.775708142668L127.65968927556818,157.10970502719283L127.73828480113637,161.29732424474787L127.78906960227273,161.797002028703L127.86766512784091,145.7250456502661L127.94505149147727,158.33388501801528L128.02364701704545,161.8875902555883L128.26064275568183,149.94893520511687L128.31384588068184,156.8097993559204L128.62701882102272,159.97484394197818L128.65362038352274,160.75291597249452L128.68022194602273,156.8477756578941L129.04780717329544,158.72886692546308L129.15300426136363,162.04700823314488L129.2569921875,129.68100746534765L129.36098011363637,148.377148126252L129.4649680397727,161.18046952784061L129.5157528409091,161.42749046580866L129.5677468039773,154.28023717273027L129.77693181818182,148.48326101806015L129.82892578125,160.66689671739005L129.90873046875,160.60095856396947L129.98732599431818,157.09916118672118L130.06350319602274,161.85955701462808L130.19288352272727,148.50641474500299L130.68259410511365,162.0508832713822L130.99576704545453,157.68523689499125L131.02236860795455,159.87101053493097L131.10338245738637,158.2586182341911L131.12998401988636,159.89553332643118L131.18318714488635,162.19282735087836L131.23639026988636,159.05469913873821L131.34279651988635,159.6882978543872L131.44678444602272,161.93364499145537L131.57979225852273,157.11943494994193L131.63420454545454,159.25063763884827L131.82041548295456,154.2381380512379L132.03564630681817,162.14958444639342L132.14326171875,159.27584642218426L132.27626953125,160.33897544862702L132.32826349431818,160.20932488050312L132.35365589488637,159.527992637828L132.75751598011362,149.63899808377028L132.83973899147728,161.96613101915864L132.9207528409091,157.57340563018806L132.94856356534092,160.20510281110182L133.05617897727274,153.68157699145377L133.11059126420457,153.1206949558109L133.24359907670456,159.6483557865722L133.45520241477274,158.9395692748949L133.48301313920456,159.61785293207504L133.58700106534093,161.71933624814847L133.6414133522727,159.73427613521926L133.69703480113637,132.34433032944798L133.81069602272726,161.91323267763073L134.07429332386366,158.0011063432321L134.12870561079546,143.70915209315717L134.18069957386365,150.93337590247393L134.20730113636364,154.94576773513108L134.31612571022728,157.94989409064874L134.39351207386363,161.54938906861935L134.60511541193182,151.77530681854114L134.71393998579546,161.8530770962534L135.0899893465909,153.6346980780363L135.19760475852271,158.83357005682774L135.25201704545455,160.36091276351362L135.38623401988636,156.58787318412215L135.41283558238635,161.82774021531804L135.4660387073864,144.43062799423933L135.52045099431817,159.3312814310193L135.54826171874998,161.38071595365182L135.60267400568182,158.6029212283902L135.65708629261363,157.4439065125771L135.68489701704547,160.16351676685736L135.87594460227274,161.20746755646542L135.95695845170454,161.3173387219431L136.0730379971591,153.99887852277607L136.60990589488637,159.44218716491014L136.8855948153409,159.7866709724767L137.05366832386366,159.75684758473653L137.14072798295456,159.29160929541104L137.22053267045456,160.81644602841698L137.3051740056818,161.06188892759383L137.33056640625,159.811481554294L137.3559588068182,159.3712820528308L137.6219744318182,161.75996924453648L137.65824928977273,155.0611840155907L137.68485085227272,158.6604064856656L137.73442649147728,159.66751427645795L138.05485440340908,160.1613040782977L138.08266512784093,159.04889387916774L138.13465909090908,161.01972747442778L138.3535174005682,160.6681569161592L138.6098597301136,161.26932650536764L139.07296875,157.60508866538294L139.4514364346591,162.11342928532395L139.5578426846591,160.78193917952012L139.5844442471591,161.10315799037926L139.63764737215908,158.43509620195255L139.85166903409092,159.9021021919325L139.9036629971591,156.103993259836L140.01127840909092,151.169688842725L140.26641157670454,159.1687743437942L140.46955078125,149.9969515427947L140.49736150568182,159.33755890023895L140.76942294034092,160.7945463185897L140.97135298295456,162.07202411883918L141.12975319602273,158.83830760745332L141.15635475852272,161.6529464905907L141.21076704545456,151.84692264907062L141.26517933238637,134.9694698061794L141.39818714488638,157.8893358646892L142.08136363636362,158.70595119218342L142.10917436079546,145.1335919033736L142.38244495738635,161.0951499157236L142.43564808238636,158.83731545205228L142.54447265625,160.72689309972338L142.57107421875,160.37406612036284L142.87215553977273,153.7821813430637L142.95558771306818,160.8805004087626L143.12245205965908,161.9132252510608L143.26029651988637,161.81846734858118L143.31591796875,161.1232238096418L143.3703302556818,156.82884193980135L143.42716086647727,159.8754317909479L143.67141157670454,161.9524417258217L143.7790269886364,155.74784346995875L143.8878515625,151.10043096961454L143.9410546875,160.76514757610857L144.02448686079546,153.53538019722328L144.26873757102274,148.43758409284055L144.29654829545453,156.7288636523299L144.56981889204545,157.04957402218133L144.6254403409091,159.45995649986435L144.9591690340909,147.28796549048275L144.98697975852275,161.78129470450222L145.0075355113636,161.44245401688386L145.1175692471591,158.95211734483019L145.22276633522728,149.23808625340462L145.39083984375,158.95706884935498L145.85999467329546,160.72152879810892L145.9422176846591,161.67890926395194L146.02806818181818,158.1611895353999L146.05587890625,157.60090505960397L146.28078302556818,160.14192304888275L146.44764737215908,159.36978454724886L146.61330255681816,160.55283026967663L146.74751953125,160.00736407609656L147.26866832386364,160.75983753567562L147.37628373579545,161.2022425137693L147.4306960227273,158.5609505479224L147.56612215909092,159.13243549317122L147.70275745738635,155.31308296509087L148.02681285511366,160.09265372436494L148.18763139204543,162.21719657497124L148.55037997159093,154.0453837895766L148.8369513494318,160.0502681862563L148.85992542613639,152.3930600672029L148.94093927556818,153.83302338328212L149.10659446022726,154.29438491724432L149.29280539772728,161.25127573346253L149.32545276988637,159.73626181972213L149.35326349431818,155.8414756031707L149.38107421875,161.87784663875937L149.40767578125,158.18454210553318L149.65313565340907,159.89578007743694L150.26255326704546,160.04889002093114L150.28915482954545,158.5687068060506L150.31575639204544,160.2449943954125L150.50075816761364,161.74039838684257L150.80909446022727,156.9623567282688L150.86229758522728,149.47324597183615L151.17909801136364,147.66259979829192L151.20690873579545,161.6059475071379L151.28550426136366,144.45813497900963L151.3435440340909,161.66684804216493L151.37135475852273,158.83147756708786L151.42455788352274,156.59507240657695L151.93361505681818,155.86162504646927L152.15126420454544,115.29958270862699L152.22985973011362,161.05707814154448L152.46927379261362,161.63090863797697L152.49345703125002,161.50499002856668L152.70626953124997,158.7666591515299L152.73287109375002,161.94482755986974L152.8936896306818,160.36385179637L152.97228515625,153.82517886487767L153.13189453125,161.2227828608011L153.18388849431818,159.02215410629287L153.23588245738637,161.32359859062126L153.68085404829546,158.81371870660223L153.73284801136364,159.19441446918063L153.75944957386363,161.05241889186436L153.78484197443183,161.15695125504863L154.0677858664773,160.00653092656285L154.32291903409092,160.79099238291383L154.53089488636365,161.22139602398966L154.9734481534091,154.682902532164L155.15119495738637,160.55817963229492L155.17658735795456,159.6071270762477L155.25034623579546,152.12101030070335L155.67597123579546,160.0647749818163L155.78116832386362,159.71026247157715L155.91417613636364,156.1335168373771L155.96737926136362,156.53816135623492L156.0193732244318,130.7839106246829L156.0725763494318,160.84700185625115L156.1245703125,160.050093726255L156.23097656250002,160.9046883606934L156.25636896306816,159.60037155915052L156.33980113636366,160.43700771720614L156.4909463778409,147.6558109689504L156.5441495028409,157.2694193806965L156.62153586647727,131.89639946818352L156.8283025568182,160.10171431140043L156.88876065340907,159.42807530832943L156.9165713778409,160.60525292437524L156.93349964488638,161.79906403945643L157.1499396306818,161.04122056881897L157.56468217329544,160.28035688819364L157.61909446022727,161.80763898033183L157.67834339488635,156.9890704008285L157.7327556818182,156.48583606258035L158.04351029829544,159.90335706761107L158.15958984375,158.78027802123688L158.53080255681817,160.8455080424901L158.64567294034092,161.74411665147636L159.19705078125,161.69297480105888L159.63355823863637,158.42920027812943L159.66741477272728,158.91972960112616L159.86934481534092,145.75583165884018L159.90199218749999,161.10777250892716L159.96970525568182,154.55602958705276L160.07127485795453,161.07426605763612L160.23693004261364,161.19562299305107L160.36751953125,128.18014867976308L160.43523259943183,158.6682757306844L160.96968217329544,160.27867822581902L161.33726740056818,157.48719903663732L161.5730539772727,160.31298417097423L161.60570134943183,155.6884686872363L161.83060546874998,161.03842766338494L161.93217507102273,160.87812279025093L162.7278036221591,160.20701345719863L162.82574573863639,161.45611942070536L163.05427734375,159.55320451199077L163.15342862215908,159.4470430255169L163.18728515625003,160.61307975638192L163.2525799005682,161.90015491725353L163.28401811079547,154.752547102049L163.51496803977273,160.637554124929L163.93333806818183,162.14558822198887L164.09415660511362,160.96467237971956L164.38798295454546,160.5117852918338L164.4496502130682,162.18439560757906L164.51615411931817,159.90920697245747L164.74226740056818,158.3819109715987L165.1691015625,153.66827132552862L165.23197798295453,156.75639845454134L165.42544389204545,157.8311678781174L165.68783203125,162.0349345621944L165.8800887784091,156.4107640008442L165.91273615056818,161.88860451898654L166.07113636363638,160.11462057381868L166.2343732244318,155.69671982107684L166.4604865056818,157.7070928181056L166.7132013494318,161.85295505152317L166.8377450284091,159.54057007061783L166.96470703125001,161.4148749128217L167.37098544034092,161.8122116868617L167.43507102272727,160.9533358280314L167.49915660511363,160.99370108154835L167.59468039772727,150.27677164785564L167.75187144886362,161.68216235915315L168.28269353693182,152.5177666861564L168.44109375,155.10548792686313L169.01665482954544,139.99459370411932L169.1472443181818,158.78576492564753L169.24397727272728,160.59186157386284L169.40842329545455,161.28277014236664L169.63695490056818,161.33196983742528L169.76512606534092,160.40409882576205L169.8316299715909,147.50187680497766L170.00695845170455,161.12650326272706L170.02630504261364,160.58315626019612L170.16898615056817,160.23614982282743L170.37212535511364,149.56752443127334L170.55108132102274,162.19137661014975L170.63814098011363,159.8991222914774L170.81709694602273,150.44597312249243L171.14357066761363,161.6516239172197L171.20402876420457,157.41614401945844L171.49785511363638,157.97576225036755L171.58733309659092,161.74961720703868L171.64658203125,159.50058352923952L171.7940997869318,157.85669948114082L172.25720880681817,157.73311311518773L172.31645774147728,157.19749961886555L172.49420454545452,160.37351234722883L172.6090749289773,154.76814547460526L172.6707421875,148.62847630307078L173.08185724431817,155.49943028623238L173.4433966619318,159.02895529894158L173.5945419034091,160.45921273203567L173.95970880681816,157.94990404997952L173.99114701704548,159.28028038493358L174.17614879261365,160.3409573554527L174.20637784090908,160.27920778747648L174.62474786931818,161.95250238329754L174.74203657670455,154.7398362485692L174.80249467329546,143.6802274491638L174.8629527698864,162.02309042806155L174.9524307528409,154.47848486388102L175.04069957386363,161.80411556657054L175.31397017045455,157.36080585652962L175.48929865056817,161.6688330398174L175.5509659090909,161.39643778756727L175.88832208806818,155.72005006857216L175.91855113636365,159.14343471545726L176.10113458806816,160.03016304480843L176.31152876420455,161.780991417123L177.03702592329546,161.49156545166625L177.22202769886363,161.62265089320135L177.26676669034092,143.1405182639137L177.90762251420455,158.92576907668263L177.99951882102275,160.9982285418082L178.12527166193183,157.20532009750605L178.1567098721591,161.78747953477432L178.18089311079544,161.14439657417824L178.3646857244318,155.87941859290004L178.45779119318183,156.68468577810563L178.51945845170454,157.38915491988882L178.79756569602273,161.39913848333526L179.01158735795454,157.2865744996816L179.15789595170455,159.06890389183536L179.40335582386365,155.03465785318986L179.52427201704543,160.0556038118666L179.64881569602272,155.99157851561904L180.04783913352273,159.65200965898111L180.10829723011364,158.84244862850755L180.19414772727274,160.17622367094737L180.55931463068183,158.2939450107515L180.68143998579546,159.61726893752348L180.83258522727272,161.41662595205707L180.89183416193183,161.3431993263075L181.19412464488636,156.40982370264828L181.24974609375,160.06205591280013L181.30899502840907,161.14497189724352L181.68988103693184,154.24667422799394L182.1675,161.5407815882063L182.31139026988635,161.23107477638405L182.5205752840909,159.07809463702142L183.24486328125,150.78154968237504L183.27267400568184,158.57892061490566L183.30290305397727,160.33478600461967L183.50725142045454,159.74013771652244L183.79503196022725,159.31759799737483L184.02840021306818,160.9888912399183L184.20131036931818,158.24262457923032L184.23033025568182,159.61588304513134L184.3476189630682,159.2325092528481L184.67046519886364,153.11346654221416L184.84579367897726,161.38253404665738L185.02354048295453,158.82686193240806L185.1142276278409,159.1615215470083L185.56524502840907,159.5441854794044L185.6849520596591,154.38828217471018L186.0126349431818,159.53465268271975L186.16136186079547,158.7005618205294L186.30887961647727,157.87937103910372L186.4249591619318,156.48835302586667L186.45518821022725,161.9353166994697L186.78287109375,159.77465881756507L186.81189098011362,162.20045006489818L187.13957386363634,161.11251546849962L187.20003196022728,159.19687305018306L187.23026100852272,158.72067486075684L187.4358185369318,153.54404618870467L187.4962766335227,160.03830668656155L187.52650568181818,161.90391963014554L187.55552556818182,161.48361687542638L187.5857546164773,159.8903455453692L187.76229225852273,154.141112877056L188.4128213778409,156.62426114454865L188.90736860795457,159.4545885922853L189.05488636363634,160.51119614590425L189.0851154119318,159.8677308242768L189.1431551846591,160.13702752266545L189.3777325994318,161.56602475699037L189.73201704545454,156.09658214403316L191.0802325994318,161.70929625537246L191.4889293323864,160.26606885448564L191.51674005681818,158.94313746271655L191.83958629261363,160.68685727682896L191.86860617897727,162.0040929402021L191.92906427556818,158.1402663551271L191.9858948863636,159.0574025819078L192.07658203124998,161.18123098736396L192.10318359374997,156.6129356683232L192.1612233664773,160.00636711274274L192.82988991477274,160.6170354995411L192.9749893465909,161.50693415862042L193.06446732954547,159.88265076035168L193.15152698863636,160.6697948826477L193.2990447443182,161.53518186861766L193.61947265625,160.23396168916952L193.88548828125,157.47014454123564L193.9737571022727,158.4296117015183L194.00156782670456,159.28793327207677L194.26758345170455,160.80277598835528L194.43928444602273,145.72082426771522L194.92294921875,161.31280808500014L195.10069602272728,154.23922670911998L195.22040305397726,160.5943088218337L195.31350852272726,158.2151934914291L195.4948828125,160.81774760992266L195.55534090909092,160.19295311439782L195.8346573153409,156.07249567424878L195.94831853693182,160.6009989164304L196.1381569602273,154.9162249257788L196.29534801136364,162.02843470369407L196.47672230113636,162.1801751479834L196.74515625,161.43296672403812L196.95675958806817,162.05237435920571L197.07646661931818,161.4236371492152L197.3449005681818,161.11924196616746L197.79833629261364,160.80840713134967L198.00631214488638,143.60576874483377L198.09337180397728,159.56890024559107L198.15382990056818,160.65147829963826L198.18405894886365,154.3703327132389L198.30134765625,156.90901420917362L198.33157670454545,158.26014681975357L198.71609019886364,161.76622190128546L198.89625532670456,157.9791072118096L198.926484375,158.64438570011407L198.97606001420453,161.62525796267437L199.14897017045456,156.77013786649331L199.22877485795453,159.92648692650255L199.40410333806818,160.8213831090834L199.51776455965907,158.7212037355639L199.72090376420454,147.98945816606283L200.00505681818183,159.60632706724573L200.18038529829545,162.17966907338996L200.2976740056818,159.23022856609896L200.37385120738637,160.53956186538562L200.59512784090907,161.67033496699878L200.64228515624998,161.25738200522028L201.02317116477275,155.98600335093215L201.13925071022726,154.9737197989598L201.16947975852273,161.99897141873953L201.67974609375,161.27444199542515L201.70634765625,160.58872627350502L201.78373401988637,153.9676405666396L201.99896484375,156.368697848171L202.0388671875,160.78344595758244L202.26618963068182,159.4024375869194L202.31697443181818,161.44154308154248L202.34599431818182,161.17881112755276L202.6386115056818,154.31022780854255L202.66884055397728,160.38694799959194L202.9578302556818,154.97554269991815L203.04972656249998,162.01355443322973L203.3350887784091,161.472022840695L203.42698508522727,160.8821801872691L203.48381569602273,157.89452776685357L203.54427379261364,162.05330510588828L203.84414595170455,161.94300912343897L204.34473899147727,161.57670888665598L204.4934659090909,161.30695534689585L204.77520063920454,161.25980366801377L204.95536576704546,155.99955353559926L205.16334161931817,157.21964951395057L205.34108842329547,162.0227880207094L205.40033735795456,161.55129001295427L205.51762606534092,161.9564554005192L205.72681107954546,161.68123412376735L205.75704012784092,162.0312174995488L205.7848508522727,161.9024425368989L206.09197798295455,153.5093265878968L206.72678799715908,161.25149724271614L206.87309659090909,160.88919224299025L207.02666015625,156.64812782220542L207.2044069602273,161.37905291712377L207.4994424715909,160.17973570874892L207.64937855113638,160.25046910822857L207.82833451704545,158.25919003714807L207.9492507102273,160.90129137033364L207.9782705965909,161.5379760618962L208.2188938210227,160.64203754090704L208.31199928977273,159.94853739999235L208.33981001420455,150.46520218625665L208.4026864346591,160.61930914607365L208.49216441761362,161.24889777152566L208.5211843039773,161.7596449223638L208.55383167613635,154.0160202481784L208.70014026988636,156.45984701719135L208.7618075284091,161.70824769238243L208.85007634943182,161.41190462827217L208.88030539772728,159.693017718615L208.91053444602272,161.62857377590262L208.9371360085227,161.46733723313082L208.99880326704545,159.5111694392981L209.08949041193182,159.5645487048896L209.11851029829546,160.29883900214918L209.30472123579545,159.2741996983532L209.48367720170452,161.80505006946623L209.54292613636363,161.20249072433216L209.63240411931818,159.09855453670025L209.97943359375,160.314021486789L210.21522017045453,161.33601873466978L210.26963245738636,156.98377031972632L210.44858842329546,161.6630453807884L210.65414595170455,159.68990130664315L210.79924538352273,161.06019360909704L211.01084872159092,161.05390154430643L211.40745383522727,152.4710828382522L211.5876189630682,155.18288978515193L211.64203125,158.27392160450108L212.12569602272728,157.41908099176362L212.21396484374998,161.4042946692789L212.27684126420456,161.43824654305354L212.3070703125,154.6052218126133L212.865703125,161.1001054554945L213.13171875,149.97402997128665L213.48116654829545,162.19646108998495L213.56097123579545,149.71086186729372L213.65044921875,161.28349202213576L214.02770774147726,157.20882131741382L214.2610759943182,155.18753358069807L214.4944442471591,160.01919747819193L214.52346413352274,161.93917484548L214.61052379261363,158.45653761085123L214.66856356534092,160.2447766638361L214.6806551846591,162.16387161080638L215.0736328125,161.28258082922548L215.30821022727272,160.6196235518437L215.74229936079544,161.11643575300695L215.94906605113638,158.55599183146842L216.12197620738635,159.02854009787552L216.20903586647725,161.24613259767648L216.4158025568182,161.38920087419683L216.7966885653409,150.93332095444202L216.85110085227274,161.36448851198656L216.87770241477273,161.1692304230528L216.9079314630682,156.16999340150505L217.07842329545454,159.11631786171347L217.22110440340907,161.5051500647096L217.58989879261364,142.63769019767642L218.05542613636365,160.2548950004857L218.2537286931818,160.53227764519397L218.398828125,159.60913783079013L218.42301136363636,161.00191649916815L218.59108487215912,161.75709726545028L218.8389630681818,162.1869349900917L218.95867009943183,160.57266427692957L219.00099076704544,159.39444316341542L219.1787375710227,160.44103729678318L219.25370561079544,148.3520506126806L219.3951775568182,160.36522687086836L219.91269886363636,160.63639077206608L220.0541708096591,161.3150300460402L220.21861683238637,162.03280532595818L220.40482776988634,161.76762393466197L220.5196981534091,161.07162425928982L220.60554865056818,161.25734173861565L221.01424538352273,161.49551226577023L221.24035866477274,161.85665863472968L221.34918323863636,154.0228811968118L221.37699396306817,158.2482673986815L221.88605113636365,162.0947606270929L221.9573916903409,147.28974718041718L221.9827840909091,159.65845746709965L222.03598721590907,161.88904599208036L222.0940269886364,158.62397800106555L222.12425603693183,161.6638851412572L222.2367080965909,160.22996078559663L222.26572798295453,160.57033121783752L222.58011008522726,159.47610967583023L222.7276278409091,160.4345012283884L222.83887073863636,161.3406830498716L223.45675248579545,161.34750708029605L223.78080788352273,160.37568313791417L223.98273792613637,160.46057458466385L224.12904651988634,162.110805055323L224.1725763494318,161.73894131957786L224.20038707386365,158.14090134832077L224.62843039772727,161.37306323822122L224.676796875,157.21408499544486L225.3998757102273,162.19817442757267L225.54497514204544,162.24435504554413L226.08184303977274,160.76607791497372L226.13141867897727,161.2074215374887L226.23056995738636,154.21426793932915L226.2801455965909,161.39412576326868L226.76864701704545,161.48840293486137L227.1096306818182,160.96111801476218L227.30672407670454,158.4513292242773L227.50623579545456,161.69564312900184L227.95241654829545,161.98997239067103L228.2002947443182,162.18904300372378L228.29944602272727,160.631487862207L228.39738813920454,157.9806299591437L228.84115056818183,161.76384788873838L229.08056463068183,157.26319479895756L229.3115145596591,161.54830066830618L229.98139026988636,161.29632041289005L230.0297567471591,159.47790372907184L230.12648970170454,160.25133436801843L230.36953125,160.7795916965697L230.79757457386364,161.61223618060467L231.0756818181818,159.49996450531762L231.68993607954545,160.8364577582106L232.11314275568182,160.41060381417628L232.20866654829547,158.02167133102193L232.3960866477273,162.19302674676874L232.4432439630682,161.8164556925476L232.6355007102273,161.4600408213446L232.92328125,157.7511398473289L233.21106178977274,161.88210137648275L233.45289417613637,162.1631752571884L233.59436612215907,161.25115441851085L233.68988991477272,162.1606474760083L234.21103870738636,161.4195932316361L234.40208629261366,161.2995561651187L234.82771129261363,156.8554268279113L235.01634055397724,160.3013058253564L235.20496981534092,156.81611872301437L235.44196555397727,161.91850545642956L235.48912286931818,161.3487812736421L235.67775213068182,160.72713916387875L236.01148082386365,161.39379624678986L236.2484765625,162.21475356078918L236.34400035511365,162.23702453069654L236.4419424715909,161.9500525596377L236.4890997869318,161.77410050464096L236.9195614346591,161.38445138954557L236.96913707386364,160.50088823854458L237.01629438920455,161.56734818892437L237.3040749289773,154.71419268893078L237.87600852272726,162.00655632915732L238.11905007102274,158.95105753466487L238.5023544034091,162.15695087399217L238.60029651988637,161.08616685692687L239.07670632102273,162.20113056193077L239.17102095170455,160.8372952864156L239.89530894886363,157.75004672491923L240.43338600852275,157.57184132840484L240.5325372869318,159.42470270115882L240.72600319602273,162.11946705448645L240.8251544744318,156.77821797458455L241.31365589488635,162.18816377082112L241.45875532670456,160.08050780533813L241.85052379261361,161.38583092857152L242.48291548295452,161.7830227771774L242.58085759943182,161.97305717565177L243.11530717329543,161.65296769709676L243.45387251420453,161.59628867340507L243.59897194602271,160.9039528297726L243.78518288352274,160.13800233509392L244.02096946022726,161.3721172735095L244.4429669744318,161.1479164249031L244.95686079545456,161.70866649941308L245.26882457386364,161.3980515425792L245.5916708096591,162.11054442779277L245.8189932528409,161.80227811296936" style="fill: none;" fill="none"></path></g></g></g></g></g></g><g transform="translate(63, 177)" clip-path="url(#clip_1)"><clipPath id="clip_1"><rect width="266" height="22"></rect></clipPath><g><g><line x1="0" y1="0" x2="0" y2="5" style="visibility: inherit;" fill="rgb(0, 0, 0)" stroke="rgb(204, 204, 204)" stroke-width="1px"></line><line x1="24.183238636363637" y1="0" x2="24.183238636363637" y2="5" style="visibility: inherit;" fill="rgb(0, 0, 0)" stroke="rgb(204, 204, 204)" stroke-width="1px"></line><line x1="48.36647727272727" y1="0" x2="48.36647727272727" y2="5" style="visibility: inherit;" fill="rgb(0, 0, 0)" stroke="rgb(204, 204, 204)" stroke-width="1px"></line><line x1="72.5497159090909" y1="0" x2="72.5497159090909" y2="5" style="visibility: inherit;" fill="rgb(0, 0, 0)" stroke="rgb(204, 204, 204)" stroke-width="1px"></line><line x1="96.73295454545455" y1="0" x2="96.73295454545455" y2="5" style="visibility: inherit;" fill="rgb(0, 0, 0)" stroke="rgb(204, 204, 204)" stroke-width="1px"></line><line x1="120.91619318181817" y1="0" x2="120.91619318181817" y2="5" style="visibility: inherit;" fill="rgb(0, 0, 0)" stroke="rgb(204, 204, 204)" stroke-width="1px"></line><line x1="145.0994318181818" y1="0" x2="145.0994318181818" y2="5" style="visibility: inherit;" fill="rgb(0, 0, 0)" stroke="rgb(204, 204, 204)" stroke-width="1px"></line><line x1="169.28267045454544" y1="0" x2="169.28267045454544" y2="5" style="visibility: inherit;" fill="rgb(0, 0, 0)" stroke="rgb(204, 204, 204)" stroke-width="1px"></line><line x1="193.4659090909091" y1="0" x2="193.4659090909091" y2="5" style="visibility: inherit;" fill="rgb(0, 0, 0)" stroke="rgb(204, 204, 204)" stroke-width="1px"></line><line x1="217.64914772727275" y1="0" x2="217.64914772727275" y2="5" style="visibility: inherit;" fill="rgb(0, 0, 0)" stroke="rgb(204, 204, 204)" stroke-width="1px"></line><line x1="241.83238636363635" y1="0" x2="241.83238636363635" y2="5" style="visibility: inherit;" fill="rgb(0, 0, 0)" stroke="rgb(204, 204, 204)" stroke-width="1px"></line><line x1="266.015625" y1="0" x2="266.015625" y2="5" style="visibility: inherit;" fill="rgb(0, 0, 0)" stroke="rgb(204, 204, 204)" stroke-width="1px"></line></g><g transform="translate(0, 8)"><text x="0" y="0" dx="0em" dy="0.95em" style="text-anchor: middle; visibility: hidden; font-family: &quot;Helvetica Neue&quot;, sans-serif; font-size: 13.3333px; font-weight: 200;" fill="rgb(50, 49, 63)" stroke="none" stroke-width="1px">-20k</text><text x="24.183238636363637" y="0" dx="0em" dy="0.95em" style="text-anchor: middle; visibility: inherit; font-family: &quot;Helvetica Neue&quot;, sans-serif; font-size: 13.3333px; font-weight: 200;" fill="rgb(50, 49, 63)" stroke="none" stroke-width="1px">0</text><text x="48.36647727272727" y="0" dx="0em" dy="0.95em" style="text-anchor: middle; visibility: hidden; font-family: &quot;Helvetica Neue&quot;, sans-serif; font-size: 13.3333px; font-weight: 200;" fill="rgb(50, 49, 63)" stroke="none" stroke-width="1px">20k</text><text x="72.5497159090909" y="0" dx="0em" dy="0.95em" style="text-anchor: middle; visibility: inherit; font-family: &quot;Helvetica Neue&quot;, sans-serif; font-size: 13.3333px; font-weight: 200;" fill="rgb(50, 49, 63)" stroke="none" stroke-width="1px">40k</text><text x="96.73295454545455" y="0" dx="0em" dy="0.95em" style="text-anchor: middle; visibility: hidden; font-family: &quot;Helvetica Neue&quot;, sans-serif; font-size: 13.3333px; font-weight: 200;" fill="rgb(50, 49, 63)" stroke="none" stroke-width="1px">60k</text><text x="120.91619318181817" y="0" dx="0em" dy="0.95em" style="text-anchor: middle; visibility: inherit; font-family: &quot;Helvetica Neue&quot;, sans-serif; font-size: 13.3333px; font-weight: 200;" fill="rgb(50, 49, 63)" stroke="none" stroke-width="1px">80k</text><text x="145.0994318181818" y="0" dx="0em" dy="0.95em" style="text-anchor: middle; visibility: hidden; font-family: &quot;Helvetica Neue&quot;, sans-serif; font-size: 13.3333px; font-weight: 200;" fill="rgb(50, 49, 63)" stroke="none" stroke-width="1px">100k</text><text x="169.28267045454544" y="0" dx="0em" dy="0.95em" style="text-anchor: middle; visibility: inherit; font-family: &quot;Helvetica Neue&quot;, sans-serif; font-size: 13.3333px; font-weight: 200;" fill="rgb(50, 49, 63)" stroke="none" stroke-width="1px">120k</text><text x="193.4659090909091" y="0" dx="0em" dy="0.95em" style="text-anchor: middle; visibility: hidden; font-family: &quot;Helvetica Neue&quot;, sans-serif; font-size: 13.3333px; font-weight: 200;" fill="rgb(50, 49, 63)" stroke="none" stroke-width="1px">140k</text><text x="217.64914772727275" y="0" dx="0em" dy="0.95em" style="text-anchor: middle; visibility: inherit; font-family: &quot;Helvetica Neue&quot;, sans-serif; font-size: 13.3333px; font-weight: 200;" fill="rgb(50, 49, 63)" stroke="none" stroke-width="1px">160k</text><text x="241.83238636363635" y="0" dx="0em" dy="0.95em" style="text-anchor: middle; visibility: hidden; font-family: &quot;Helvetica Neue&quot;, sans-serif; font-size: 13.3333px; font-weight: 200;" fill="rgb(50, 49, 63)" stroke="none" stroke-width="1px">180k</text><text x="266.015625" y="0" dx="0em" dy="0.95em" style="text-anchor: middle; visibility: hidden; font-family: &quot;Helvetica Neue&quot;, sans-serif; font-size: 13.3333px; font-weight: 200;" fill="rgb(50, 49, 63)" stroke="none" stroke-width="1px">200k</text></g><line x1="0" y1="0" x2="266.015625" y2="0" fill="rgb(0, 0, 0)" stroke="rgb(204, 204, 204)" stroke-width="1px"></line></g></g></g></g></svg>