<svg viewBox="0 0 330.0000305175781 200.00001525878906" xmlns="http://www.w3.org/2000/svg"><g><g><g><g><g><line x1="63.984375" y1="177" x2="58.984375" y2="177" style="visibility: inherit;" fill="rgb(0, 0, 0)" stroke="rgb(204, 204, 204)" stroke-width="1px"></line><line x1="63.984375" y1="165.2" x2="58.984375" y2="165.2" style="visibility: inherit;" fill="rgb(0, 0, 0)" stroke="rgb(204, 204, 204)" stroke-width="1px"></line><line x1="63.984375" y1="153.4" x2="58.984375" y2="153.4" style="visibility: inherit;" fill="rgb(0, 0, 0)" stroke="rgb(204, 204, 204)" stroke-width="1px"></line><line x1="63.984375" y1="141.6" x2="58.984375" y2="141.6" style="visibility: inherit;" fill="rgb(0, 0, 0)" stroke="rgb(204, 204, 204)" stroke-width="1px"></line><line x1="63.984375" y1="129.8" x2="58.984375" y2="129.8" style="visibility: inherit;" fill="rgb(0, 0, 0)" stroke="rgb(204, 204, 204)" stroke-width="1px"></line><line x1="63.984375" y1="118" x2="58.984375" y2="118" style="visibility: inherit;" fill="rgb(0, 0, 0)" stroke="rgb(204, 204, 204)" stroke-width="1px"></line><line x1="63.984375" y1="106.2" x2="58.984375" y2="106.2" style="visibility: inherit;" fill="rgb(0, 0, 0)" stroke="rgb(204, 204, 204)" stroke-width="1px"></line><line x1="63.984375" y1="94.39999999999999" x2="58.984375" y2="94.39999999999999" style="visibility: inherit;" fill="rgb(0, 0, 0)" stroke="rgb(204, 204, 204)" stroke-width="1px"></line><line x1="63.984375" y1="82.6" x2="58.984375" y2="82.6" style="visibility: inherit;" fill="rgb(0, 0, 0)" stroke="rgb(204, 204, 204)" stroke-width="1px"></line><line x1="63.984375" y1="70.79999999999998" x2="58.984375" y2="70.79999999999998" style="visibility: inherit;" fill="rgb(0, 0, 0)" stroke="rgb(204, 204, 204)" stroke-width="1px"></line><line x1="63.984375" y1="58.999999999999986" x2="58.984375" y2="58.999999999999986" style="visibility: inherit;" fill="rgb(0, 0, 0)" stroke="rgb(204, 204, 204)" stroke-width="1px"></line><line x1="63.984375" y1="47.19999999999999" x2="58.984375" y2="47.19999999999999" style="visibility: inherit;" fill="rgb(0, 0, 0)" stroke="rgb(204, 204, 204)" stroke-width="1px"></line><line x1="63.984375" y1="35.400000000000006" x2="58.984375" y2="35.400000000000006" style="visibility: inherit;" fill="rgb(0, 0, 0)" stroke="rgb(204, 204, 204)" stroke-width="1px"></line><line x1="63.984375" y1="23.599999999999994" x2="58.984375" y2="23.599999999999994" style="visibility: inherit;" fill="rgb(0, 0, 0)" stroke="rgb(204, 204, 204)" stroke-width="1px"></line><line x1="63.984375" y1="11.800000000000011" x2="58.984375" y2="11.800000000000011" style="visibility: inherit;" fill="rgb(0, 0, 0)" stroke="rgb(204, 204, 204)" stroke-width="1px"></line><line x1="63.984375" y1="0" x2="58.984375" y2="0" style="visibility: inherit;" fill="rgb(0, 0, 0)" stroke="rgb(204, 204, 204)" stroke-width="1px"></line></g><g transform="translate(53.984375, 0)"><text x="0" y="177" dx="0em" dy="0.3em" style="text-anchor: end; visibility: hidden; font-family: &quot;Helvetica Neue&quot;, sans-serif; font-size: 13.3333px; font-weight: 200;" fill="rgb(50, 49, 63)" stroke="none" stroke-width="1px">-0.04</text><text x="0" y="165.2" dx="0em" dy="0.3em" style="text-anchor: end; visibility: inherit; font-family: &quot;Helvetica Neue&quot;, sans-serif; font-size: 13.3333px; font-weight: 200;" fill="rgb(50, 49, 63)" stroke="none" stroke-width="1px">-0.02</text><text x="0" y="153.4" dx="0em" dy="0.3em" style="text-anchor: end; visibility: hidden; font-family: &quot;Helvetica Neue&quot;, sans-serif; font-size: 13.3333px; font-weight: 200;" fill="rgb(50, 49, 63)" stroke="none" stroke-width="1px">0</text><text x="0" y="141.6" dx="0em" dy="0.3em" style="text-anchor: end; visibility: hidden; font-family: &quot;Helvetica Neue&quot;, sans-serif; font-size: 13.3333px; font-weight: 200;" fill="rgb(50, 49, 63)" stroke="none" stroke-width="1px">0.02</text><text x="0" y="129.8" dx="0em" dy="0.3em" style="text-anchor: end; visibility: inherit; font-family: &quot;Helvetica Neue&quot;, sans-serif; font-size: 13.3333px; font-weight: 200;" fill="rgb(50, 49, 63)" stroke="none" stroke-width="1px">0.04</text><text x="0" y="118" dx="0em" dy="0.3em" style="text-anchor: end; visibility: hidden; font-family: &quot;Helvetica Neue&quot;, sans-serif; font-size: 13.3333px; font-weight: 200;" fill="rgb(50, 49, 63)" stroke="none" stroke-width="1px">0.06</text><text x="0" y="106.2" dx="0em" dy="0.3em" style="text-anchor: end; visibility: hidden; font-family: &quot;Helvetica Neue&quot;, sans-serif; font-size: 13.3333px; font-weight: 200;" fill="rgb(50, 49, 63)" stroke="none" stroke-width="1px">0.08</text><text x="0" y="94.39999999999999" dx="0em" dy="0.3em" style="text-anchor: end; visibility: inherit; font-family: &quot;Helvetica Neue&quot;, sans-serif; font-size: 13.3333px; font-weight: 200;" fill="rgb(50, 49, 63)" stroke="none" stroke-width="1px">0.1</text><text x="0" y="82.6" dx="0em" dy="0.3em" style="text-anchor: end; visibility: hidden; font-family: &quot;Helvetica Neue&quot;, sans-serif; font-size: 13.3333px; font-weight: 200;" fill="rgb(50, 49, 63)" stroke="none" stroke-width="1px">0.12</text><text x="0" y="70.79999999999998" dx="0em" dy="0.3em" style="text-anchor: end; visibility: hidden; font-family: &quot;Helvetica Neue&quot;, sans-serif; font-size: 13.3333px; font-weight: 200;" fill="rgb(50, 49, 63)" stroke="none" stroke-width="1px">0.14</text><text x="0" y="58.999999999999986" dx="0em" dy="0.3em" style="text-anchor: end; visibility: inherit; font-family: &quot;Helvetica Neue&quot;, sans-serif; font-size: 13.3333px; font-weight: 200;" fill="rgb(50, 49, 63)" stroke="none" stroke-width="1px">0.16</text><text x="0" y="47.19999999999999" dx="0em" dy="0.3em" style="text-anchor: end; visibility: hidden; font-family: &quot;Helvetica Neue&quot;, sans-serif; font-size: 13.3333px; font-weight: 200;" fill="rgb(50, 49, 63)" stroke="none" stroke-width="1px">0.18</text><text x="0" y="35.400000000000006" dx="0em" dy="0.3em" style="text-anchor: end; visibility: hidden; font-family: &quot;Helvetica Neue&quot;, sans-serif; font-size: 13.3333px; font-weight: 200;" fill="rgb(50, 49, 63)" stroke="none" stroke-width="1px">0.2</text><text x="0" y="23.599999999999994" dx="0em" dy="0.3em" style="text-anchor: end; visibility: inherit; font-family: &quot;Helvetica Neue&quot;, sans-serif; font-size: 13.3333px; font-weight: 200;" fill="rgb(50, 49, 63)" stroke="none" stroke-width="1px">0.22</text><text x="0" y="11.800000000000011" dx="0em" dy="0.3em" style="text-anchor: end; visibility: hidden; font-family: &quot;Helvetica Neue&quot;, sans-serif; font-size: 13.3333px; font-weight: 200;" fill="rgb(50, 49, 63)" stroke="none" stroke-width="1px">0.24</text><text x="0" y="0" dx="0em" dy="0.3em" style="text-anchor: end; visibility: hidden; font-family: &quot;Helvetica Neue&quot;, sans-serif; font-size: 13.3333px; font-weight: 200;" fill="rgb(50, 49, 63)" stroke="none" stroke-width="1px">0.26</text></g><line x1="63.984375" y1="0" x2="63.984375" y2="177" fill="rgb(0, 0, 0)" stroke="rgb(204, 204, 204)" stroke-width="1px"></line></g></g><g transform="translate(63, 0)" clip-path="url(#clip_0)"><clipPath id="clip_0"><rect width="266" height="176"></rect></clipPath><g><g><g><line x1="0" y1="0" x2="0" y2="177" fill="rgb(0, 0, 0)" stroke="rgb(60, 60, 60)" stroke-width="1px" opacity="0.25"></line><line x1="24.183238636363637" y1="0" x2="24.183238636363637" y2="177" fill="rgb(0, 0, 0)" stroke="rgb(60, 60, 60)" stroke-width="1px" opacity="0.25"></line><line x1="48.36647727272727" y1="0" x2="48.36647727272727" y2="177" fill="rgb(0, 0, 0)" stroke="rgb(60, 60, 60)" stroke-width="1px" opacity="0.25"></line><line x1="72.5497159090909" y1="0" x2="72.5497159090909" y2="177" fill="rgb(0, 0, 0)" stroke="rgb(60, 60, 60)" stroke-width="1px" opacity="0.25"></line><line x1="96.73295454545455" y1="0" x2="96.73295454545455" y2="177" fill="rgb(0, 0, 0)" stroke="rgb(60, 60, 60)" stroke-width="1px" opacity="0.25"></line><line x1="120.91619318181817" y1="0" x2="120.91619318181817" y2="177" fill="rgb(0, 0, 0)" stroke="rgb(60, 60, 60)" stroke-width="1px" opacity="0.25"></line><line x1="145.0994318181818" y1="0" x2="145.0994318181818" y2="177" fill="rgb(0, 0, 0)" stroke="rgb(60, 60, 60)" stroke-width="1px" opacity="0.25"></line><line x1="169.28267045454544" y1="0" x2="169.28267045454544" y2="177" fill="rgb(0, 0, 0)" stroke="rgb(60, 60, 60)" stroke-width="1px" opacity="0.25"></line><line x1="193.4659090909091" y1="0" x2="193.4659090909091" y2="177" fill="rgb(0, 0, 0)" stroke="rgb(60, 60, 60)" stroke-width="1px" opacity="0.25"></line><line x1="217.64914772727275" y1="0" x2="217.64914772727275" y2="177" fill="rgb(0, 0, 0)" stroke="rgb(60, 60, 60)" stroke-width="1px" opacity="0.25"></line><line x1="241.83238636363635" y1="0" x2="241.83238636363635" y2="177" fill="rgb(0, 0, 0)" stroke="rgb(60, 60, 60)" stroke-width="1px" opacity="0.25"></line><line x1="266.015625" y1="0" x2="266.015625" y2="177" fill="rgb(0, 0, 0)" stroke="rgb(60, 60, 60)" stroke-width="1px" opacity="0.25"></line></g><g><line x1="0" y1="177" x2="266.015625" y2="177" fill="rgb(0, 0, 0)" stroke="rgb(60, 60, 60)" stroke-width="1px" opacity="0.25"></line><line x1="0" y1="165.2" x2="266.015625" y2="165.2" fill="rgb(0, 0, 0)" stroke="rgb(60, 60, 60)" stroke-width="1px" opacity="0.25"></line><line x1="0" y1="153.4" x2="266.015625" y2="153.4" fill="rgb(0, 0, 0)" stroke="rgb(60, 60, 60)" stroke-width="1px" opacity="0.25"></line><line x1="0" y1="141.6" x2="266.015625" y2="141.6" fill="rgb(0, 0, 0)" stroke="rgb(60, 60, 60)" stroke-width="1px" opacity="0.25"></line><line x1="0" y1="129.8" x2="266.015625" y2="129.8" fill="rgb(0, 0, 0)" stroke="rgb(60, 60, 60)" stroke-width="1px" opacity="0.25"></line><line x1="0" y1="118" x2="266.015625" y2="118" fill="rgb(0, 0, 0)" stroke="rgb(60, 60, 60)" stroke-width="1px" opacity="0.25"></line><line x1="0" y1="106.2" x2="266.015625" y2="106.2" fill="rgb(0, 0, 0)" stroke="rgb(60, 60, 60)" stroke-width="1px" opacity="0.25"></line><line x1="0" y1="94.39999999999999" x2="266.015625" y2="94.39999999999999" fill="rgb(0, 0, 0)" stroke="rgb(60, 60, 60)" stroke-width="1px" opacity="0.25"></line><line x1="0" y1="82.6" x2="266.015625" y2="82.6" fill="rgb(0, 0, 0)" stroke="rgb(60, 60, 60)" stroke-width="1px" opacity="0.25"></line><line x1="0" y1="70.79999999999998" x2="266.015625" y2="70.79999999999998" fill="rgb(0, 0, 0)" stroke="rgb(60, 60, 60)" stroke-width="1px" opacity="0.25"></line><line x1="0" y1="58.999999999999986" x2="266.015625" y2="58.999999999999986" fill="rgb(0, 0, 0)" stroke="rgb(60, 60, 60)" stroke-width="1px" opacity="0.25"></line><line x1="0" y1="47.19999999999999" x2="266.015625" y2="47.19999999999999" fill="rgb(0, 0, 0)" stroke="rgb(60, 60, 60)" stroke-width="1px" opacity="0.25"></line><line x1="0" y1="35.400000000000006" x2="266.015625" y2="35.400000000000006" fill="rgb(0, 0, 0)" stroke="rgb(60, 60, 60)" stroke-width="1px" opacity="0.25"></line><line x1="0" y1="23.599999999999994" x2="266.015625" y2="23.599999999999994" fill="rgb(0, 0, 0)" stroke="rgb(60, 60, 60)" stroke-width="1px" opacity="0.25"></line><line x1="0" y1="11.800000000000011" x2="266.015625" y2="11.800000000000011" fill="rgb(0, 0, 0)" stroke="rgb(60, 60, 60)" stroke-width="1px" opacity="0.25"></line><line x1="0" y1="0" x2="266.015625" y2="0" fill="rgb(0, 0, 0)" stroke="rgb(60, 60, 60)" stroke-width="1px" opacity="0.25"></line></g></g></g><g><g><line x1="0" y1="153.4" x2="266.015625" y2="153.4" fill="rgb(0, 0, 0)" stroke="rgb(153, 153, 153)" stroke-width="1.5px"></line></g></g><g><g><line x1="24.183238636363637" y1="0" x2="24.183238636363637" y2="177" fill="rgb(0, 0, 0)" stroke="rgb(153, 153, 153)" stroke-width="1.5px"></line></g></g><g><g><g><g><g><path stroke="rgb(255, 112, 67)" stroke-width="2px" d="M41.95429154829545,-0.10415307304819521L42.27109197443182,4.022947391077935L42.33517755681818,4.584677493273546L42.65439630681818,8.743339237735455L42.96998757102273,10.444743212460537L43.09574041193182,14.229156977357746L43.603588423295456,16.218743039720152L43.66767400568182,19.188469575256363L44.36294211647727,21.981029206556997L44.93245738636363,23.88294975873697L45.43909623579545,26.057649743517544L46.449955610795456,28.10760619216248L46.69299715909091,31.010529497436863L47.31813387784091,33.52529228078356L50.08227805397727,32.58411994517556L50.14636363636364,34.980631954515815L50.649375000000006,36.877222160791376L51.212844460227274,39.56758384354896L51.339806463068186,41.88115084774779L51.40026455965909,41.17320077813227L51.58889382102273,41.58455152593791L51.96494318181818,39.13731696377903L52.534458451704545,38.606916607414746L52.72187855113636,40.88653142721469L52.78475497159091,40.744677244776256L53.41351917613637,42.540981916012214L54.473954190340905,44.95499608881548L54.59970703125,47.40117827908503L55.78831321022728,49.1773843911687L55.914066051136366,50.64851769146563L56.09906782670455,53.0780440617105L56.60087002840909,50.019397538342304L56.970873579545454,52.327813124895656L57.094208096590904,54.716860508111836L57.28404651988636,54.82067528722601L57.66251420454545,53.540150468698045L57.97810546875,54.60087785877347L58.599614701704546,55.07334868108519L58.97203657670454,56.554089236055276L59.31785688920455,57.91863240049632L59.51253196022727,59.56644043642811L59.80514914772727,61.447303939754136L59.90309126420454,62.8342693998661L60.050609019886366,62.278352718838946L60.15338778409091,63.858797203440005L60.20296342329545,64.91249765629408L60.46051491477272,66.6537719239008L60.51009055397727,68.04501659765452L60.96473544034091,67.28286969434723L61.373432173295456,67.47926854423335L61.62735617897727,68.81941641296298L61.88732599431818,70.36265567444879L61.991313920454544,71.13724927362522L62.61282315340909,72.09464226584883L63.0191015625,71.54055515069095L63.07714133522727,71.97028913892835L63.19443004261364,72.5009210609988L63.37096768465909,73.85651727644495L63.48946555397727,75.27236314440779L64.17626953125,76.75289976689265L64.34555220170455,77.58951309937108L64.5692471590909,78.66644829965506L64.72281072443182,78.48230700012537L64.88483842329545,79.46153781881554L65.10248757102273,80.01758118328836L65.15569069602273,81.20172186769706L65.37575816761364,81.91856654798268L65.65628373579545,83.21510279436346L66.65988813920455,84.15483427536026L67.10365056818182,85.07329697403807L67.3285546875,86.49952622833598L67.54862215909091,87.68551346960948L67.59819779829546,86.4954091172799L67.94401811079545,87.43409586674571L68.38778053977273,87.71145582283853L68.58608309659091,88.93251789802828L68.78317649147726,88.95583140280927L68.97664240056818,89.41051364658229L69.0250088778409,87.37778060128842L69.22210227272727,87.90723615650683L69.66223721590909,88.35898431987064L69.85812144886363,88.83569837797582L69.90769708806819,89.75738919853399L69.95727272727274,90.8639021287757L70.05521484375,91.79680368031941L70.10479048295454,92.75040059088339L70.39982599431819,93.36444411223955L70.5945010653409,94.08250940305982L70.64407670454545,94.40697976106424L70.74080965909091,95.09012250099441L70.98264204545455,96.07589745012942L71.0322176846591,97.25167627536034L71.08058416193182,97.33366980398198L71.27525923295454,96.3666385789522L71.46993430397727,97.43534400134212L71.71176669034091,97.39159634111947L71.76013316761363,96.97112309149323L71.80849964488635,97.81911145060353L72.92939275568182,98.36109725935097L73.12044034090908,99.06641530390691L73.2195916193182,99.08357891957057L73.4674698153409,99.72694965748903L74.71169744318182,100.27138540425689L74.81810369318183,99.92620133827275L75.08291015625,100.132126562437L75.18568892045454,99.97766014047077L75.39608309659091,100.35993296287576L75.50369850852273,101.06990136731527L75.92327769886363,102.01443366619424L76.23886896306819,102.53559942950369L76.4468448153409,103.24099846292967L76.7987109375,103.82095564939758L76.89423473011364,104.1801749708986L77.20740767045454,104.93515116914827L77.31381392045455,105.44895876987087L77.47342329545454,105.23955245484267L77.63182350852273,105.67938165312775L78.0562393465909,106.20893417172027L78.10944247159091,106.58772011378264L78.26905184659091,107.12580577143011L78.63905539772728,107.79012785969532L78.78052734375001,107.96329693293642L79.15778586647728,108.67953245217458L79.32706853693182,109.223930154385L79.46128551136364,109.74423750095514L79.5120703125,110.29651156697405L79.99331676136364,110.90685821316232L80.04651988636364,111.47795183886288L80.26900568181819,112.17942513761818L80.37783025568181,110.12392078882463L80.43345170454546,110.36596285098982L80.65351917613636,111.05828224023698L80.709140625,111.53453483481968L80.87358664772727,112.05559698957934L80.92799893465909,108.90324358096213L81.3669247159091,109.73980400524465L81.58457386363636,109.78009092946493L81.69581676136363,109.40054937255927L81.80464133522727,110.13581775762299L81.85905362215908,110.04410194116258L82.34392755681819,110.70566555850795L82.50474609375,110.55935101127372L82.93399857954545,110.90214409132416L83.04282315340909,110.9654061161812L83.58694602272728,111.65234041933431L83.96420454545455,109.5379193232153L84.66310014204545,110.25812274782261L84.98957386363637,111.01253742896826L85.1503924005682,111.5303750326628L85.25921697443181,112.12571370893825L85.47686612215908,112.63402219660685L85.69209694602273,112.85871109952356L85.79850319602274,113.40907340392766L86.06572798295454,114.0853584011565L86.11893110795455,114.4060541910701L86.59655007102273,115.17654897682081L86.92060546875,115.67291794410603L87.1394637784091,114.28717847904534L87.19387606534092,114.5651913343934L87.73920809659091,114.81588022545174L88.01126953125,115.38831762247207L88.75974076704546,115.82406768195379L88.86614701704545,115.72027557235381L89.9592294034091,113.08486551193212L90.01485085227273,113.48042127389256L90.23612748579546,113.67913043925343L90.29053977272729,112.95945398295618L90.3449520596591,112.99446926587243L91.32437322443182,112.18065031450544L91.99183061079546,112.63201893655587L92.04624289772728,113.06144083222985L92.3799715909091,112.72808897407899L92.49000532670455,111.50512693362161L92.76448508522728,112.12400806623043L94.20459694602272,112.53075165943362L94.31463068181819,112.7825486659016L94.86359019886365,113.03912396555864L95.46091619318183,113.56783935417798L95.62173473011363,112.80056845751771L95.78738991477272,113.50563223980684L96.87321732954545,114.04435939355835L97.1960635653409,114.68099648022817L97.57815873579545,112.55971143981048L97.90463245738636,112.95160857032499L98.45117365056818,112.63116858057079L98.71960759943182,113.25075896733574L98.77401988636365,113.79760448487716L98.93846590909091,114.25813697619283L99.38101917613636,114.5043769353451L99.54788352272728,114.59345148652426L99.71474786931817,114.86492807879377L99.88040305397728,115.52846021693247L99.93602450284091,114.27269385203391L100.92874644886363,114.76456449786576L101.75339488636364,115.06722813047548L102.57925248579546,115.79826264749184L102.74369850852273,116.31216641641592L102.80052911931818,116.42066149631216L102.91177201704545,116.35027737265233L102.96497514204546,116.53698531105385L104.16325461647727,116.25560686986486L104.43289772727273,116.87253146792283L104.59734375,117.49060322281828L104.81620205965909,117.99745639444917L104.92502663352272,118.4249542293174L105.1414666193182,118.42249489440195L105.35911576704545,118.39369735422929L105.57676491477272,118.78637738422042L106.94190873579545,118.61936887740885L106.9975301846591,118.90665295789029L107.6033203125,119.07897538494959L108.04224609375001,119.49515249285398L108.09544921874999,119.97443095133882L108.26231356534092,120.5412504317029L108.374765625,120.85258695183461L108.43038707386364,120.93983364578969L108.92614346590909,121.45510613603207L109.31186612215909,121.60978234333905L110.10870383522726,122.06480064807613L110.16190696022727,122.67063331679351L110.31788884943181,123.16690963176873L111.55607066761364,123.61101884871073L111.60322798295455,123.70278560759914L111.70237926136363,124.03394507012908L112.04578125,124.15865329553536L112.39522904829546,124.6310679002585L112.44480468750001,124.765645204474L112.89461292613636,125.20246283723847L113.09049715909092,125.05135656615779L113.19085759943182,124.8635283274522L113.39278764204545,125.26228767572987L113.8208309659091,125.5369121822275L114.17390625,125.8773493267257L114.22348188920454,126.22451690169078L114.47136008522727,126.4499587918153L114.87763849431818,126.83814324738529L115.32744673295454,126.13160075411412L115.37702237215909,126.43789892721584L115.57653409090909,126.8425448963531L115.78813742897728,126.84126093046078L115.91630859375,127.19314440136023L116.00457741477273,127.54347500755944L116.13879438920455,127.93287897476853L116.27180220170455,127.72008469116987L116.44713068181818,127.80939095980717L116.79657848011364,128.02555033698178L117.15086292613637,128.38364407333543L117.32619140625,128.71502499881782L117.45799005681818,128.89190801183935L117.7651171875,128.67166543821722L118.15204900568182,128.67146925905743L118.32858664772728,128.72235710418536L118.37211647727273,128.88317926665923L118.41564630681819,128.93152544600568L118.5027059659091,129.23660656862847L118.63208629261364,129.63903633542492L118.9283309659091,129.66296769434086L119.30075284090908,129.864884319679L119.74572443181819,129.2594596530779L119.90654296875,128.13862501506105L119.9790926846591,128.06754920537387L120.10242720170454,128.41887793157622L120.31765802556818,128.8141035866773L120.44462002840909,129.10176053011074L120.48814985795454,129.4964991429932L120.5256338778409,129.65348620669343L120.717890625,128.62520964929186L121.36841974431819,128.98193612084768L121.78316228693183,129.19606496150362L122.05885120738635,129.44429642872268L122.40346235795454,129.7385824275075L122.44820134943183,129.92003994252582L122.86415305397728,129.53650499465246L123.18337180397728,129.54166150162598L123.70935724431818,129.75357939528155L124.03220348011364,129.83173427032628L124.1289364346591,128.08295749813425L124.32240234375,128.06524581134713L124.78913884943181,128.42222452322508L124.83871448863637,128.54156191480718L124.98865056818182,128.9965057581158L125.21355468750001,128.93956945371346L125.30303267045454,129.03563192231007L125.63434303977273,129.27874429804294L125.71172940340908,129.59077856943645L125.86650213068181,129.90344920435703L125.89189453125,130.24592517632846L125.91728693181818,130.57679050011825L126.79272017045454,130.81991560207615L126.94386541193181,130.27614806814069L127.12886718749999,130.20901477579224L127.28726740056818,130.53439975302987L127.39367365056819,129.92260528306278L127.44687677556819,130.23002702353352L127.5012890625,130.3771672468943L127.65968927556818,130.65125259904053L127.73828480113637,130.88383002716748L127.78906960227273,131.2387728908522L127.86766512784091,131.22957837765927L127.94505149147727,131.26316994461675L128.02364701704545,131.54803863179333L128.26064275568183,131.09536884277315L128.31384588068184,131.19258057829273L128.62701882102272,131.3466988306322L128.65362038352274,131.61897311605472L128.68022194602273,131.42046748923832L129.04780717329544,131.57515837147383L129.15300426136363,131.91156091238207L129.2569921875,131.8187656149796L129.36098011363637,131.58579254508828L129.4649680397727,131.8821631078288L129.5157528409091,132.1862453220889L129.5677468039773,132.01766174471464L129.77693181818182,131.9326068884309L129.82892578125,132.2518572715718L129.90873046875,132.49168444586428L129.98732599431818,131.93424224416705L130.06350319602274,132.28910367008217L130.19288352272727,131.75242928161498L130.68259410511365,132.11230557045255L130.99576704545453,132.0422708120094L131.02236860795455,132.1023732617739L131.10338245738637,132.0974687446061L131.12998401988636,132.33167005983046L131.18318714488635,132.7254884113935L131.23639026988636,132.9400509614363L131.34279651988635,133.0080020420452L131.44678444602272,133.2440549582674L131.57979225852273,133.13689066656696L131.63420454545454,133.20412253176983L131.82041548295456,133.24178650938427L132.03564630681817,133.5849513112855L132.14326171875,133.7288036906585L132.27626953125,133.91319502033826L132.32826349431818,134.15078107432868L132.35365589488637,134.2487641996369L132.75751598011362,133.70821792461848L132.83973899147728,134.09068819438411L132.9207528409091,134.11689910007928L132.94856356534092,134.261839054716L133.05617897727274,133.48442290930237L133.11059126420457,133.0425619409998L133.24359907670456,133.22712945861437L133.45520241477274,133.31395046662158L133.48301313920456,133.43656278582426L133.58700106534093,133.6032809620007L133.6414133522727,133.76505592408705L133.69703480113637,133.53150741038172L133.81069602272726,133.817312183441L134.07429332386366,133.81741975644061L134.12870561079546,133.7628312404932L134.18069957386365,133.5782915418663L134.20730113636364,133.59158415109223L134.31612571022728,133.46728640650505L134.39351207386363,133.71878310782813L134.60511541193182,133.30317332607308L134.71393998579546,133.6586312932032L135.0899893465909,133.18701235693226L135.19760475852271,133.33922214490167L135.25201704545455,133.57295123253908L135.38623401988636,133.64101735264123L135.41283558238635,133.98629369738637L135.4660387073864,133.15621048430603L135.52045099431817,133.15891242148518L135.54826171874998,133.37541953895555L135.60267400568182,133.44600899053967L135.65708629261363,133.52321698407252L135.68489701704547,133.7110511307496L135.87594460227274,134.00644873958376L135.95695845170454,134.23498774978296L136.0730379971591,133.71625780990092L136.60990589488637,133.56868034390476L136.8855948153409,133.5829487564898L137.05366832386366,133.8193478618183L137.14072798295456,133.85487188193656L137.22053267045456,134.01240115694242L137.3051740056818,134.2650170182927L137.33056640625,134.34907949653183L137.3559588068182,134.34124160526187L137.6219744318182,134.67507486043667L137.65824928977273,134.5471868133443L137.68485085227272,134.61565156304036L137.73442649147728,134.77752506890687L138.05485440340908,134.66980205658612L138.08266512784093,134.66227771030626L138.13465909090908,134.8862331521094L138.3535174005682,135.1296473630994L138.6098597301136,135.34828184206341L139.07296875,135.3326793993192L139.4514364346591,135.66499168258423L139.5578426846591,135.91051401558275L139.5844442471591,136.0208508398279L139.63764737215908,136.13367244953713L139.85166903409092,136.2733277461537L139.9036629971591,136.09915740263727L140.01127840909092,135.41358714816303L140.26641157670454,135.53948183674456L140.46955078125,135.38541108670603L140.49736150568182,135.51337720309618L140.76942294034092,135.74311064898282L140.97135298295456,136.01257863398604L141.12975319602273,136.00337709766708L141.15635475852272,136.24686353489238L141.21076704545456,136.0000343027657L141.26517933238637,134.80815893567635L141.39818714488638,134.81014897354297L142.08136363636362,135.02020774554896L142.10917436079546,134.56832597256096L142.38244495738635,134.7961967505929L142.43564808238636,134.96762569509644L142.54447265625,135.15776024631472L142.57107421875,135.1319478092676L142.87215553977273,135.1216573442209L142.95558771306818,135.17438353978287L143.12245205965908,135.40367141682364L143.26029651988637,135.69268612895135L143.31591796875,135.908330364061L143.3703302556818,135.88374577498337L143.42716086647727,135.86865907398894L143.67141157670454,136.13313109402048L143.7790269886364,135.88988747923761L143.8878515625,135.49247422844286L143.9410546875,135.60708666480303L144.02448686079546,135.50015025265893L144.26873757102274,135.38430367416618L144.29654829545453,135.24880008617168L144.56981889204545,134.94900861651718L144.6254403409091,135.14578370731155L144.9591690340909,134.8797627023556L144.98697975852275,135.0625415780445L145.0075355113636,135.2726902333684L145.1175692471591,135.29497463654988L145.22276633522728,135.07335099731924L145.39083984375,135.15525538095577L145.85999467329546,135.40550078712724L145.9422176846591,135.68835116012906L146.02806818181818,135.59249934082442L146.05587890625,134.35789569784907L146.28078302556818,134.5150471006404L146.44764737215908,134.6164355285486L146.61330255681816,134.72933797381896L146.74751953125,134.91044117511302L147.26866832386364,135.12228281480623L147.37628373579545,135.2778780963951L147.4306960227273,134.6423869523694L147.56612215909092,134.75274346756385L147.70275745738635,134.66503021468884L148.02681285511366,134.7479349487406L148.18763139204543,135.1070216865892L148.55037997159093,135.1460918613604L148.8369513494318,135.30199113103615L148.85992542613639,135.2311577199672L148.94093927556818,135.25611250873993L149.10659446022726,135.33870232637025L149.29280539772728,135.4305010577034L149.32545276988637,135.53684273777804L149.35326349431818,135.0697586661808L149.38107421875,135.38785621554737L149.40767578125,135.13194286518737L149.65313565340907,135.25384713736298L150.26255326704546,135.37403446885247L150.28915482954545,135.32588196128307L150.31575639204544,135.39773619612998L150.50075816761364,135.59851257206435L150.80909446022727,135.58700857532847L150.86229758522728,135.2761103676635L151.17909801136364,135.24788625160255L151.20690873579545,135.5314334231412L151.28550426136366,135.13364272010358L151.3435440340909,135.4112076175981L151.37135475852273,135.43953733991873L151.42455788352274,135.38155122274142L151.93361505681818,134.8788089616957L152.15126420454544,134.68119598610673L152.22985973011362,134.95616931964483L152.46927379261362,135.1987150816848L152.49345703125002,135.46215242438018L152.70626953124997,135.52933364855838L152.73287109375002,135.78362992391703L152.8936896306818,135.96118652160453L152.97228515625,135.6255214481534L153.13189453125,135.77124023423573L153.18388849431818,135.80145386441018L153.23588245738637,136.0038651819337L153.68085404829546,136.17705495176165L153.73284801136364,136.12822516283805L153.75944957386363,136.25877979208346L153.78484197443183,136.4799546488985L154.0677858664773,136.4940696058536L154.32291903409092,136.6264238077708L154.53089488636365,136.79740670798094L154.9734481534091,136.81212633519112L155.15119495738637,136.87077662101984L155.17658735795456,136.94611233119326L155.25034623579546,136.94507244226185L155.67597123579546,137.06399115040898L155.78116832386362,136.90731805081353L155.91417613636364,136.47455351885912L155.96737926136362,136.42277479912627L156.0193732244318,134.90757274056938L156.0725763494318,135.1071495049248L156.1245703125,135.30666406107648L156.23097656250002,135.53587151495367L156.25636896306816,135.75191875759953L156.33980113636366,135.9961705294896L156.4909463778409,135.64302960680953L156.5441495028409,135.41956594459091L156.62153586647727,133.61383256521486L156.8283025568182,133.64459522550789L156.88876065340907,133.78526717617922L156.9165713778409,134.08269245378267L156.93349964488638,134.36518861383018L157.1499396306818,134.53671110748513L157.56468217329544,134.6907421221999L157.61909446022727,134.9513557448273L157.67834339488635,134.90642183056534L157.7327556818182,134.78528812256127L158.04351029829544,135.00094309812948L158.15958984375,134.82360571405695L158.53080255681817,134.98784345090928L158.64567294034092,135.2269865580779L159.19705078125,135.5139301880591L159.63355823863637,135.64243303765548L159.66741477272728,135.66505448401898L159.86934481534092,133.8151108594253L159.90199218749999,134.04642794885626L159.96970525568182,133.89566504930795L160.07127485795453,134.1406262317652L160.23693004261364,134.37611920239667L160.36751953125,132.93631241132968L160.43523259943183,132.79614333326228L160.96968217329544,133.04985151444748L161.33726740056818,133.2722633843636L161.5730539772727,133.52653576281017L161.60570134943183,133.17650161373848L161.83060546874998,133.462845799384L161.93217507102273,133.6856511926565L162.7278036221591,133.8900155033593L162.82574573863639,134.10816856531767L163.05427734375,134.21370306568548L163.15342862215908,134.19962782353633L163.18728515625003,134.4343116620991L163.2525799005682,134.73623169983287L163.28401811079547,134.38385152048122L163.51496803977273,134.617908520549L163.93333806818183,134.97827722020955L164.09415660511362,135.03312026093676L164.38798295454546,135.28929154303577L164.4496502130682,135.56927910465978L164.51615411931817,135.73802290727278L164.74226740056818,135.7982028546265L165.1691015625,135.8241479998944L165.23197798295453,135.75826139765613L165.42544389204545,135.8745032743231L165.68783203125,136.12643794497657L165.8800887784091,135.9830178531589L165.91273615056818,136.24311640563516L166.07113636363638,136.34933470060636L166.2343732244318,136.3212427544772L166.4604865056818,136.00694456790305L166.7132013494318,136.31459458878135L166.8377450284091,136.3455512537246L166.96470703125001,136.54986923852135L167.37098544034092,136.80663150372536L167.43507102272727,136.96011128245567L167.49915660511363,137.04242119823672L167.59468039772727,136.91670324949698L167.75187144886362,137.16353570735106L168.28269353693182,137.3122946837354L168.44109375,137.3835332046986L169.01665482954544,137.25082924239814L169.1472443181818,137.3672852622376L169.24397727272728,137.4523546219785L169.40842329545455,137.642733322266L169.63695490056818,137.83764529864376L169.76512606534092,137.83075451417835L169.8316299715909,136.55697100134108L170.00695845170455,136.73305045952804L170.02630504261364,136.88177195540962L170.16898615056817,137.01651634150767L170.37212535511364,136.5918087079696L170.55108132102274,136.8922253345693L170.63814098011363,137.0743411882175L170.81709694602273,136.46545008617485L171.14357066761363,136.68628205049131L171.20402876420457,136.57311536450217L171.49785511363638,136.45617260348448L171.58733309659092,136.68183098951596L171.64658203125,136.7277843120611L171.7940997869318,136.8230124859353L172.25720880681817,136.71626272970167L172.31645774147728,136.60875612366354L172.49420454545452,136.54570004978763L172.6090749289773,136.44677718903466L172.6707421875,136.4288850713643L173.08185724431817,136.35683293174785L173.4433966619318,135.75643335726443L173.5945419034091,135.9817131594598L173.95970880681816,135.86239146062093L173.99114701704548,135.96045721219372L174.17614879261365,136.15059502320975L174.20637784090908,136.23730333166324L174.62474786931818,136.48852530832028L174.74203657670455,136.26940943509948L174.80249467329546,136.05644443800236L174.8629527698864,136.29208873267626L174.9524307528409,136.0785228621639L175.04069957386363,136.31964104294588L175.31397017045455,136.28520105382196L175.48929865056817,136.5563289119788L175.5509659090909,136.75072165123208L175.88832208806818,136.38719969245463L175.91855113636365,136.39944520333688L176.10113458806816,136.4979019857412L176.31152876420455,136.70035296257726L177.03702592329546,136.79896607131167L177.22202769886363,136.961979390311L177.26676669034092,136.76991526170778L177.90762251420455,136.82404980534142L177.99951882102275,137.0757027138195L178.12527166193183,137.03262351407255L178.1567098721591,137.20072553472406L178.18089311079544,137.40186560906767L178.3646857244318,136.83625850721918L178.45779119318183,136.22355795748257L178.51945845170454,136.18027958215023L178.79756569602273,136.26650065191194L179.01158735795454,136.10344754288306L179.15789595170455,136.27544125777715L179.40335582386365,136.28224654065184L179.52427201704543,136.49940515242218L179.64881569602272,136.44137121111476L180.04783913352273,136.66132995363205L180.10829723011364,136.83994937614585L180.19414772727274,136.89447043095996L180.55931463068183,136.87553701283704L180.68143998579546,136.95776588385755L180.83258522727272,137.08918419378116L180.89183416193183,137.30250926632857L181.19412464488636,137.39672064667315L181.24974609375,137.45210522731773L181.30899502840907,137.62436700225894L181.68988103693184,136.70865615782282L182.1675,136.90562614608865L182.31139026988635,137.13892787102776L182.5205752840909,137.1497544885898L183.24486328125,136.9492547400845L183.27267400568184,137.02697654182361L183.30290305397727,137.19778135896644L183.50725142045454,137.4049763423558L183.79503196022725,137.50151479781138L184.02840021306818,137.64561911652618L184.20131036931818,137.69154601403562L184.23033025568182,137.800342011771L184.3476189630682,137.91748497223958L184.67046519886364,137.82134477324166L184.84579367897726,138.01948373021813L185.02354048295453,137.9893087654866L185.1142276278409,137.966580160232L185.56524502840907,137.99284285830572L185.6849520596591,137.9487012575828L186.0126349431818,138.02655280583622L186.16136186079547,138.1629035605331L186.30887961647727,138.21515476780817L186.4249591619318,138.17241977680177L186.45518821022725,138.38618483554708L186.78287109375,138.50311585027998L186.81189098011362,138.74672288215237L187.13957386363634,138.8329514682336L187.20003196022728,138.89349012406765L187.23026100852272,138.84743511420965L187.4358185369318,138.639931899299L187.4962766335227,138.72855334923128L187.52650568181818,138.94733302721252L187.55552556818182,139.04685289846722L187.5857546164773,139.12748628114718L187.76229225852273,139.02603967429727L188.4128213778409,138.78448728477014L188.90736860795457,138.9160743027302L189.05488636363634,138.82035136293683L189.0851154119318,138.94937408340704L189.1431551846591,139.05234914172422L189.3777325994318,139.2091765427192L189.73201704545454,138.71195320130374L191.0802325994318,138.81550031657702L191.4889293323864,138.77840859167614L191.51674005681818,138.8247190609655L191.83958629261363,138.93838102523165L191.86860617897727,139.1299872144915L191.92906427556818,139.12069838009364L191.9858948863636,139.06190595196801L192.07658203124998,139.12432157009056L192.10318359374997,138.93743461875258L192.1612233664773,139.0823242896622L192.82988991477274,139.0828301856181L192.9749893465909,139.2124001444449L193.06446732954547,139.2698667147559L193.15152698863636,139.39388876452168L193.2990447443182,139.56693073915682L193.61947265625,139.71181370184297L193.88548828125,139.62563875714756L193.9737571022727,139.67561687877907L194.00156782670456,139.53095818464595L194.26758345170455,139.68854213781458L194.43928444602273,139.41481563841393L194.92294921875,139.59764517326474L195.10069602272728,139.42577736142044L195.22040305397726,139.4296296074053L195.31350852272726,139.5010396556968L195.4948828125,139.64475692304575L195.55534090909092,139.74835600299048L195.8346573153409,139.4737830577161L195.94831853693182,139.5293244724549L196.1381569602273,139.33071205697712L196.29534801136364,139.54354214120787L196.47672230113636,139.79749891250543L196.74515625,139.83997663811647L196.95675958806817,140.05401705640003L197.07646661931818,140.2119592633074L197.3449005681818,140.297249636027L197.79833629261364,140.3467457531555L198.00631214488638,140.05264606254903L198.09337180397728,140.06182339756418L198.15382990056818,140.22725602194743L198.18405894886365,140.02425117282297L198.30134765625,139.5406883547591L198.33157670454545,139.541577816512L198.71609019886364,139.69592796403185L198.89625532670456,139.21681528191039L198.926484375,139.18343396947589L198.97606001420453,139.3534424002867L199.14897017045456,139.34969390858473L199.22877485795453,139.22070377449072L199.40410333806818,139.32970899452218L199.51776455965907,139.3653636599021L199.72090376420454,138.91917975006555L200.00505681818183,138.77832437208923L200.18038529829545,139.05547707752444L200.2976740056818,139.11746823963728L200.37385120738637,139.0532555152495L200.59512784090907,139.25792482288654L200.64228515624998,139.40175725459744L201.02317116477275,139.21270238788523L201.13925071022726,139.0331382043294L201.16947975852273,139.24713782986976L201.67974609375,139.38121013951442L201.70634765625,139.41548203621971L201.78373401988637,139.03457998825343L201.99896484375,138.74837895320388L202.0388671875,138.90161215874545L202.26618963068182,138.9671422910522L202.31697443181818,139.09748000338797L202.34599431818182,139.19838132854778L202.6386115056818,139.09096171318L202.66884055397728,139.19184326369907L202.9578302556818,139.17617133924261L203.04972656249998,139.38439904439758L203.3350887784091,139.56804748215973L203.42698508522727,139.69188369467457L203.48381569602273,139.73767281726563L203.54427379261364,139.91082195411053L203.84414595170455,140.11186206188876L204.34473899147727,140.2737180739319L204.4934659090909,140.40643504308116L204.77520063920454,140.53704153706082L204.95536576704546,140.45977565290002L205.16334161931817,140.46892907662374L205.34108842329547,140.69271716183337L205.40033735795456,140.77807987893956L205.51762606534092,141.00080931283702L205.72681107954546,141.12924615414778L205.75704012784092,141.25526509060148L205.7848508522727,141.4147808876467L206.09197798295455,141.3699474334766L206.72678799715908,141.4824609818451L206.87309659090909,141.60225701781258L207.02666015625,141.3994138049105L207.2044069602273,141.49707442745023L207.4994424715909,141.61473809418635L207.64937855113638,141.579291496802L207.82833451704545,140.4701907664839L207.9492507102273,140.5952826489512L207.9782705965909,140.7043604111381L208.2188938210227,140.76884782320695L208.31199928977273,140.27600328574096L208.33981001420455,138.94395297646992L208.4026864346591,139.02033105460058L208.49216441761362,139.10096852220164L208.5211843039773,139.23561766343562L208.55383167613635,139.0531499572055L208.70014026988636,138.77214575636515L208.7618075284091,138.90150299494294L208.85007634943182,139.11572100084354L208.88030539772728,139.22045502409026L208.91053444602272,139.3182598627638L208.9371360085227,139.5143032846824L208.99880326704545,139.4652672065148L209.08949041193182,139.4123165076397L209.11851029829546,139.50291874682947L209.30472123579545,139.0992247439167L209.48367720170452,139.25040129075302L209.54292613636363,139.37377330346936L209.63240411931818,139.3174468820369L209.97943359375,139.3581766297025L210.21522017045453,139.4976493997708L210.26963245738636,139.37201924003074L210.44858842329546,139.57176875924648L210.65414595170455,139.51660855283342L210.79924538352273,139.62472963953127L211.01084872159092,139.75174280839823L211.40745383522727,139.59565916356792L211.5876189630682,139.5993734217079L211.64203125,139.61328863302447L212.12569602272728,139.2742825112913L212.21396484374998,139.4480599534468L212.27684126420456,139.58004160442238L212.3070703125,139.2995093158646L212.865703125,139.2376568496992L213.13171875,139.02425077702017L213.48116654829545,139.26672960864857L213.56097123579545,138.7193851980271L213.65044921875,138.89912441751346L214.02770774147726,138.93139313062943L214.2610759943182,138.98986689188064L214.4944442471591,139.10231469428584L214.52346413352274,139.35755412742458L214.61052379261363,139.37773028536503L214.66856356534092,139.13142344316634L214.6806551846591,139.40117097489338L215.0736328125,139.58589224513412L215.30821022727272,139.7314376941636L215.74229936079544,139.87360448345424L215.94906605113638,139.92852532928026L216.12197620738635,139.53385329628023L216.20903586647725,139.65578536365143L216.4158025568182,139.71265540648218L216.7966885653409,139.28927071862813L216.85110085227274,139.41849451263136L216.87770241477273,139.62200485947608L216.9079314630682,139.5463820642533L217.07842329545454,139.6730822785134L217.22110440340907,139.80673617841325L217.58989879261364,139.48585285183992L218.05542613636365,139.6353593920452L218.2537286931818,139.762254672044L218.398828125,139.53038355390962L218.42301136363636,139.63882826989155L218.59108487215912,139.7490718779412L218.8389630681818,139.953145829236L218.95867009943183,140.0328915870183L219.00099076704544,139.8975682454248L219.1787375710227,140.05804586968293L219.25370561079544,140.07262236242184L219.3951775568182,140.15853219580436L219.91269886363636,140.29243358127255L220.0541708096591,140.4448171845623L220.21861683238637,140.62089701553592L220.40482776988634,140.81057815022888L220.5196981534091,140.8654442488083L220.60554865056818,141.02423905744755L221.01424538352273,141.1403356522908L221.24035866477274,141.27372427915714L221.34918323863636,141.24080218874806L221.37699396306817,141.26590057165322L221.88605113636365,141.38269226858756L221.9573916903409,141.0299272528922L221.9827840909091,141.07399835169215L222.03598721590907,141.2531125588761L222.0940269886364,141.25266516560592L222.12425603693183,141.34057702421597L222.2367080965909,141.37205944134456L222.26572798295453,141.34584221653054L222.58011008522726,141.4485728556051L222.7276278409091,141.5572912517183L222.83887073863636,141.6101458541125L223.45675248579545,141.76757090125176L223.78080788352273,141.87722356783226L223.98273792613637,141.9278792898508L224.12904651988634,142.0808809595981L224.1725763494318,142.2303865832612L224.20038707386365,142.16306147426843L224.62843039772727,142.3065997038363L224.676796875,142.00144517644276L225.3998757102273,142.21690221612033L225.54497514204544,142.42758238354952L226.08184303977274,142.52916698841832L226.13141867897727,142.58280403958034L226.23056995738636,142.33225259573814L226.2801455965909,142.4066569235636L226.76864701704545,142.44512858415987L227.1096306818182,142.34038207104612L227.30672407670454,142.31375557462448L227.50623579545456,142.4409668709055L227.95241654829545,142.60738673103674L228.2002947443182,142.8175191308362L228.29944602272727,142.85066046187205L228.39738813920454,142.75045012835585L228.84115056818183,142.90785430745814L229.08056463068183,142.8575258068518L229.3115145596591,142.9799279500842L229.98139026988636,143.0743408972916L230.0297567471591,143.05489190306616L230.12648970170454,143.03697518144574L230.36953125,143.09459176855876L230.79757457386364,143.22076192715218L231.0756818181818,143.23979176686882L231.68993607954545,143.26664372895726L232.11314275568182,143.3045865895217L232.20866654829547,143.1730516710514L232.3960866477273,143.37436449536915L232.4432439630682,143.51475336630944L232.6355007102273,143.55879382014658L232.92328125,143.4737112857076L233.21106178977274,143.57998001821724L233.45289417613637,143.70962192794752L233.59436612215907,143.78935489183473L233.68988991477272,143.87602975785776L234.21103870738636,143.95165272056136L234.40208629261366,143.958236949937L234.82771129261363,143.09663622056996L235.01634055397724,143.14118664681305L235.20496981534092,142.85834605564423L235.44196555397727,142.97800210728408L235.48912286931818,143.06350153667086L235.67775213068182,143.1417769754067L236.01148082386365,143.18790095147546L236.2484765625,143.36688352882229L236.34400035511365,143.55910921840658L236.4419424715909,143.6849864547745L236.4890997869318,143.78387313911426L236.9195614346591,143.82718642766235L236.96913707386364,143.9186611287638L237.01629438920455,143.94463510586786L237.3040749289773,143.88566017185246L237.87600852272726,144.00390420849223L238.11905007102274,143.92958178445943L238.5023544034091,144.1070759776645L238.60029651988637,144.1920952918049L239.07670632102273,144.34295757147763L239.17102095170455,144.36560193203317L239.89530894886363,144.1978955672301L240.43338600852275,143.68942127857633L240.5325372869318,143.57544281505173L240.72600319602273,143.72517464556762L240.8251544744318,143.4022290184341L241.31365589488635,143.58090980645846L241.45875532670456,143.64123127199397L241.85052379261361,143.73048013866156L242.48291548295452,143.8371596240302L242.58085759943182,143.92140445823776L243.11530717329543,143.96692405924946L243.45387251420453,144.02589147473157L243.59897194602271,144.1099770106424L243.78518288352274,144.17282718301317L244.02096946022726,144.15849320526627L244.4429669744318,144.2335034904134L244.95686079545456,144.30624211047254L245.26882457386364,144.37217316261936L245.5916708096591,144.50050033145948L245.8189932528409,144.54010406920796" style="fill: none;" fill="none"></path></g></g></g></g><g opacity="0.2"><g><g><g><path stroke="rgb(255, 112, 67)" stroke-width="2px" d="M25.308968394886364,-12.296009993553156L25.700736860795452,0.22440459728241535L26.672903053977272,-263.10650382041933L27.577356178977272,-23.641398286819452L28.34880149147727,75.71939584016799L28.53501242897727,109.20121859908103L29.64623224431818,5.023046994209295L30.11296875,23.707285636663443L30.28708806818182,30.04297834038735L30.342709517045456,-337.7083829402924L30.73689630681818,-94.98929891586306L31.519224076704546,119.33927554786204L32.37531072443182,105.81135582327842L33.09838955965909,-50.07403913736343L33.42849076704545,-105.84724102020266L33.624375,108.62923156619071L34.21686434659091,97.19543408751487L34.28094992897727,13.797078394889837L34.93268821022727,-45.63351724147796L35.26399857954545,7.046084070205694L35.39458806818182,78.83683066964149L35.46109197443182,-66.1399996638298L35.71985262784091,132.89075259268282L36.23374644886364,-120.05133364200594L36.69564630681818,-92.77906928062441L36.751267755681816,3.0468871831893978L37.03058416193181,-29.76658288240432L37.64846590909091,109.57511577904224L37.98219460227273,15.659245216846472L38.27360262784091,129.96117189675567L39.23851384943182,-39.056035614013666L39.62302734375,65.16907479763032L39.94345525568182,-37.0942238330841L40.38721768465909,29.258118236064917L40.64235085227273,74.97048493623733L40.768103693181814,79.81831681132316L41.95429154829545,113.82068205773831L42.27109197443182,117.92046461403369L42.33517755681818,20.327454173564917L42.65439630681818,127.03650135695933L42.96998757102273,59.54063799381257L43.09574041193182,124.95726123601197L43.603588423295456,75.21754007935523L43.66767400568182,108.40121921300887L44.36294211647727,106.93045381605624L44.93245738636363,82.4459668636322L45.43909623579545,93.81191890835761L46.449955610795456,92.70700629949569L46.69299715909091,123.50440230369568L47.31813387784091,114.51341409385203L50.08227805397727,1.9574567317962703L50.14636363636364,113.75434879362584L50.649375000000006,99.83026694655418L51.212844460227274,129.71863128393886L51.339806463068186,120.12301910817622L51.40026455965909,17.01628577113152L51.58889382102273,55.743201488256446L51.96494318181818,-45.809860861301416L52.534458451704545,20.044353121519094L52.72187855113636,121.30523920208215L52.78475497159091,35.70150908231736L53.41351917613637,106.88594591021537L54.473954190340905,132.06307038813827L54.59970703125,136.30189564228058L55.78831321022728,114.17904433012008L55.914066051136366,104.85076312124728L56.09906782670455,143.18187277913094L56.60087002840909,-64.14535973072051L56.970873579545454,139.02901372089983L57.094208096590904,144.99316431730986L57.28404651988636,58.76686420440673L57.66251420454545,4.5836561560630855L57.97810546875,95.38261499404906L58.599614701704546,73.33813276290893L58.97203657670454,114.10285558700562L59.31785688920455,111.22800093293189L59.51253196022727,124.26961079388856L59.80514914772727,135.6678371146321L59.90309126420454,117.82975860089063L60.050609019886366,40.13139303922654L60.15338778409091,127.11112298220395L60.20296342329545,107.27275367975234L60.46051491477272,136.96188744306562L60.51009055397727,124.45977274477482L60.96473544034091,36.249125564098335L61.373432173295456,75.50893169045447L61.62735617897727,123.82817369103431L61.88732599431818,133.95313542485235L61.991313920454544,103.17578006684779L62.61282315340909,111.84032861292361L63.0191015625,48.454956078529364L63.07714133522727,89.93786286711692L63.19443004261364,94.76342540383338L63.37096768465909,130.92116456627843L63.48946555397727,135.06876729577777L64.17626953125,139.48178880065677L64.34555220170455,113.14695324897765L64.5692471590909,124.57792859673499L64.72281072443182,70.60861345529557L64.88483842329545,121.4546736717224L65.10248757102273,103.93084954619407L65.15569069602273,132.26897165328265L65.37575816761364,112.91742433011531L65.65628373579545,139.43111132979394L66.65988813920455,125.00631224513053L67.10365056818182,125.10174598693847L67.3285546875,148.81200747713447L67.54862215909091,139.62767582535741L67.59819779829546,34.249078744649864L67.94401811079545,128.73876940608025L68.38778053977273,99.94374122619628L68.58608309659091,142.904088498652L68.78317649147726,89.98853814005851L68.97664240056818,109.59411900639533L69.0250088778409,-3.0437988400459233L69.22210227272727,111.50671493411063L69.66223721590909,108.53480007648467L69.85812144886363,110.16789514720439L69.90769708806819,131.07996218055484L69.95727272727274,140.56489363461733L70.05521484375,133.77591703236104L70.10479048295454,135.7370903171599L70.39982599431819,121.09274637103081L70.5945010653409,126.56330429166555L70.64407670454545,109.10843555033206L70.74080965909091,126.09312497228383L70.98264204545455,140.88454172164202L71.0322176846591,150.7803506558761L71.08058416193182,101.07221555113792L71.27525923295454,52.20840778350829L71.46993430397727,146.3077058658004L71.71176669034091,95.38813617229461L71.76013316761363,77.68825855255128L71.80849964488635,136.76103480309246L72.92939275568182,123.28391123712062L73.12044034090908,131.54248174428938L73.2195916193182,99.87488474845885L73.4674698153409,129.42597586810587L74.71169744318182,125.43432004898786L74.81810369318183,83.95315181612969L75.08291015625,109.67233862876891L75.18568892045454,92.81320545971393L75.39608309659091,118.11051007509231L75.50369850852273,134.07322984337807L75.92327769886363,145.96911059841514L76.23886896306819,126.81421019285916L76.4468448153409,136.13622073233128L76.7987109375,130.89383561313153L76.89423473011364,120.9654911249876L77.20740767045454,140.24739951044322L77.31381392045455,129.5039976775646L77.47342329545454,95.42659100294112L77.63182350852273,126.30897622704505L78.0562393465909,131.0690824702382L78.10944247159091,124.38560828715562L78.26905184659091,132.43032325208185L78.63905539772728,139.05737240016458L78.78052734375001,116.12043742239474L79.15778586647728,142.44499769210816L79.32706853693182,134.9086707100272L79.46128551136364,134.31133065521718L79.5120703125,136.39266099929807L79.99331676136364,139.7683988340199L80.04651988636364,138.50289400815964L80.26900568181819,145.39766425415874L80.37783025568181,12.71796938180924L80.43345170454546,121.84362221658229L80.65351917613636,143.91001442596317L80.709140625,134.14827786535022L80.87358664772727,136.81282991692424L80.92799893465909,-40.96831504106521L81.3669247159091,149.53657090812922L81.58457386363636,111.6977670431137L81.69581676136363,91.32357310652732L81.80464133522727,145.17568079903722L81.85905362215908,105.67083832025527L82.34392755681819,142.26827602982522L82.50474609375,103.57503686249255L82.93399857954545,127.27401971966027L83.04282315340909,113.98838345110416L83.58694602272728,144.49420431777835L83.96420454545455,8.398526573181158L84.66310014204545,144.7245189934969L84.98957386363637,147.1334176339209L85.1503924005682,136.3357062652707L85.25921697443181,140.6565590403974L85.47686612215908,137.00499856993557L85.69209694602273,123.63621603846549L85.79850319602274,139.8193180762231L86.06572798295454,146.55195865929127L86.11893110795455,129.80815261751414L86.59655007102273,152.19619412124158L86.92060546875,139.53121785223485L87.1394637784091,47.6548072338104L87.19387606534092,127.93834801912307L87.73920809659091,126.87918074578046L88.01126953125,142.944418156147L88.75974076704546,136.8077977761626L88.86614701704545,110.72036903500556L89.9592294034091,-13.912572300434107L90.01485085227273,132.54822414517403L90.23612748579546,123.26108362674712L90.29053977272729,78.24472826123237L90.3449520596591,114.68402113914489L91.32437322443182,72.90021013617516L91.99183061079546,134.42475877851246L92.04624289772728,133.8007315635681L92.3799715909091,96.62388663887977L92.49000532670455,52.40704711675643L92.76448508522728,142.0390196532011L94.20459694602272,132.19700951278207L94.31463068181819,124.96033173203469L94.86359019886365,125.4512682199478L95.46091619318183,139.15168959796426L95.62173473011363,75.66394668221474L95.78738991477272,147.63981979489327L96.87321732954545,140.1320328205824L97.1960635653409,145.51724985390902L97.57815873579545,9.788896405696875L97.90463245738636,131.94234956204892L98.45117365056818,97.09966186583041L98.71960759943182,143.2884565755725L98.77401988636365,140.31432401537896L98.93846590909091,136.59420378655196L99.38101917613636,126.449603626132L99.54788352272728,118.91537565886973L99.71474786931817,128.0396590024233L99.88040305397728,147.73584477752448L99.93602450284091,53.30710467100144L100.92874644886363,138.6485942095518L101.75339488636364,129.76650860309599L102.57925248579546,151.30831085294486L102.74369850852273,141.27944223731757L102.80052911931818,121.69264260828494L102.91177201704545,112.92960520982741L102.96497514204546,125.61249453723431L104.16325461647727,102.57614318430423L104.43289772727273,146.86960993483663L104.59734375,147.54811372756959L104.81620205965909,142.65002418458462L104.92502663352272,139.2208900503814L105.1414666193182,118.30284137427806L105.35911576704545,116.99241653233766L105.57676491477272,137.89675787240265L106.94190873579545,110.49052801132201L106.9975301846591,132.89157021939752L107.6033203125,127.46869180500508L108.04224609375001,139.75982804000375L108.09544921874999,143.31461293771864L108.26231356534092,148.14797314964235L108.374765625,136.0179505884647L108.43038707386364,125.19017055779696L108.92614346590909,146.56020361147822L109.31186612215909,129.14677392840383L110.10870383522726,144.2392042387277L110.16190696022727,152.1979074008763L110.31788884943181,147.35718690007926L111.55607066761364,145.2607634305954L111.60322798295455,128.17675653994084L111.70237926136363,140.18083216771484L112.04578125,130.23985952287913L112.39522904829546,147.66987966522575L112.44480468750001,131.32936250567434L112.89461292613636,146.50928381979466L113.09049715909092,117.68011532872914L113.19085759943182,115.70010256171227L113.39278764204545,144.71794556044043L113.8208309659091,138.93712302818895L114.17390625,142.49026388078929L114.22348188920454,143.16726539433003L114.47136008522727,137.45304262414572L114.87763849431818,145.7856616485864L115.32744673295454,91.64215739965438L115.37702237215909,141.39079552292824L115.57653409090909,146.59806665182114L115.78813742897728,126.77857089936732L115.91630859375,144.37519292496145L116.00457741477273,144.65089852139354L116.13879438920455,146.94964833706618L116.27180220170455,117.32745226621627L116.44713068181818,132.17129603177307L116.79657848011364,138.58390938639639L117.15086292613637,145.87593082487584L117.32619140625,144.9034402254969L117.45799005681818,137.533412912488L117.7651171875,117.91121576130391L118.15204900568182,128.66188392192123L118.32858664772728,131.20888564884663L118.37211647727273,136.74186013787983L118.41564630681819,131.29412323385478L118.5027059659091,144.14621953070164L118.63208629261364,149.30721122920514L118.9283309659091,130.83263889104128L119.30075284090908,139.73427940309048L119.74572443181819,99.66569978892802L119.90654296875,73.34844540953635L119.9790926846591,124.59295798242091L120.10242720170454,145.5946342661977L120.31765802556818,148.13677803762258L120.44462002840909,143.16600708439947L120.48814985795454,148.79707782212645L120.5256338778409,137.32963374033568L120.717890625,78.3437665939331L121.36841974431819,146.42613865584136L121.78316228693183,139.66755710691214L122.05885120738635,141.58398401141167L122.40346235795454,144.1311143167317L122.44820134943183,138.79485158398745L122.86415305397728,110.77769082188605L123.18337180397728,129.79387711882592L123.70935724431818,140.11930246055127L124.03220348011364,133.65472585111854L124.1289364346591,42.53756296038628L124.32240234375,127.19880905151368L124.78913884943181,145.8858198221773L124.83871448863637,134.37980249673126L124.98865056818182,151.25404060501606L125.21355468750001,126.15394804775715L125.30303267045454,133.73565331250427L125.63434303977273,141.1737914584577L125.71172940340908,144.85849713124335L125.86650213068181,145.2027449026704L125.89189453125,147.00409908927978L125.91728693181818,146.76727472022176L126.79272017045454,142.71726299226285L126.94386541193181,103.66613190770148L127.12886718749999,126.92366887032985L127.28726740056818,146.45838325992227L127.39367365056819,99.98130809664725L127.44687677556819,145.2756532482803L127.5012890625,137.57857689782978L127.65968927556818,144.06598881036044L127.73828480113637,142.2672792725265L127.78906960227273,148.61176256239415L127.86766512784091,130.77953491508958L127.94505149147727,132.90741063803432L128.02364701704545,145.49209299646319L128.26064275568183,108.93714714944362L128.31384588068184,135.9511997193098L128.62701882102272,138.89110405147073L128.65362038352274,144.9476200915873L128.68022194602273,121.7028321713209L129.04780717329544,139.14803115800024L129.15300426136363,148.38040881939233L129.2569921875,127.27581761926413L129.36098011363637,120.18000681102275L129.4649680397727,146.39198515713215L129.5157528409091,147.07387045174838L129.5677468039773,123.76380536854266L129.77693181818182,127.76825089156627L129.82892578125,147.88286977596582L129.90873046875,144.2341929782182L129.98732599431818,104.64012753367423L130.06350319602274,149.6644913000986L130.19288352272727,105.47438811659812L130.68259410511365,149.7337552174926L130.99576704545453,128.6129494026303L131.02236860795455,135.04539020508525L131.10338245738637,131.85730759203432L131.12998401988636,143.80003813803197L131.18318714488635,152.01023432109506L131.23639026988636,143.447020111233L131.34279651988635,136.33555790558455L131.44678444602272,144.80367877669633L131.57979225852273,127.88894094675778L131.63420454545454,136.4965776182711L131.82041548295456,135.0862748377025L132.03564630681817,150.39068174231798L132.14326171875,140.77373132258654L132.27626953125,142.94354777932168L132.32826349431818,145.78640839233995L132.35365589488637,139.047476259619L132.75751598011362,107.23475601673125L132.83973899147728,152.82250518244692L132.9207528409091,135.4006138458848L132.94856356534092,141.36053893864155L133.05617897727274,95.40868234038352L133.11059126420457,111.40120592117309L133.24359907670456,142.26691331863404L133.45520241477274,137.56632458567617L133.48301313920456,139.44199873283503L133.58700106534093,141.7690500818193L133.6414133522727,141.68877540305257L133.69703480113637,122.09223348796367L133.81069602272726,147.81622550599278L134.07429332386366,133.82268879711626L134.12870561079546,131.08900662660596L134.18069957386365,124.53920122385026L134.20730113636364,134.24268517792223L134.31612571022728,127.37886715829372L134.39351207386363,146.0378181669861L134.60511541193182,112.9452632009983L134.71393998579546,151.07023037187756L135.0899893465909,110.08527968227862L135.19760475852271,140.7950995132327L135.25201704545455,145.0220614872873L135.38623401988636,136.9752255283296L135.41283558238635,150.89970574863256L135.4660387073864,92.49421674907207L135.52045099431817,133.2912687972188L135.54826171874998,143.98124136179686L135.60267400568182,136.90392496213315L135.65708629261363,137.30537198632953L135.68489701704547,142.91245268806816L135.87594460227274,148.47712230086327L135.95695845170454,145.4305110886693L136.0730379971591,108.3049150943756L136.60990589488637,126.33917566537856L136.8855948153409,134.28193126022813L137.05366832386366,145.40014845468104L137.14072798295456,135.59514306634665L137.22053267045456,141.72957211881877L137.3051740056818,146.64042279273272L137.33056640625,138.46723713129757L137.3559588068182,133.9572675168514L137.6219744318182,151.02945728376508L137.65824928977273,128.28196663558484L137.68485085227272,137.96974534317852L137.73442649147728,142.70775368586183L138.05485440340908,129.39240042269228L138.08266512784093,134.2936549723148L138.13465909090908,145.8580012820661L138.3535174005682,147.05476172417403L138.6098597301136,146.05945065766574L139.07296875,134.56829402744768L139.4514364346591,151.94548987932504L139.5578426846591,147.93907831571997L139.5844442471591,141.4264611914754L139.63764737215908,141.661035438627L139.85166903409092,143.11535049378872L139.9036629971591,127.5661388427019L140.01127840909092,101.82576846480369L140.26641157670454,141.70739948898554L140.46955078125,127.83705022335052L140.49736150568182,141.7828167617321L140.76942294034092,146.99846581704915L140.97135298295456,149.21468945834786L141.12975319602273,135.55256273746488L141.15635475852272,148.17611918002368L141.21076704545456,123.90697136670352L141.26517933238637,76.41369279623031L141.39818714488638,134.9076486766338L142.08136363636362,145.31183048300446L142.10917436079546,112.42876928448676L142.38244495738635,145.96055518984795L142.43564808238636,143.36667839586735L142.54447265625,144.47330373488367L142.57107421875,133.86727802604435L142.87215553977273,134.6174791097641L142.95558771306818,137.75769319534302L143.12245205965908,146.63761000297964L143.26029651988637,149.85296497270465L143.31591796875,146.4738434381783L143.3703302556818,134.67921871840952L143.42716086647727,135.12948157414795L143.67141157670454,149.09104292429984L143.7790269886364,123.97204741984605L143.8878515625,116.02098148465157L143.9410546875,141.22259959727526L144.02448686079546,130.2607199937105L144.26873757102274,129.70830325186253L144.29654829545453,128.60967669785023L144.56981889204545,120.26042435467242L144.6254403409091,144.78699270784855L144.9591690340909,121.84575420022011L144.98697975852275,144.01801917850972L145.0075355113636,145.56919992119074L145.1175692471591,136.38682991415263L145.22276633522728,124.2145770430565L145.39083984375,139.16828610152004L145.85999467329546,147.6666750960052L145.9422176846591,149.5470772465691L146.02806818181818,130.89607309699056L146.05587890625,73.86626687049865L146.28078302556818,142.21497314199806L146.44764737215908,139.58415698409078L146.61330255681816,140.261217841506L146.74751953125,143.78396364077926L147.26866832386364,145.50191056132317L147.37628373579545,142.90160594657064L147.4306960227273,103.50508581995963L147.56612215909092,140.159912353009L147.70275745738635,130.36731477975843L148.02681285511366,138.81005020961163L148.18763139204543,152.7013519840315L148.55037997159093,137.0604323424399L148.8369513494318,142.9406717993319L148.85992542613639,131.76049135774372L148.94093927556818,136.47883819565175L149.10659446022726,139.3854121506214L149.29280539772728,139.9284305810928L149.32545276988637,140.74734857454897L149.35326349431818,112.18365710377692L149.38107421875,150.973956749402L149.40767578125,122.59272433966397L149.65313565340907,141.22690642401577L150.26255326704546,141.26297211423517L150.28915482954545,132.96650394946334L150.31575639204544,138.91845498383043L150.50075816761364,145.4361751317978L150.80909446022727,135.02333406507967L150.86229758522728,120.0426631063223L151.17909801136364,133.86495482325552L151.20690873579545,149.42475001476706L151.28550426136366,115.64257856607438L151.3435440340909,149.0114224018529L151.37135475852273,136.827647203207L151.42455788352274,132.54032481610776L151.93361505681818,110.24523120522498L152.15126420454544,124.99846566617488L152.22985973011362,148.4294460915029L152.46927379261362,147.0830973252654L152.49345703125002,148.37019892558456L152.70626953124997,138.8211178421974L152.73287109375002,148.24379207715393L152.8936896306818,144.66121666282416L152.97228515625,119.17838331460952L153.13189453125,142.91126910746098L153.18388849431818,137.28188280165193L153.23588245738637,145.9217640772462L153.68085404829546,144.66313929446042L153.73284801136364,133.73562473952768L153.75944957386363,142.65580142065883L153.78484197443183,147.31726495698095L154.0677858664773,137.1856863811612L154.32291903409092,143.11163161098958L154.53089488636365,145.17538133226336L154.9734481534091,137.53337225094435L155.15119495738637,139.74457886219025L155.17658735795456,140.63748438060284L155.25034623579546,136.89411893635986L155.67597123579546,142.89088998138905L155.78116832386362,129.23048835396764L155.91417613636364,115.26950340867043L155.96737926136362,133.88566583544014L156.0193732244318,60.66405709981919L156.0725763494318,144.88623215034605L156.1245703125,145.08270213529468L156.23097656250002,146.7668395318091L156.25636896306816,146.33805146589876L156.33980113636366,147.96430550664664L156.4909463778409,118.33941038846969L156.5441495028409,124.4700238496065L156.62153586647727,45.134301447868324L156.8283025568182,135.1519421316683L156.88876065340907,140.67808767929674L156.9165713778409,148.6563133276999L156.93349964488638,148.2072977922857L157.1499396306818,142.94119270667434L157.56468217329544,142.23815571665764L157.61909446022727,147.7212472833693L157.67834339488635,132.70468976497648L157.7327556818182,128.84981498271227L158.04351029829544,145.56789985075594L158.15958984375,126.13418433964252L158.53080255681817,143.03539231568575L158.64567294034092,146.94485576972366L159.19705078125,149.57399985902012L159.63355823863637,141.93899884968997L159.66741477272728,136.77349262088535L159.86934481534092,43.1688938677311L159.90199218749999,145.3808402657509L159.96970525568182,126.50836285352707L160.07127485795453,146.1435969747603L160.23693004261364,145.91515492796898L160.36751953125,62.386497670412055L160.43523259943183,125.92792701125146L160.96968217329544,145.48143088035286L161.33726740056818,144.17034061774612L161.5730539772727,145.98576534688473L161.60570134943183,116.0249860972166L161.83060546874998,147.49358439967037L161.93217507102273,144.60301900431514L162.7278036221591,143.90378002226353L162.82574573863639,144.79757789671422L163.05427734375,139.38485058173535L163.15342862215908,133.50994657874105L163.18728515625003,145.93372791223229L163.2525799005682,149.53019776064903L163.28401811079547,117.11735516935586L163.51496803977273,146.08661531619728L163.93333806818183,152.63621342750267L164.09415660511362,137.72040985673664L164.38798295454546,147.8415955618024L164.4496502130682,149.28857450522483L164.51615411931817,144.0064130552113L164.74226740056818,138.74700063988564L165.1691015625,137.09545182213188L165.23197798295453,132.5298385336995L165.42544389204545,141.5703195348382L165.68783203125,148.4711609888822L165.8800887784091,128.95547565221784L165.91273615056818,148.98787030167878L166.07113636363638,141.55400106832386L166.2343732244318,134.9447451919317L166.4604865056818,120.60641892403363L166.7132013494318,151.38936359584332L166.8377450284091,137.86241974830625L166.96470703125001,146.56139818169177L167.37098544034092,149.38791807424278L167.43507102272727,144.48058270066977L167.49915660511363,141.07558723688126L167.59468039772727,130.7565534502268L167.75187144886362,149.25826901718975L168.28269353693182,144.60145078748465L168.44109375,140.87420489788056L169.01665482954544,130.74836399555207L169.1472443181818,143.0736053749919L169.24397727272728,141.62073545306922L169.40842329545455,146.97125060632825L169.63695490056818,147.38829298093916L169.76512606534092,137.49310743212698L169.8316299715909,74.14182465672492L170.00695845170455,145.36091061457992L170.02630504261364,144.1690976932645L170.16898615056817,143.61896678954363L170.37212535511364,115.78121025264262L170.55108132102274,151.6125876401551L170.63814098011363,145.99798688814045L170.81709694602273,106.62988808155059L171.14357066761363,147.50701205022634L171.20402876420457,131.02796595692635L171.49785511363638,130.72599575072525L171.58733309659092,147.7390570394695L171.64658203125,138.97949015870688L171.7940997869318,141.4891788750887L172.25720880681817,131.48554019778967L172.31645774147728,131.34094774872062L172.49420454545452,133.4559612363577L172.6090749289773,131.5995705515146L172.6707421875,135.552173705399L173.08185724431817,132.82628756165502L173.4433966619318,106.33693155050277L173.5945419034091,147.02039502710105L173.95970880681816,130.01564297974107L173.99114701704548,140.76566714942456L174.17614879261365,145.46732517108322L174.20637784090908,140.48600034937263L174.62474786931818,148.7983734967187L174.74203657670455,125.53275615125895L174.80249467329546,125.62118292003869L174.8629527698864,147.83863386288286L174.9524307528409,125.6138176858425L175.04069957386363,148.134407030046L175.31397017045455,134.59764506816865L175.48929865056817,149.84156710244716L175.5509659090909,146.2759470023215L175.88832208806818,118.57465829849242L175.91855113636365,136.99947409480808L176.10113458806816,141.32227532714606L176.31152876420455,146.62043269872666L177.03702592329546,141.63099974542857L177.22202769886363,144.94961800202728L177.26676669034092,127.35878914743661L177.90762251420455,139.47663797214628L177.99951882102275,149.4066748596728L178.12527166193183,134.92174614369867L178.1567098721591,145.43771147876978L178.18089311079544,147.25771392844618L178.3646857244318,109.12155274450778L178.45779119318183,106.20127584934234L178.51945845170454,134.05964229404924L178.79756569602273,140.49132701158524L179.01158735795454,128.1138564288616L179.15789595170455,144.70312168039382L179.40335582386365,136.6157049514353L179.52427201704543,147.14016305431724L179.64881569602272,133.5977117732167L180.04783913352273,147.43929464519024L180.10829723011364,145.59229018315673L180.19414772727274,139.56599885746834L180.55931463068183,135.94780063405634L180.68143998579546,140.98697584271432L180.83258522727272,143.52867398560048L180.89183416193183,147.75542605817319L181.19412464488636,142.01307319253684L181.24974609375,140.1659467458725L181.30899502840907,146.06518503427506L181.68988103693184,91.83887135386466L182.1675,146.55714575350285L182.31139026988635,148.5707009971142L182.5205752840909,137.68025823086498L183.24486328125,127.12477646917104L183.27267400568184,140.8353412538767L183.30290305397727,145.56720970347524L183.50725142045454,147.55752138011158L183.79503196022725,142.2318949379027L184.02840021306818,144.70672462284566L184.20131036931818,139.94196208342908L184.23033025568182,143.13134147003294L184.3476189630682,143.65748535990716L184.67046519886364,133.1104787826538L184.84579367897726,147.72828502729536L185.02354048295453,136.5107366271317L185.1142276278409,136.85287933945654L185.56524502840907,139.2797141164541L185.6849520596591,135.78576438277958L186.0126349431818,141.84127597287298L186.16136186079547,144.84408591091633L186.30887961647727,140.77546218559146L186.4249591619318,136.07840661108494L186.45518821022725,148.8606658825651L186.78287109375,144.23273191004992L186.81189098011362,150.68345996700228L187.13957386363634,143.05814959257842L187.20003196022728,141.85988247543574L187.23026100852272,136.59074096158145L187.4358185369318,128.4722802430391L187.4962766335227,143.07100193724037L187.52650568181818,149.6675312999636L187.55552556818182,143.92332393825055L187.5857546164773,143.07851992696524L187.76229225852273,134.055158534646L188.4128213778409,126.94842625558375L188.90736860795457,145.36383494883776L189.05488636363634,134.12992961853743L189.0851154119318,145.27148434109986L189.1431551846591,144.0981246173382L189.3777325994318,146.89371563643218L189.73201704545454,114.34802051782607L191.0802325994318,143.88930671066046L191.4889293323864,136.96091486290095L191.51674005681818,141.09393108785153L191.83958629261363,144.50781494528056L191.86860617897727,148.51868664063514L191.92906427556818,138.66554567739368L191.9858948863636,136.18107810765505L192.07658203124998,142.18268567845226L192.10318359374997,129.7799774646759L192.1612233664773,146.1819155342877L192.82988991477274,139.10761907845733L192.9749893465909,145.56132586821914L193.06446732954547,142.08572767823935L193.15152698863636,145.4709671266377L193.2990447443182,148.0459846571088L193.61947265625,146.8110765438527L193.88548828125,135.40306782498953L193.9737571022727,142.12454406693578L194.00156782670456,132.44268436133862L194.26758345170455,147.41015350595117L194.43928444602273,126.00222114622592L194.92294921875,148.55628977678717L195.10069602272728,131.0042569801211L195.22040305397726,139.61838960796592L195.31350852272726,143.0001310646534L195.4948828125,146.6869011349976L195.55534090909092,144.82470958642662L195.8346573153409,126.01971220374108L195.94831853693182,142.25085310786963L196.1381569602273,129.59870610535143L196.29534801136364,149.97221374101937L196.47672230113636,152.24137775050477L196.74515625,141.92138470858336L196.95675958806817,150.54199515990913L197.07646661931818,147.95112567171455L197.3449005681818,144.47647698372603L197.79833629261364,142.77205497175456L198.00631214488638,125.64176425486804L198.09337180397728,140.51151272058488L198.15382990056818,148.3334529787302L198.18405894886365,130.0770155355334L198.30134765625,115.84611486792565L198.33157670454545,139.58516143411399L198.71609019886364,147.2590837828815L198.89625532670456,115.74029814600945L198.926484375,137.5477499529719L198.97606001420453,147.68385404869915L199.14897017045456,139.1660178467631L199.22877485795453,132.90018826872108L199.40410333806818,144.6709638942033L199.51776455965907,141.11244198083878L199.72090376420454,117.05617163479327L200.00505681818183,131.87641192376614L200.18038529829545,152.63595757572912L200.2976740056818,142.15503472983838L200.37385120738637,135.90683248043058L200.59512784090907,149.2867194596678L200.64228515624998,146.4495454184711L201.02317116477275,129.94901519417763L201.13925071022726,130.23449439704416L201.16947975852273,149.73311809506268L201.67974609375,145.95075246095658L201.70634765625,141.09480476155878L201.78373401988637,120.37038196027278L201.99896484375,124.72452994585036L202.0388671875,146.41003833301366L202.26618963068182,142.17811839804054L202.31697443181818,145.48402717486024L202.34599431818182,144.14254570528865L202.6386115056818,133.82740114033223L202.66884055397728,144.13503870517016L202.9578302556818,138.40824712216855L203.04972656249998,149.58755553849042L203.3350887784091,148.56682001762093L203.42698508522727,145.75985750332475L203.48381569602273,141.9813396051526L203.54427379261364,148.39512884765864L203.84414595170455,149.96282641924918L204.34473899147727,148.20466193519533L204.4934659090909,146.90956594571472L204.77520063920454,146.93675917722285L204.95536576704546,136.67374765649438L205.16334161931817,140.9174468010664L205.34108842329547,151.6583324261941L205.40033735795456,144.96085267663003L205.51762606534092,151.91455070311204L205.72681107954546,147.42265088632703L205.75704012784092,147.43019250370563L205.7848508522727,149.23105435594917L206.09197798295455,139.17310834079979L206.72678799715908,146.99562445431948L206.87309659090909,147.472262365371L207.02666015625,131.4600970610976L207.2044069602273,146.28244460709394L207.4994424715909,147.38025738075376L207.64937855113638,139.8424083381891L207.82833451704545,86.12425845265388L207.9492507102273,146.72478450611234L207.9782705965909,146.04917043037713L208.2188938210227,143.92873082458973L208.31199928977273,116.12662237286567L208.33981001420455,73.67349159121513L208.4026864346591,142.7628566712141L208.49216441761362,143.0522042155266L208.5211843039773,145.83342522531748L208.55383167613635,130.11223282814024L208.70014026988636,125.00294063389302L208.7618075284091,145.24000736102462L208.85007634943182,149.6124027637765L208.88030539772728,144.35242191106082L208.91053444602272,144.11069672703744L208.9371360085227,149.120430505462L208.99880326704545,137.06249948740006L209.08949041193182,136.81773238033057L209.11851029829546,143.94242826998234L209.30472123579545,119.31821946203709L209.48367720170452,146.65805176980794L209.54292613636363,145.41900167390705L209.63240411931818,136.5574523448944L209.97943359375,141.3539341852069L210.21522017045453,146.33181486427785L210.26963245738636,133.21614165008066L210.44858842329546,149.3594948310405L210.65414595170455,136.81375853866336L210.79924538352273,144.92266269549728L211.01084872159092,145.97538786157966L211.40745383522727,131.9475608333945L211.5876189630682,139.78137206435204L211.64203125,140.2951339647174L212.12569602272728,122.66298309117555L212.21396484374998,147.96315434537829L212.27684126420456,146.04714229851962L212.3070703125,125.5534276008606L212.865703125,136.20688609927893L213.13171875,128.56735352575777L213.48116654829545,151.14819201324136L213.56097123579545,111.89950984120368L213.65044921875,147.70634592659772L214.02770774147726,140.51256003007293L214.2610759943182,141.85508111640812L214.4944442471591,144.61225686743856L214.52346413352274,151.86428602933884L214.61052379261363,140.36636199951172L214.66856356534092,127.06238847374915L214.6806551846591,152.61879970934243L215.0736328125,148.63723427206278L215.30821022727272,146.8631645306945L215.74229936079544,146.8397769998759L215.94906605113638,142.61964671462775L216.12197620738635,120.19492410272359L216.20903586647725,145.63045653663576L216.4158025568182,142.49928744658828L216.7966885653409,118.5434214413166L216.85110085227274,145.75046029090882L216.87770241477273,149.59401165749878L216.9079314630682,135.84086517021058L217.07842329545454,145.88139265924693L217.22110440340907,146.35577715151013L217.58989879261364,123.7625701367855L218.05542613636365,146.9611797310412L218.2537286931818,145.980123282969L218.398828125,128.16869896054268L218.42301136363636,144.95261926352978L218.59108487215912,145.15100858323277L218.8389630681818,149.9527692809701L218.95867009943183,143.9404336564243L219.00099076704544,133.26672461032865L219.1787375710227,147.92144933864475L219.25370561079544,140.78687049597502L219.3951775568182,144.36811397001148L219.91269886363636,146.8536013752222L220.0541708096591,147.91161364093423L220.21861683238637,149.24880861453713L220.40482776988634,150.1049536248669L220.5196981534091,143.55388304367662L220.60554865056818,148.80518458001316L221.01424538352273,146.8290687274188L221.24035866477274,147.80976691432298L221.34918323863636,139.62761977836487L221.37699396306817,142.49572131931782L221.88605113636365,147.1054853513837L221.9573916903409,123.7444416821003L221.9827840909091,143.23348216861487L222.03598721590907,150.02970861420036L222.0940269886364,141.23074289560319L222.12425603693183,145.64825805053115L222.2367080965909,142.91469786465169L222.26572798295453,140.06119821369649L222.58011008522726,146.48237412013114L222.7276278409091,146.88449260927737L222.83887073863636,144.20002134665847L223.45675248579545,149.48139813877643L223.78080788352273,147.2502041809261L223.98273792613637,144.41000964641572L224.12904651988634,149.57796271108091L224.1725763494318,149.55616207942367L224.20038707386365,138.86413116157053L224.62843039772727,149.33997289426625L224.676796875,127.04887345582247L225.3998757102273,152.77429707613774L225.54497514204544,152.75091050690972L226.08184303977274,147.50681258887053L226.13141867897727,145.21101952679456L226.23056995738636,130.05523193776605L226.2801455965909,146.05246896073223L226.76864701704545,144.33023994006217L227.1096306818182,137.2078029640019L227.30672407670454,141.00905725881458L227.50623579545456,148.6743203472346L227.95241654829545,150.76195982433856L228.2002947443182,153.11400665526745L228.29944602272727,144.47458567246795L228.39738813920454,137.84014381617305L228.84115056818183,150.62065903712065L229.08056463068183,140.39142929166556L229.3115145596591,148.97763293385506L229.98139026988636,147.70057528428734L230.0297567471591,142.10189119130374L230.12648970170454,142.159055826813L230.36953125,145.9178045220673L230.79757457386364,149.40309966597707L231.0756818181818,144.17225390821696L231.68993607954545,144.58238986469806L232.11314275568182,145.16378674805165L232.20866654829547,136.72784069702027L232.3960866477273,153.23869284042158L232.4432439630682,150.39380801059306L232.6355007102273,145.71677604839206L232.92328125,139.30466711670158L233.21106178977274,148.78714788854123L233.45289417613637,150.06207547765226L233.59436612215907,147.6962701059878L233.68988991477272,148.12309817560018L234.21103870738636,147.6571778781712L234.40208629261366,144.28086418807507L234.82771129261363,100.87820064425468L235.01634055397724,145.32415752448142L235.20496981534092,128.99915713965893L235.44196555397727,148.84114861637354L235.48912286931818,147.25297356173397L235.67775213068182,146.97727346010507L236.01148082386365,145.44797577112914L236.2484765625,152.13702978948132L236.34400035511365,152.97816797716078L236.4419424715909,149.85297101698816L236.4890997869318,148.6293206565082L236.9195614346591,145.94953755997122L236.96913707386364,148.40092146918178L237.01629438920455,145.21735998019577L237.3040749289773,140.99588841348887L237.87600852272726,149.79786198735238L238.11905007102274,140.2877830170095L238.5023544034091,152.80429142094218L238.60029651988637,148.35804167352617L239.07670632102273,151.73520925603808L239.17102095170455,145.4751755964011L239.89530894886363,135.98028371259568L240.43338600852275,118.77418119609356L240.5325372869318,137.99049811586735L240.72600319602273,151.062034323439L240.8251544744318,127.57789332568645L241.31365589488635,152.3362683997024L241.45875532670456,146.59698307663203L241.85052379261361,148.10367459580303L242.48291548295452,149.0644543958828L242.58085759943182,148.04940132573248L243.11530717329543,146.19738450422884L243.45387251420453,146.91529482752085L243.59897194602271,148.23016826212407L243.78518288352274,147.25248562321067L244.02096946022726,143.45612829700113L244.4429669744318,147.9090074557811L244.95686079545456,147.870434486866L245.26882457386364,147.60279471203685L245.5916708096591,150.78853159360588L245.8189932528409,146.48068721555174" style="fill: none;" fill="none"></path></g></g></g></g></g></g><g transform="translate(63, 177)" clip-path="url(#clip_1)"><clipPath id="clip_1"><rect width="266" height="22"></rect></clipPath><g><g><line x1="0" y1="0" x2="0" y2="5" style="visibility: inherit;" fill="rgb(0, 0, 0)" stroke="rgb(204, 204, 204)" stroke-width="1px"></line><line x1="24.183238636363637" y1="0" x2="24.183238636363637" y2="5" style="visibility: inherit;" fill="rgb(0, 0, 0)" stroke="rgb(204, 204, 204)" stroke-width="1px"></line><line x1="48.36647727272727" y1="0" x2="48.36647727272727" y2="5" style="visibility: inherit;" fill="rgb(0, 0, 0)" stroke="rgb(204, 204, 204)" stroke-width="1px"></line><line x1="72.5497159090909" y1="0" x2="72.5497159090909" y2="5" style="visibility: inherit;" fill="rgb(0, 0, 0)" stroke="rgb(204, 204, 204)" stroke-width="1px"></line><line x1="96.73295454545455" y1="0" x2="96.73295454545455" y2="5" style="visibility: inherit;" fill="rgb(0, 0, 0)" stroke="rgb(204, 204, 204)" stroke-width="1px"></line><line x1="120.91619318181817" y1="0" x2="120.91619318181817" y2="5" style="visibility: inherit;" fill="rgb(0, 0, 0)" stroke="rgb(204, 204, 204)" stroke-width="1px"></line><line x1="145.0994318181818" y1="0" x2="145.0994318181818" y2="5" style="visibility: inherit;" fill="rgb(0, 0, 0)" stroke="rgb(204, 204, 204)" stroke-width="1px"></line><line x1="169.28267045454544" y1="0" x2="169.28267045454544" y2="5" style="visibility: inherit;" fill="rgb(0, 0, 0)" stroke="rgb(204, 204, 204)" stroke-width="1px"></line><line x1="193.4659090909091" y1="0" x2="193.4659090909091" y2="5" style="visibility: inherit;" fill="rgb(0, 0, 0)" stroke="rgb(204, 204, 204)" stroke-width="1px"></line><line x1="217.64914772727275" y1="0" x2="217.64914772727275" y2="5" style="visibility: inherit;" fill="rgb(0, 0, 0)" stroke="rgb(204, 204, 204)" stroke-width="1px"></line><line x1="241.83238636363635" y1="0" x2="241.83238636363635" y2="5" style="visibility: inherit;" fill="rgb(0, 0, 0)" stroke="rgb(204, 204, 204)" stroke-width="1px"></line><line x1="266.015625" y1="0" x2="266.015625" y2="5" style="visibility: inherit;" fill="rgb(0, 0, 0)" stroke="rgb(204, 204, 204)" stroke-width="1px"></line></g><g transform="translate(0, 8)"><text x="0" y="0" dx="0em" dy="0.95em" style="text-anchor: middle; visibility: hidden; font-family: &quot;Helvetica Neue&quot;, sans-serif; font-size: 13.3333px; font-weight: 200;" fill="rgb(50, 49, 63)" stroke="none" stroke-width="1px">-20k</text><text x="24.183238636363637" y="0" dx="0em" dy="0.95em" style="text-anchor: middle; visibility: inherit; font-family: &quot;Helvetica Neue&quot;, sans-serif; font-size: 13.3333px; font-weight: 200;" fill="rgb(50, 49, 63)" stroke="none" stroke-width="1px">0</text><text x="48.36647727272727" y="0" dx="0em" dy="0.95em" style="text-anchor: middle; visibility: hidden; font-family: &quot;Helvetica Neue&quot;, sans-serif; font-size: 13.3333px; font-weight: 200;" fill="rgb(50, 49, 63)" stroke="none" stroke-width="1px">20k</text><text x="72.5497159090909" y="0" dx="0em" dy="0.95em" style="text-anchor: middle; visibility: inherit; font-family: &quot;Helvetica Neue&quot;, sans-serif; font-size: 13.3333px; font-weight: 200;" fill="rgb(50, 49, 63)" stroke="none" stroke-width="1px">40k</text><text x="96.73295454545455" y="0" dx="0em" dy="0.95em" style="text-anchor: middle; visibility: hidden; font-family: &quot;Helvetica Neue&quot;, sans-serif; font-size: 13.3333px; font-weight: 200;" fill="rgb(50, 49, 63)" stroke="none" stroke-width="1px">60k</text><text x="120.91619318181817" y="0" dx="0em" dy="0.95em" style="text-anchor: middle; visibility: inherit; font-family: &quot;Helvetica Neue&quot;, sans-serif; font-size: 13.3333px; font-weight: 200;" fill="rgb(50, 49, 63)" stroke="none" stroke-width="1px">80k</text><text x="145.0994318181818" y="0" dx="0em" dy="0.95em" style="text-anchor: middle; visibility: hidden; font-family: &quot;Helvetica Neue&quot;, sans-serif; font-size: 13.3333px; font-weight: 200;" fill="rgb(50, 49, 63)" stroke="none" stroke-width="1px">100k</text><text x="169.28267045454544" y="0" dx="0em" dy="0.95em" style="text-anchor: middle; visibility: inherit; font-family: &quot;Helvetica Neue&quot;, sans-serif; font-size: 13.3333px; font-weight: 200;" fill="rgb(50, 49, 63)" stroke="none" stroke-width="1px">120k</text><text x="193.4659090909091" y="0" dx="0em" dy="0.95em" style="text-anchor: middle; visibility: hidden; font-family: &quot;Helvetica Neue&quot;, sans-serif; font-size: 13.3333px; font-weight: 200;" fill="rgb(50, 49, 63)" stroke="none" stroke-width="1px">140k</text><text x="217.64914772727275" y="0" dx="0em" dy="0.95em" style="text-anchor: middle; visibility: inherit; font-family: &quot;Helvetica Neue&quot;, sans-serif; font-size: 13.3333px; font-weight: 200;" fill="rgb(50, 49, 63)" stroke="none" stroke-width="1px">160k</text><text x="241.83238636363635" y="0" dx="0em" dy="0.95em" style="text-anchor: middle; visibility: hidden; font-family: &quot;Helvetica Neue&quot;, sans-serif; font-size: 13.3333px; font-weight: 200;" fill="rgb(50, 49, 63)" stroke="none" stroke-width="1px">180k</text><text x="266.015625" y="0" dx="0em" dy="0.95em" style="text-anchor: middle; visibility: hidden; font-family: &quot;Helvetica Neue&quot;, sans-serif; font-size: 13.3333px; font-weight: 200;" fill="rgb(50, 49, 63)" stroke="none" stroke-width="1px">200k</text></g><line x1="0" y1="0" x2="266.015625" y2="0" fill="rgb(0, 0, 0)" stroke="rgb(204, 204, 204)" stroke-width="1px"></line></g></g></g></g></svg>