<svg viewBox="0 0 330.0000305175781 200.00001525878906" xmlns="http://www.w3.org/2000/svg"><g><g><g><g><g><line x1="63.984375" y1="177" x2="58.984375" y2="177" style="visibility: inherit;" fill="rgb(0, 0, 0)" stroke="rgb(204, 204, 204)" stroke-width="1px"></line><line x1="63.984375" y1="157.33333333333334" x2="58.984375" y2="157.33333333333334" style="visibility: inherit;" fill="rgb(0, 0, 0)" stroke="rgb(204, 204, 204)" stroke-width="1px"></line><line x1="63.984375" y1="137.66666666666666" x2="58.984375" y2="137.66666666666666" style="visibility: inherit;" fill="rgb(0, 0, 0)" stroke="rgb(204, 204, 204)" stroke-width="1px"></line><line x1="63.984375" y1="118" x2="58.984375" y2="118" style="visibility: inherit;" fill="rgb(0, 0, 0)" stroke="rgb(204, 204, 204)" stroke-width="1px"></line><line x1="63.984375" y1="98.33333333333333" x2="58.984375" y2="98.33333333333333" style="visibility: inherit;" fill="rgb(0, 0, 0)" stroke="rgb(204, 204, 204)" stroke-width="1px"></line><line x1="63.984375" y1="78.66666666666666" x2="58.984375" y2="78.66666666666666" style="visibility: inherit;" fill="rgb(0, 0, 0)" stroke="rgb(204, 204, 204)" stroke-width="1px"></line><line x1="63.984375" y1="58.999999999999986" x2="58.984375" y2="58.999999999999986" style="visibility: inherit;" fill="rgb(0, 0, 0)" stroke="rgb(204, 204, 204)" stroke-width="1px"></line><line x1="63.984375" y1="39.33333333333334" x2="58.984375" y2="39.33333333333334" style="visibility: inherit;" fill="rgb(0, 0, 0)" stroke="rgb(204, 204, 204)" stroke-width="1px"></line><line x1="63.984375" y1="19.666666666666657" x2="58.984375" y2="19.666666666666657" style="visibility: inherit;" fill="rgb(0, 0, 0)" stroke="rgb(204, 204, 204)" stroke-width="1px"></line><line x1="63.984375" y1="0" x2="58.984375" y2="0" style="visibility: inherit;" fill="rgb(0, 0, 0)" stroke="rgb(204, 204, 204)" stroke-width="1px"></line></g><g transform="translate(53.984375, 0)"><text x="0" y="177" dx="0em" dy="0.3em" style="text-anchor: end; visibility: hidden; font-family: &quot;Helvetica Neue&quot;, sans-serif; font-size: 13.3333px; font-weight: 200;" fill="rgb(50, 49, 63)" stroke="none" stroke-width="1px">-0.01</text><text x="0" y="157.33333333333334" dx="0em" dy="0.3em" style="text-anchor: end; visibility: inherit; font-family: &quot;Helvetica Neue&quot;, sans-serif; font-size: 13.3333px; font-weight: 200;" fill="rgb(50, 49, 63)" stroke="none" stroke-width="1px">0</text><text x="0" y="137.66666666666666" dx="0em" dy="0.3em" style="text-anchor: end; visibility: hidden; font-family: &quot;Helvetica Neue&quot;, sans-serif; font-size: 13.3333px; font-weight: 200;" fill="rgb(50, 49, 63)" stroke="none" stroke-width="1px">0.01</text><text x="0" y="118" dx="0em" dy="0.3em" style="text-anchor: end; visibility: inherit; font-family: &quot;Helvetica Neue&quot;, sans-serif; font-size: 13.3333px; font-weight: 200;" fill="rgb(50, 49, 63)" stroke="none" stroke-width="1px">0.02</text><text x="0" y="98.33333333333333" dx="0em" dy="0.3em" style="text-anchor: end; visibility: hidden; font-family: &quot;Helvetica Neue&quot;, sans-serif; font-size: 13.3333px; font-weight: 200;" fill="rgb(50, 49, 63)" stroke="none" stroke-width="1px">0.03</text><text x="0" y="78.66666666666666" dx="0em" dy="0.3em" style="text-anchor: end; visibility: inherit; font-family: &quot;Helvetica Neue&quot;, sans-serif; font-size: 13.3333px; font-weight: 200;" fill="rgb(50, 49, 63)" stroke="none" stroke-width="1px">0.04</text><text x="0" y="58.999999999999986" dx="0em" dy="0.3em" style="text-anchor: end; visibility: hidden; font-family: &quot;Helvetica Neue&quot;, sans-serif; font-size: 13.3333px; font-weight: 200;" fill="rgb(50, 49, 63)" stroke="none" stroke-width="1px">0.05</text><text x="0" y="39.33333333333334" dx="0em" dy="0.3em" style="text-anchor: end; visibility: inherit; font-family: &quot;Helvetica Neue&quot;, sans-serif; font-size: 13.3333px; font-weight: 200;" fill="rgb(50, 49, 63)" stroke="none" stroke-width="1px">0.06</text><text x="0" y="19.666666666666657" dx="0em" dy="0.3em" style="text-anchor: end; visibility: hidden; font-family: &quot;Helvetica Neue&quot;, sans-serif; font-size: 13.3333px; font-weight: 200;" fill="rgb(50, 49, 63)" stroke="none" stroke-width="1px">0.07</text><text x="0" y="0" dx="0em" dy="0.3em" style="text-anchor: end; visibility: hidden; font-family: &quot;Helvetica Neue&quot;, sans-serif; font-size: 13.3333px; font-weight: 200;" fill="rgb(50, 49, 63)" stroke="none" stroke-width="1px">0.08</text></g><line x1="63.984375" y1="0" x2="63.984375" y2="177" fill="rgb(0, 0, 0)" stroke="rgb(204, 204, 204)" stroke-width="1px"></line></g></g><g transform="translate(63, 0)" clip-path="url(#clip_0)"><clipPath id="clip_0"><rect width="266" height="176"></rect></clipPath><g><g><g><line x1="0" y1="0" x2="0" y2="177" fill="rgb(0, 0, 0)" stroke="rgb(60, 60, 60)" stroke-width="1px" opacity="0.25"></line><line x1="24.183238636363637" y1="0" x2="24.183238636363637" y2="177" fill="rgb(0, 0, 0)" stroke="rgb(60, 60, 60)" stroke-width="1px" opacity="0.25"></line><line x1="48.36647727272727" y1="0" x2="48.36647727272727" y2="177" fill="rgb(0, 0, 0)" stroke="rgb(60, 60, 60)" stroke-width="1px" opacity="0.25"></line><line x1="72.5497159090909" y1="0" x2="72.5497159090909" y2="177" fill="rgb(0, 0, 0)" stroke="rgb(60, 60, 60)" stroke-width="1px" opacity="0.25"></line><line x1="96.73295454545455" y1="0" x2="96.73295454545455" y2="177" fill="rgb(0, 0, 0)" stroke="rgb(60, 60, 60)" stroke-width="1px" opacity="0.25"></line><line x1="120.91619318181817" y1="0" x2="120.91619318181817" y2="177" fill="rgb(0, 0, 0)" stroke="rgb(60, 60, 60)" stroke-width="1px" opacity="0.25"></line><line x1="145.0994318181818" y1="0" x2="145.0994318181818" y2="177" fill="rgb(0, 0, 0)" stroke="rgb(60, 60, 60)" stroke-width="1px" opacity="0.25"></line><line x1="169.28267045454544" y1="0" x2="169.28267045454544" y2="177" fill="rgb(0, 0, 0)" stroke="rgb(60, 60, 60)" stroke-width="1px" opacity="0.25"></line><line x1="193.4659090909091" y1="0" x2="193.4659090909091" y2="177" fill="rgb(0, 0, 0)" stroke="rgb(60, 60, 60)" stroke-width="1px" opacity="0.25"></line><line x1="217.64914772727275" y1="0" x2="217.64914772727275" y2="177" fill="rgb(0, 0, 0)" stroke="rgb(60, 60, 60)" stroke-width="1px" opacity="0.25"></line><line x1="241.83238636363635" y1="0" x2="241.83238636363635" y2="177" fill="rgb(0, 0, 0)" stroke="rgb(60, 60, 60)" stroke-width="1px" opacity="0.25"></line><line x1="266.015625" y1="0" x2="266.015625" y2="177" fill="rgb(0, 0, 0)" stroke="rgb(60, 60, 60)" stroke-width="1px" opacity="0.25"></line></g><g><line x1="0" y1="177" x2="266.015625" y2="177" fill="rgb(0, 0, 0)" stroke="rgb(60, 60, 60)" stroke-width="1px" opacity="0.25"></line><line x1="0" y1="157.33333333333334" x2="266.015625" y2="157.33333333333334" fill="rgb(0, 0, 0)" stroke="rgb(60, 60, 60)" stroke-width="1px" opacity="0.25"></line><line x1="0" y1="137.66666666666666" x2="266.015625" y2="137.66666666666666" fill="rgb(0, 0, 0)" stroke="rgb(60, 60, 60)" stroke-width="1px" opacity="0.25"></line><line x1="0" y1="118" x2="266.015625" y2="118" fill="rgb(0, 0, 0)" stroke="rgb(60, 60, 60)" stroke-width="1px" opacity="0.25"></line><line x1="0" y1="98.33333333333333" x2="266.015625" y2="98.33333333333333" fill="rgb(0, 0, 0)" stroke="rgb(60, 60, 60)" stroke-width="1px" opacity="0.25"></line><line x1="0" y1="78.66666666666666" x2="266.015625" y2="78.66666666666666" fill="rgb(0, 0, 0)" stroke="rgb(60, 60, 60)" stroke-width="1px" opacity="0.25"></line><line x1="0" y1="58.999999999999986" x2="266.015625" y2="58.999999999999986" fill="rgb(0, 0, 0)" stroke="rgb(60, 60, 60)" stroke-width="1px" opacity="0.25"></line><line x1="0" y1="39.33333333333334" x2="266.015625" y2="39.33333333333334" fill="rgb(0, 0, 0)" stroke="rgb(60, 60, 60)" stroke-width="1px" opacity="0.25"></line><line x1="0" y1="19.666666666666657" x2="266.015625" y2="19.666666666666657" fill="rgb(0, 0, 0)" stroke="rgb(60, 60, 60)" stroke-width="1px" opacity="0.25"></line><line x1="0" y1="0" x2="266.015625" y2="0" fill="rgb(0, 0, 0)" stroke="rgb(60, 60, 60)" stroke-width="1px" opacity="0.25"></line></g></g></g><g><g><line x1="0" y1="157.33333333333334" x2="266.015625" y2="157.33333333333334" fill="rgb(0, 0, 0)" stroke="rgb(153, 153, 153)" stroke-width="1.5px"></line></g></g><g><g><line x1="24.183238636363637" y1="0" x2="24.183238636363637" y2="177" fill="rgb(0, 0, 0)" stroke="rgb(153, 153, 153)" stroke-width="1.5px"></line></g></g><g><g><g><g><g><path stroke="rgb(255, 112, 67)" stroke-width="2px" d="M33.42849076704545,-6.835171947104641L33.624375,0.20130009274808458L34.21686434659091,3.6471796436665613L34.28094992897727,4.352344993538708L34.93268821022727,3.6038289347110606L35.26399857954545,7.1892538364198515L35.39458806818182,12.046961862299753L35.46109197443182,10.973923249123033L35.71985262784091,16.66978823986119L36.23374644886364,13.463953484846598L36.69564630681818,-1.5053328216931163L36.751267755681816,3.5991211707966215L37.03058416193181,3.167852468792205L37.64846590909091,8.552803974450313L37.98219460227273,10.236090042616752L38.27360262784091,15.765756375779006L39.23851384943182,17.17532336424665L39.62302734375,16.98194330127808L39.94345525568182,16.722964147391764L40.38721768465909,19.400595646766334L40.64235085227273,23.72195866901555L40.768103693181814,27.86982860409836L41.95429154829545,30.87499721105121L42.27109197443182,35.17371284515437L42.33517755681818,33.66624281739254L42.65439630681818,36.64838693006328L42.96998757102273,38.18258553176989L43.09574041193182,41.74900847012921L43.603588423295456,42.51046810270191L43.66767400568182,42.12376293270489L44.36294211647727,43.342572681970154L44.93245738636363,44.31289859024568L45.43909623579545,46.70517421604666L46.449955610795456,48.87699653919182L46.69299715909091,51.77504709846227L47.31813387784091,53.60449634020226L50.08227805397727,43.90340897356663L50.14636363636364,45.665698399552156L50.649375000000006,47.38274298544326L51.212844460227274,50.187306333697066L51.339806463068186,52.868555574922354L51.40026455965909,49.90920226747747L51.58889382102273,44.43852570216899L51.96494318181818,46.378733092189435L52.534458451704545,44.62392496856225L52.72187855113636,47.1612996145181L52.78475497159091,47.71294961222975L53.41351917613637,48.35676695891871L54.473954190340905,49.249419041273285L54.59970703125,51.963655552580235L55.78831321022728,54.329247573857714L55.914066051136366,56.28925774206658L56.09906782670455,58.90779727661901L56.60087002840909,58.014706343927315L56.970873579545454,59.727890357208054L57.094208096590904,62.166373668134455L57.28404651988636,61.133256980684834L57.66251420454545,54.86213512420446L57.97810546875,55.89222088117556L58.599614701704546,54.424071513514065L58.97203657670454,56.38961096446356L59.31785688920455,58.30317255050814L59.51253196022727,60.32818980550974L59.80514914772727,62.09211285808742L59.90309126420454,63.63134453103025L60.050609019886366,59.063649216984246L60.15338778409091,59.918090557028535L60.20296342329545,60.95956206742798L60.46051491477272,63.19207746957427L60.51009055397727,64.8158971305527L60.96473544034091,63.369529796808735L61.373432173295456,61.446430195974244L61.62735617897727,61.60879211066596L61.88732599431818,61.9487443335873L61.991313920454544,63.23157008098683L62.61282315340909,65.16559775756302L63.0191015625,64.83701245749782L63.07714133522727,66.64803727995536L63.19443004261364,67.87047429820258L63.37096768465909,69.83894637336074L63.48946555397727,71.71450797090351L64.17626953125,73.62418365037281L64.34555220170455,74.27347012337741L64.5692471590909,74.98991643187667L64.72281072443182,72.97996978365286L64.88483842329545,74.09787712557258L65.10248757102273,75.52492757725315L65.15569069602273,77.28476946261372L65.37575816761364,78.31865420245471L65.65628373579545,79.75281824917276L66.65988813920455,81.26863368136937L67.10365056818182,81.75157701970663L67.3285546875,83.44063263715123L67.54862215909091,84.64883402569806L67.59819779829546,83.06107153712466L67.94401811079545,84.21428729849393L68.38778053977273,84.97615038714709L68.58608309659091,86.54843970505358L68.78317649147726,83.66759590244727L68.97664240056818,84.00819892558927L69.0250088778409,83.35043305092078L69.22210227272727,81.88909086498346L69.66223721590909,83.37455459406954L69.85812144886363,82.20514914291351L69.90769708806819,79.50730867110842L69.95727272727274,81.173615747681L70.05521484375,82.53599668081318L70.10479048295454,84.10260104727217L70.39982599431819,84.34616771170751L70.5945010653409,84.45695750029937L70.64407670454545,83.73151976292378L70.74080965909091,85.27423588985671L70.98264204545455,86.66626535571189L71.0322176846591,88.17953294639L71.08058416193182,88.37336652828735L71.27525923295454,88.90071794157281L71.46993430397727,90.32612607043691L71.71176669034091,90.77792933576431L71.76013316761363,90.38075887357422L71.80849964488635,90.71280401677417L72.92939275568182,92.1155945512405L73.12044034090908,93.24848743617781L73.2195916193182,94.42303585340491L73.4674698153409,95.6046328949422L74.71169744318182,96.68241468894068L74.81810369318183,95.35893184709727L75.08291015625,93.09243979818089L75.18568892045454,90.92802523055053L75.39608309659091,91.45775220034196L75.50369850852273,92.59687311277595L75.92327769886363,93.93795972402843L76.23886896306819,94.47351011833847L76.4468448153409,95.60433204895203L76.7987109375,96.63129317490161L76.89423473011364,97.79558786270708L77.20740767045454,98.77630313185765L77.31381392045455,99.65784125582151L77.47342329545454,98.84597221402913L77.63182350852273,99.73892808442966L78.0562393465909,100.53841401798017L78.10944247159091,99.97587126580379L78.26905184659091,100.80710674495634L78.63905539772728,101.95348541859757L78.78052734375001,101.76966788207456L79.15778586647728,102.88169350530355L79.32706853693182,102.65310017612389L79.46128551136364,103.70610290748925L79.5120703125,104.81045166500998L79.99331676136364,104.11704356639052L80.04651988636364,105.1199635503864L80.26900568181819,106.15237642250656L80.37783025568181,105.6306912775152L80.43345170454546,104.66775720333415L80.65351917613636,105.62518607140557L80.709140625,105.57247720033851L80.87358664772727,106.44108492964554L80.92799893465909,104.9581909306087L81.3669247159091,105.94768929857608L81.58457386363636,105.38954157556329L81.69581676136363,104.2247874924038L81.80464133522727,105.24021985898968L81.85905362215908,106.1844690105896L82.34392755681819,106.88001191453665L82.50474609375,106.20249329758481L82.93399857954545,105.88116368826459L83.04282315340909,104.432088371123L83.58694602272728,105.49538110526471L83.96420454545455,103.72297881172801L84.66310014204545,104.3891089588986L84.98957386363637,105.42416463399252L85.1503924005682,105.98484572299144L85.25921697443181,106.9937731887941L85.47686612215908,107.94470230932701L85.69209694602273,108.26669667320252L85.79850319602274,108.94739145563285L86.06572798295454,109.8886081272077L86.11893110795455,110.50799139050329L86.59655007102273,111.45977674365203L86.92060546875,111.80003823961437L87.1394637784091,109.70490723826454L87.19387606534092,110.27948991535348L87.73920809659091,111.05735223008324L88.01126953125,111.99099169094104L88.75974076704546,112.77388617750043L88.86614701704545,112.90564334308431L89.9592294034091,110.58861257103108L90.01485085227273,110.44453144284482L90.23612748579546,110.902574924582L90.29053977272729,110.29646697904415L90.3449520596591,109.39845214479716L91.32437322443182,105.47868595931853L91.99183061079546,106.42485530560634L92.04624289772728,106.3677322867152L92.3799715909091,107.07279560134188L92.49000532670455,104.6799358090663L92.76448508522728,105.70350441507289L94.20459694602272,105.41192895083923L94.31463068181819,104.90243760681643L94.86359019886365,104.44619452103576L95.46091619318183,105.40872118662061L95.62173473011363,105.51401381499862L95.78738991477272,106.5152362930214L96.87321732954545,106.11726073343068L97.1960635653409,107.14496480273556L97.57815873579545,105.95600430023208L97.90463245738636,106.64353593040563L98.45117365056818,107.5373964898866L98.71960759943182,108.50653735880071L98.77401988636365,109.36059279015241L98.93846590909091,108.82311500119668L99.38101917613636,108.93137198065662L99.54788352272728,108.20335136857275L99.71474786931817,107.68190661488788L99.88040305397728,108.65815085935913L99.93602450284091,108.32475226274633L100.92874644886363,109.29954025281333L101.75339488636364,109.52821439493698L102.57925248579546,110.47618286448017L102.74369850852273,111.05598964187546L102.80052911931818,111.30515281523071L102.91177201704545,109.76254538318828L102.96497514204546,109.71899546698832L104.16325461647727,110.40634215155617L104.43289772727273,111.33177993509986L104.59734375,112.15847037301727L104.81620205965909,112.88539930121514L104.92502663352272,113.7309102386925L105.1414666193182,111.89861203604357L105.35911576704545,112.40255096724981L105.57676491477272,113.00886242161293L106.94190873579545,112.85951263332073L106.9975301846591,113.26388088071852L107.6033203125,113.64241686739615L108.04224609375001,114.36041956336399L108.09544921874999,115.20271064713162L108.26231356534092,116.03789647632432L108.374765625,116.17269187731233L108.43038707386364,116.29962560499146L108.92614346590909,117.11519812494328L109.31186612215909,117.91720747993925L110.10870383522726,118.65456138985698L110.16190696022727,119.4017227134282L110.31788884943181,120.06644815023216L111.55607066761364,120.78348183273147L111.60322798295455,120.78365992605032L111.70237926136363,120.91279571292594L112.04578125,119.98389267103246L112.39522904829546,120.41294095122731L112.44480468750001,120.1446372700915L112.89461292613636,120.88406226751022L113.09049715909092,119.54252038472629L113.19085759943182,117.64302507108775L113.39278764204545,118.40617029272727L113.8208309659091,119.0590440268473L114.17390625,118.60040244959474L114.22348188920454,119.15923736901004L114.47136008522727,119.59766597581225L114.87763849431818,120.3112380410848L115.32744673295454,120.04434957336204L115.37702237215909,120.73120492881512L115.57653409090909,121.36099487358123L115.78813742897728,120.44949910398412L115.91630859375,120.83935152353655L116.00457741477273,121.49721052583646L116.13879438920455,122.16376693612033L116.27180220170455,122.20476967019441L116.44713068181818,122.78246281969314L116.79657848011364,123.45682708564262L117.15086292613637,123.6645870425952L117.32619140625,123.87781479893654L117.45799005681818,124.5238030289515L117.7651171875,124.01660218638013L118.15204900568182,123.89468917384569L118.32858664772728,123.98143552005101L118.37211647727273,123.3018235528204L118.41564630681819,123.1447706763978L118.5027059659091,123.81613273841377L118.63208629261364,124.48219348438738L118.9283309659091,124.84700025107688L119.30075284090908,125.4848072574811L119.74572443181819,124.98416646283489L119.90654296875,124.03851738996363L119.9790926846591,123.98444546768408L120.10242720170454,124.59917594967337L120.31765802556818,125.23718388783124L120.44462002840909,125.86274930234319L120.48814985795454,126.48924715291352L120.5256338778409,127.06033989986562L120.717890625,125.90041881506389L121.36841974431819,126.25698825741279L121.78316228693183,126.54137137442757L122.05885120738635,127.14009421910296L122.40346235795454,127.73467443178856L122.44820134943183,128.30937604177984L122.86415305397728,126.4549192162052L123.18337180397728,126.77287461203814L123.70935724431818,127.30493474631984L124.03220348011364,126.74568573737125L124.1289364346591,124.74781795288845L124.32240234375,124.61167165281788L124.78913884943181,125.22684101242999L124.83871448863637,124.24454275026946L124.98865056818182,124.90518104798L125.21355468750001,125.14369673583045L125.30303267045454,125.50729143711672L125.63434303977273,125.96677532026908L125.71172940340908,126.39921117215903L125.86650213068181,126.98184087136808L125.89189453125,127.46518532117707L125.91728693181818,128.0560405231438L126.79272017045454,128.61216074222912L126.94386541193181,127.85662077419886L127.12886718749999,128.0703789892308L127.28726740056818,128.57998425723457L127.39367365056819,127.99131053165868L127.44687677556819,128.50922181617375L127.5012890625,128.5674600149368L127.65968927556818,129.1051195966329L127.73828480113637,129.6438977745166L127.78906960227273,130.16625542150985L127.86766512784091,129.15749397460985L127.94505149147727,129.54601853883003L128.02364701704545,130.09383287515843L128.26064275568183,127.68582819069681L128.31384588068184,128.24630230396252L128.62701882102272,128.68614844466498L128.65362038352274,129.1500039045917L128.68022194602273,128.60545316751546L129.04780717329544,128.21309675654328L129.15300426136363,128.7913499730023L129.2569921875,127.00110290646688L129.36098011363637,125.2758430995049L129.4649680397727,125.9054477475924L129.5157528409091,126.5104066458322L129.5677468039773,126.54794800275161L129.77693181818182,126.02231995040358L129.82892578125,126.54307424329339L129.90873046875,127.1192115002822L129.98732599431818,126.81775833466409L130.06350319602274,127.41510251157396L130.19288352272727,127.4156608132742L130.68259410511365,127.98442928103373L130.99576704545453,128.08959795161167L131.02236860795455,128.38064868159267L131.10338245738637,128.6908977718404L131.12998401988636,128.61797881194894L131.18318714488635,129.17792225043672L131.23639026988636,129.67121413172322L131.34279651988635,130.0440610473554L131.44678444602272,130.56176810775395L131.57979225852273,130.87144952174805L131.63420454545454,130.9923049596548L131.82041548295456,130.1194260164168L132.03564630681817,130.66355677038501L132.14326171875,131.14426811703785L132.27626953125,131.62924065932245L132.32826349431818,132.04816030704774L132.35365589488637,132.48183232740035L132.75751598011362,131.25740207837364L132.83973899147728,131.7777434146203L132.9207528409091,132.219600467451L132.94856356534092,132.66087588905464L133.05617897727274,132.4739791405898L133.11059126420457,131.65102755562788L133.24359907670456,132.07149320550323L133.45520241477274,131.69804309983178L133.48301313920456,132.0676431133624L133.58700106534093,132.56166708926332L133.6414133522727,132.44720272294782L133.69703480113637,131.52474675812002L133.81069602272726,132.00413027923548L134.07429332386366,131.9326363955253L134.12870561079546,127.78818874973369L134.18069957386365,127.10908845680714L134.20730113636364,126.95049088750395L134.31612571022728,126.0563208838903L134.39351207386363,126.61638044485521L134.60511541193182,125.689697115516L134.71393998579546,126.30662315942399L135.0899893465909,126.30346790461243L135.19760475852271,126.61246904901L135.25201704545455,127.18069028955884L135.38623401988636,126.38548641706268L135.41283558238635,126.99733392307446L135.4660387073864,125.76543184745444L135.52045099431817,125.86263654653123L135.54826171874998,126.48284520934868L135.60267400568182,127.06848688847253L135.65708629261363,127.35438562920112L135.68489701704547,127.81660898056995L135.87594460227274,128.3992837079239L135.95695845170454,128.95419388971942L136.0730379971591,128.2461335124165L136.60990589488637,128.45992279985288L136.8855948153409,128.96128094531582L137.05366832386366,129.46911847213315L137.14072798295456,129.5913083570808L137.22053267045456,129.86634523734762L137.3051740056818,130.40368692971344L137.33056640625,130.80233077540845L137.3559588068182,130.87173566533977L137.6219744318182,131.39960655693778L137.65824928977273,131.54102300874723L137.68485085227272,131.4788338798972L137.73442649147728,131.93296568271944L138.05485440340908,131.96848889247747L138.08266512784093,131.0734696263617L138.13465909090908,131.5682353471497L138.3535174005682,132.01005637783524L138.6098597301136,132.2186096144076L139.07296875,131.23509205877767L139.4514364346591,131.75692785611824L139.5578426846591,132.26611884311887L139.5844442471591,132.6386577321693L139.63764737215908,133.0166921442513L139.85166903409092,133.45090771133653L139.9036629971591,133.67619079357536L140.01127840909092,131.9947485973897L140.26641157670454,132.19067046418908L140.46955078125,132.28302158816658L140.49736150568182,132.335057815561L140.76942294034092,132.82548235868472L140.97135298295456,133.29251276934832L141.12975319602273,132.97968681471662L141.15635475852272,133.46181401356677L141.21076704545456,131.6487287256661L141.26517933238637,130.75866432384402L141.39818714488638,131.23289963351613L142.08136363636362,131.7274110573088L142.10917436079546,131.21496473230215L142.38244495738635,131.58661850801522L142.43564808238636,132.00376428517905L142.54447265625,132.50872504969425L142.57107421875,132.84712218234654L142.87215553977273,132.54299386313903L142.95558771306818,132.98495195121814L143.12245205965908,133.46464329555727L143.26029651988637,133.9407174967584L143.31591796875,134.39389136854697L143.3703302556818,133.4408191930474L143.42716086647727,133.69828479329647L143.67141157670454,134.16010974000153L143.7790269886364,134.10147836642255L143.8878515625,133.7876787406271L143.9410546875,134.16097462278736L144.02448686079546,132.70201254316476L144.26873757102274,131.38290842224643L144.29654829545453,131.49575070897885L144.56981889204545,131.652515237365L144.6254403409091,131.31878270971688L144.9591690340909,130.19228824227605L144.98697975852275,130.71531695155073L145.0075355113636,131.2340675488071L145.1175692471591,130.7457219042306L145.22276633522728,129.12824394007828L145.39083984375,129.55394744713828L145.85999467329546,130.05312148044658L145.9422176846591,130.59026275276028L146.02806818181818,130.24880443185947L146.05587890625,130.44772103389886L146.28078302556818,130.92506675665527L146.44764737215908,131.10287641335293L146.61330255681816,131.46338604401006L146.74751953125,131.96154200088353L147.26866832386364,132.19418683395588L147.37628373579545,132.42624150845364L147.4306960227273,132.892024912121L147.56612215909092,133.24850415643917L147.70275745738635,132.54907585019583L148.02681285511366,132.89099896863004L148.18763139204543,133.37831529115476L148.55037997159093,132.7109145353513L148.8369513494318,132.8162219900064L148.85992542613639,132.46963029377272L148.94093927556818,131.56927370843138L149.10659446022726,131.32402680919972L149.29280539772728,131.2858786881227L149.32545276988637,131.44114278642402L149.35326349431818,131.69058507076346L149.38107421875,132.20299824515L149.40767578125,130.50865558396978L149.65313565340907,130.63758128436194L150.26255326704546,130.90199533954535L150.28915482954545,130.93512377575632L150.31575639204544,131.15677342741324L150.50075816761364,131.6240855206341L150.80909446022727,131.85366774660108L150.86229758522728,130.79084083611775L151.17909801136364,129.84190595201102L151.20690873579545,130.3911495712205L151.28550426136366,128.90639561524512L151.3435440340909,129.42862648014946L151.37135475852273,129.83812563305236L151.42455788352274,129.84325391729692L151.93361505681818,128.8707556852031L152.15126420454544,127.74076947382548L152.22985973011362,128.27242519553448L152.46927379261362,128.84882317941864L152.49345703125002,129.210719193466L152.70626953124997,129.55405796716624L152.73287109375002,130.09420510104275L152.8936896306818,130.38009269591217L152.97228515625,130.13918937233342L153.13189453125,130.54119371898784L153.18388849431818,130.60318943366937L153.23588245738637,130.93496312848964L153.68085404829546,131.35623066573913L153.73284801136364,130.9076686546999L153.75944957386363,131.23145778560846L153.78484197443183,131.75111655397728L154.0677858664773,131.37516055407553L154.32291903409092,131.870391306133L154.53089488636365,132.37331641606352L154.9734481534091,132.42485001860567L155.15119495738637,132.84528624212373L155.17658735795456,133.1577080903164L155.25034623579546,131.19462152397216L155.67597123579546,131.51775830927056L155.78116832386362,131.33736526292697L155.91417613636364,129.11310825939017L155.96737926136362,129.41463833859024L156.0193732244318,128.58607242446942L156.0725763494318,128.8623567602694L156.1245703125,129.32780476584423L156.23097656250002,129.82932820182157L156.25636896306816,130.27863943321947L156.33980113636366,130.80471674146276L156.4909463778409,130.63550461047524L156.5441495028409,130.16127918343545L156.62153586647727,129.39609578088792L156.8283025568182,129.84699809203232L156.88876065340907,130.29662583425372L156.9165713778409,130.74002882157174L156.93349964488638,131.26517878343535L157.1499396306818,131.77913754015728L157.56468217329544,132.0164276943624L157.61909446022727,132.4759145880317L157.67834339488635,132.34988408950056L157.7327556818182,132.1711754690085L158.04351029829544,132.4508054866411L158.15958984375,132.5299354535829L158.53080255681817,133.02360258412745L158.64567294034092,133.50502386686233L159.19705078125,133.97796865571348L159.63355823863637,134.35985223023732L159.66741477272728,134.122867532493L159.86934481534092,133.84313396981472L159.90199218749999,134.06555129984588L159.96970525568182,134.09717121267428L160.07127485795453,134.53380814994668L160.23693004261364,134.92251279185126L160.36751953125,134.06252960404794L160.43523259943183,134.29459777711125L160.96968217329544,134.74990561108265L161.33726740056818,134.01924068672238L161.5730539772727,134.33393656264573L161.60570134943183,133.87853797856405L161.83060546874998,134.32834977504706L161.93217507102273,134.7535661348556L162.7278036221591,135.17786518895056L162.82574573863639,135.56346383652155L163.05427734375,135.83443494759132L163.15342862215908,135.923987421434L163.18728515625003,136.2403154070835L163.2525799005682,136.64884552217882L163.28401811079547,136.72836692915047L163.51496803977273,137.05986887461682L163.93333806818183,137.46513763754572L164.09415660511362,137.7973938269334L164.38798295454546,137.84479896115687L164.4496502130682,138.22863687435978L164.51615411931817,138.45069088250344L164.74226740056818,137.71286353793104L165.1691015625,137.67392308818754L165.23197798295453,137.63146086768336L165.42544389204545,137.57908611745552L165.68783203125,137.9326808046898L165.8800887784091,137.66374715338304L165.91273615056818,138.05120089557278L166.07113636363638,137.68518968588023L166.2343732244318,136.10712726932857L166.4604865056818,136.06933679722306L166.7132013494318,136.49350327629836L166.8377450284091,136.78004164347732L166.96470703125001,137.1801302509756L167.37098544034092,137.54351197150402L167.43507102272727,137.92215000878082L167.49915660511363,138.24794490340145L167.59468039772727,138.19740062659264L167.75187144886362,138.568543769971L168.28269353693182,138.58398874346773L168.44109375,138.64032715685667L169.01665482954544,137.9717617379248L169.1472443181818,138.2890643393223L169.24397727272728,138.4215752970909L169.40842329545455,138.75063235231022L169.63695490056818,139.11778928336648L169.76512606534092,139.2953434194593L169.8316299715909,138.93775229652138L170.00695845170455,139.20983131097637L170.02630504261364,139.4752720783524L170.16898615056817,139.70217154828768L170.37212535511364,138.01566995444145L170.55108132102274,138.4004145566126L170.63814098011363,138.7623433671584L170.81709694602273,136.63153401634955L171.14357066761363,137.0337024886707L171.20402876420457,137.0441178834394L171.49785511363638,136.96208037650922L171.58733309659092,137.35511016391422L171.64658203125,136.77209259484655L171.7940997869318,136.32717563956973L172.25720880681817,135.08124593273357L172.31645774147728,134.8402407411774L172.49420454545452,135.21008380543864L172.6090749289773,135.30342914799664L172.6707421875,134.2332562105534L173.08185724431817,134.25130616577147L173.4433966619318,133.78114893464982L173.5945419034091,134.01065341272508L173.95970880681816,133.58339731510625L173.99114701704548,133.83137572925997L174.17614879261365,132.89904496712668L174.20637784090908,132.98120205117107L174.62474786931818,133.45983471825303L174.74203657670455,132.77973122408022L174.80249467329546,130.5392701477606L174.8629527698864,131.07206969233076L174.9524307528409,130.35967769639234L175.04069957386363,130.8904811980363L175.31397017045455,131.04339078263635L175.48929865056817,131.56023468539178L175.5509659090909,132.0679393220315L175.88832208806818,131.48025998209462L175.91855113636365,130.337507049026L176.10113458806816,130.83753985970827L176.31152876420455,131.35116379289485L177.03702592329546,131.86118775224452L177.22202769886363,132.37009497037394L177.26676669034092,132.24962500640336L177.90762251420455,132.63256421519065L177.99951882102275,133.101814567192L178.12527166193183,133.25621110566783L178.1567098721591,133.64750092637897L178.18089311079544,134.06902139619513L178.3646857244318,134.04276942687633L178.45779119318183,132.6875602098457L178.51945845170454,133.01588202435386L178.79756569602273,133.42301077392347L179.01158735795454,133.2347319194542L179.15789595170455,133.66165097351464L179.40335582386365,133.02530167554457L179.52427201704543,133.4686063307065L179.64881569602272,131.32479643518627L180.04783913352273,131.5493738557401L180.10829723011364,131.97191086802937L180.19414772727274,132.3125156972725L180.55931463068183,132.41775032370128L180.68143998579546,132.83016525796856L180.83258522727272,133.23335410094296L180.89183416193183,133.6901305150812L181.19412464488636,133.95184722433427L181.24974609375,134.4137952861369L181.30899502840907,134.86381326063275L181.68988103693184,134.90912137636812L182.1675,135.34651046298296L182.31139026988635,135.78515046728126L182.5205752840909,136.16175898078342L183.24486328125,136.22623108073222L183.27267400568184,136.61027861281696L183.30290305397727,136.40460226128934L183.50725142045454,136.6062580742041L183.79503196022725,136.7044323777791L184.02840021306818,137.0880722817248L184.20131036931818,137.37354984112804L184.23033025568182,137.67109414717504L184.3476189630682,137.8198878205182L184.67046519886364,137.7547847561026L184.84579367897726,138.08908979529875L185.02354048295453,138.3413765087216L185.1142276278409,138.5551490216076L185.56524502840907,138.49287707385994L185.6849520596591,138.28776778710494L186.0126349431818,138.18338555413243L186.16136186079547,138.00776540782056L186.30887961647727,137.99136730766818L186.4249591619318,137.32198134873911L186.45518821022725,137.72057372288828L186.78287109375,138.05695958793007L186.81189098011362,138.44161087319657L187.13957386363634,138.54434778774385L187.20003196022728,138.8743193689074L187.23026100852272,138.7378562407026L187.4358185369318,138.16776958945312L187.4962766335227,138.2051214824354L187.52650568181818,138.58222435572299L187.55552556818182,138.94398093379507L187.5857546164773,139.23551890229905L187.76229225852273,139.2306755358645L188.4128213778409,139.02998385386275L188.90736860795457,137.50343033923076L189.05488636363634,137.58280158039878L189.0851154119318,137.60761165773843L189.1431551846591,136.63121385756028L189.3777325994318,136.82934724018065L189.73201704545454,136.97558689027926L191.0802325994318,137.37345537661412L191.4889293323864,137.56254093707574L191.51674005681818,137.35373264353987L191.83958629261363,137.73822317713513L191.86860617897727,138.11342867625845L191.92906427556818,137.45360803160293L191.9858948863636,137.42950861967063L192.07658203124998,137.71995540908077L192.10318359374997,136.86173321604275L192.1612233664773,137.1616496595287L192.82988991477274,137.45110801197546L192.9749893465909,137.82964096934768L193.06446732954547,138.10238910282933L193.15152698863636,138.2458278260262L193.2990447443182,138.58784433894738L193.61947265625,138.9497261827695L193.88548828125,138.96975788601702L193.9737571022727,138.94738329624408L194.00156782670456,138.67767727821408L194.26758345170455,139.04028936102355L194.43928444602273,137.64572053968521L194.92294921875,138.03174288794474L195.10069602272728,138.13369581809377L195.22040305397726,138.4546138470108L195.31350852272726,138.74828728639707L195.4948828125,139.0612764319638L195.55534090909092,139.1230355103914L195.8346573153409,138.74544506554005L195.94831853693182,139.09077340290602L196.1381569602273,138.13847916468228L196.29534801136364,138.51193693875632L196.47672230113636,138.88788224134584L196.74515625,139.209832574559L196.95675958806817,139.56836184482728L197.07646661931818,139.87943509135823L197.3449005681818,140.20339663679155L197.79833629261364,140.07367436955582L198.00631214488638,139.82465812511006L198.09337180397728,140.0181514398741L198.15382990056818,140.31332043360004L198.18405894886365,139.0758245617601L198.30134765625,137.52926354497893L198.33157670454545,137.5541345410202L198.71609019886364,137.91426717936992L198.89625532670456,138.0707069167727L198.926484375,138.12512175040808L198.97606001420453,138.50907703599069L199.14897017045456,138.52832127223294L199.22877485795453,138.70305083396948L199.40410333806818,138.9969961618221L199.51776455965907,139.2780086906263L199.72090376420454,138.4315271367799L200.00505681818183,138.68023378265406L200.18038529829545,139.05165467920173L200.2976740056818,138.4493681787432L200.37385120738637,138.71492361561315L200.59512784090907,139.0828705458207L200.64228515624998,139.43574235419402L201.02317116477275,138.45470252361096L201.13925071022726,137.10318875576712L201.16947975852273,137.50281986150839L201.67974609375,137.8736727179914L201.70634765625,138.19900492851787L201.78373401988637,138.24939991022597L201.99896484375,137.4703282728191L202.0388671875,137.8629341602961L202.26618963068182,138.07789843175576L202.31697443181818,138.01597063235684L202.34599431818182,138.3740184439236L202.6386115056818,138.3234387785301L202.66884055397728,138.63177830365052L202.9578302556818,138.70497399239144L203.04972656249998,139.00599600582197L203.3350887784091,139.28325076287413L203.42698508522727,139.6255786727284L203.48381569602273,139.0563992917492L203.54427379261364,139.40939946923166L203.84414595170455,139.7647982051888L204.34473899147727,140.10863076474914L204.4934659090909,140.42113712167094L204.77520063920454,140.739195378152L204.95536576704546,140.11859094996493L205.16334161931817,138.93753771171168L205.34108842329547,139.30512129925194L205.40033735795456,139.63632986421183L205.51762606534092,139.99001798906946L205.72681107954546,140.33031678329343L205.75704012784092,140.66632380379548L205.7848508522727,140.98781067553622L206.09197798295455,140.71112613629748L206.72678799715908,141.0081426652667L206.87309659090909,141.32993670705903L207.02666015625,140.21138039522782L207.2044069602273,140.4119852995699L207.4994424715909,140.56684842417667L207.64937855113638,140.8337678488509L207.82833451704545,141.06199391583266L207.9492507102273,141.2627644116282L207.9782705965909,141.57204830180112L208.2188938210227,141.81455355674814L208.31199928977273,141.47934111616473L208.33981001420455,141.44296155242614L208.4026864346591,141.6477094308699L208.49216441761362,141.88685179671455L208.5211843039773,142.1847951967787L208.55383167613635,141.7150228973979L208.70014026988636,141.58820079992867L208.7618075284091,141.53903888879182L208.85007634943182,141.80566435639702L208.88030539772728,141.84203101475237L208.91053444602272,142.12886972348676L208.9371360085227,142.19357690862864L208.99880326704545,141.49074484872938L209.08949041193182,141.65616111364906L209.11851029829546,141.09080050619545L209.30472123579545,140.48422990539044L209.48367720170452,140.81637805263432L209.54292613636363,141.10449456659236L209.63240411931818,141.16357963456488L209.97943359375,141.47352088743946L210.21522017045453,141.7702124654702L210.26963245738636,141.39810194776928L210.44858842329546,141.71639834685558L210.65414595170455,141.60929494100688L210.79924538352273,141.86586307490893L211.01084872159092,141.82165922127533L211.40745383522727,141.04108156458506L211.5876189630682,140.57251116373624L211.64203125,140.51277961439402L212.12569602272728,140.5185866237498L212.21396484374998,140.84990612310986L212.27684126420456,141.12324395904886L212.3070703125,141.08671059723792L212.865703125,141.1967124547343L213.13171875,140.26532796236572L213.48116654829545,140.60169686572647L213.56097123579545,139.23256003446693L213.65044921875,139.52965849334618L214.02770774147726,138.3265943006214L214.2610759943182,137.81189758419583L214.4944442471591,138.01563172087694L214.52346413352274,138.401354512495L214.61052379261363,138.52540284460065L214.66856356534092,138.66824993477303L214.6806551846591,139.03568687809263L215.0736328125,139.40101762424956L215.30821022727272,139.66060617836152L215.74229936079544,139.97246415247818L215.94906605113638,139.8006239970767L216.12197620738635,139.98165223950312L216.20903586647725,140.30651830275502L216.4158025568182,140.45741165806731L216.7966885653409,140.31816803178887L216.85110085227274,140.62354469200324L216.87770241477273,140.9531774120799L216.9079314630682,141.07625110026453L217.07842329545454,141.208019798354L217.22110440340907,141.51014713623633L217.58989879261364,140.42363461095303L218.05542613636365,140.72706072493514L218.2537286931818,140.99366000800097L218.398828125,141.2125899695635L218.42301136363636,141.19407457084844L218.59108487215912,141.5163730578464L218.8389630681818,141.83266582030737L218.95867009943183,142.10477547748658L219.00099076704544,141.9593919252152L219.1787375710227,142.23596546362015L219.25370561079544,140.96075189756857L219.3951775568182,141.26530522276173L219.91269886363636,141.55734009313184L220.0541708096591,141.79266485631499L220.21861683238637,142.10018774152005L220.40482776988634,142.40163403389442L220.5196981534091,142.62730728882616L220.60554865056818,142.91126381943465L221.01424538352273,143.15923840043487L221.24035866477274,143.4339931200304L221.34918323863636,141.89234549812448L221.37699396306817,141.65086129861274L221.88605113636365,141.94269625035648L221.9573916903409,140.10059806187388L221.9827840909091,140.34176628418066L222.03598721590907,140.63341105705274L222.0940269886364,140.80979957356178L222.12425603693183,140.9633693292705L222.2367080965909,141.26734304842591L222.26572798295453,141.4355154194308L222.58011008522726,141.7292632162643L222.7276278409091,141.8654946348877L222.83887073863636,141.96704788043164L223.45675248579545,142.2665031429437L223.78080788352273,142.55645010413747L223.98273792613637,142.81810044058682L224.12904651988634,143.1066710246164L224.1725763494318,143.3869403699956L224.20038707386365,142.2385095700563L224.62843039772727,142.5291113435035L224.676796875,142.22045041640138L225.3998757102273,142.5225295097518L225.54497514204544,142.81872890273127L226.08184303977274,143.0700742082745L226.13141867897727,143.18411971239792L226.23056995738636,142.66209575218576L226.2801455965909,142.93031826118315L226.76864701704545,143.16543839296415L227.1096306818182,143.36075903259893L227.30672407670454,143.3154055951254L227.50623579545456,143.57915466200063L227.95241654829545,143.84362590735674L228.2002947443182,144.11334317158398L228.29944602272727,144.31075996975582L228.39738813920454,143.6649652652285L228.84115056818183,143.9301704076684L229.08056463068183,144.01007504773574L229.3115145596591,144.11970384157803L229.98139026988636,144.30488695524696L230.0297567471591,144.05911174562294L230.12648970170454,143.50704785225741L230.36953125,143.65330414230874L230.79757457386364,143.92619898444684L231.0756818181818,143.58809398946883L231.68993607954545,143.81397081445704L232.11314275568182,144.08194496492075L232.20866654829547,143.34829430039798L232.3960866477273,143.62777934165427L232.4432439630682,143.89760501997807L232.6355007102273,144.10257526825055L232.92328125,144.15613921529882L233.21106178977274,144.4173979321854L233.45289417613637,144.67203414551753L233.59436612215907,144.9201559148814L233.68988991477272,145.16768903991235L234.21103870738636,145.4086900655567L234.40208629261366,145.5673955044299L234.82771129261363,145.0467266347146L235.01634055397724,145.09534827302636L235.20496981534092,145.14719684528615L235.44196555397727,145.37743041098764L235.48912286931818,145.53591031914675L235.67775213068182,145.68691214476667L236.01148082386365,145.7726371266498L236.2484765625,146.00208116755786L236.34400035511365,146.22864442275397L236.4419424715909,146.44071335448086L236.4890997869318,146.64412545196785L236.9195614346591,146.81853438162562L236.96913707386364,147.00217874786725L237.01629438920455,147.17221463808013L237.3040749289773,146.38105603024547L237.87600852272726,146.59930787026715L238.11905007102274,146.19388921511666L238.5023544034091,146.41025167617389L238.60029651988637,146.61391145709732L239.07670632102273,146.82292677782038L239.17102095170455,145.47604571087987L239.89530894886363,145.12088772445352L240.43338600852275,144.90388688475645L240.5325372869318,145.06501638711617L240.72600319602273,145.304774615987L240.8251544744318,144.03056481900273L241.31365589488635,144.29546046623528L241.45875532670456,144.5007174812434L241.85052379261361,144.74195059346232L242.48291548295452,144.98291979990364L242.58085759943182,145.22797568679857L243.11530717329543,145.46739807880144L243.45387251420453,145.69495458992714L243.59897194602271,145.9229777074724L243.78518288352274,145.84184425095526L244.02096946022726,145.46504387670547L244.4429669744318,145.6829063339491L244.95686079545456,145.915649711732L245.26882457386364,146.07306232947914L245.5916708096591,146.29788250184978L245.8189932528409,146.5113188932541" style="fill: none;" fill="none"></path></g></g></g></g><g opacity="0.2"><g><g><g><path stroke="rgb(255, 112, 67)" stroke-width="2px" d="M24.47948330965909,-1039.8807157675426L25.308968394886364,51.26615828772387L25.700736860795452,141.40529456486303L26.672903053977272,-133.30436146259314L26.78051846590909,3.3386166294415887L26.95463778409091,-1.9208184977372298L27.42016512784091,68.15449450413385L27.577356178977272,80.2914450963338L28.34880149147727,100.00417975336313L28.53501242897727,6.890164355436951L29.64623224431818,78.90111336112021L30.11296875,116.30513982474804L30.28708806818182,141.69509414831796L30.342709517045456,-109.4583808978399L30.73689630681818,-31.526788781086594L31.519224076704546,150.50576013450822L32.37531072443182,112.09201046824455L33.09838955965909,-40.976033320029586L33.42849076704545,-7.35397732257843L33.624375,110.10818870365618L34.21686434659091,59.770941401521355L34.28094992897727,16.298879226048797L34.93268821022727,-9.557056387265504L35.26399857954545,72.48336639503637L35.39458806818182,103.50188207129636L35.46109197443182,-9.875461916128785L35.71985262784091,130.7102535938223L36.23374644886364,-52.580061266819655L36.69564630681818,-318.3926601807277L36.751267755681816,114.4973862071832L37.03058416193181,-6.437048524618149L37.64846590909091,131.3611624849339L37.98219460227273,49.506693000594765L38.27360262784091,147.61031846764186L39.23851384943182,51.49302039543788L39.62302734375,12.17850947380066L39.94345525568182,10.164949834346771L40.38721768465909,88.47306051850319L40.64235085227273,137.2017444819212L40.768103693181814,138.68009014303485L41.95429154829545,112.49742071082194L42.27109197443182,153.80737398999432L42.33517755681818,-8.581384479999542L42.65439630681818,121.47549686580896L42.96998757102273,82.45358421405156L43.09574041193182,146.09892248113948L43.603588423295456,65.09064353009063L43.66767400568182,30.506857772668212L44.36294211647727,80.41866077979405L44.93245738636363,74.1907043159008L45.43909623579545,121.23816166321436L46.449955610795456,117.31670378645259L46.69299715909091,144.11366290971637L47.31813387784091,112.52204475551844L50.08227805397727,-271.77940950791043L50.14636363636364,103.59242177506287L50.649375000000006,104.37617485970259L51.212844460227274,144.165125404795L51.339806463068186,143.5449654323359L51.40026455965909,-51.070865948994964L51.58889382102273,-143.8615927696228L51.96494318181818,113.72623820106188L52.534458451704545,-16.789565443992615L52.72187855113636,136.67308397218585L52.78475497159091,67.32508693138757L53.41351917613637,71.41878124574818L54.473954190340905,81.46016775568326L54.59970703125,150.60617445750782L55.78831321022728,140.89994850506383L55.914066051136366,128.50361939147115L56.09906782670455,156.02155599137768L56.60087002840909,24.679860760768264L56.970873579545454,124.07293795545894L57.094208096590904,154.31074123379463L57.28404651988636,21.862609227498382L57.66251420454545,-184.89279743035644L57.97810546875,95.49588055908679L58.599614701704546,-2.331668595472962L58.97203657670454,132.78001591190696L59.31785688920455,133.0613498352468L59.51253196022727,139.8429351945718L59.80514914772727,131.69807267934084L59.90309126420454,124.66444252928098L60.050609019886366,-122.90708021322888L60.15338778409091,94.11442109942435L60.20296342329545,102.82819722096124L60.46051491477272,153.33522936267158L60.51009055397727,130.6615330055356L60.96473544034091,4.475117762883514L61.373432173295456,-17.178480287392944L61.62735617897727,68.27322621146836L61.88732599431818,75.95676336685815L61.991313920454544,116.29146142800649L62.61282315340909,145.45577957853675L63.0191015625,51.14676720400652L63.07714133522727,142.3686526181797L63.19443004261364,119.15745552877584L63.37096768465909,152.70297578629106L63.48946555397727,150.9264065505316L64.17626953125,154.5352749186568L64.34555220170455,101.86921119938293L64.5692471590909,105.5331752722462L64.72281072443182,-12.963292211294174L64.88483842329545,122.03798887878656L65.10248757102273,136.89683235809207L65.15569069602273,153.17970857427767L65.37575816761364,123.02742709964514L65.65628373579545,141.9361768066883L66.65988813920455,147.1633089017123L67.10365056818182,102.79921762893596L67.3285546875,157.23609446282111L67.54862215909091,137.56389963378507L67.59819779829546,13.357298612594604L67.94401811079545,134.9587987884879L68.38778053977273,118.57626653214295L68.58608309659091,156.04443474921086L68.78317649147726,-43.94371058543521L68.97664240056818,99.12776230772336L69.0250088778409,54.09119046231109L69.22210227272727,16.752530177434295L69.66223721590909,149.7178071886301L69.85812144886363,29.876112977663695L69.90769708806819,-41.44616868098578L69.95727272727274,156.0187545575512L70.05521484375,143.8410116912176L70.10479048295454,154.72272898474088L70.39982599431819,95.34488336741923L70.5945010653409,89.46839649478594L70.64407670454545,50.862597962220505L70.74080965909091,155.28717623185366L70.98264204545455,149.9413092241933L71.0322176846591,157.0727689647271L71.08058416193182,97.21132880946L71.27525923295454,112.9815385142962L71.46993430397727,155.51065720400462L71.71176669034091,111.46863237271705L71.76013316761363,72.16655802230039L71.80849964488635,105.9612167775631L72.92939275568182,156.62187308476618L73.12044034090908,145.41205376634994L73.2195916193182,148.5740391779691L73.4674698153409,150.1490494168053L74.71169744318182,146.49573610412577L74.81810369318183,34.11607895294824L75.08291015625,-11.910795629024506L75.18568892045454,-9.461754520734132L75.39608309659091,116.0552618180712L75.50369850852273,145.54962623802322L75.92327769886363,156.34665533527732L76.23886896306819,119.42223177850246L76.4468448153409,148.33851084982356L76.7987109375,144.57068583865959L76.89423473011364,152.1998285635685L77.20740767045454,144.64696927554905L77.31381392045455,140.92899769792953L77.47342329545454,60.80108512441316L77.63182350852273,141.6218172845741L78.0562393465909,138.0707421116531L78.10944247159091,73.54386341075102L78.26905184659091,139.89756086468697L78.63905539772728,155.90939469495788L78.78052734375001,93.1109308352073L79.15778586647728,155.30587733661136L79.32706853693182,91.86804298559824L79.46128551136364,153.42520905441293L79.5120703125,156.99332965058662L79.99331676136364,71.3277653257052L80.04651988636364,152.57952770621827L80.26900568181819,155.0422453796491L80.37783025568181,80.90914889176685L80.43345170454546,59.00532483061153L80.65351917613636,151.05681379884481L80.709140625,103.06971946358681L80.87358664772727,147.71125525484481L80.92799893465909,34.4573282102744L81.3669247159091,153.0200044090549L81.58457386363636,78.82145336767037L81.69581676136363,48.74935526649156L81.80464133522727,153.6315444090093L81.85905362215908,151.20887835603207L82.34392755681819,140.06374386077124L82.50474609375,73.86119195818901L82.93399857954545,90.53438831369081L83.04282315340909,35.18799050649008L83.58694602272728,156.3306867503561L83.96420454545455,18.943418105443328L84.66310014204545,136.26774882525206L84.98957386363637,154.9819515910931L85.1503924005682,132.8424551921586L85.25921697443181,155.34533277091882L85.47686612215908,153.53723458340392L85.69209694602273,123.71158870806296L85.79850319602274,141.61190282801786L86.06572798295454,155.0738562955521L86.11893110795455,140.25519196192423L86.59655007102273,157.1898149980892L86.92060546875,128.15493017062545L87.1394637784091,8.961910297473281L87.19387606534092,137.91844265162945L87.73920809659091,148.48855560893813L88.01126953125,156.93470602463154L88.75974076704546,150.47450432026136L88.86614701704545,119.25269145766893L89.9592294034091,-1.066486497720092L90.01485085227273,103.4990870480736L90.23612748579546,132.9898862565557L90.29053977272729,81.05989698568979L90.3449520596591,66.06758290529251L91.32437322443182,-83.71590198079747L91.99183061079546,152.10730065684766L92.04624289772728,103.60892816384633L92.3799715909091,141.13434948275486L92.49000532670455,-10.951959798733384L92.76448508522728,155.1799952876754L94.20459694602272,91.3141082127889L94.31463068181819,80.2616559366385L94.86359019886365,82.37487665315467L95.46091619318183,151.98413510123888L95.62173473011363,110.61027451356252L95.78738991477272,154.9873273402142L96.87321732954545,86.84543387591839L97.1960635653409,156.92299963262244L97.57815873579545,48.35391992330551L97.90463245738636,139.96027671669918L98.45117365056818,150.8622052700569L98.71960759943182,155.49041732540354L98.77401988636365,150.77402237895876L98.93846590909091,82.75516099234422L99.38101917613636,114.18297356863816L99.54788352272728,72.87957101066907L99.71474786931817,82.37624669075012L99.88040305397728,156.04436171411848L99.93602450284091,92.13874629636605L100.92874644886363,156.63284935480138L101.75339488636364,120.63409230609733L102.57925248579546,156.5238116250451L102.74369850852273,139.22506838664412L102.80052911931818,123.41246261199315L102.91177201704545,34.79174193243185L102.96497514204546,107.6021188646555L104.16325461647727,143.8223137917618L104.43289772727273,156.329871916833L104.59734375,152.36133731373897L104.81620205965909,148.2421173490584L104.92502663352272,154.86139034324637L105.1414666193182,22.752181231975555L105.35911576704545,136.92408841351667L105.57676491477272,142.51594631249705L106.94190873579545,105.59017836054166L106.9975301846591,132.94842613488436L107.6033203125,132.0718786455691L108.04224609375001,149.32171704806387L108.09544921874999,156.22109324415214L108.26231356534092,156.7152980181078L108.374765625,122.73864588638146L108.43038707386364,122.4833683197697L108.92614346590909,156.85150852267785L109.31186612215909,156.9971530319502L110.10870383522726,154.58802388453236L110.16190696022727,155.81711977813393L110.31788884943181,152.46753629079709L111.55607066761364,155.73793783256164L111.60322798295455,120.79234263797599L111.70237926136363,127.20928186799088L112.04578125,74.68735393385091L112.39522904829546,141.33685495952764L112.44480468750001,107.05870480835436L112.89461292613636,156.95127858000342L113.09049715909092,54.0996451328198L113.19085759943182,24.97386936346689L113.39278764204545,155.64038790467507L113.8208309659091,150.9157992908731L114.17390625,96.21925674627224L114.22348188920454,146.43194418648878L114.47136008522727,140.99593722199398L114.87763849431818,155.14112276040638L115.32744673295454,107.01635086536407L115.37702237215909,154.26218228430176L115.57653409090909,152.10843808110803L115.78813742897728,75.94543674588203L115.91630859375,139.875378344208L116.00457741477273,153.62193033502749L116.13879438920455,154.7154371519573L116.27180220170455,124.20729688306649L116.44713068181818,150.99820531221727L116.79657848011364,156.39631896916157L117.15086292613637,133.81331731503207L117.32619140625,134.2942847646773L117.45799005681818,156.08313911260726L117.7651171875,99.23615645865598L118.15204900568182,117.93800484637418L118.32858664772728,128.22011502087116L118.37211647727273,90.09213724732399L118.41564630681819,115.46985647579032L118.5027059659091,156.62625358765945L118.63208629261364,157.0349525558025L118.9283309659091,142.6773277663936L119.30075284090908,156.6598990689187L119.74572443181819,100.51234647879997L119.90654296875,77.81199941039085L119.9790926846591,121.34110130618015L120.10242720170454,154.65211549789333L120.31765802556818,156.42954077819982L120.44462002840909,156.44816163593592L120.48814985795454,157.12159641548837L120.5256338778409,154.98488398439562L120.717890625,69.18172231813271L121.36841974431819,143.69351194178063L121.78316228693183,140.44849181175232L122.05885120738635,156.4204605014529L122.40346235795454,156.81357967061922L122.44820134943183,156.41715949843638L122.86415305397728,35.75285627444586L123.18337180397728,142.32474273008603L123.70935724431818,153.3300518843656L124.03220348011364,99.38969224939743L124.1289364346591,27.01756983002028L124.32240234375,117.95154037823279L124.78913884943181,155.32126507504532L124.83871448863637,76.18840961654979L124.98865056818182,157.22604910402637L125.21355468750001,136.81313002109528L125.30303267045454,143.29678715144593L125.63434303977273,148.44848750407496L125.71172940340908,147.55813340594372L125.86650213068181,155.49051119495803L125.89189453125,151.11639303403595L125.91728693181818,156.9688069449427L126.79272017045454,155.82595061371103L126.94386541193181,90.88322772582372L127.12886718749999,138.5312047873934L127.28726740056818,153.51950651671117L127.39367365056819,99.18154544134934L127.44687677556819,153.8564844803574L127.5012890625,131.41778276860714L127.65968927556818,155.42013936497582L127.73828480113637,156.01427297317423L127.78906960227273,155.73350844881497L127.86766512784091,79.78168854117393L127.94505149147727,148.56352670366564L128.02364701704545,156.90882950823288L128.26064275568183,9.813809931278229L128.31384588068184,155.68211372297569L128.62701882102272,150.2175210751593L128.65362038352274,151.85712684659907L128.68022194602273,101.94754145046075L129.04780717329544,109.00533774495125L129.15300426136363,157.10018571452625L129.2569921875,39.35658265153566L129.36098011363637,40.811386744181306L129.4649680397727,156.72987012169324L129.5157528409091,156.12871667346917L129.5677468039773,128.3859738235672L129.77693181818182,100.28713647524515L129.82892578125,152.04004243419817L129.90873046875,155.32826110425717L129.98732599431818,112.05766794830559L130.06350319602274,156.6633832892791L130.19288352272727,127.44299782688418L130.68259410511365,155.8343466729857L130.99576704545453,133.23928621535498L131.02236860795455,142.6324343085289L131.10338245738637,143.8829700083782L131.12998401988636,125.04728378355503L131.18318714488635,156.59758639809056L131.23639026988636,153.8273521785935L131.34279651988635,148.3023275708159L131.44678444602272,155.91412961265692L131.57979225852273,146.03687882671753L131.63420454545454,136.91079465299845L131.82041548295456,87.37261262039343L132.03564630681817,157.3111462660478L132.14326171875,154.6862954632379L132.27626953125,155.3802117210192L132.32826349431818,152.56448614038527L132.35365589488637,153.7208686165201L132.75751598011362,71.29045927524565L132.83973899147728,157.26191683251332L132.9207528409091,153.86015042988583L132.94856356534092,154.27314830881855L133.05617897727274,123.32028179367383L133.11059126420457,91.34471060335635L133.24359907670456,152.66514177682498L133.45520241477274,113.40696815649667L133.48301313920456,150.1703037734454L133.58700106534093,156.75870318563344L133.6414133522727,126.84075091282526L133.69703480113637,86.34258611996968L133.81069602272726,155.4846631217127L134.07429332386366,128.43078943838674L134.12870561079546,-75.21286255121234L134.18069957386365,93.84552008410294L134.20730113636364,119.18203561504681L134.31612571022728,82.25760290026663L134.39351207386363,154.04971587409577L134.60511541193182,80.2977531303962L134.71393998579546,156.52586124387258L135.0899893465909,126.14891123274961L135.19760475852271,141.748648331811L135.25201704545455,155.0147425159812L135.38623401988636,87.43254993359247L135.41283558238635,156.96877314617936L135.4660387073864,65.42016321420668L135.52045099431817,130.6242800715069L135.54826171874998,156.86439870134927L135.60267400568182,155.75690520632392L135.65708629261363,141.35958512872458L135.68489701704547,150.45947099663317L135.87594460227274,156.94283152208664L135.95695845170454,156.13778012238132L136.0730379971591,93.55994417270024L136.60990589488637,138.93300311267376L136.8855948153409,153.5218667636315L137.05366832386366,154.34723771658415L137.14072798295456,135.57721690833569L137.22053267045456,143.34007337937751L137.3051740056818,156.72753471586233L137.33056640625,150.3315931893885L137.3559588068182,134.27184398844838L137.6219744318182,157.25982958000773L137.65824928977273,138.46899812047678L137.68485085227272,128.432183286796L137.73442649147728,154.1810105331242L138.05485440340908,133.70878784234324L138.08266512784093,87.2258793960015L138.13465909090908,155.80723004819205L138.3535174005682,153.6553263751169L138.6098597301136,142.43588611421484L139.07296875,83.0511990090211L139.4514364346591,157.32247925291085L139.5578426846591,157.21226713596843L139.5844442471591,150.89004469042024L139.63764737215908,151.537376464655L139.85166903409092,154.72409146698192L139.9036629971591,144.71334375068545L140.01127840909092,49.616647675633445L140.26641157670454,141.7894069502751L140.46955078125,136.80756378546357L140.49736150568182,134.88446692253152L140.76942294034092,156.85290420268817L140.97135298295456,156.17384778157188L141.12975319602273,117.65328612426916L141.15635475852272,157.08291863892615L141.21076704545456,42.819077933828055L141.26517933238637,87.15105482935905L141.39818714488638,154.46753384017697L142.08136363636362,155.95551143338284L142.10917436079546,106.10810019324222L142.38244495738635,149.79551744274795L142.43564808238636,152.4415577771142L142.54447265625,157.24901518487118L142.57107421875,149.42675112684566L142.87215553977273,117.64231849710146L142.95558771306818,154.63860217419764L143.12245205965908,156.96707688326327L143.26029651988637,157.26597796428055L143.31591796875,156.5971951795509L143.3703302556818,86.74484967192014L143.42716086647727,146.31289011736712L143.67141157670454,156.78740672103595L143.7790269886364,131.2288054972887L143.8878515625,118.4128840540846L143.9410546875,152.45085589991263L144.02448686079546,61.21906381348768L144.26873757102274,66.75229399402936L144.29654829545453,137.0245627214511L144.56981889204545,139.33335080991188L144.6254403409091,114.9671955431501L144.9591690340909,74.99838177363077L144.98697975852275,156.34175694718337L145.0075355113636,156.65093515607683L145.1175692471591,106.81854894012213L145.22276633522728,49.87754825750987L145.39083984375,150.41194278063873L145.85999467329546,154.51095240128538L145.9422176846591,156.90839584806236L146.02806818181818,113.5184613764286L146.05587890625,140.19399817039567L146.28078302556818,154.3135106146025L146.44764737215908,139.8150032783548L146.61330255681816,149.12727244757116L146.74751953125,156.36971393343993L147.26866832386364,143.59311089788872L147.37628373579545,143.7962629298369L147.4306960227273,155.7141180896821L147.56612215909092,150.71501689280072L147.70275745738635,98.27895441651344L148.02681285511366,149.64433800677457L148.18763139204543,157.2555667574828L148.55037997159093,100.009952959915L148.8369513494318,137.97602818906307L148.85992542613639,115.48747281481822L148.94093927556818,87.4539283812046L149.10659446022726,119.3074966246883L149.29280539772728,129.41670732200146L149.32545276988637,139.04873832066852L149.35326349431818,143.91271337804693L149.38107421875,157.31014939033898L149.40767578125,47.48941154778004L149.65313565340907,136.95467615127563L150.26255326704546,143.85775252493718L150.28915482954545,132.5583518880109L150.31575639204544,142.0171784479171L150.50075816761364,154.5214939522557L150.80909446022727,143.10277114560205L150.86229758522728,78.7142534206311L151.17909801136364,83.3457863976558L151.20690873579545,157.30312843597008L151.28550426136366,56.15599097311495L151.3435440340909,155.0170636124288L151.37135475852273,149.90291153949994L151.42455788352274,130.09453159073988L151.93361505681818,81.2198763489723L152.15126420454544,72.3731919278701L152.22985973011362,154.32275012616688L152.46927379261362,157.09146863854644L152.49345703125002,146.94309733745953L152.70626953124997,146.37716832508642L152.73287109375002,156.56065988971386L152.8936896306818,144.38819335090616L152.97228515625,118.3352498114109L153.13189453125,150.23887800145894L153.18388849431818,133.64089954892793L153.23588245738637,147.19145511525372L153.68085404829546,151.99781853488335L153.73284801136364,108.92867425084114L153.75944957386363,147.0967402768632L153.78484197443183,157.21379078479367L154.0677858664773,112.95374579976001L154.32291903409092,156.13614404473142L154.53089488636365,157.01609533567293L154.9734481534091,134.94994116574526L155.15119495738637,153.44621843441078L155.17658735795456,148.46605622147518L155.25034623579546,35.00536522765955L155.67597123579546,147.35114050656557L155.78116832386362,122.49828121562797L155.91417613636364,20.126632392406464L155.96737926136362,144.1893309286485L156.0193732244318,87.98710012435913L156.0725763494318,142.4000416814039L156.1245703125,152.1343483676513L156.23097656250002,154.40354502542564L156.25636896306816,152.29451089104018L156.33980113636366,156.58207010415694L156.4909463778409,122.3442472293973L156.5441495028409,106.92460963129997L156.62153586647727,91.90270420412222L156.8283025568182,151.9408676472182L156.88876065340907,152.32804933811227L156.9165713778409,152.46645060926676L156.93349964488638,156.99715017007352L157.1499396306818,156.96275527779167L157.56468217329544,143.64348175873357L157.61909446022727,154.99046212543422L157.67834339488635,126.17447305719057L157.7327556818182,123.41456895321608L158.04351029829544,146.15249864384532L158.15958984375,136.40725455184776L158.53080255681817,157.212990675626L158.64567294034092,157.09437876644856L159.19705078125,157.15198608276356L159.63355823863637,153.07192800970128L159.66741477272728,122.51075075566769L159.86934481534092,120.13634372750917L159.90199218749999,144.96388021794456L159.96970525568182,135.64653018737832L160.07127485795453,155.9287913502194L160.23693004261364,153.9688424449414L160.36751953125,91.92378226915994L160.43523259943183,145.66582484108704L160.96968217329544,157.05977140844334L161.33726740056818,98.21700234214464L161.5730539772727,149.7538897295793L161.60570134943183,111.56421264261007L161.83060546874998,156.36892909238426L161.93217507102273,155.58898367740525L162.7278036221591,155.9683388224803L162.82574573863639,154.45763724173108L163.05427734375,149.11190897785127L163.15342862215908,140.31202287971973L163.18728515625003,151.74026291444898L163.2525799005682,156.66666448810915L163.28401811079547,140.62488598376513L163.51496803977273,153.30334210395813L163.93333806818183,157.32316073818524L164.09415660511362,154.0778295767183L164.38798295454546,140.16763410468894L164.4496502130682,157.03656422164445L164.51615411931817,149.33126335280636L164.74226740056818,101.5595643868049L165.1691015625,135.76585350185633L165.23197798295453,135.550825368613L165.42544389204545,135.01273943980533L165.68783203125,155.2587140671288L165.8800887784091,124.48607755452394L165.91273615056818,157.03632227859148L166.07113636363638,119.75074408203363L166.2343732244318,58.78250689804554L166.4604865056818,134.2176139441629L166.7132013494318,157.27754767306033L166.8377450284091,150.82034677515426L166.96470703125001,156.7843695830476L167.37098544034092,155.3491251009206L167.43507102272727,156.47532073097923L167.49915660511363,154.2118162314097L167.59468039772727,135.72074299926558L167.75187144886362,156.7544719009893L168.28269353693182,139.3407889418304L168.44109375,141.4008968907098L169.01665482954544,105.21220183869202L169.1472443181818,153.83682407454276L169.24397727272728,144.91458450692394L169.40842329545455,154.87436059722677L169.63695490056818,157.10840513877338L169.76512606534092,147.9954611286521L169.8316299715909,121.4158562719822L170.00695845170455,152.54165156992772L170.02630504261364,152.48182048959038L170.16898615056817,150.8202043681716L170.37212535511364,55.37739201386769L170.55108132102274,157.2528329569565L170.63814098011363,156.49679321985846L170.81709694602273,32.22223275899887L171.14357066761363,156.73989161243662L171.20402876420457,137.55447055151063L171.49785511363638,132.94225547090173L171.58733309659092,156.61350902127256L171.64658203125,108.20431998868783L171.7940997869318,114.52631085117658L172.25720880681817,74.03087148070335L172.31645774147728,123.03102070093155L172.49420454545452,153.33234230149537L172.6090749289773,139.87733815734583L172.6707421875,81.79492581884067L173.08185724431817,135.13575159882504L173.4433966619318,110.74350517491499L173.5945419034091,145.25634386514622L173.95970880681816,112.64790139098962L173.99114701704548,145.98228795702258L174.17614879261365,87.21494840085506L174.20637784090908,137.00688960279027L174.62474786931818,156.91278078686446L174.74203657670455,99.45473606636126L174.80249467329546,20.756922950347274L174.8629527698864,157.17919015219863L174.9524307528409,95.4525448779265L175.04069957386363,156.89979802648304L175.31397017045455,138.5359449709455L175.48929865056817,156.8855347193894L175.5509659090909,156.94541722765038L175.88832208806818,102.68402823805809L175.91855113636365,74.34271987775962L176.10113458806816,155.3391018930512L176.31152876420455,156.51869052570933L177.03702592329546,156.85231700283475L177.22202769886363,157.3065048923648L177.26676669034092,126.34660692512989L177.90762251420455,151.39655381689468L177.99951882102275,156.09504383266903L178.12527166193183,140.8216292435924L178.1567098721591,152.82067172322422L178.18089311079544,154.72349230448404L178.3646857244318,132.7564248902102L178.45779119318183,66.2824077308178L178.51945845170454,149.10362739364305L178.79756569602273,153.37229089438915L179.01158735795454,124.00908101598421L179.15789595170455,154.58065581135452L179.40335582386365,101.84422816087802L179.52427201704543,155.19050570142767L179.64881569602272,26.27824772397676L180.04783913352273,142.55365348358947L180.10829723011364,152.67619869454452L180.19414772727274,149.00213196811578L180.55931463068183,137.57424085338909L180.68143998579546,153.03847335837781L180.83258522727272,152.98958472069353L180.89183416193183,156.07214962070188L181.19412464488636,146.7759518350164L181.24974609375,157.0492258508457L181.30899502840907,156.9146706557367L181.68988103693184,137.12921674301225L182.1675,156.7785539062461L182.31139026988635,157.27848925194607L182.5205752840909,154.61555811436847L183.24486328125,139.38536095370847L183.27267400568184,155.4285900288572L183.30290305397727,126.32647030303875L183.50725142045454,146.48738400327662L183.79503196022725,141.514969004939L184.02840021306818,155.88641130691394L184.20131036931818,151.3619383883973L184.23033025568182,152.25075302583477L184.3476189630682,145.1107718758285L184.67046519886364,134.5647371460994L184.84579367897726,154.47002390182266L185.02354048295453,150.70341598956534L185.1142276278409,149.02999428349236L185.56524502840907,135.44155388077098L185.6849520596591,128.23741998771825L186.0126349431818,133.06865975509086L186.16136186079547,129.40238420168558L186.30887961647727,137.18786094586054L186.4249591619318,104.52209119002023L186.45518821022725,157.25158731798487L186.78287109375,154.5398564397668L186.81189098011362,157.28951204536375L187.13957386363634,143.57845351037878L187.20003196022728,155.0429171193391L187.23026100852272,132.05116690074402L187.4358185369318,110.23353981723388L187.4962766335227,140.0353632022937L187.52650568181818,157.06025489388654L187.55552556818182,156.67004362035854L187.5857546164773,153.5208717463538L187.76229225852273,138.993350704511L188.4128213778409,129.19609646871686L188.90736860795457,62.702345639467225L189.05488636363634,141.47199048598605L189.0851154119318,138.82330486178398L189.1431551846591,88.7877442340056L189.3777325994318,146.53787849719325L189.73201704545454,144.1413264963776L191.0802325994318,156.86900254509723L191.4889293323864,146.82772936547795L191.51674005681818,127.12213062619169L191.83958629261363,156.57825144488984L191.86860617897727,156.49849059890644L191.92906427556818,105.12240942815939L191.9858948863636,136.24863789975643L192.07658203124998,151.95184260079017L192.10318359374997,94.80886165301004L192.1612233664773,151.85754994644472L192.82988991477274,151.6345621328801L192.9749893465909,156.37774928178018L193.06446732954547,151.46704298382005L193.15152698863636,145.27432286118466L193.2990447443182,155.34664786048234L193.61947265625,156.68193071126007L193.88548828125,139.9513110294938L193.9737571022727,137.85102874288955L194.00156782670456,125.4620864763856L194.26758345170455,156.80827604079L194.43928444602273,69.3118685632944L194.92294921875,156.94683245427828L195.10069602272728,143.12938797225553L195.22040305397726,154.17959287390113L195.31350852272726,153.13828187932572L195.4948828125,154.39774045270556L195.55534090909092,142.14922955818474L195.8346573153409,120.24351803213358L195.94831853693182,156.01185766374692L196.1381569602273,91.47607303162415L196.29534801136364,156.8113634333325L196.47672230113636,157.30919769293055L196.74515625,154.98539523004243L196.95675958806817,157.13629208059865L197.07646661931818,155.12202076396593L197.3449005681818,156.0775088854134L197.79833629261364,133.7172846396764L198.00631214488638,127.62286471451321L198.09337180397728,149.49932190837959L198.15382990056818,154.77659820361683L198.18405894886365,78.43853884935379L198.30134765625,61.747788429260254L198.33157670454545,138.77281311526895L198.71609019886364,155.56076316954568L198.89625532670456,145.73625264937678L198.926484375,140.79144812126953L198.97606001420453,157.32288272922597L199.14897017045456,139.4712886859973L199.22877485795453,147.26479791663587L199.40410333806818,153.4003148485596L199.51776455965907,153.0476203740885L199.72090376420454,96.95393757522106L200.00505681818183,150.86685753675798L200.18038529829545,157.2512758384837L200.2976740056818,108.93733406066893L200.37385120738637,151.72713811912885L200.59512784090907,157.11226754182522L200.64228515624998,156.7264585357625L201.02317116477275,90.38375744223595L201.13925071022726,70.87902306516965L201.16947975852273,157.0847414540282L201.67974609375,156.04546033133133L201.70634765625,154.14028122027716L201.78373401988637,140.71875370666385L201.99896484375,99.29582269489765L202.0388671875,157.10062034773486L202.26618963068182,148.61114649971327L202.31697443181818,134.98150881007314L202.34599431818182,155.9183592374126L202.6386115056818,135.84503544742861L202.66884055397728,153.74041340251765L202.9578302556818,142.29156236102182L203.04972656249998,153.75607313370952L203.3350887784091,152.86873247722784L203.42698508522727,156.39964458431737L203.48381569602273,111.16661234696706L203.54427379261364,156.7064065107455L203.84414595170455,157.17933463404188L204.34473899147727,156.95642463490367L204.4934659090909,155.73394723174474L204.77520063920454,156.32404857020205L204.95536576704546,109.70897659907737L205.16334161931817,81.0659339427948L205.34108842329547,157.3167155925063L205.40033735795456,155.86554822605103L205.51762606534092,157.32073472444486L205.72681107954546,157.00495639656825L205.75704012784092,157.1306665468825L205.7848508522727,156.74066620797385L206.09197798295455,127.15358471125364L206.72678799715908,155.56195153521062L206.87309659090909,157.0978436405227L207.02666015625,85.40212491154671L207.2044069602273,150.24162494515377L207.4994424715909,148.15514102516076L207.64937855113638,153.9128188053146L207.82833451704545,152.24507048353553L207.9492507102273,151.10051808971912L207.9782705965909,156.72695799047747L208.2188938210227,153.6973103346924L208.31199928977273,125.05393249541521L208.33981001420455,139.6603630321721L208.4026864346591,151.68035490686694L208.49216441761362,153.6048270732475L208.5211843039773,156.78402100647023L208.55383167613635,118.69618145376444L208.70014026988636,135.37391834830242L208.7618075284091,139.13010536630946L208.85007634943182,154.87031161412597L208.88030539772728,143.623997186621L208.91053444602272,156.1839657747963L208.9371360085227,145.36422883098322L208.99880326704545,107.0519755060474L209.08949041193182,149.76155772743124L209.11851029829546,113.38813197116056L209.30472123579545,110.7622717594107L209.48367720170452,157.09163657346895L209.54292613636363,155.22220316048092L209.63240411931818,144.0587478466332L209.97943359375,156.66064166867486L210.21522017045453,156.308099217092L210.26963245738636,123.16468728333712L210.44858842329546,157.31292131285105L210.65414595170455,136.36122824872533L210.79924538352273,154.4377011799564L211.01084872159092,139.65567047024766L211.40745383522727,102.79277771959701L211.5876189630682,117.6125623062253L211.64203125,137.5859337945779L212.12569602272728,140.80313007285196L212.21396484374998,157.08456106994223L212.27684126420456,154.516797498179L212.3070703125,139.2965759237607L212.865703125,146.58680330899855L213.13171875,94.62748918930689L213.48116654829545,157.08377265154073L213.56097123579545,72.14485721290112L213.65044921875,154.08748257222274L214.02770774147726,79.3764504690965L214.2610759943182,112.59175915519396L214.4944442471591,147.9986041560769L214.52346413352274,157.30177081534202L214.61052379261363,144.6037709644685L214.66856356534092,145.66775718020895L214.6806551846591,157.04009666462662L215.0736328125,157.3022237609839L215.30821022727272,152.38044503393272L215.74229936079544,155.25350453580418L215.94906605113638,131.3804565705359L216.12197620738635,148.85203592417142L216.20903586647725,156.22495506051928L216.4158025568182,147.85118591288725L216.7966885653409,133.49523048475385L216.85110085227274,155.58700074030398L216.87770241477273,157.1051803761511L216.9079314630682,147.1068617043396L217.07842329545454,147.6646858820071L217.22110440340907,156.3143864166923L217.58989879261364,87.18452184398969L218.05542613636365,155.59494004406346L218.2537286931818,154.05702464918917L218.398828125,151.94015790180615L218.42301136363636,140.2868200490872L218.59108487215912,157.3089986601408L218.8389630681818,157.33101093026016L218.95867009943183,155.43814846795672L219.00099076704544,134.83559797455865L219.1787375710227,155.78806863919212L219.25370561079544,78.47528809309004L219.3951775568182,156.18841793908118L219.91269886363636,155.8670485362721L220.0541708096591,153.32357809040695L220.21861683238637,157.1688089092495L220.40482776988634,157.17250216108127L220.5196981534091,153.68529663436735L220.60554865056818,156.82513363907734L221.01424538352273,155.3099927152507L221.24035866477274,156.89697421278106L221.34918323863636,66.35161294539769L221.37699396306817,129.818135663867L221.88605113636365,156.24260871841884L221.9573916903409,49.83778786162536L221.9827840909091,152.15900904436907L222.03598721590907,154.9240047703497L222.0940269886364,149.45283678919077L222.12425603693183,148.48828727938235L222.2367080965909,156.16205513260016L222.26572798295453,149.6759615149349L222.58011008522726,156.12290511777005L222.7276278409091,148.54083408229053L222.83887073863636,146.94315686449409L223.45675248579545,156.93981086850786L223.78080788352273,156.76385107213477L223.98273792613637,155.6389668112L224.12904651988634,157.2466295173314L224.1725763494318,157.12013817485422L224.20038707386365,85.96540084977944L224.62843039772727,156.76859812419085L224.676796875,127.0960651114583L225.3998757102273,157.32440496589393L225.54497514204544,157.3324990453093L226.08184303977274,155.38599408557639L226.13141867897727,148.77234937250614L226.23056995738636,117.08292188992101L226.2801455965909,156.07322110732397L226.76864701704545,154.68632476885492L227.1096306818182,152.93147030845284L227.30672407670454,141.09308717399836L227.50623579545456,156.50285885296762L227.95241654829545,156.80271684537487L228.2002947443182,157.3294890343344L228.29944602272727,153.984183019648L228.39738813920454,112.02102493743101L228.84115056818183,156.92522230913164L229.08056463068183,147.92540238797665L229.3115145596591,149.4915147088468L229.98139026988636,153.37885947370282L230.0297567471591,132.01612654079992L230.12648970170454,116.45591722428799L230.36953125,150.819862316673L230.79757457386364,157.29804617945533L231.0756818181818,127.02094932024677L231.68993607954545,154.8819351834245L232.11314275568182,157.21267827316964L232.20866654829547,107.39941191176572L232.3960866477273,157.322546298632L232.4432439630682,157.1190631967426L232.6355007102273,154.14611738811558L232.92328125,146.7807726090153L233.21106178977274,157.21907500394445L233.45289417613637,157.1492085456072L233.59436612215907,157.07812256292286L233.68988991477272,157.29681211677476L234.21103870738636,157.21774027475234L234.40208629261366,153.34396197864166L234.82771129261363,119.53395211696625L235.01634055397724,147.47780854130784L235.20496981534092,147.6877768766135L235.44196555397727,156.6588750894492L235.48912286931818,153.30142579134554L235.67775213068182,153.08600157437226L236.01148082386365,149.97316122458628L236.2484765625,157.2448391344466L236.34400035511365,157.33024389097167L236.4419424715909,156.8320909757167L236.4890997869318,156.6113181974506L236.9195614346591,155.36457190848887L236.96913707386364,156.00075266649947L237.01629438920455,155.50397323382398L237.3040749289773,107.61428435891867L237.87600852272726,157.2936480008963L238.11905007102274,126.3283751681447L238.5023544034091,157.0120122390023L238.60029651988637,156.59324069561748L239.07670632102273,157.06467746636676L239.17102095170455,79.47887360056241L239.89530894886363,127.71814643343289L240.43338600852275,134.2708457658688L240.5325372869318,152.96036198362708L240.72600319602273,157.0529278027825L240.8251544744318,81.59428491195042L241.31365589488635,157.2753471510538L241.45875532670456,154.55831119418144L241.85052379261361,156.56237306632102L242.48291548295452,156.79041089020515L242.58085759943182,157.2357141194128L243.11530717329543,157.1990952627772L243.45387251420453,156.8452236125789L243.59897194602271,157.09611044508833L243.78518288352274,141.86630488932133L244.02096946022726,127.0018255735437L244.4429669744318,156.3581667190107L244.95686079545456,157.3200752022852L245.26882457386364,153.7862805852977L245.5916708096591,157.314070928706L245.8189932528409,156.96970205410616" style="fill: none;" fill="none"></path></g></g></g></g></g></g><g transform="translate(63, 177)" clip-path="url(#clip_1)"><clipPath id="clip_1"><rect width="266" height="22"></rect></clipPath><g><g><line x1="0" y1="0" x2="0" y2="5" style="visibility: inherit;" fill="rgb(0, 0, 0)" stroke="rgb(204, 204, 204)" stroke-width="1px"></line><line x1="24.183238636363637" y1="0" x2="24.183238636363637" y2="5" style="visibility: inherit;" fill="rgb(0, 0, 0)" stroke="rgb(204, 204, 204)" stroke-width="1px"></line><line x1="48.36647727272727" y1="0" x2="48.36647727272727" y2="5" style="visibility: inherit;" fill="rgb(0, 0, 0)" stroke="rgb(204, 204, 204)" stroke-width="1px"></line><line x1="72.5497159090909" y1="0" x2="72.5497159090909" y2="5" style="visibility: inherit;" fill="rgb(0, 0, 0)" stroke="rgb(204, 204, 204)" stroke-width="1px"></line><line x1="96.73295454545455" y1="0" x2="96.73295454545455" y2="5" style="visibility: inherit;" fill="rgb(0, 0, 0)" stroke="rgb(204, 204, 204)" stroke-width="1px"></line><line x1="120.91619318181817" y1="0" x2="120.91619318181817" y2="5" style="visibility: inherit;" fill="rgb(0, 0, 0)" stroke="rgb(204, 204, 204)" stroke-width="1px"></line><line x1="145.0994318181818" y1="0" x2="145.0994318181818" y2="5" style="visibility: inherit;" fill="rgb(0, 0, 0)" stroke="rgb(204, 204, 204)" stroke-width="1px"></line><line x1="169.28267045454544" y1="0" x2="169.28267045454544" y2="5" style="visibility: inherit;" fill="rgb(0, 0, 0)" stroke="rgb(204, 204, 204)" stroke-width="1px"></line><line x1="193.4659090909091" y1="0" x2="193.4659090909091" y2="5" style="visibility: inherit;" fill="rgb(0, 0, 0)" stroke="rgb(204, 204, 204)" stroke-width="1px"></line><line x1="217.64914772727275" y1="0" x2="217.64914772727275" y2="5" style="visibility: inherit;" fill="rgb(0, 0, 0)" stroke="rgb(204, 204, 204)" stroke-width="1px"></line><line x1="241.83238636363635" y1="0" x2="241.83238636363635" y2="5" style="visibility: inherit;" fill="rgb(0, 0, 0)" stroke="rgb(204, 204, 204)" stroke-width="1px"></line><line x1="266.015625" y1="0" x2="266.015625" y2="5" style="visibility: inherit;" fill="rgb(0, 0, 0)" stroke="rgb(204, 204, 204)" stroke-width="1px"></line></g><g transform="translate(0, 8)"><text x="0" y="0" dx="0em" dy="0.95em" style="text-anchor: middle; visibility: hidden; font-family: &quot;Helvetica Neue&quot;, sans-serif; font-size: 13.3333px; font-weight: 200;" fill="rgb(50, 49, 63)" stroke="none" stroke-width="1px">-20k</text><text x="24.183238636363637" y="0" dx="0em" dy="0.95em" style="text-anchor: middle; visibility: inherit; font-family: &quot;Helvetica Neue&quot;, sans-serif; font-size: 13.3333px; font-weight: 200;" fill="rgb(50, 49, 63)" stroke="none" stroke-width="1px">0</text><text x="48.36647727272727" y="0" dx="0em" dy="0.95em" style="text-anchor: middle; visibility: hidden; font-family: &quot;Helvetica Neue&quot;, sans-serif; font-size: 13.3333px; font-weight: 200;" fill="rgb(50, 49, 63)" stroke="none" stroke-width="1px">20k</text><text x="72.5497159090909" y="0" dx="0em" dy="0.95em" style="text-anchor: middle; visibility: inherit; font-family: &quot;Helvetica Neue&quot;, sans-serif; font-size: 13.3333px; font-weight: 200;" fill="rgb(50, 49, 63)" stroke="none" stroke-width="1px">40k</text><text x="96.73295454545455" y="0" dx="0em" dy="0.95em" style="text-anchor: middle; visibility: hidden; font-family: &quot;Helvetica Neue&quot;, sans-serif; font-size: 13.3333px; font-weight: 200;" fill="rgb(50, 49, 63)" stroke="none" stroke-width="1px">60k</text><text x="120.91619318181817" y="0" dx="0em" dy="0.95em" style="text-anchor: middle; visibility: inherit; font-family: &quot;Helvetica Neue&quot;, sans-serif; font-size: 13.3333px; font-weight: 200;" fill="rgb(50, 49, 63)" stroke="none" stroke-width="1px">80k</text><text x="145.0994318181818" y="0" dx="0em" dy="0.95em" style="text-anchor: middle; visibility: hidden; font-family: &quot;Helvetica Neue&quot;, sans-serif; font-size: 13.3333px; font-weight: 200;" fill="rgb(50, 49, 63)" stroke="none" stroke-width="1px">100k</text><text x="169.28267045454544" y="0" dx="0em" dy="0.95em" style="text-anchor: middle; visibility: inherit; font-family: &quot;Helvetica Neue&quot;, sans-serif; font-size: 13.3333px; font-weight: 200;" fill="rgb(50, 49, 63)" stroke="none" stroke-width="1px">120k</text><text x="193.4659090909091" y="0" dx="0em" dy="0.95em" style="text-anchor: middle; visibility: hidden; font-family: &quot;Helvetica Neue&quot;, sans-serif; font-size: 13.3333px; font-weight: 200;" fill="rgb(50, 49, 63)" stroke="none" stroke-width="1px">140k</text><text x="217.64914772727275" y="0" dx="0em" dy="0.95em" style="text-anchor: middle; visibility: inherit; font-family: &quot;Helvetica Neue&quot;, sans-serif; font-size: 13.3333px; font-weight: 200;" fill="rgb(50, 49, 63)" stroke="none" stroke-width="1px">160k</text><text x="241.83238636363635" y="0" dx="0em" dy="0.95em" style="text-anchor: middle; visibility: hidden; font-family: &quot;Helvetica Neue&quot;, sans-serif; font-size: 13.3333px; font-weight: 200;" fill="rgb(50, 49, 63)" stroke="none" stroke-width="1px">180k</text><text x="266.015625" y="0" dx="0em" dy="0.95em" style="text-anchor: middle; visibility: hidden; font-family: &quot;Helvetica Neue&quot;, sans-serif; font-size: 13.3333px; font-weight: 200;" fill="rgb(50, 49, 63)" stroke="none" stroke-width="1px">200k</text></g><line x1="0" y1="0" x2="266.015625" y2="0" fill="rgb(0, 0, 0)" stroke="rgb(204, 204, 204)" stroke-width="1px"></line></g></g></g></g></svg>