<svg viewBox="0 0 330.0000305175781 200.00001525878906" xmlns="http://www.w3.org/2000/svg"><g><g><g><g><g><line x1="53.1875" y1="177" x2="48.1875" y2="177" style="visibility: inherit;" fill="rgb(0, 0, 0)" stroke="rgb(204, 204, 204)" stroke-width="1px"></line><line x1="53.1875" y1="157.33333333333334" x2="48.1875" y2="157.33333333333334" style="visibility: inherit;" fill="rgb(0, 0, 0)" stroke="rgb(204, 204, 204)" stroke-width="1px"></line><line x1="53.1875" y1="137.66666666666666" x2="48.1875" y2="137.66666666666666" style="visibility: inherit;" fill="rgb(0, 0, 0)" stroke="rgb(204, 204, 204)" stroke-width="1px"></line><line x1="53.1875" y1="118" x2="48.1875" y2="118" style="visibility: inherit;" fill="rgb(0, 0, 0)" stroke="rgb(204, 204, 204)" stroke-width="1px"></line><line x1="53.1875" y1="98.33333333333333" x2="48.1875" y2="98.33333333333333" style="visibility: inherit;" fill="rgb(0, 0, 0)" stroke="rgb(204, 204, 204)" stroke-width="1px"></line><line x1="53.1875" y1="78.66666666666666" x2="48.1875" y2="78.66666666666666" style="visibility: inherit;" fill="rgb(0, 0, 0)" stroke="rgb(204, 204, 204)" stroke-width="1px"></line><line x1="53.1875" y1="59" x2="48.1875" y2="59" style="visibility: inherit;" fill="rgb(0, 0, 0)" stroke="rgb(204, 204, 204)" stroke-width="1px"></line><line x1="53.1875" y1="39.33333333333334" x2="48.1875" y2="39.33333333333334" style="visibility: inherit;" fill="rgb(0, 0, 0)" stroke="rgb(204, 204, 204)" stroke-width="1px"></line><line x1="53.1875" y1="19.666666666666686" x2="48.1875" y2="19.666666666666686" style="visibility: inherit;" fill="rgb(0, 0, 0)" stroke="rgb(204, 204, 204)" stroke-width="1px"></line><line x1="53.1875" y1="0" x2="48.1875" y2="0" style="visibility: inherit;" fill="rgb(0, 0, 0)" stroke="rgb(204, 204, 204)" stroke-width="1px"></line></g><g transform="translate(43.1875, 0)"><text x="0" y="177" dx="0em" dy="0.3em" style="text-anchor: end; visibility: hidden; font-family: &quot;Helvetica Neue&quot;, sans-serif; font-size: 13.3333px; font-weight: 200;" fill="rgb(50, 49, 63)" stroke="none" stroke-width="1px">-0.1</text><text x="0" y="157.33333333333334" dx="0em" dy="0.3em" style="text-anchor: end; visibility: inherit; font-family: &quot;Helvetica Neue&quot;, sans-serif; font-size: 13.3333px; font-weight: 200;" fill="rgb(50, 49, 63)" stroke="none" stroke-width="1px">0</text><text x="0" y="137.66666666666666" dx="0em" dy="0.3em" style="text-anchor: end; visibility: hidden; font-family: &quot;Helvetica Neue&quot;, sans-serif; font-size: 13.3333px; font-weight: 200;" fill="rgb(50, 49, 63)" stroke="none" stroke-width="1px">0.1</text><text x="0" y="118" dx="0em" dy="0.3em" style="text-anchor: end; visibility: inherit; font-family: &quot;Helvetica Neue&quot;, sans-serif; font-size: 13.3333px; font-weight: 200;" fill="rgb(50, 49, 63)" stroke="none" stroke-width="1px">0.2</text><text x="0" y="98.33333333333333" dx="0em" dy="0.3em" style="text-anchor: end; visibility: hidden; font-family: &quot;Helvetica Neue&quot;, sans-serif; font-size: 13.3333px; font-weight: 200;" fill="rgb(50, 49, 63)" stroke="none" stroke-width="1px">0.3</text><text x="0" y="78.66666666666666" dx="0em" dy="0.3em" style="text-anchor: end; visibility: inherit; font-family: &quot;Helvetica Neue&quot;, sans-serif; font-size: 13.3333px; font-weight: 200;" fill="rgb(50, 49, 63)" stroke="none" stroke-width="1px">0.4</text><text x="0" y="59" dx="0em" dy="0.3em" style="text-anchor: end; visibility: hidden; font-family: &quot;Helvetica Neue&quot;, sans-serif; font-size: 13.3333px; font-weight: 200;" fill="rgb(50, 49, 63)" stroke="none" stroke-width="1px">0.5</text><text x="0" y="39.33333333333334" dx="0em" dy="0.3em" style="text-anchor: end; visibility: inherit; font-family: &quot;Helvetica Neue&quot;, sans-serif; font-size: 13.3333px; font-weight: 200;" fill="rgb(50, 49, 63)" stroke="none" stroke-width="1px">0.6</text><text x="0" y="19.666666666666686" dx="0em" dy="0.3em" style="text-anchor: end; visibility: hidden; font-family: &quot;Helvetica Neue&quot;, sans-serif; font-size: 13.3333px; font-weight: 200;" fill="rgb(50, 49, 63)" stroke="none" stroke-width="1px">0.7</text><text x="0" y="0" dx="0em" dy="0.3em" style="text-anchor: end; visibility: hidden; font-family: &quot;Helvetica Neue&quot;, sans-serif; font-size: 13.3333px; font-weight: 200;" fill="rgb(50, 49, 63)" stroke="none" stroke-width="1px">0.8</text></g><line x1="53.1875" y1="0" x2="53.1875" y2="177" fill="rgb(0, 0, 0)" stroke="rgb(204, 204, 204)" stroke-width="1px"></line></g></g><g transform="translate(53, 0)" clip-path="url(#clip_0)"><clipPath id="clip_0"><rect width="276" height="176"></rect></clipPath><g><g><g><line x1="0" y1="0" x2="0" y2="177" fill="rgb(0, 0, 0)" stroke="rgb(60, 60, 60)" stroke-width="1px" opacity="0.25"></line><line x1="25.164772727272727" y1="0" x2="25.164772727272727" y2="177" fill="rgb(0, 0, 0)" stroke="rgb(60, 60, 60)" stroke-width="1px" opacity="0.25"></line><line x1="50.32954545454545" y1="0" x2="50.32954545454545" y2="177" fill="rgb(0, 0, 0)" stroke="rgb(60, 60, 60)" stroke-width="1px" opacity="0.25"></line><line x1="75.49431818181817" y1="0" x2="75.49431818181817" y2="177" fill="rgb(0, 0, 0)" stroke="rgb(60, 60, 60)" stroke-width="1px" opacity="0.25"></line><line x1="100.6590909090909" y1="0" x2="100.6590909090909" y2="177" fill="rgb(0, 0, 0)" stroke="rgb(60, 60, 60)" stroke-width="1px" opacity="0.25"></line><line x1="125.82386363636363" y1="0" x2="125.82386363636363" y2="177" fill="rgb(0, 0, 0)" stroke="rgb(60, 60, 60)" stroke-width="1px" opacity="0.25"></line><line x1="150.98863636363635" y1="0" x2="150.98863636363635" y2="177" fill="rgb(0, 0, 0)" stroke="rgb(60, 60, 60)" stroke-width="1px" opacity="0.25"></line><line x1="176.1534090909091" y1="0" x2="176.1534090909091" y2="177" fill="rgb(0, 0, 0)" stroke="rgb(60, 60, 60)" stroke-width="1px" opacity="0.25"></line><line x1="201.3181818181818" y1="0" x2="201.3181818181818" y2="177" fill="rgb(0, 0, 0)" stroke="rgb(60, 60, 60)" stroke-width="1px" opacity="0.25"></line><line x1="226.48295454545456" y1="0" x2="226.48295454545456" y2="177" fill="rgb(0, 0, 0)" stroke="rgb(60, 60, 60)" stroke-width="1px" opacity="0.25"></line><line x1="251.64772727272725" y1="0" x2="251.64772727272725" y2="177" fill="rgb(0, 0, 0)" stroke="rgb(60, 60, 60)" stroke-width="1px" opacity="0.25"></line><line x1="276.8125" y1="0" x2="276.8125" y2="177" fill="rgb(0, 0, 0)" stroke="rgb(60, 60, 60)" stroke-width="1px" opacity="0.25"></line></g><g><line x1="0" y1="177" x2="276.8125" y2="177" fill="rgb(0, 0, 0)" stroke="rgb(60, 60, 60)" stroke-width="1px" opacity="0.25"></line><line x1="0" y1="157.33333333333334" x2="276.8125" y2="157.33333333333334" fill="rgb(0, 0, 0)" stroke="rgb(60, 60, 60)" stroke-width="1px" opacity="0.25"></line><line x1="0" y1="137.66666666666666" x2="276.8125" y2="137.66666666666666" fill="rgb(0, 0, 0)" stroke="rgb(60, 60, 60)" stroke-width="1px" opacity="0.25"></line><line x1="0" y1="118" x2="276.8125" y2="118" fill="rgb(0, 0, 0)" stroke="rgb(60, 60, 60)" stroke-width="1px" opacity="0.25"></line><line x1="0" y1="98.33333333333333" x2="276.8125" y2="98.33333333333333" fill="rgb(0, 0, 0)" stroke="rgb(60, 60, 60)" stroke-width="1px" opacity="0.25"></line><line x1="0" y1="78.66666666666666" x2="276.8125" y2="78.66666666666666" fill="rgb(0, 0, 0)" stroke="rgb(60, 60, 60)" stroke-width="1px" opacity="0.25"></line><line x1="0" y1="59" x2="276.8125" y2="59" fill="rgb(0, 0, 0)" stroke="rgb(60, 60, 60)" stroke-width="1px" opacity="0.25"></line><line x1="0" y1="39.33333333333334" x2="276.8125" y2="39.33333333333334" fill="rgb(0, 0, 0)" stroke="rgb(60, 60, 60)" stroke-width="1px" opacity="0.25"></line><line x1="0" y1="19.666666666666686" x2="276.8125" y2="19.666666666666686" fill="rgb(0, 0, 0)" stroke="rgb(60, 60, 60)" stroke-width="1px" opacity="0.25"></line><line x1="0" y1="0" x2="276.8125" y2="0" fill="rgb(0, 0, 0)" stroke="rgb(60, 60, 60)" stroke-width="1px" opacity="0.25"></line></g></g></g><g><g><line x1="0" y1="157.33333333333334" x2="276.8125" y2="157.33333333333334" fill="rgb(0, 0, 0)" stroke="rgb(153, 153, 153)" stroke-width="1.5px"></line></g></g><g><g><line x1="25.164772727272727" y1="0" x2="25.164772727272727" y2="177" fill="rgb(0, 0, 0)" stroke="rgb(153, 153, 153)" stroke-width="1.5px"></line></g></g><g><g><g><g><g><path stroke="rgb(255, 112, 67)" stroke-width="2px" d="M41.56465511363636,-2.3556241713772863L42.02642869318182,0.08607010173079743L42.29191704545455,3.989169021059922L42.422773863636365,7.708626159389382L43.65710596590909,11.279795759381386L43.98676448863637,15.604583319351661L44.053451136363634,14.686777399260052L44.38562613636363,18.550173646924094L44.71402642045455,20.90643355079618L44.84488323863636,24.138746762020787L45.373343465909095,24.784651311962932L45.44003011363636,27.029138206738622L46.163517329545456,28.916907255381915L46.756147727272726,30.18180377140851L47.28334971590909,32.50868710036292L48.33523721590909,33.68570071757759L48.58814318181818,36.81460633428924L49.23865255681818,38.46448721582581L52.11498607954545,36.30947475459942L52.181672727272726,38.79262442935885L52.7051,40.89959749984027L53.291439204545455,43.555277520709666L53.42355426136364,45.991254189848206L53.48646619318182,44.895182580394646L53.682751420454544,43.85088884184012L54.07406363636363,43.11787853174215L54.66669403409091,42.45055204278009L54.861721022727274,44.948419062830965L54.92714943181818,45.087522675435224L55.581433522727274,46.41898678081333L56.68490880681818,48.51761372372215L56.815765625,50.96814611545342L58.052614204545456,53.149040607532115L58.183471022727275,54.781734993898326L58.37598153409091,57.31613472537494L58.89815056818182,55.484270881687735L59.28317159090909,57.73691648419366L59.41151193181818,60.17638472428078L59.60905539772727,60.1451922985339L60.002884090909085,58.09969422674732L60.331284375,59.51385022728529L60.97801903409091,59.66673079392848L61.365556534090906,61.082483916297264L61.72541278409091,62.47724020636409L61.927989204545455,64.08445707732915L62.23248295454545,65.92515899053184L62.334400284090904,67.00058751936261L62.487905397727275,65.64224296637556L62.59485568181818,66.85147648725103L62.64644346590909,68.1276575655927L62.91444829545454,69.83434175996773L62.966036079545454,71.19473601194908L63.439133806818184,70.07403663010864L63.86441846590909,70.06772734102034L64.12864857954546,71.21010483482135L64.39916988636364,72.74040145632023L64.5073784090909,73.54441542039574L65.15411306818181,74.77709339865534L65.57688125,73.70315667182753L65.63727670454546,74.84419336575134L65.75932585227272,75.90821329062744L65.94302869318182,77.41055362387193L66.06633607954545,78.7709865712075L66.781015625,80.21902069158509L66.95716903409091,81.20414124206982L67.18994318181818,82.27543619253359L67.34973948863637,81.59161405990517L67.51834346590908,82.7470242941607L67.74482642045454,83.64868304340851L67.80018892045454,84.88511858546494L68.02918835227273,85.66132974708573L68.3210997159091,86.9647413381454L69.36543778409091,88.20011426747075L69.82721136363637,88.54281736094178L70.06124375,89.89864764515796L70.29024318181818,91.10819942148679L70.3418309659091,89.6035820669795L70.70168721590909,90.43511513415413L71.16346079545455,89.80393988512319L71.36981193181819,90.92898336078068L71.57490482954545,90.60787981190424L71.77622301136364,91.28098159010692L71.82655255681819,90.55012479723106L72.03164545454544,90.67568763750435L72.48964431818182,91.52710518667493L72.69347897727272,91.65582919670705L72.74506676136365,92.169440514046L72.79665454545456,93.40509454645216L72.89857187499999,94.41887239784546L72.9501596590909,95.51137565647068L73.25716988636364,96.02169271343809L73.45974630681819,96.56257293876432L73.5113340909091,96.69110648118378L73.61199318181818,97.6871586055322L73.86364090909092,98.65785504017101L73.91522869318183,99.87899925707742L73.96555823863636,100.31590389238836L74.16813465909091,100.12989920389843L74.37071107954546,101.22326587980284L74.62235880681818,101.4482005570504L74.67268835227273,101.17652797007354L74.72301789772726,102.1111367108031L75.88940511363636,102.90387476401368L76.08820681818182,103.81327421655656L76.19138238636364,104.19095813536494L76.44932130681818,105.05328912713938L77.74404886363637,105.59612999388945L77.85477386363637,105.12052284577344L78.130328125,104.89664462744035L78.2372784090909,104.36109727305254L78.45621193181819,104.68814310965732L78.56819517045454,105.55057026480988L79.00480397727272,106.53531014443801L79.33320426136363,107.13876353241855L79.54962130681818,107.75876723921071L79.91576875,108.21263062922904L80.01516960227274,108.73952382831558L80.3410534090909,109.52119582134604L80.4517784090909,110.26031059138228L80.61786590909091,110.11466325470379L80.78269517045455,110.72249507819139L81.22433693181817,110.87126336903218L81.27969943181819,110.9411056256103L81.44578693181818,111.52013511860842L81.83080795454546,112.26337389040842L81.97802187500001,112.52568505753709L82.37059232954546,113.33215978937758L82.54674573863636,113.9189083937644L82.68641022727273,114.38737095469709L82.73925625,115.07305484457868L83.24003522727273,115.346020259435L83.29539772727273,115.70310958960285L83.52691363636363,116.3346059447033L83.64015511363637,115.11940733340357L83.6980340909091,115.27875545928731L83.92703352272727,115.8986300651481L83.98491250000001,116.24123447318934L84.15603295454545,116.83998090733346L84.2126536931818,114.07342817854239L84.66939431818183,114.92648834935159L84.89587727272726,115.06487846464316L85.01163522727272,114.78269372986495L85.12487670454544,115.44870576722859L85.18149744318181,115.51932677685095L85.68605113636364,116.16448397397569L85.853396875,116.0582428014761L86.30007159090908,116.40198301293577L86.41331306818182,116.60730488266832L86.97952045454547,117.19048256386996L87.37209090909091,116.11278659642994L88.09935284090909,116.58481557460235L88.43907727272727,117.28831171935406L88.60642301136365,117.75896544430921L88.71966448863635,118.40718702087719L88.94614744318181,118.97021340613651L89.17011392045454,119.29518427061076L89.28083892045456,119.75891914867644L89.5589096590909,120.4374488137459L89.61427215909092,120.82358872676524L90.11127642045454,121.5398589313563L90.44848437499999,121.81090783049683L90.67622556818182,120.9217417676715L90.73284630681819,120.83733144025183L91.30031193181819,121.21408103545991L91.583415625,121.82918081261337L92.36226534090909,122.22178259619643L92.47299034090908,122.2527799776064L93.61043806818182,120.86106847030734L93.66831704545454,120.85266911603884L93.89857471590909,121.17249788328714L93.95519545454546,120.23341583025856L94.01181619318183,120.35002818644242L95.03098948863637,119.56473988592217L95.7255372159091,119.81680178831209L95.78215795454545,120.20624034214221L96.12943181818183,120.11202968174183L96.2439315340909,118.81285276747226L96.52955170454545,119.17415030659303L98.02811392045454,119.40389542817971L98.14261363636363,119.69150824081183L98.71385397727273,119.39168439595892L99.33542386363636,119.84044843695207L99.50276960227272,119.36720859717144L99.67514829545455,119.95736403705787L100.80504659090909,120.2190644622101L101.14099630681818,120.56227821223203L101.53859971590909,119.5946115469177L101.87832414772727,119.84092516761423L102.44704801136363,119.92155056403233L102.72637698863636,120.53269345018018L102.78299772727273,121.02188916732696L102.95411818181817,121.34357160011929L103.41463352272727,121.56120624744923L103.58827045454547,121.46755406917461L103.76190738636363,121.5004736459568L103.93428607954546,122.14190635971349L103.9921650568182,121.84762287076013L105.02517897727273,122.18647712737607L105.88329772727273,122.47596396771827L106.74267471590909,123.14956748474071L106.91379517045455,123.65624730958179L106.97293238636364,123.70339215544591L107.08869034090908,123.44074986575947L107.1440528409091,123.54049935702022L108.39096732954545,123.63912002850714L108.67155454545455,124.24590460911327L108.842675,124.66598088476641L109.07041619318181,125.1630883451725L109.18365767045454,125.66171606831684L109.40888238636364,125.24106254472719L109.63536534090909,125.28387865764257L109.86184829545454,125.45538684908121L111.2823997159091,125.40331666111194L111.34027869318182,125.31682441752093L111.97065625,125.36427633905348L112.427396875,125.84643977192559L112.482759375,126.24866428746436L112.65639630681818,126.65654011578798L112.77341249999999,126.97947774453317L112.83129147727273,127.2278597564724L113.34716931818181,127.78357566375868L113.74854744318182,127.98700853470079L114.57772670454546,128.26064688229832L114.63308920454546,128.8270943442234L114.79540198863636,129.32198880316275L116.08383835227272,129.77886057912966L116.13290965909091,129.95702348561196L116.23608522727272,130.21268729609827L116.59342500000001,130.19110665550215L116.95705596590909,130.61091822145625L117.00864375,130.4132596746786L117.47670852272728,130.87853022044172L117.68054318181818,130.67852248816544L117.78497698863637,130.38647253679514L117.99510284090908,130.74884253033304L118.44051931818183,130.95571509314823L118.80792500000001,131.1686881804588L118.85951278409091,131.3605931182604L119.11745170454546,131.63452748164306L119.54021988636363,132.038324901997L120.0082846590909,131.84358539559483L120.05987244318182,132.22726920016476L120.26748181818182,132.4126465174142L120.48767357954546,131.86558244998508L120.621046875,132.00131568776422L120.71289829545455,132.37418247668887L120.85256278409092,132.81767429335517L120.99096903409091,132.63524553835066L121.17341363636363,132.35176180898347L121.53704460227273,132.6544206758113L121.90570852272728,132.9752490470861L122.088153125,133.28742719202847L122.22530113636363,133.60946226546343L122.54489375,133.51618989979255L122.94753011363636,133.39370446061463L123.13123295454545,133.5285104798454L123.17652954545456,133.58666554912207L123.22182613636365,133.49243216193622L123.31241931818182,133.6570446857824L123.44705085227272,134.07485342701148L123.75531931818182,134.05465601094778L124.14285681818181,134.36787706782306L124.60588863636364,133.9268148445052L124.773234375,133.25045604221168L124.84872869318183,133.24995374618672L124.9770690340909,133.62060491427044L125.20103551136364,133.9727385794356L125.33315056818182,134.2938089719299L125.37844715909091,134.70516002637623L125.41745255681818,134.80779051497137L125.61751249999999,133.6013937439374L126.29444488636364,133.9670225213781L126.72602073863636,134.27032651088626L127.01289914772727,134.39101733497267L127.37149715909091,134.70286550069872L127.41805198863636,135.01110630192102L127.85088607954546,133.9016149951959L128.18306107954547,133.9606576951664L128.73039488636363,134.23592771501933L129.06634460227272,134.2319056824329L129.1670036931818,132.90444006089933L129.368321875,133.0680506990064L129.85400198863636,133.44641719234966L129.90558977272727,133.19472540194909L130.06161136363636,133.66322273431177L130.29564375,133.7265323353753L130.38875340909092,133.98163396145128L130.73351079545455,134.31054337642308L130.81403806818182,134.41437015248263L130.97509261363635,134.77523576420552L131.001515625,134.87216936590016L131.02793863636364,135.2233603055838L131.9389034090909,135.5067583637204L132.09618323863637,134.80614922403188L132.28869375,134.71838212058015L132.45352301136364,135.0767610198264L132.56424801136365,134.79700496694943L132.61961051136365,135.09195305708928L132.67623125,134.7283131531994L132.84106051136365,135.05744711541195L132.92284602272727,135.14248280632324L132.97569204545454,135.5303759414653L133.05747755681818,135.51321950114215L133.13800482954545,135.4159786373775L133.21979034090907,135.75851891073165L133.46640511363637,135.22056165114628L133.52176761363637,135.2394089521859L133.84765142045455,135.31704647044066L133.87533267045455,135.6393905643434L133.90301392045455,135.47335168022633L134.2855184659091,135.59360160668402L134.3949852272727,135.9605788815254L134.50319375,135.6787988243484L134.61140227272728,135.1700841989367L134.71961079545454,135.48540595272038L134.77245681818184,135.69580214133538L134.82656107954546,135.70674780592327L135.04423636363634,135.46118789140684L135.098340625,135.63227757418957L135.181384375,135.93369557242045L135.26316988636364,135.60925671208875L135.34243892045455,136.0106569893691L135.47707045454544,135.79524137349475L135.98665710227274,136.19579140281652L136.3125409090909,136.3040019914085L136.34022215909093,136.54105899426537L136.42452414772728,136.1815837422748L136.45220539772728,136.43923222611073L136.50756789772726,136.84020771394444L136.56293039772729,137.04197942269994L136.67365539772726,136.92755699624826L136.78186392045455,137.24101559260046L136.92027017045453,137.3143117599039L136.9768909090909,137.43666771255624L137.17065965909092,137.3889181093952L137.39462613636363,137.7637352328527L137.506609375,137.64045317755202L137.645015625,137.9295934653345L137.69911988636363,138.23630309458147L137.72554289772728,138.46794505789538L138.14579460227273,137.69985148345793L138.23135482954547,138.08696498708161L138.31565681818182,138.2177897573407L138.34459630681818,138.38858167861815L138.45657954545453,138.00882297200985L138.5132002840909,137.01050616019072L138.65160653409092,137.24613077767197L138.87179829545457,137.38380131955887L138.90073778409092,137.52611273171678L139.0089463068182,137.4569417125029L139.06556704545454,137.60967759945072L139.12344602272728,137.23745309038242L139.24172045454546,137.58523951754682L139.51601647727273,137.73384858433337L139.57263721590908,137.20714703536774L139.62674147727273,137.13263860372444L139.65442272727273,136.95871546609757L139.76766420454547,136.85463120640821L139.84819147727274,137.16439388525512L140.06838323863636,136.66074666324607L140.1816247159091,137.05317004998312L140.57293693181816,136.4502774105348L140.68492017045455,136.5719414943354L140.74154090909093,136.9098175420015L140.88120539772726,137.02303960451846L140.90888664772726,137.30524590748632L140.9642491477273,136.65128297942994L141.02086988636364,136.7343003675106L141.049809375,136.95487820608068L141.10643011363638,137.17102420744888L141.1630508522727,136.88432622180628L141.1919903409091,137.057727364549L141.39079204545456,137.3933203385576L141.47509403409092,137.7150582143999L141.59588494318183,137.29292279943542L142.15454289772728,137.35728263114999L142.44142130681817,137.542787854712L142.61631647727273,137.79410804297777L142.7069096590909,137.67727240686781L142.7899534090909,137.93103173768114L142.87803011363636,138.2111081472684L142.904453125,138.41918467706932L142.93087613636365,138.50726160779988L143.20768863636363,138.8229205487719L143.24543579545454,138.5690085583126L143.27311704545454,138.32126675926185L143.32470482954545,138.43424409672582L143.6581380681818,138.41750976343187L143.6870775568182,137.88687284056581L143.74118181818181,138.18213363972876L143.96892301136364,138.47733859608246L144.2356696022727,138.75012491682767L144.717575,138.02015645359972L145.1114036931818,138.3958328077438L145.22212869318182,138.67503913159425L145.24980994318182,138.64386148555732L145.30517244318182,138.55127418996605L145.52788068181817,138.51380590025457L145.58198494318182,138.35527717994904L145.69396818181818,137.99421234218627L145.9594565340909,138.2153622845264L146.170840625,138.1265112608378L146.19978011363636,138.1433932864361L146.4828838068182,138.18001545521827L146.6930096590909,138.51552921489122L146.85783892045453,138.12958870715445L146.88552017045453,138.44585487553132L146.9421409090909,138.26920727204504L146.99876164772726,137.7440931676368L147.13716789772727,137.89778104207818L147.84807272727272,137.9207127882599L147.8770122159091,137.54640736813818L148.16137414772726,137.806527354799L148.2167366477273,138.02893332306917L148.32997812500003,138.32068299775318L148.357659375,138.4262280122213L148.67096079545456,138.2895806056174L148.75777926136365,138.50634682957013L148.9314161931818,138.76479169298563L149.07485539772728,139.08825491779794L149.13273437499998,139.3582189144669L149.18935511363637,139.34732444319337L149.24849232954546,139.3102243851123L149.5026565340909,139.59905025520555L149.6146397727273,139.60759954675174L149.72788125000002,139.109920148553L149.78324375,139.11944112767168L149.8700622159091,138.84797808403778L150.12422642045456,138.62010535729692L150.1531659090909,138.24578291413297L150.4375278409091,138.28346097328492L150.49540681818183,138.42471420657463L150.84268068181817,137.84135787709508L150.87162017045455,138.11277401883984L150.89301022727273,138.40791020007L151.00750994318184,138.35626101939735L151.11697670454546,138.04799340458283L151.291871875,138.22716941292148L151.7800684659091,138.49579402599124L151.86562869318183,138.8363693573714L151.95496363636363,138.53561108257435L151.983903125,138.0341559160557L152.21793551136363,138.16012416201477L152.39157244318181,138.25566424329782L152.5639511363636,138.51429807088164L152.703615625,138.570524441283L153.24591647727274,138.85449955455786L153.35789971590907,138.8295602852117L153.41452045454545,138.1331634342691L153.5554431818182,138.23687412691982L153.69762414772725,137.95727147176208L154.03483210227273,138.12034798981833L154.2021778409091,138.36766484501135L154.57964943181818,138.3105103797954L154.87785198863637,138.54477045891807L154.90175852272728,138.2184897066151L154.98606051136363,137.90986458502866L155.15843920454546,137.98899028588397L155.35220795454546,138.1068362412523L155.38618039772726,138.27437745353154L155.41511988636364,138.0694787893995L155.444059375,138.34960228746644L155.471740625,137.9840767950949L155.7271630681818,138.0454044539375L156.36131534090907,138.11449983265894L156.38899659090907,138.05791529156082L156.41667784090907,138.28060584682527L156.60918835227272,138.2478649590336L156.93003920454544,138.15679456624628L156.98540170454547,137.76822127326625L157.3150602272727,137.35941508787536L157.3439997159091,137.72135848321278L157.42578522727274,136.95999254668095L157.48618068181818,137.29355302938475L157.51512017045454,137.40033627271524L157.57048267045457,137.49653706333262L158.10020113636364,137.22714488454756L158.32668409090908,136.65756798256587L158.40846960227273,136.83242677837063L158.65760085227274,137.09386150106354L158.682765625,137.4071849967026L158.90421562499998,137.64803178331908L158.931896875,137.90730434059304L159.09924261363636,138.1986118659823L159.18102812499998,137.82132479758315L159.347115625,138.0441622140757L159.40121988636363,138.17904438439137L159.45532414772728,138.4773779795122L159.9183559659091,138.71271657908505L159.97246022727273,138.7561364658346L160.00014147727273,138.96631163184645L160.02656448863638,139.25036527809274L160.32099232954548,139.37318092107807L160.5864806818182,139.6186120666015L160.80289772727272,139.83230756078115L161.26341306818182,139.87333961702356L161.44837414772726,140.05977348595698L161.4747971590909,140.16199639799606L161.5515497159091,139.9854398629044L161.99444971590907,140.22104961546722L162.10391647727272,140.1495909899725L162.24232272727272,139.56353638261544L162.29768522727272,139.50660281049673L162.35178948863637,138.54130304449427L162.40715198863634,138.45146479651692L162.46125625,138.71840566315308L162.57198125000002,138.90709123005547L162.5984042613636,139.16680222694515L162.68522272727273,139.4374310758801L162.84250255681818,139.2751191571497L162.89786505681818,138.86244343456337L162.97839232954544,137.91227266014818L163.19355113636365,138.08474774837367L163.2564630681818,138.13005648935956L163.28540255681818,138.38072986851236L163.30301789772727,138.68376076756618L163.52824261363637,138.95291330791312L163.95981846590908,139.1162205677491L164.01643920454546,139.2420310127682L164.07809289772726,139.17333055403992L164.13471363636364,138.96661725733836L164.4580809659091,138.99574760400188L164.578871875,138.94532423549157L164.96515113636363,138.91006367613062L165.08468380681816,139.1150460048048L165.658440625,139.37229780638947L166.11266477272727,139.49879892244581L166.14789545454548,139.56237788958012L166.3580213068182,138.68862338690283L166.39199374999998,138.7142627419064L166.46245511363637,138.4712684590009L166.5681471590909,138.72473942666772L166.74052585227273,138.9706077406888L166.876415625,138.03592698091367L166.94687698863638,137.7805219379003L167.5030184659091,137.96461204215427L167.88552301136363,138.13758504729745L168.13087954545452,138.32117007186008L168.16485198863637,137.66848127871864L168.398884375,137.91695754811226L168.50457642045455,137.92426524621985L169.3324974431818,138.1061141737886L169.43441477272728,138.39913609365703L169.672221875,138.46114970234692L169.77539744318182,138.6197887215855L169.81062812500002,138.82809395206286L169.87857301136364,139.16676617638493L169.9112872159091,138.96160328764375L170.15161079545456,139.250184745826L170.58696136363636,139.60580393067636L170.75430710227272,139.73814841269703L171.0600590909091,139.90234498467657L171.12422926136364,140.21840262569418L171.19343238636364,140.3817272096611L171.42872301136364,140.37459858271296L171.87288125,140.271338830496L171.9383096590909,140.258427672338L172.1396278409091,140.1665613177796L172.41266562500002,140.4280541103057L172.61272556818182,140.43666133729783L172.6466980113636,140.6014933993694L172.8115272727273,140.2728061277387L172.98138948863635,140.21174838508853L173.21668011363636,140.23871974060629L173.47965198863636,140.4392848096044L173.60925056818184,140.5971782603349L173.74136562500001,140.56790809966694L174.1641338068182,140.69870247359748L174.23082045454544,140.93383882252914L174.29750710227273,140.75776363204008L174.39690795454544,140.6831186908962L174.56047897727274,140.98295060358691L175.11284573863637,141.08429576671958L175.277675,140.73175428833466L175.8765965909091,140.61032704398428L176.01248636363636,140.80925623670402L176.11314545454545,141.01427687949388L176.28426590909092,141.1859461253594L176.52207301136363,140.97295200691616L176.6554463068182,140.91166089358796L176.7246494318182,140.2596207137484L176.9070940340909,140.3403275025483L176.92722585227273,140.52779699550246L177.0756980113636,140.76044048540945L177.28708210227273,140.3894921394546L177.47330142045456,140.71244171777096L177.56389460227274,140.89645508395597L177.75011392045454,140.3271577952936L178.08983835227272,140.58539779818904L178.15275028409093,140.65265217038973L178.4585022727273,140.57683695511236L178.5516119318182,140.8463096087251L178.613265625,140.68266959740333L178.76677073863635,140.58109603677264L179.24867613636363,140.37843662952008L179.31032982954545,140.38090818648192L179.4952909090909,140.47515866443575L179.61482357954546,140.38883456769196L179.67899375,140.31457607027033L180.10679488636364,140.39791638086027L180.48300823863636,139.80927104212583L180.64028806818183,140.04984175381134L181.02027613636363,139.92820927845324L181.0529903409091,140.0072290651829L181.24550085227273,140.07753518070695L181.27695681818182,140.15669347590224L181.71230738636365,140.46511844482367L181.83435653409092,140.2349790129829L181.8972684659091,139.7421288016938L181.9601803977273,140.05163897895048L182.05329005681818,139.79730945242397L182.14514147727272,139.93977753470998L182.4295034090909,139.65496588552486L182.61194801136364,139.94541645633123L182.67611818181817,140.15412306485493L183.02716676136365,139.84241133587466L183.05862272727273,139.6346245558968L183.24861676136362,139.76841397723257L183.46755028409092,139.84339396790045L184.22249346590908,140.08452047759158L184.4150039772727,140.29964423809233L184.4615588068182,140.0343040223753L185.12842528409092,140.2120396844953L185.22405142045454,140.49824101128172L185.35490823863637,140.39761119494204L185.38762244318184,140.66238083439004L185.41278721590908,140.87264015491675L185.60403948863635,140.47970910619122L185.70092386363638,140.07224647417627L185.7650940340909,140.11036260210463L186.05448892045456,140.19587834969383L186.27719715909092,139.91152606454105L186.4294440340909,140.09088896965264L186.68486647727275,139.6734353749567L186.81069034090908,139.94655531307134L186.94028892045455,139.68313842437456L187.35550767045453,139.85417626671793L187.41841960227273,139.99169150038634L187.50775454545456,140.1320901852468L187.88774261363636,139.9384260275479L188.0148247159091,139.87647613967061L188.17210454545454,139.56448975902117L188.23375823863637,139.7451793729396L188.54831789772726,139.87051506753946L188.606196875,140.09105950630476L188.6678505681818,140.36280664525515L189.06419573863636,139.67228943945761L189.56119999999999,139.91346348363848L189.71093039772725,140.1899605813505L189.92860568181817,140.20165148249208L190.68229062499998,140.06135749065146L190.71123011363636,140.26628230110515L190.74268607954548,140.44307022893994L190.9553284090909,140.63831593988624L191.25478920454543,140.75157846875098L191.49762926136364,140.94279756401505L191.67755738636365,141.01998987185652L191.70775511363635,140.67869578338468L191.82980426136362,140.81258177542688L192.16575397727271,140.6738504895966L192.34819857954545,140.8441359494028L192.5331596590909,140.91265471688914L192.6275275568182,140.9329524463227L193.0968505681818,140.86533535780333L193.22141619318182,140.837440220724L193.56239886363636,141.01102687645147L193.7171622159091,140.69194395483635L193.87066732954546,140.8301272816516L193.99145823863634,140.7791755327585L194.02291420454543,141.07435023601596L194.36389687500002,141.19069610725245L194.39409460227273,141.4580860769915L194.73507727272727,141.49853556736218L194.79798920454544,141.64960559821623L194.82944517045453,141.653346616345L195.04334573863636,141.6234873157071L195.10625767045454,141.50142633508915L195.13771363636363,141.77815390282095L195.16791136363636,142.01779840698313L195.19936732954545,142.09227853307837L195.38307017045454,141.28664515016968L196.06000255681818,141.2707378287453L196.57462215909092,141.30576170675414L196.72812727272725,141.40382775548855L196.75958323863634,141.02140909943728L196.81997869318184,141.10463239067897L197.06407698863634,141.3104562963412L197.4327409090909,140.89513553338625L198.83567698863638,141.11630147787963L199.2609616477273,140.8619803848575L199.28990113636365,140.88903183503237L199.62585085227272,140.5563740782433L199.65604857954546,140.85077275707158L199.71896051136363,140.57303646159815L199.77809772727272,140.38691515254067L199.872465625,140.5404889020828L199.900146875,140.31696384145096L199.96054232954546,140.56190720746426L200.65634829545453,140.76361742165983L200.80733693181818,140.89292929082848L200.9004465909091,141.10653641212934L200.99103977272728,141.289613788248L201.14454488636366,141.53540219181525L201.477978125,141.71404516891113L201.754790625,141.690932396733L201.84664204545453,141.542021345112L201.8755815340909,141.16392187515225L202.15239403409092,141.32241059473967L202.33106392045454,141.01270812120833L202.834359375,141.24213923145044L203.01932045454546,141.20162092186465L203.14388607954544,141.3567574199466L203.24077045454544,141.45894681689222L203.42950625,141.68648914789225L203.49241818181818,141.87815122484923L203.7830713068182,141.82362202426768L203.90134573863637,141.88849912229827L204.09888920454546,141.74618342895045L204.26246022727275,142.0205082561691L204.45119602272726,142.1875805379707L204.730525,142.32043527517564L204.95071676136362,142.593346387183L205.07528238636365,142.83888127640566L205.35461136363637,143.03816210339727L205.82645085227273,143.17385268575856L206.0428678977273,142.75470232963306L206.13346107954547,142.63169108636785L206.19637301136365,142.8373611188061L206.22782897727274,142.54914052553556L206.34987812499998,142.29884451240724L206.38133409090906,142.24236360161046L206.78145397727275,142.37663851502543L206.9689315340909,141.99676887523918L207.00038750000002,142.03758944278934L207.0519752840909,142.18623979662135L207.2319034090909,142.3042455725874L207.3149471590909,142.2480318416475L207.49739176136362,142.38696588121067L207.6156661931818,142.42979883497014L207.82705028409092,141.87558162280732L208.12273636363636,141.95544336747815L208.30518096590907,142.19688080006424L208.42723011363637,141.96554038407982L208.50649914772728,142.12588241106636L208.73675681818182,142.28179823366625L208.785828125,142.51772695754346L209.18217329545456,142.38145601127923L209.30296420454545,141.95903832719063L209.33442017045454,142.22316164118445L209.865396875,142.44196421071467L209.893078125,142.54342493779583L209.97360539772728,142.0833719894555L210.197571875,141.58154684375668L210.23909375,141.72264289535963L210.47564261363638,141.78734900178392L210.52848863636362,141.84266519095235L210.55868636363635,141.99283267568558L210.86318011363636,141.8493886825545L210.89463607954545,142.05858665205898L211.19535511363637,141.88939604124465L211.29098125,142.16241394890778L211.58792556818182,142.384939734434L211.68355170454547,142.543743764428L211.74268892045455,142.56876208978514L211.80560085227273,142.70193659750416L212.1176440340909,142.84073484820175L212.63855482954546,143.08407571922248L212.79331818181817,143.3091658991463L213.0864877840909,143.5293171813694L213.2739653409091,142.84880009668353L213.49038238636365,142.37512294698567L213.6753434659091,142.65586606233794L213.73699715909092,142.87393410498282L213.8590463068182,143.13012281259677L214.0767215909091,143.25451213996774L214.1081775568182,143.49347385909184L214.13711704545454,143.7248077233802L214.4567096590909,143.62077287910824L215.1172849431818,143.83613888384426L215.26953181818183,144.01304524635933L215.429328125,143.7908427191532L215.61428920454546,143.93881925425262L215.92129943181817,144.12128108058369L216.0773210227273,144.03859270181235L216.2635403409091,143.46129530525724L216.38936420454547,143.66814525039882L216.41956193181818,143.81738559626464L216.66995142045454,143.90348113938305L216.76683579545454,143.63747273535137L216.7957752840909,143.01548742547072L216.86120369318184,143.123362723845L216.95431335227272,143.18365730536905L216.98451107954546,143.35575553034022L217.01848352272728,143.25695275137872L217.17073039772728,143.05928803240096L217.2349005681818,142.96301617785224L217.32675198863637,143.1754919956466L217.35820795454546,143.34522692006766L217.38966392045455,143.53255418113176L217.41734517045455,143.47352734588722L217.48151534090908,143.5000757481314L217.57588323863635,143.57157471065773L217.60608096590911,143.63076500871432L217.7998497159091,143.52983075101923L217.9860690340909,143.75324158908484L218.04772272727274,143.93753093556143L218.14083238636363,144.02248910399626L218.501946875,143.96813049386395L218.7473034090909,144.15239763410014L218.8039241477273,144.10527713754672L218.9901434659091,144.32114569733795L219.2040440340909,144.30463965726062L219.35503267045453,144.48426452882856L219.57522443181819,144.54754565465043L219.98792670454543,144.06802308214714L220.17540426136364,143.73143316473576L220.232025,143.78099795914025L220.73532045454544,143.56395459700985L220.82717187499998,143.7667752795853L220.89260028409092,143.82291964853954L220.92405625,143.3201710996118L221.50536250000002,143.36310761228788L221.782175,143.09758448618572L222.1458059659091,143.36614326763066L222.2288497159091,142.7733444464236L222.321959375,142.99403005825337L222.71452982954546,142.7642555015016L222.95736988636364,142.6705862751038L223.20020994318182,142.8228482042223L223.23040767045455,143.05786233994604L223.32100085227273,143.11165007879345L223.38139630681817,143.01128290848607L223.39397869318182,143.2867525882783L223.80290625,143.49086793630994L224.04700454545454,143.38237346364346L224.49871221590908,143.59291950547458L224.7138710227273,143.66555867672156L224.89379914772726,143.36806043740094L224.98439232954544,143.2962299176932L225.19955113636365,143.4689522765015L225.5958963068182,143.25533397116928L225.65251704545454,143.4485522383576L225.68019829545455,143.68948827631132L225.71165426136366,143.64008597258123L225.88906590909093,143.67205297975607L226.03753806818182,143.87188220377277L226.42130085227274,143.59524797747736L226.90572272727275,143.76994181932525L227.11207386363637,143.59064571952993L227.2630625,143.50712043520485L227.28822727272728,143.60903938165745L227.46312244318185,143.64830894275843L227.72106136363635,143.754584068495L227.84562698863638,143.73275230021068L227.88966534090906,143.5311266235317L228.07462642045454,143.7111237839158L228.15263721590907,143.3140454541604L228.29985113636363,143.42923246110993L228.83837727272729,143.6231738567987L228.98559119318182,143.79735754198825L229.1567116477273,144.0216739277776L229.35048039772727,144.188846205419L229.47001306818183,144.1325568380128L229.55934801136362,144.35143751513837L229.98463267045454,144.53804275180647L230.21992329545455,144.70375810405454L230.3331647727273,144.4308994820313L230.36210426136364,144.44300229229634L230.89182272727274,144.64908178335432L230.96605880681818,144.2642545612336L230.9924818181818,144.25789785094483L231.0478443181818,144.4856943849558L231.10823977272727,144.0836110150549L231.13969573863636,144.2639689364874L231.25671193181816,144.1210967826697L231.2869096590909,144.2385594379972L231.61405170454546,144.37963932415232L231.76755681818182,144.32927469560195L231.88331477272726,144.25644736992325L232.5262747159091,144.48027068899387L232.86348267045454,144.59877174743175L233.07360852272728,144.71521792261404L233.22585539772726,144.93122696279343L233.27115198863635,145.08782490652732L233.30009147727273,145.0006809818532L233.74550795454547,145.07606099940384L233.7958375,144.82435989237894L234.54826420454546,145.05019491949503L234.69925284090908,145.2908874881066L235.25791079545453,145.45696793056607L235.30949857954545,145.48827112837745L235.41267414772727,145.1646137073318L235.46426193181816,145.28914997737522L235.97259034090908,145.31660054291112L236.32741363636364,145.2740244570618L236.5325065340909,145.16706925223497L236.74011590909092,145.36574671696846L237.2044059659091,145.57427824239807L237.46234488636364,145.80715972635147L237.56552045454544,145.92647196526414L237.6674377840909,145.90778471390684L238.1292113636364,146.09204498228738L238.3783426136364,145.74829916687466L238.6186661931818,145.8541396253932L239.31573039772726,146.0294622091242L239.36605994318182,145.76467277240292L239.4667190340909,145.76309753882947L239.719625,145.84474389982597L240.16504147727272,146.03292562668102L240.45443636363638,145.96007876133666L241.0936215909091,146.06503500359165L241.53400511363637,146.2155418456194L241.6334059659091,146.05624956923958L241.82843295454546,146.26796663204544L241.87750426136364,146.4448986323166L242.07756420454547,146.50288097010542L242.377025,146.1651991212339L242.67648579545457,146.3384454866325L242.92813352272728,146.52683434679813L243.0753474431818,146.6968934539223L243.17474829545452,146.87097627567545L243.71704914772727,147.0169249330919L243.91585085227274,147.1011074655381L244.35875085227272,146.74422646781795L244.55503607954543,146.68021974387497L244.7513213068182,146.3118524185797L244.99793607954544,146.48004344173845L245.04700738636365,146.45306290405736L245.24329261363636,146.54455976640014L245.59056647727274,146.6859175141238L245.83718125,146.88938563257807L245.93658210227272,147.0952903652207L246.03849943181817,147.2692857524678L246.08757073863634,147.40345366920266L246.53550369318182,147.48001133219432L246.5870914772727,147.55339482249417L246.6361627840909,147.6582944227341L246.93562357954545,147.5342688402403L247.53077045454546,147.63330410150996L247.78367642045455,147.51043412655534L248.18253806818183,147.69611527824011L248.28445539772727,147.83608644724654L248.78020142045455,148.0119665400866L248.8783440340909,147.52801774577983L249.6320289772727,147.32424070729095L250.19194517045457,147.10377908114276L250.29512073863634,147.09524017238985L250.49643892045455,147.26942403687764L250.59961448863635,146.71554523562594L251.10794289772727,146.91860516015748L251.25893153409092,146.8853633849209L251.66660085227272,147.0270412928836L252.32465965909088,147.1165238986691L252.42657698863636,147.24188244615732L252.98271846590907,147.37584345756932L253.3350252840909,147.50768686158793L253.48601392045452,147.64741058271764L253.67978267045456,147.6399737000245L253.92513920454545,147.64666855433666L254.36426448863637,147.7924218807754L254.8990159090909,147.89897308308605L255.22364147727274,147.871500327912L255.5595911931818,148.04012596322744L255.79614005681816,148.16021810056986" style="fill: none;" fill="none"></path></g></g></g></g><g opacity="0.2"><g><g><g><path stroke="rgb(255, 112, 67)" stroke-width="2px" d="M25.473041193181817,-629.8774331410725L26.336192897727273,22.6576823393504L26.74386221590909,80.64586136738461L27.755486079545452,-334.8613033294678L27.86746931818182,1.5949617226918633L28.048655681818182,-59.99906833966574L28.53307755681818,34.929667353630066L28.696648579545453,-7.610589027404785L29.49940482954545,105.37058258056642L29.693173579545455,98.82216040293376L30.849494886363637,49.9449980656306L31.335175,41.614208261171996L31.516361363636364,58.60988362630209L31.574240340909093,-393.24465688069665L31.984426136363638,-68.87048816680908L32.79850653409091,141.742113545537L33.689339488636364,111.36565902829172L34.44176619318182,-49.63339026769006L34.78526534090909,-54.65513046582541L34.9891,98.38893546660742L35.60563693181818,48.81785714626312L35.672323579545456,-42.10644181569418L36.35051420454545,24.45974334081015L36.69527159090909,32.711384534835815L36.83116136363636,77.8394382596016L36.90036448863636,-1.791689157485962L37.16962755681818,136.71876153846583L37.70437897727273,-138.07335829734802L38.18502613636363,-176.3448764483134L38.24290511363636,47.99599870045981L38.53355823863636,-36.3624353806178L39.17651818181818,122.96157518029213L39.52379204545454,48.94038979212442L39.82702755681818,137.70017441610494L40.83110198863636,18.256928165753692L41.231221875,40.16598327954611L41.56465511363636,-9.006638288497925L42.02642869318182,63.07227337360382L42.29191704545455,106.48526275157928L42.422773863636365,107.07384848594666L43.65710596590909,108.27519122759502L43.98676448863637,134.95776356756687L44.053451136363634,-11.035208264986693L44.38562613636363,128.44450666507083L44.71402642045455,88.89892095327377L44.84488323863636,118.71294939517975L45.373343465909095,43.93817885716757L45.44003011363636,94.45516043901445L46.163517329545456,86.34267989794414L46.756147727272726,69.1298850774765L47.28334971590909,105.00433270136516L48.33523721590909,70.77642703056335L48.58814318181818,136.5087999800841L49.23865255681818,91.59902328252792L52.11498607954545,-33.81672676404318L52.181672727272726,120.41413460175198L52.7051,110.83582812547684L53.291439204545455,132.54418079058328L53.42355426136364,128.37286029259363L53.48646619318182,7.4946513175964355L53.682751420454544,7.906406958897918L54.07406363636363,17.67399255434674L54.66669403409091,19.095947980880737L54.861721022727274,133.06648014982542L54.92714943181818,50.03290319442749L55.581433522727274,94.11301736036937L56.68490880681818,124.24515241384506L56.815765625,140.02696128189564L58.052614204545456,132.96059016386667L58.183471022727275,114.93651622533798L58.37598153409091,151.30940110981464L58.89815056818182,-12.890511711438478L59.28317159090909,142.34346627195677L59.41151193181818,152.35797037308416L59.60905539772727,58.959511359532684L60.002884090909085,-20.102940559387207L60.331284375,113.88384087880453L60.97801903409091,65.57679001490277L61.365556534090906,116.10552314917247L61.72541278409091,116.96696176131567L61.927989204545455,127.19376637538275L62.23248295454545,138.56088038782278L62.334400284090904,109.64311881860098L62.487905397727275,11.527655164400755L62.59485568181818,115.24724954366684L62.64644346590909,119.43195098638535L62.91444829545454,138.74580029646555L62.966036079545454,126.35851233204207L63.439133806818184,24.44044852256775L63.86441846590909,69.80977539221448L64.12864857954546,118.10102466742198L64.39916988636364,135.7975687732299L64.5073784090909,106.79982338349025L65.15411306818181,125.95109685262045L65.57688125,28.958436886469514L65.63727670454546,122.55198815464973L65.75932585227272,120.54885252316794L65.94302869318182,140.6524838159482L66.06633607954545,136.22709827125072L66.781015625,141.57081049184006L66.95716903409091,123.07338197032611L67.18994318181818,127.94646356503168L67.34973948863637,52.35207939147949L67.51834346590908,132.29540247718495L67.74482642045454,122.42552855610847L67.80018892045454,138.2076363414526L68.02918835227273,119.22740071018538L68.3210997159091,143.47885525723296L69.36543778409091,141.903550863266L69.82721136363637,103.4785064458847L70.06124375,149.13537197063366L70.29024318181818,144.0824073702097L70.3418309659091,23.549932877222716L70.70168721590909,127.02474622925124L71.16346079545455,61.96749264001848L71.36981193181819,140.65648256738982L71.57490482954545,76.38411545753479L71.77622301136364,121.1603552500407L71.82655255681819,58.03959631919861L72.03164545454544,96.27241347233455L72.48964431818182,129.55281286438304L72.69347897727272,97.41602414846422L72.74506676136365,115.19640429814658L72.79665454545456,148.90668778618178L72.89857187499999,140.0372929771741L72.9501596590909,144.7597510268291L73.25716988636364,119.06602933009466L73.45974630681819,121.02862064043683L73.5113340909091,102.5148439804713L73.61199318181818,142.89089812835059L73.86364090909092,142.7811017036438L73.91522869318183,155.47298492491245L73.96555823863636,120.23684147993725L74.16813465909091,91.63623555501303L74.37071107954546,151.22339754924178L74.62235880681818,111.74926955501239L74.67268835227273,88.71764812866847L74.72301789772726,145.03090271353722L75.88940511363636,139.35734405120212L76.08820681818182,145.68618143846592L76.19138238636364,121.6035763323307L76.44932130681818,144.8598722020785L77.74404886363637,130.68535187840462L77.85477386363637,83.11227484544118L78.130328125,94.5246968070666L78.2372784090909,79.52136381467183L78.45621193181819,119.87429290016493L78.56819517045454,145.6410397986571L79.00480397727272,152.36108372857174L79.33320426136363,135.25075966119766L79.54962130681818,136.67170697450638L79.91576875,129.39934813976288L80.01516960227274,133.35977223018804L80.3410534090909,146.08207761247954L80.4517784090909,144.86360280712447L80.61786590909091,103.28950279951096L80.78269517045455,139.2320259064436L81.22433693181817,117.85527655482292L81.27969943181819,114.222760339578L81.44578693181818,138.75011554857096L81.83080795454546,147.24494207898775L81.97802187500001,124.88186969359717L82.37059232954546,151.35176897297302L82.54674573863636,141.60176894565421L82.68641022727273,136.50653465588888L82.73925625,147.4731082866589L83.24003522727273,128.25377105673155L83.29539772727273,132.60107178489366L83.52691363636363,146.23908978203931L83.64015511363637,57.53374620278676L83.6980340909091,122.83505990107855L83.92703352272727,145.31273409972587L83.98491250000001,132.5090052584807L84.15603295454545,145.28822801013789L84.2126536931818,-17.456104119618743L84.66939431818183,155.5081795056661L84.89587727272726,121.65231157342595L85.01163522727272,101.34267204999924L85.12487670454544,147.18809650838375L85.18149744318181,118.88673170407614L85.68605113636364,146.94435876111189L85.853396875,110.9868282477061L86.30007159090908,132.81909385323524L86.41331306818182,126.41861522197723L86.97952045454547,145.07181262224913L87.37209090909091,64.56320836146674L88.09935284090909,139.17445795238018L88.43907727272727,150.97124579300484L88.60642301136365,140.30410596728325L88.71966448863635,149.4723777746161L88.94614744318181,145.96465293566385L89.17011392045454,134.8828481535117L89.28083892045456,142.01217213273048L89.5589096590909,153.011809459577L89.61427215909092,139.36878056824207L90.11127642045454,155.95419799226025L90.44848437499999,134.83905090888342L90.67622556818182,78.16677614053091L90.73284630681819,116.77697051564853L91.30031193181819,139.3434986124436L91.583415625,151.4389711332818L92.36226534090909,141.12768904864788L92.47299034090908,123.74599570035934L93.61043806818182,53.79606091976166L93.66831704545454,120.44777745008469L93.89857471590909,136.59495849410695L93.95519545454546,74.93531608581544L94.01181619318183,125.97678908705711L95.03098948863637,81.66138305266698L95.7255372159091,131.9867205520471L95.78215795454545,139.01450203359127L96.12943181818183,115.56072000662486L96.2439315340909,56.03178644180299L96.52955170454545,136.63827952245873L98.02811392045454,130.51218791802725L98.14261363636363,133.60146884123486L98.71385397727273,104.88733881711961L99.33542386363636,141.55555691818395L99.50276960227272,96.46196220318477L99.67514829545455,148.5285046597322L100.80504659090909,132.89181574185687L101.14099630681818,137.1862330188354L101.53859971590909,72.71364553769429L101.87832414772727,131.776909917593L102.44704801136363,123.82940827806792L102.72637698863636,150.1608568330606L102.78299772727273,144.74315086007118L102.95411818181817,136.94533791641396L103.41463352272727,132.11877459287643L103.58827045454547,116.92352204521498L103.76190738636363,123.09805729985237L103.93428607954546,153.27660036211213L103.9921650568182,107.56059720118841L105.02517897727273,138.64040704071522L105.88329772727273,136.53529518842697L106.74267471590909,155.86990120913833L106.91379517045455,148.27255819241205L106.97293238636364,125.99424937367439L107.08869034090908,110.67632058262826L107.1440528409091,128.38912784059843L108.39096732954545,128.43365186452866L108.67155454545455,153.74993919332823L108.842675,145.09475305924812L109.07041619318181,149.3416395559907L109.18365767045454,149.91781582683325L109.40888238636364,104.77509244283041L109.63536534090909,127.3672995865345L109.86184829545454,133.80209802587825L111.2823997159091,122.86889323592186L111.34027869318182,121.10640360911688L111.97065625,127.67452795306843L112.427396875,149.3241499637564L112.482759375,145.8364284063379L112.65639630681818,146.52197397251925L112.77341249999999,142.70993740856647L112.83129147727273,139.3281146287918L113.34716931818181,154.85915661416948L113.74854744318182,137.89979255696136L114.57772670454546,141.59586239854494L114.63308920454546,156.43479912169278L114.79540198863636,153.44490948071083L116.08383835227272,152.05076325312257L116.13290965909091,138.64312806725502L116.23608522727272,142.6785085995992L116.59342500000001,129.13875966270766L116.95705596590909,151.08437426636615L117.00864375,120.7728910346826L117.47670852272728,153.57320983832082L117.68054318181818,120.92177822192511L117.78497698863637,116.13846559325854L117.99510284090908,148.42904652406773L118.44051931818183,141.049992531538L118.80792500000001,141.5615132848422L118.85951278409091,140.72609073420364L119.11745170454546,145.0043708731731L119.54021988636363,151.74792157113552L120.0082846590909,122.33749448259672L120.05987244318182,150.95798573394617L120.26748181818182,141.46309037009874L120.48767357954546,105.15501046180725L120.621046875,138.62900715569654L120.71289829545455,150.58209796994925L120.85256278409092,154.4758552617083L120.99096903409091,123.72563122709593L121.17341363636363,118.5058231552442L121.53704460227273,147.43786901483932L121.90570852272728,148.6471843495965L122.088153125,148.53776010622582L122.22530113636363,149.34227695316076L122.54489375,128.95915725827217L122.94753011363636,127.40905129909515L123.13123295454545,140.11552578707537L123.17652954545456,136.42845130463442L123.22182613636365,128.88740245501202L123.31241931818182,141.7018197874228L123.44705085227272,154.4946535329024L123.75531931818182,133.067485332489L124.14285681818181,149.67767314612865L124.60588863636364,112.36725468436877L124.773234375,100.18775526682536L124.84872869318183,133.22539864977202L124.9770690340909,151.74099665383497L125.20103551136364,151.18863559265932L125.33315056818182,149.99172019710144L125.37844715909091,154.81799705823263L125.41745255681818,139.82608153422672L125.61751249999999,74.61009407043457L126.29444488636364,151.84655475368103L126.72602073863636,149.102729909122L127.01289914772727,140.29336692392826L127.37149715909091,149.95430351793766L127.41805198863636,150.0866960386435L127.85088607954546,79.63604841629665L128.18306107954547,136.8485605120659L128.73039488636363,147.70044807593027L129.06634460227272,134.03516559799513L129.1670036931818,67.96843900283179L129.368321875,141.0717079937458L129.85400198863636,151.95631454636654L129.90558977272727,120.88142438729605L130.06161136363636,156.58384437610707L130.29564375,136.8239687035481L130.38875340909092,146.46291949103275L130.73351079545455,150.4034838974476L130.81403806818182,139.4945749292771L130.97509261363635,152.43276123826703L131.001515625,139.61536389092606L131.02793863636364,152.4084533279141L131.9389034090909,149.3748662645618L132.09618323863637,100.52087221542995L132.28869375,130.42326588431993L132.45352301136364,152.61543084184328L132.56424801136365,121.10570906599364L132.61961051136365,149.52710235118866L132.67623125,116.93086896340053L132.84106051136365,151.1664629628261L132.92284602272727,139.3045353293419L132.97569204545454,154.51614553978047L133.05747755681818,134.67346391578513L133.13800482954545,130.65623088677725L133.21979034090907,152.52554318805537L133.46640511363637,108.8875115811825L133.52176761363637,136.16200463473797L133.84765142045455,139.11756256222725L133.87533267045455,151.41910558814803L133.90301392045455,127.34509178996086L134.2855184659091,141.48042171200117L134.3949852272727,153.9262366568049L134.50319375,121.8837878505389L134.61140227272728,110.26467337210974L134.71961079545454,150.9230475773414L134.77245681818184,145.99663342287144L134.82656107954546,136.24264783163864L135.04423636363634,123.43837170799574L135.098340625,144.00910376509032L135.181384375,150.69183724870285L135.26316988636364,119.72371477882069L135.34243892045455,155.66476674377918L135.47707045454544,125.24750415484111L135.98665710227274,155.80884286450842L136.3125409090909,141.6026407877604L136.34022215909093,148.14895149568716L136.42452414772728,118.5790373782317L136.45220539772728,149.0557610640923L136.50756789772726,156.47542879544199L136.56293039772729,146.92259054879347L136.67365539772726,131.32430517673492L136.78186392045455,152.59123246123394L136.92027017045453,140.90370328724384L136.9768909090909,143.42864008247852L137.17065965909092,135.05051438013714L137.39462613636363,156.11956748273224L137.506609375,131.60292246937752L137.645015625,152.08990566680828L137.69911988636363,153.25721396381655L137.72554289772728,149.81258301933607L138.14579460227273,100.08217298984529L138.23135482954547,157.0461884266697L138.31565681818182,144.62511076529822L138.34459630681818,146.75342900305986L138.45657954545453,119.40926843881607L138.5132002840909,88.11519497632982L138.65160653409092,148.78659922877947L138.87179829545457,144.12671599785486L138.90073778409092,144.4963917036851L139.0089463068182,134.06898134946823L139.06556704545454,145.09066419303417L139.12344602272728,119.00578870375952L139.24172045454546,154.6200566639503L139.51601647727273,145.01287975907326L139.57263721590908,111.40854193766913L139.62674147727273,133.48308000961939L139.65442272727273,128.43958039085072L139.76766420454547,131.75631979107857L139.84819147727274,152.33746486653885L140.06838323863636,111.99047822753589L140.1816247159091,156.27546722938618L140.57293693181816,106.91824738184611L140.68492017045455,142.53156144420308L140.74154090909093,153.460518018653L140.88120539772726,142.56920450925827L140.90888664772726,151.12916277348995L140.9642491477273,104.61661938826244L141.02086988636364,140.80096805095673L141.049809375,147.76010845104852L141.10643011363638,147.75921682765087L141.1630508522727,122.8399744530519L141.1919903409091,145.55210164686045L141.39079204545456,153.83304845790067L141.47509403409092,153.47614816948771L141.59588494318183,116.6135155061881L142.15454289772728,140.51013324658075L142.44142130681817,146.630337352554L142.61631647727273,150.10586777329445L142.7069096590909,131.95366088549298L142.7899534090909,150.3623981550336L142.87803011363636,151.93177951748171L142.904453125,148.61269749949375L142.93087613636365,142.82210319240886L143.20768863636363,154.28694923967123L143.24543579545454,126.12989042202632L143.27311704545454,126.18437542517981L143.32470482954545,143.96903566022712L143.6581380681818,137.5976868122816L143.6870775568182,111.89061640699704L143.74118181818181,152.64721205085516L143.96892301136364,152.93973522509137L144.2356696022727,152.1142582682272L144.717575,102.25798610846202L145.1114036931818,156.80080461952215L145.22212869318182,152.35384047900638L145.24980994318182,137.1164094557365L145.30517244318182,134.0152319173018L145.52788068181817,136.67815127968788L145.58198494318182,130.58857886989912L145.69396818181818,120.30473380287489L145.9594565340909,149.05008969455957L146.170840625,133.77344885468483L146.19978011363636,138.9704937885205L146.4828838068182,139.97424926857155L146.6930096590909,154.9534368136277L146.85783892045453,119.22105897466344L146.88552017045453,153.94084514056644L146.9421409090909,129.61459789673486L146.99876164772726,112.01677415768306L147.13716789772727,145.42754837870598L147.84807272727272,139.0442311167717L147.8770122159091,119.20763700207075L148.16137414772726,150.55091166496277L148.2167366477273,148.92557305842638L148.32997812500003,152.61480663220087L148.357659375,143.59736277659735L148.67096079545456,131.59458209077516L148.75777926136365,149.12676564355692L148.9314161931818,151.42727416257063L149.07485539772728,154.93633900086084L149.13273437499998,152.58513469497362L149.18935511363637,138.813547556599L149.24849232954546,137.49249576528865L149.5026565340909,153.75018865739307L149.6146397727273,140.02647627393404L149.72788125000002,114.72582935293516L149.78324375,139.58592786391577L149.8700622159091,125.5474412838618L150.12422642045456,127.45528970162074L150.1531659090909,119.90550924340884L150.4375278409091,140.12953533728918L150.49540681818183,145.34556957830986L150.84268068181817,109.25913611054422L150.87162017045455,151.41114435096583L150.89301022727273,152.86849546805024L151.00750994318184,135.8256376932065L151.11697670454546,122.94397129615149L151.291871875,147.0061723664403L151.7800684659091,151.65748700127006L151.86562869318183,155.52342611923814L151.95496363636363,123.79943742354712L151.983903125,113.46445698539416L152.21793551136363,144.33217328290144L152.39157244318181,142.9368346830209L152.5639511363636,151.18657687306404L152.703615625,141.3254506786664L153.24591647727274,152.76845891276994L153.35789971590907,137.60760676364103L153.41452045454545,104.01165181398392L153.5554431818182,143.31841579576331L153.69762414772725,124.2574871480465L154.03483210227273,146.11067110300064L154.2021778409091,150.48555720845857L154.57964943181818,135.51008506615958L154.87785198863637,150.0229380056262L154.90175852272728,122.23151951034865L154.98606051136363,122.78796284397444L155.15843920454546,141.8659664094448L155.35220795454546,143.88102063536644L155.38618039772726,146.4835242703557L155.41511988636364,128.02989079554874L155.444059375,152.07505541170636L155.471740625,120.07409273584685L155.7271630681818,141.05033394197622L156.36131534090907,141.50003449618816L156.38899659090907,135.2853842477004L156.41667784090907,149.192013134559L156.60918835227272,136.64362340172133L156.93003920454544,133.69451417525607L156.98540170454547,118.72883597016335L157.3150602272727,117.32863996426265L157.3439997159091,155.455953232944L157.42578522727274,99.65436373154323L157.48618068181818,153.63745764146248L157.51512017045454,142.63253980875015L157.57048267045457,142.2102209577958L158.10020113636364,124.02735306819281L158.32668409090908,108.74918027718863L158.40846960227273,145.40024287005267L158.65760085227274,149.90377477308115L158.682765625,152.75958040977517L158.90421562499998,149.4491809134682L158.931896875,150.61129735410213L159.09924261363636,152.47228169441223L159.18102812499998,119.33476476867995L159.347115625,148.96290255337954L159.40121988636363,144.78809688488641L159.45532414772728,153.0953473187983L159.9183559659091,150.24401664982238L159.97246022727273,140.88365824520588L160.00014147727273,149.26464490840831L160.02656448863638,153.1686630124847L160.32099232954548,145.39100720485052L160.5864806818182,151.6444635850688L160.80289772727272,150.3031524543961L161.26341306818182,141.8838662803173L161.44837414772726,149.19483673075834L161.4747971590909,145.17081359028816L161.5515497159091,131.33434821168584L161.99444971590907,151.765693962574L162.10391647727272,136.64818775157133L162.24232272727272,110.8474184970061L162.29768522727272,136.71691088875133L162.35178948863637,91.24249700705211L162.40715198863634,134.04947113494077L162.46125625,151.79827374964952L162.57198125000002,148.15252165247998L162.5984042613636,151.89242207383117L162.68522272727273,152.69802103067437L162.84250255681818,131.32196658849716L162.89786505681818,118.64166055123012L162.97839232954544,91.35464374224345L163.19355113636365,146.53589560588202L163.2564630681818,140.35015095273653L163.28540255681818,150.66354194283485L163.30301789772727,153.5320574256281L163.52824261363637,152.14119855562845L163.95981846590908,147.11816378186145L164.01643920454546,145.40665786961713L164.07809289772726,135.80705353617668L164.13471363636364,128.83779976765314L164.4580809659091,140.42311607797942L164.578871875,136.47461058199406L164.96515113636363,137.18231778840226L165.08468380681816,149.15905750294527L165.658440625,151.97748529041806L166.11266477272727,145.6972809409102L166.14789545454548,142.6777114868164L166.3580213068182,95.87513480583827L166.39199374999998,139.9705772747596L166.46245511363637,126.56467734773955L166.5681471590909,151.14468522618213L166.74052585227273,151.0180300126473L166.876415625,92.23703587055206L166.94687698863638,125.26579965154332L167.5030184659091,146.98493898163238L167.88552301136363,146.61318111171326L168.13087954545452,147.31675183027983L168.16485198863637,105.6870246330897L168.398884375,150.09218498071036L168.50457642045455,138.28233928978443L169.3324974431818,147.0166344717145L169.43441477272728,152.7570883333683L169.672221875,141.49979125956693L169.77539744318182,146.39303731669983L169.81062812500002,149.03496872882047L169.87857301136364,155.76157528534532L169.9112872159091,128.9086988468965L170.15161079545456,153.39056990668178L170.58696136363636,157.0310156266205L170.75430710227272,146.22298121700683L171.0600590909091,147.94792009145021L171.12422926136364,155.7051196626077L171.19343238636364,148.38457744816938L171.42872301136364,140.02529818813008L171.87288125,135.21164398888746L171.9383096590909,139.62578496833643L172.1396278409091,135.66513815522194L172.41266562500002,153.24112224951386L172.61272556818182,140.85841292142868L172.6466980113636,148.67821680009365L172.8115272727273,124.16722291707993L172.98138948863635,137.21993594368297L173.21668011363636,141.56030882398287L173.47965198863636,150.2669197221597L173.60925056818184,148.3339160953959L173.74136562500001,139.13367772102356L174.1641338068182,147.10759397844473L174.23082045454544,152.45546210184693L174.29750710227273,132.13012172778448L174.39690795454544,137.02553420265517L174.56047897727274,155.67464493463436L175.11284573863637,146.05018577476343L175.277675,123.45730020602545L175.8765965909091,134.6604185203711L176.01248636363636,150.5567442153891L176.11314545454545,151.0602454865972L176.28426590909092,149.5977039784193L176.52207301136363,130.5362829963366L176.6554463068182,137.90840840836367L176.7246494318182,108.30977771679561L176.9070940340909,144.29494489232698L176.92722585227273,149.71376740932465L177.0756980113636,152.1599292407433L177.28708210227273,122.21308920780818L177.47330142045456,156.53691472734013L177.56389460227274,149.91307857384285L177.75011392045454,112.43168601393701L178.08983835227272,153.2391155473888L178.15275028409093,143.94810558855534L178.4585022727273,136.86190335949263L178.5516119318182,154.05042800058922L178.613265625,132.66433382034302L178.76677073863635,135.60400663812956L179.24867613636363,130.4481551448504L179.31032982954545,140.5020141253869L179.4952909090909,145.09341892103353L179.61482357954546,136.15896564225358L179.67899375,136.67591965695223L180.10679488636364,144.48158064484596L180.48300823863636,110.9657252728939L180.64028806818183,151.83777625610432L181.02027613636363,133.9682330340147L181.0529903409091,143.879189034303L181.24550085227273,143.5225264877081L181.27695681818182,144.0354407231013L181.71230738636365,155.57790672654906L181.83435653409092,128.95817258954048L181.8972684659091,115.59252246220908L181.9601803977273,155.21760442232093L182.05329005681818,127.33518942197165L182.14514147727272,146.9206988712152L182.4295034090909,125.69922386606535L182.61194801136364,154.1774656524261L182.67611818181817,150.38072662055492L183.02716676136365,124.56856627265613L183.05862272727273,129.4530917108059L183.24861676136362,146.3240833977858L183.46755028409092,143.51740679641566L184.22249346590908,151.89969829221567L184.4150039772727,150.84069000184536L184.4615588068182,127.03265581528346L185.12842528409092,148.92107244829336L185.22405142045454,154.5220828577876L185.35490823863637,135.46675817668438L185.38762244318184,153.63607258473834L185.41278721590908,151.1753308425347L185.60403948863635,121.2261170546214L185.70092386363638,120.1066073179245L185.7650940340909,141.97805013755956L186.05448892045456,144.3861439724763L186.27719715909092,125.97828367352486L186.4294440340909,148.87965921560922L186.68486647727275,119.21823684374493L186.81069034090908,153.32941457877556L186.94028892045455,126.77572760979335L187.35550767045453,148.23501989493766L187.41841960227273,146.7299295614163L187.50775454545456,147.0116173500816L187.88774261363636,130.44889364639917L188.0148247159091,136.8409351905187L188.17210454545454,124.27717466155688L188.23375823863637,148.59896049151817L188.54831789772726,146.01195733000836L188.606196875,150.89772532631955L188.6678505681818,153.6784023505946L189.06419573863636,105.83698147535324L189.56119999999999,151.73097962761918L189.71093039772725,153.73830486337343L189.92860568181817,140.77450507879257L190.68229062499998,133.18695847193402L190.71123011363636,150.30758859217167L190.74268607954548,149.1056707277894L190.9553284090909,150.20534715553126L191.25478920454543,146.30143748223782L191.49762926136364,150.31252512335777L191.67755738636365,144.80240974823633L191.70775511363635,123.95529934763908L191.82980426136362,147.3729900419712L192.16575397727271,133.87602291007838L192.34819857954545,149.1881169527769L192.5331596590909,144.2700717498859L192.6275275568182,141.9275404413541L193.0968505681818,137.5521004597346L193.22141619318182,139.47057949006557L193.56239886363636,149.51676699270806L193.7171622159091,125.05689163009326L193.87066732954546,147.60110569745302L193.99145823863634,138.28254149854183L194.02291420454543,155.53790126244226L194.36389687500002,146.89164015402397L194.39409460227273,154.56018638735017L194.73507727272727,143.48055937886238L194.79798920454544,149.05203265696764L194.82944517045453,141.8366563965877L195.04334573863636,140.1603824297587L195.10625767045454,135.52044167121252L195.13771363636363,155.33779719782373L195.16791136363636,153.76037272562584L195.19936732954545,145.74180276691914L195.38307017045454,101.81063000361125L196.06000255681818,140.49127947787446L196.57462215909092,143.02193086842695L196.72812727272725,146.20906178156534L196.75958323863634,122.28290397922198L196.81997869318184,145.18257173647484L197.06407698863634,151.39582300807038L197.4327409090909,120.54442737499875L198.83567698863638,151.9534279430906L199.2609616477273,128.40025225281715L199.28990113636365,142.21455232799053L199.62585085227272,124.25615081191063L199.65604857954546,155.27630210792026L199.71896051136363,126.96396344900131L199.77809772727272,131.26697459816933L199.872465625,148.0655997271339L199.900146875,129.36424001057944L199.96054232954546,152.56412769605717L200.65634829545453,150.6474143291513L200.80733693181818,147.22920862585306L200.9004465909091,151.57328170662126L200.99103977272728,150.26040215293565L201.14454488636366,153.5790299338599L201.477978125,150.46754817416272L201.754790625,140.55840692420801L201.84664204545453,134.24538211524487L201.8755815340909,122.63705356915793L202.15239403409092,149.08835550397635L202.33106392045454,125.83729141950607L202.834359375,152.48426036536694L203.01932045454546,139.21622431774932L203.14388607954544,148.95844370375076L203.24077045454544,146.46622589727244L203.42950625,152.83606037745872L203.49241818181818,151.269590528061L203.7830713068182,139.1516918838024L203.90134573863637,145.0674761235714L204.09888920454546,134.7727161794901L204.26246022727275,155.46242153209946L204.45119602272726,150.3741204018394L204.730525,148.83031588296095L204.95071676136362,155.96598782514533L205.07528238636365,154.87008815879622L205.35461136363637,152.80292048677802L205.82645085227273,149.82268979400396L206.0428678977273,122.21633920073509L206.13346107954547,136.60414140919843L206.19637301136365,152.91519067188105L206.22782897727274,128.4263342519601L206.34987812499998,130.0343422492345L206.38133409090906,139.47479949891567L206.78145397727275,148.95610804607472L206.9689315340909,123.3831599255403L207.00038750000002,144.03779689470926L207.0519752840909,149.47010585665703L207.2319034090909,148.08652760088444L207.3149471590909,139.49355948964754L207.49739176136362,149.19473269581795L207.6156661931818,144.52861322959265L207.82705028409092,114.71894253293675L208.12273636363636,145.86866824825606L208.30518096590907,154.02731319516897L208.42723011363637,130.62986169258753L208.50649914772728,149.9826405843099L208.73675681818182,149.92167244603237L208.785828125,154.07823280369243L209.18217329545456,135.70418056348961L209.30296420454545,121.26057459910712L209.33442017045454,155.16520231589675L209.865396875,153.16328872864446L209.893078125,147.51499993354082L209.97360539772728,119.54078032573065L210.197571875,116.99211770296097L210.23909375,148.63634859770536L210.47564261363638,144.9579478452603L210.52848863636362,144.5531581491232L210.55868636363635,149.35103860000768L210.86318011363636,134.8206337938706L210.89463607954545,152.30928605049849L211.19535511363637,133.59905698895454L211.29098125,155.54029003654918L211.58792556818182,153.2887021166583L211.68355170454547,150.32514045884213L211.74268892045455,143.7946599125862L211.80560085227273,149.2274868513147L212.1176440340909,149.6418484946092L212.63855482954546,155.00777730345726L212.79331818181817,154.33858372208974L213.0864877840909,154.3167290582011L213.2739653409091,109.50346583127975L213.49038238636365,119.16494457920393L213.6753434659091,156.41227757185698L213.73699715909092,153.55926732470593L213.8590463068182,155.68336848417917L214.0767215909091,149.3495887046059L214.1081775568182,155.20259719900787L214.13711704545454,155.06016622235379L214.4567096590909,138.52306588490805L215.1172849431818,154.38907235488296L215.26953181818183,152.6814563969771L215.429328125,132.9029196401437L215.61428920454546,151.18966898197928L215.92129943181817,153.0619099761049L216.0773210227273,139.9868624061346L216.2635403409091,115.17372468113899L216.38936420454547,153.8037919277946L216.41956193181818,151.13016209503016L216.66995142045454,148.12216249853373L216.76683579545454,130.6030617058277L216.7957752840909,112.53820900122325L216.86120369318184,148.40925204505524L216.95431335227272,146.13809163620076L216.98451107954546,151.78856809561452L217.01848352272728,138.41561684012413L217.17073039772728,133.37371730804443L217.2349005681818,138.24569554626942L217.32675198863637,153.58680654565492L217.35820795454546,151.66223780810833L217.38966392045455,152.71158953135213L217.41734517045455,140.58121255536872L217.48151534090908,144.8009473979473L217.57588323863635,147.07502371569475L217.60608096590911,146.53108948469162L217.7998497159091,138.5840523391962L217.9860690340909,154.70037218742073L218.04772272727274,152.96770853549242L218.14083238636363,148.18543918679157L218.501946875,141.30455870429674L218.7473034090909,153.18148715049028L218.8039241477273,141.79637289543948L218.9901434659091,154.89870472749075L219.2040440340909,143.49584372341633L219.35503267045453,153.2858829163015L219.57522443181819,147.64832070966563L219.98792670454543,120.57141784826915L220.17540426136364,127.23852777481079L220.232025,146.2096728036801L220.73532045454544,132.92883020142713L220.82717187499998,153.70498840635022L220.89260028409092,146.57399364064136L220.92405625,118.6854929625988L221.50536250000002,145.4669966697693L221.782175,130.08695169289908L222.1458059659091,156.5255231761063L222.2288497159091,113.72620303432147L222.321959375,153.80762473617992L222.71452982954546,131.50530252854028L222.95736988636364,138.0807943046093L223.20020994318182,150.28368253509203L223.23040767045455,154.57355469403169L223.32100085227273,145.7472492158413L223.38139630681817,138.09329168498516L223.39397869318182,156.7847665711306L223.80290625,153.4925197524329L224.04700454545454,138.06614442666373L224.49871221590908,153.90967531998953L224.7138710227273,147.22487798829874L224.89379914772726,128.7906470298767L224.98439232954544,139.7765345275402L225.19955113636365,151.93234768013158L225.5958963068182,132.78803722560406L225.65251704545454,152.9162471393744L225.68019829545455,155.49535390237966L225.71165426136366,141.2193731367588L225.88906590909093,145.23843630154929L226.03753806818182,153.66351399819055L226.42130085227274,130.0401711364587L226.90572272727275,152.32993991672993L227.11207386363637,134.80513698359331L227.2630625,139.41438157359758L227.28822727272728,148.60306767374277L227.46312244318185,145.57251740495363L227.72106136363635,148.96206514537334L227.84562698863638,142.66299567123252L227.88966534090906,133.65146861970425L228.07462642045454,152.53098450849453L228.15263721590907,123.85720758636793L228.29985113636363,149.07339571913084L228.83837727272729,153.12630210941037L228.98559119318182,152.33235799645385L229.1567116477273,155.01317668023208L229.35048039772727,152.38028769940138L229.47001306818183,141.3743778715531L229.55934801136362,155.07659055540958L229.98463267045454,153.68169923250875L230.21992329545455,152.82381026322642L230.3331647727273,131.06082716584206L230.36210426136364,145.03603998819986L230.89182272727274,154.7469767269989L230.96605880681818,125.40772089362144L230.9924818181818,143.94641905029613L231.0478443181818,155.64772442852458L231.10823977272727,124.38152610262236L231.13969573863636,153.10150699317455L231.25671193181816,137.1203613181909L231.2869096590909,149.9942294905583L231.61405170454546,151.29255367691317L231.76755681818182,141.8614079207182L231.88331477272726,140.6879084457954L232.5262747159091,155.44761322066188L232.86348267045454,150.40532355755568L233.07360852272728,150.42108045518398L233.22585539772726,155.5156698382149L233.27115198863635,152.76112408315143L233.30009147727273,140.73062870899835L233.74550795454547,148.76968182871738L233.7958375,132.49100574851036L234.54826420454546,156.11611115994552L234.69925284090908,157.0848232579107L235.25791079545453,153.59490954875946L235.30949857954545,147.02212780962387L235.41267414772727,129.30540019273758L235.46426193181816,151.3914271655182L235.97259034090908,146.66167824467024L236.32741363636364,143.18779626488686L236.5325065340909,139.92626425127187L236.74011590909092,155.10094242418805L237.2044059659091,155.79232292187712L237.46234488636364,157.21835236720895L237.56552045454544,151.77277163540325L237.6674377840909,144.99210940301418L238.1292113636364,155.12079807867607L238.3783426136364,128.90475431084633L238.6186661931818,151.04032206286988L239.31573039772726,154.62026876335344L239.36605994318182,132.7899904449781L239.4667190340909,145.68591109414896L239.719625,149.84541556735834L240.16504147727272,155.25383019447327L240.45443636363638,142.39058237771192L241.0936215909091,151.20789084831873L241.53400511363637,153.59037706876794L241.6334059659091,138.25092806418738L241.82843295454546,156.64210266061127L241.87750426136364,155.11456660553813L242.07756420454547,149.34401550889015L242.377025,129.61878859996796L242.67648579545457,154.82751735424003L242.92813352272728,155.75788845556477L243.0753474431818,155.02978966819742L243.17474829545452,155.4010345066587L243.71704914772727,154.16840911780795L243.91585085227274,151.22605153918266L244.35875085227272,129.25705764691034L244.55503607954543,143.5438902825117L244.7513213068182,128.26185354590416L244.99793607954544,154.72140354663134L245.04700738636365,145.13101656238237L245.24329261363636,151.02790600558123L245.59056647727274,153.61244712894162L245.83718125,156.8593234034876L245.93658210227272,157.18462223163806L246.03849943181817,155.79505970018604L246.08757073863634,153.9776815685133L246.53550369318182,151.23133680721125L246.5870914772727,151.14918583631516L246.6361627840909,152.79837481925884L246.93562357954545,141.45701531569165L247.53077045454546,152.48603188991547L247.78367642045455,141.48980537056923L248.18253806818183,156.79449168592691L248.28445539772727,154.69467371019223L248.78020142045455,156.63009106662744L248.8783440340909,123.81452688574791L249.6320289772727,137.33916584650675L250.19194517045457,136.30115942656994L250.29512073863634,146.67683364450932L250.49643892045455,155.80443337652832L250.59961448863635,119.57548403739929L251.10794289772727,156.8685414395295L251.25893153409092,145.25651640196642L251.66660085227272,153.96925876786312L252.32465965909088,151.50117157275477L252.42657698863636,153.38445126016936L252.98271846590907,153.93993300323686L253.3350252840909,153.96801364546022L253.48601392045452,154.49387290452918L253.67978267045456,147.275566448768L253.92513920454545,147.97471641500792L254.36426448863637,154.93433486297727L254.8990159090909,153.11998198678097L255.22364147727274,146.5253353267908L255.5595911931818,156.30278207920492L255.79614005681816,154.04473282024264" style="fill: none;" fill="none"></path></g></g></g></g></g></g><g transform="translate(53, 177)" clip-path="url(#clip_1)"><clipPath id="clip_1"><rect width="276" height="22"></rect></clipPath><g><g><line x1="0" y1="0" x2="0" y2="5" style="visibility: inherit;" fill="rgb(0, 0, 0)" stroke="rgb(204, 204, 204)" stroke-width="1px"></line><line x1="25.164772727272727" y1="0" x2="25.164772727272727" y2="5" style="visibility: inherit;" fill="rgb(0, 0, 0)" stroke="rgb(204, 204, 204)" stroke-width="1px"></line><line x1="50.32954545454545" y1="0" x2="50.32954545454545" y2="5" style="visibility: inherit;" fill="rgb(0, 0, 0)" stroke="rgb(204, 204, 204)" stroke-width="1px"></line><line x1="75.49431818181817" y1="0" x2="75.49431818181817" y2="5" style="visibility: inherit;" fill="rgb(0, 0, 0)" stroke="rgb(204, 204, 204)" stroke-width="1px"></line><line x1="100.6590909090909" y1="0" x2="100.6590909090909" y2="5" style="visibility: inherit;" fill="rgb(0, 0, 0)" stroke="rgb(204, 204, 204)" stroke-width="1px"></line><line x1="125.82386363636363" y1="0" x2="125.82386363636363" y2="5" style="visibility: inherit;" fill="rgb(0, 0, 0)" stroke="rgb(204, 204, 204)" stroke-width="1px"></line><line x1="150.98863636363635" y1="0" x2="150.98863636363635" y2="5" style="visibility: inherit;" fill="rgb(0, 0, 0)" stroke="rgb(204, 204, 204)" stroke-width="1px"></line><line x1="176.1534090909091" y1="0" x2="176.1534090909091" y2="5" style="visibility: inherit;" fill="rgb(0, 0, 0)" stroke="rgb(204, 204, 204)" stroke-width="1px"></line><line x1="201.3181818181818" y1="0" x2="201.3181818181818" y2="5" style="visibility: inherit;" fill="rgb(0, 0, 0)" stroke="rgb(204, 204, 204)" stroke-width="1px"></line><line x1="226.48295454545456" y1="0" x2="226.48295454545456" y2="5" style="visibility: inherit;" fill="rgb(0, 0, 0)" stroke="rgb(204, 204, 204)" stroke-width="1px"></line><line x1="251.64772727272725" y1="0" x2="251.64772727272725" y2="5" style="visibility: inherit;" fill="rgb(0, 0, 0)" stroke="rgb(204, 204, 204)" stroke-width="1px"></line><line x1="276.8125" y1="0" x2="276.8125" y2="5" style="visibility: inherit;" fill="rgb(0, 0, 0)" stroke="rgb(204, 204, 204)" stroke-width="1px"></line></g><g transform="translate(0, 8)"><text x="0" y="0" dx="0em" dy="0.95em" style="text-anchor: middle; visibility: hidden; font-family: &quot;Helvetica Neue&quot;, sans-serif; font-size: 13.3333px; font-weight: 200;" fill="rgb(50, 49, 63)" stroke="none" stroke-width="1px">-20k</text><text x="25.164772727272727" y="0" dx="0em" dy="0.95em" style="text-anchor: middle; visibility: inherit; font-family: &quot;Helvetica Neue&quot;, sans-serif; font-size: 13.3333px; font-weight: 200;" fill="rgb(50, 49, 63)" stroke="none" stroke-width="1px">0</text><text x="50.32954545454545" y="0" dx="0em" dy="0.95em" style="text-anchor: middle; visibility: hidden; font-family: &quot;Helvetica Neue&quot;, sans-serif; font-size: 13.3333px; font-weight: 200;" fill="rgb(50, 49, 63)" stroke="none" stroke-width="1px">20k</text><text x="75.49431818181817" y="0" dx="0em" dy="0.95em" style="text-anchor: middle; visibility: inherit; font-family: &quot;Helvetica Neue&quot;, sans-serif; font-size: 13.3333px; font-weight: 200;" fill="rgb(50, 49, 63)" stroke="none" stroke-width="1px">40k</text><text x="100.6590909090909" y="0" dx="0em" dy="0.95em" style="text-anchor: middle; visibility: hidden; font-family: &quot;Helvetica Neue&quot;, sans-serif; font-size: 13.3333px; font-weight: 200;" fill="rgb(50, 49, 63)" stroke="none" stroke-width="1px">60k</text><text x="125.82386363636363" y="0" dx="0em" dy="0.95em" style="text-anchor: middle; visibility: inherit; font-family: &quot;Helvetica Neue&quot;, sans-serif; font-size: 13.3333px; font-weight: 200;" fill="rgb(50, 49, 63)" stroke="none" stroke-width="1px">80k</text><text x="150.98863636363635" y="0" dx="0em" dy="0.95em" style="text-anchor: middle; visibility: hidden; font-family: &quot;Helvetica Neue&quot;, sans-serif; font-size: 13.3333px; font-weight: 200;" fill="rgb(50, 49, 63)" stroke="none" stroke-width="1px">100k</text><text x="176.1534090909091" y="0" dx="0em" dy="0.95em" style="text-anchor: middle; visibility: inherit; font-family: &quot;Helvetica Neue&quot;, sans-serif; font-size: 13.3333px; font-weight: 200;" fill="rgb(50, 49, 63)" stroke="none" stroke-width="1px">120k</text><text x="201.3181818181818" y="0" dx="0em" dy="0.95em" style="text-anchor: middle; visibility: hidden; font-family: &quot;Helvetica Neue&quot;, sans-serif; font-size: 13.3333px; font-weight: 200;" fill="rgb(50, 49, 63)" stroke="none" stroke-width="1px">140k</text><text x="226.48295454545456" y="0" dx="0em" dy="0.95em" style="text-anchor: middle; visibility: inherit; font-family: &quot;Helvetica Neue&quot;, sans-serif; font-size: 13.3333px; font-weight: 200;" fill="rgb(50, 49, 63)" stroke="none" stroke-width="1px">160k</text><text x="251.64772727272725" y="0" dx="0em" dy="0.95em" style="text-anchor: middle; visibility: hidden; font-family: &quot;Helvetica Neue&quot;, sans-serif; font-size: 13.3333px; font-weight: 200;" fill="rgb(50, 49, 63)" stroke="none" stroke-width="1px">180k</text><text x="276.8125" y="0" dx="0em" dy="0.95em" style="text-anchor: middle; visibility: hidden; font-family: &quot;Helvetica Neue&quot;, sans-serif; font-size: 13.3333px; font-weight: 200;" fill="rgb(50, 49, 63)" stroke="none" stroke-width="1px">200k</text></g><line x1="0" y1="0" x2="276.8125" y2="0" fill="rgb(0, 0, 0)" stroke="rgb(204, 204, 204)" stroke-width="1px"></line></g></g></g></g></svg>